<svg xmlns="http://www.w3.org/2000/svg" viewBox="0 0 512 512" style="height: 512px; width: 512px;"><defs><filter id="shadow-1" height="300%" width="300%" x="-100%" y="-100%"><feFlood flood-color="rgba(0, 0, 0, 0.46)" result="flood"></feFlood><feComposite in="flood" in2="SourceGraphic" operator="atop" result="composite"></feComposite><feGaussianBlur in="composite" stdDeviation="15" result="blur"></feGaussianBlur><feOffset dx="0" dy="0" result="offset"></feOffset><feComposite in="SourceGraphic" in2="offset" operator="over"></feComposite></filter><radialGradient id="lorc-aerodynamic-harpoon-gradient-1"><stop offset="0%" stop-color="#204231" stop-opacity="0.33"></stop><stop offset="100%" stop-color="#204231" stop-opacity="1"></stop></radialGradient></defs><g class="" transform="translate(0,0)" style=""><path d="M18.285 16.297v20.52L127.088 163.57c35.955 91.222 6.358 156.645-59.43 178.098l111.852 34.758c6.88-3.465 12.225-7.756 17.69-12.64 38.677-34.554 39.72-103.556-23.38-190.208 98.413 71.66 174.565 60.578 202.85 5.686L342.545 66.78c-21.29 65.28-86.246 95.3-176.545 60.794L36.908 16.297H18.285zM401.998 221.48c-18.06 55.37-84.184 71.942-172.205 7.846 64.098 88.022 47.94 153.736-7.432 171.79l73.095 22.714c4.504-2.256 8.003-5.05 11.566-8.252l-.002-.006c25.274-22.58 25.955-67.676-15.28-124.302 64.31 46.833 114.076 39.59 132.56 3.716L402 221.48zm41.68 114.366c-10.75 32.968-50 42.71-102.408 4.545 38.163 52.41 28.42 91.66-4.55 102.41l153.8 46.843-46.84-153.797h-.002z" fill="url(#lorc-aerodynamic-harpoon-gradient-1)" stroke="#000000" stroke-opacity="0.78" stroke-width="4" filter="url(#shadow-1)"></path></g></svg>