<svg xmlns="http://www.w3.org/2000/svg" viewBox="0 0 512 512" style="height: 512px; width: 512px;"><defs><filter id="shadow-1" height="300%" width="300%" x="-100%" y="-100%"><feFlood flood-color="rgba(0, 0, 0, 0.46)" result="flood"></feFlood><feComposite in="flood" in2="SourceGraphic" operator="atop" result="composite"></feComposite><feGaussianBlur in="composite" stdDeviation="15" result="blur"></feGaussianBlur><feOffset dx="0" dy="0" result="offset"></feOffset><feComposite in="SourceGraphic" in2="offset" operator="over"></feComposite></filter><radialGradient id="delapouite-american-shield-gradient-1"><stop offset="0%" stop-color="#820a0a" stop-opacity="0.33"></stop><stop offset="100%" stop-color="#820a0a" stop-opacity="1"></stop></radialGradient></defs><g class="" transform="translate(0,0)" style=""><path d="M256 32A224 224 0 0 0 32 256a224 224 0 0 0 224 224 224 224 0 0 0 224-224A224 224 0 0 0 256 32zm0 40a184 184 0 0 1 184 184 184 184 0 0 1-184 184A184 184 0 0 1 72 256 184 184 0 0 1 256 72zm0 48a136 136 0 0 0-136 136 136 136 0 0 0 136 136 136 136 0 0 0 136-136 136 136 0 0 0-136-136zm-.994 47.834c9.848-.197 19.708 1.524 29.002 4.752 26.805 8.13 47.273 30.513 55.82 56.678l-63.05-1.285L256 168.202l-20.777 59.776-63.27 1.288L222.38 267.5l-18.02 59.563c-20.54-15.486-34.84-39.655-36.673-65.24-4.02-48.442 39.505-94.682 87.32-93.99zm84.87 61.564c3.95 12.16 5.334 25.13 3.57 37.866-2.29 24.324-16.34 45.71-35.82 59.754L289.618 267.5l50.255-38.102zM256 291.926l51.04 35.515c-15.884 11.27-35.293 17.685-54.886 16.857-17.256-.38-33.59-6.7-47.234-16.826L256 291.927z" fill="url(#delapouite-american-shield-gradient-1)" stroke="#000000" stroke-opacity="0.78" stroke-width="4" filter="url(#shadow-1)"></path></g></svg>