<svg xmlns="http://www.w3.org/2000/svg" viewBox="0 0 512 512" style="height: 512px; width: 512px;"><defs><filter id="shadow-1" height="300%" width="300%" x="-100%" y="-100%"><feFlood flood-color="rgba(0, 0, 0, 0.46)" result="flood"></feFlood><feComposite in="flood" in2="SourceGraphic" operator="atop" result="composite"></feComposite><feGaussianBlur in="composite" stdDeviation="15" result="blur"></feGaussianBlur><feOffset dx="0" dy="0" result="offset"></feOffset><feComposite in="SourceGraphic" in2="offset" operator="over"></feComposite></filter><radialGradient id="lorc-anvil-gradient-1"><stop offset="0%" stop-color="#204231" stop-opacity="0.33"></stop><stop offset="100%" stop-color="#204231" stop-opacity="1"></stop></radialGradient></defs><g class="" transform="translate(0,0)" style=""><path d="M128.688 115.594v147.75h285v-147.75h-285zm-111.844 20.47c17.374 47.14 54.372 80.413 94.906 93.81v-93.81H16.844zm414.375 12.31v88.657c21.457-9.083 42.92-25.257 64.374-47.374-21.52-22.562-42.633-35.173-64.375-41.28zm-226.25 132.47c-12.15 38.536-33.897 71.5-60.595 100.47l257.844-.002c-28.705-29.016-49.952-62.054-61.5-100.468H204.97zM101.843 400v43.78h337.562V400H101.844z" fill="url(#lorc-anvil-gradient-1)" stroke="#000000" stroke-opacity="0.78" stroke-width="4" filter="url(#shadow-1)"></path></g></svg>