<svg xmlns="http://www.w3.org/2000/svg" viewBox="0 0 512 512" style="height: 512px; width: 512px;"><defs><filter id="shadow-1" height="300%" width="300%" x="-100%" y="-100%"><feFlood flood-color="rgba(0, 0, 0, 0.46)" result="flood"></feFlood><feComposite in="flood" in2="SourceGraphic" operator="atop" result="composite"></feComposite><feGaussianBlur in="composite" stdDeviation="15" result="blur"></feGaussianBlur><feOffset dx="0" dy="0" result="offset"></feOffset><feComposite in="SourceGraphic" in2="offset" operator="over"></feComposite></filter><radialGradient id="lorc-assassin-pocket-gradient-1"><stop offset="0%" stop-color="#820a0a" stop-opacity="0.33"></stop><stop offset="100%" stop-color="#820a0a" stop-opacity="1"></stop></radialGradient></defs><g class="" transform="translate(0,0)" style=""><path d="m233.56 16.225-15.535 54.302-79.183-12.79-2.98 18.45L212.85 88.62l-14.92 52.163 17.968 5.14 11.028-38.546c92.558 14.84 177.404 26.687 273.004 16.824-78.98-39.333-166.495-51.603-258.832-66.368l10.43-36.467-17.97-5.14zm-68.695 120.443-13.482 12.953 69.644 72.493-59.63 34.428 9.347 16.19 44.098-25.46c83.234 86.485 160.743 164.186 267.683 231.242-48.682-97.16-128.987-177.16-212.025-263.375l40.176-23.198-9.346-16.19-63.625 36.734-72.84-75.816zm-87.11 13.424-17.82 5.646 20.942 66.094-53.99 13.613 4.57 18.125 38.824-9.79c25.36 79.632 50.276 151.825 99.097 222.02 2.31-80.818-23.148-155.34-48.488-234.78l37.794-9.528-4.57-18.125-55.08 13.887-21.28-67.162z" fill="url(#lorc-assassin-pocket-gradient-1)" stroke="#000000" stroke-opacity="0.78" stroke-width="4" filter="url(#shadow-1)"></path></g></svg>