<svg xmlns="http://www.w3.org/2000/svg" viewBox="0 0 512 512" style="height: 512px; width: 512px;"><defs><filter id="shadow-1" height="300%" width="300%" x="-100%" y="-100%"><feFlood flood-color="rgba(0, 0, 0, 0.46)" result="flood"></feFlood><feComposite in="flood" in2="SourceGraphic" operator="atop" result="composite"></feComposite><feGaussianBlur in="composite" stdDeviation="15" result="blur"></feGaussianBlur><feOffset dx="0" dy="0" result="offset"></feOffset><feComposite in="SourceGraphic" in2="offset" operator="over"></feComposite></filter><radialGradient id="delapouite-barn-gradient-1"><stop offset="0%" stop-color="#820a0a" stop-opacity="0.33"></stop><stop offset="100%" stop-color="#820a0a" stop-opacity="1"></stop></radialGradient></defs><g class="" transform="translate(0,0)" style=""><path d="M256 23.38 89.844 89.845l-64.9 162.254 14.85 5.943c20.312-50.766 40.62-101.535 60.93-152.304l1.432-3.58L256 40.616l153.844 61.54 1.43 3.58 60.93 152.305 14.853-5.942-64.9-162.254C366.77 67.69 311.386 45.534 256 23.38zm0 36.624-139.996 55.998L72.8 224h.2v263h78V329h-39v-18h297v176h30V224h.2c-14.402-36-28.802-72-43.204-107.998L256 60.004zM151 135h210v114H151V135zm23.563 18L199 201.873V153h-24.438zM313 153v48.873L337.438 153H313zm-144 29.127V231h24.438L169 182.127zm174 0L318.562 231H343v-48.873zm-98.73 18.69c-1.207-.02-2.31.02-3.288.128-2.823.31-10.76 3.708-16.86 7.3a147.204 147.204 0 0 0-7.122 4.484V231h78v-16.97a282.317 282.317 0 0 0-17.578-6.368c-11.206-3.63-24.71-6.71-33.152-6.846zM160 263h192v18H160v-18zm15.16 66L208 389.205 240.84 329h-65.68zm144 0L352 389.205 384.84 329h-65.68zM169 355.295v105.41L197.748 408 169 355.295zm78 0L218.252 408 247 460.705v-105.41zm66 0v105.41L341.748 408 313 355.295zm78 0L362.252 408 391 460.705v-105.41zm-183 71.5L175.16 487h65.68L208 426.795zm144 0L319.16 487h65.68L352 426.795z" fill="url(#delapouite-barn-gradient-1)" stroke="#000000" stroke-opacity="0.78" stroke-width="4" filter="url(#shadow-1)"></path></g></svg>