<svg xmlns="http://www.w3.org/2000/svg" viewBox="0 0 512 512" style="height: 512px; width: 512px;"><defs><filter id="shadow-1" height="300%" width="300%" x="-100%" y="-100%"><feFlood flood-color="rgba(0, 0, 0, 0.46)" result="flood"></feFlood><feComposite in="flood" in2="SourceGraphic" operator="atop" result="composite"></feComposite><feGaussianBlur in="composite" stdDeviation="15" result="blur"></feGaussianBlur><feOffset dx="0" dy="0" result="offset"></feOffset><feComposite in="SourceGraphic" in2="offset" operator="over"></feComposite></filter><radialGradient id="skoll-bat-gradient-1"><stop offset="0%" stop-color="#820a0a" stop-opacity="0.33"></stop><stop offset="100%" stop-color="#820a0a" stop-opacity="1"></stop></radialGradient></defs><g class="" transform="translate(0,0)" style=""><path d="M362.005 149.115s-7 55.77-79 83.36v-24.69c-2.76-1-4.63 7.88-7.26 9.15h-39.49c-2.63-1.27-4.5-10.11-7.26-9.15v24.69c-72-27.59-79-83.36-79-83.36-60.71 67.68-121.41 80-121.41 80 102.53-16.11 101.36 44.89 101.36 44.89 69.71-11.91 65.64 36.31 65.64 36.31 60.63-6.9 60.41 52.57 60.41 52.57s-.22-59.47 60.41-52.57c0 0-4.07-48.22 65.64-36.31 0 0-1.16-61 101.37-44.88.02.01-60.69-12.33-121.41-80.01z" fill="url(#skoll-bat-gradient-1)" stroke="#000000" stroke-opacity="0.78" stroke-width="4" filter="url(#shadow-1)"></path></g></svg>