<svg xmlns="http://www.w3.org/2000/svg" viewBox="0 0 512 512" style="height: 512px; width: 512px;"><defs><filter id="shadow-1" height="300%" width="300%" x="-100%" y="-100%"><feFlood flood-color="rgba(0, 0, 0, 0.46)" result="flood"></feFlood><feComposite in="flood" in2="SourceGraphic" operator="atop" result="composite"></feComposite><feGaussianBlur in="composite" stdDeviation="15" result="blur"></feGaussianBlur><feOffset dx="0" dy="0" result="offset"></feOffset><feComposite in="SourceGraphic" in2="offset" operator="over"></feComposite></filter><radialGradient id="skoll-big-diamond-ring-gradient-1"><stop offset="0%" stop-color="#820a0a" stop-opacity="0.33"></stop><stop offset="100%" stop-color="#820a0a" stop-opacity="1"></stop></radialGradient></defs><g class="" transform="translate(0,0)" style=""><path d="M201.837 53.087 177.547 21h55.676zM278.766 21l30.82 31.465L333.065 21h-54.298zm12.428 38.12L256 23.18l-35.25 35.985h70.5zm82.091 0-23.511-30.855-23.003 30.9h46.57zM161.096 28.683 138.5 59.188h45.746zm51.248 48.242L256 196.821l43.69-119.896h-87.38zm-73.166 0 90.384 99.017-36.153-99.017h-54.231zm233.712 0h-54.23l-36.076 99.017zm-19.455 48.142-29.059 31.838a154.298 154.298 0 0 1 85.786 138.119C410.14 380.008 340.995 449.197 256 449.197s-154.14-69.144-154.14-154.14a154.298 154.298 0 0 1 85.787-138.119L158.588 125.1a196.044 196.044 0 0 0-98.53 169.924C60.057 403.056 147.955 491 256 491c108.044 0 195.943-87.899 195.943-195.943a196.044 196.044 0 0 0-98.542-169.99z" fill="url(#skoll-big-diamond-ring-gradient-1)" stroke="#000000" stroke-opacity="0.78" stroke-width="4" filter="url(#shadow-1)"></path></g></svg>