<svg xmlns="http://www.w3.org/2000/svg" viewBox="0 0 512 512" style="height: 512px; width: 512px;"><defs><filter id="shadow-1" height="300%" width="300%" x="-100%" y="-100%"><feFlood flood-color="rgba(0, 0, 0, 0.46)" result="flood"></feFlood><feComposite in="flood" in2="SourceGraphic" operator="atop" result="composite"></feComposite><feGaussianBlur in="composite" stdDeviation="15" result="blur"></feGaussianBlur><feOffset dx="0" dy="0" result="offset"></feOffset><feComposite in="SourceGraphic" in2="offset" operator="over"></feComposite></filter><radialGradient id="delapouite-bow-string-gradient-1"><stop offset="0%" stop-color="#820a0a" stop-opacity="0.33"></stop><stop offset="100%" stop-color="#820a0a" stop-opacity="1"></stop></radialGradient></defs><g class="" transform="translate(0,0)" style=""><path d="m114.4 35.99 36.8 85.91c4 2.4 7.9 4.9 11.8 7.5V66.55c-16-11.07-32.2-21.32-48.6-30.56zM181 50.56V160c0 .2.7 2.4 3.4 4.9 2.7 2.5 6.9 5.1 10.9 6.7 3.2 1.3 5.9 1.7 7.7 1.8V64c0-.25-.7-2.39-3.4-4.92s-6.9-5.11-10.9-6.72c-3.2-1.26-5.9-1.69-7.7-1.8zm40 60.54v63.2c48.3 43.4 88.2 95.2 118.7 145 22.3 36.5 39.5 71.9 51.2 102.5 9.9 25.8 16 47.9 17.6 65.2h93.1c-3.4-15.2-13.9-41.6-31-72.9-21.2-38.8-52-85.9-89.7-134.6C336 221.7 281.2 161.7 221 111.1zm-38 74.7V486h18V191.5c-4.2-.3-8.3-1.5-12.3-3.1-1.9-.8-3.8-1.7-5.7-2.6z" fill="url(#delapouite-bow-string-gradient-1)" stroke="#000000" stroke-opacity="0.78" stroke-width="4" filter="url(#shadow-1)"></path></g></svg>