<svg xmlns="http://www.w3.org/2000/svg" viewBox="0 0 512 512" style="height: 512px; width: 512px;"><defs><filter id="shadow-1" height="300%" width="300%" x="-100%" y="-100%"><feFlood flood-color="rgba(0, 0, 0, 0.46)" result="flood"></feFlood><feComposite in="flood" in2="SourceGraphic" operator="atop" result="composite"></feComposite><feGaussianBlur in="composite" stdDeviation="15" result="blur"></feGaussianBlur><feOffset dx="0" dy="0" result="offset"></feOffset><feComposite in="SourceGraphic" in2="offset" operator="over"></feComposite></filter><radialGradient id="skoll-bowie-knife-gradient-1"><stop offset="0%" stop-color="#204231" stop-opacity="0.33"></stop><stop offset="100%" stop-color="#204231" stop-opacity="1"></stop></radialGradient></defs><g class="" transform="translate(0,0)" style=""><path d="M416.833 424.997a51.536 51.536 0 0 0-13.354 22.973l-78.98-78.98 44.972-44.97 78.98 78.978a51.536 51.536 0 0 0-22.974 13.354zm-209.087-202.24-86.28-97.65 97.653 86.277 90.77 80.19 14.927-14.927c-90.534-99.383-137.713-167.87-176.19-212.085 0 0-39.608 13.795-122.627-38.08 0 0 7.062 120.442 252.034 296.948l9.913-9.913zm155.22 82.16a14.43 14.43 0 0 0-20.37-20.37l-57.57 57.567a14.43 14.43 0 0 0 20.37 20.37zM486 429.15a33.746 33.746 0 0 0-47.722 0l-8.646 8.647a33.746 33.746 0 0 0 0 47.722z" fill="url(#skoll-bowie-knife-gradient-1)" stroke="#000000" stroke-opacity="0.78" stroke-width="4" filter="url(#shadow-1)"></path></g></svg>