<svg xmlns="http://www.w3.org/2000/svg" viewBox="0 0 512 512" style="height: 512px; width: 512px;"><defs><filter id="shadow-1" height="300%" width="300%" x="-100%" y="-100%"><feFlood flood-color="rgba(0, 0, 0, 0.46)" result="flood"></feFlood><feComposite in="flood" in2="SourceGraphic" operator="atop" result="composite"></feComposite><feGaussianBlur in="composite" stdDeviation="15" result="blur"></feGaussianBlur><feOffset dx="0" dy="0" result="offset"></feOffset><feComposite in="SourceGraphic" in2="offset" operator="over"></feComposite></filter><radialGradient id="delapouite-brute-gradient-1"><stop offset="0%" stop-color="#820a0a" stop-opacity="0.33"></stop><stop offset="100%" stop-color="#820a0a" stop-opacity="1"></stop></radialGradient></defs><g class="" transform="translate(0,0)" style=""><path d="M448 36c-29.4 44.05-63.2 65.7-126.3 64.8A79.99 75.99 0 0 0 256 68.01a79.99 75.99 0 0 0-65.8 32.79c-63 .9-96.85-20.77-126.2-64.8-30.29 45.43 21.04 110.9 112.2 112.4a79.99 75.99 0 0 0 8.1 29.2C44.84 197.1 16.82 388.1 32 464h80c0-48 16-112 64-144l-16 144c0 16 64 16 64 0 0-32 16-64 32-64s32 32 32 64c0 16 64 16 64 0l-16-144c48 32 64 96 64 144h80c15.2-75.9-12.8-267-152.4-286.4a79.99 75.99 0 0 0 8.2-29.2C426.9 146.9 478.3 81.44 448 36zm-256 87.8c13.5 15.7 27.2 31.3 48 40.2 0 0-22.9 15.7-32 8.7-10.1-7.9-16-48.9-16-48.9zm128 0s-5.9 41-16 48.9c-9.1 7-32-8.7-32-8.7 20.8-8.9 34.5-24.5 48-40.2z" fill="url(#delapouite-brute-gradient-1)" stroke="#000000" stroke-opacity="0.78" stroke-width="4" filter="url(#shadow-1)"></path></g></svg>