<svg xmlns="http://www.w3.org/2000/svg" viewBox="0 0 512 512" style="height: 512px; width: 512px;"><defs><filter id="shadow-1" height="300%" width="300%" x="-100%" y="-100%"><feFlood flood-color="rgba(0, 0, 0, 0.46)" result="flood"></feFlood><feComposite in="flood" in2="SourceGraphic" operator="atop" result="composite"></feComposite><feGaussianBlur in="composite" stdDeviation="15" result="blur"></feGaussianBlur><feOffset dx="0" dy="0" result="offset"></feOffset><feComposite in="SourceGraphic" in2="offset" operator="over"></feComposite></filter><radialGradient id="lorc-bull-gradient-1"><stop offset="0%" stop-color="#820a0a" stop-opacity="0.33"></stop><stop offset="100%" stop-color="#820a0a" stop-opacity="1"></stop></radialGradient></defs><g class="" transform="translate(0,0)" style=""><path d="M68.596 28.182c-86.767 50.67-51.027 136.884 123.35 136.884l2.835-70.433c-71.07 14-169.105 15.57-126.184-66.45zm378.455 0c42.92 82.022-55.114 80.45-126.185 66.45l2.836 70.434c174.378 0 210.117-86.213 123.35-136.884zM174.206 220.768c-3.798.104-7.758.785-11.816 2.087-1.887 29.822 11.63 50.308 48.516 39.88-.462-26.26-16.194-42.53-36.7-41.967zm167.213 0c-20.507-.563-36.24 15.707-36.7 41.966 36.886 10.43 50.404-10.057 48.518-39.88-4.058-1.3-8.02-1.982-11.818-2.086zm-53.123 162.7-10.793 15.266c15.535 10.978 19.19 32.196 8.21 47.73C274.736 462 253.533 465.64 238 454.663c-15.535-10.978-19.19-32.193-8.21-47.728a34.16 34.16 0 0 1 7.288-7.543l-11.263-14.894a52.861 52.861 0 0 0-11.292 11.645c-16.805 23.784-11.098 56.982 12.685 73.788 23.784 16.806 56.956 11.098 73.762-12.686 16.806-23.783 11.11-56.967-12.672-73.773z" fill="url(#lorc-bull-gradient-1)" stroke="#000000" stroke-opacity="0.78" stroke-width="4" filter="url(#shadow-1)"></path></g></svg>