<svg xmlns="http://www.w3.org/2000/svg" viewBox="0 0 512 512" style="height: 512px; width: 512px;"><defs><filter id="shadow-1" height="300%" width="300%" x="-100%" y="-100%"><feFlood flood-color="rgba(0, 0, 0, 0.46)" result="flood"></feFlood><feComposite in="flood" in2="SourceGraphic" operator="atop" result="composite"></feComposite><feGaussianBlur in="composite" stdDeviation="15" result="blur"></feGaussianBlur><feOffset dx="0" dy="0" result="offset"></feOffset><feComposite in="SourceGraphic" in2="offset" operator="over"></feComposite></filter><radialGradient id="delapouite-coal-pile-gradient-1"><stop offset="0%" stop-color="#820a0a" stop-opacity="0.33"></stop><stop offset="100%" stop-color="#820a0a" stop-opacity="1"></stop></radialGradient></defs><g class="" transform="translate(0,0)" style=""><path d="m367.5 18-45.2 135.5c6 1.5 11.8 3.4 17.1 5.7L386.5 18zm-73.1 150.5c-12.3 0-26.2 1.8-28.5 9L247.6 232l-1.1.2-38.9-25.9-47.9 44.4-53.3 19.3 6.8 41.3L62 334.9l4.02 74.1-55.45 34.2 78.9 33.1 83.23-10.5 67.1 31.5 76-10.6 26.7-24.3L424 492l69.2-28.7-34.4-56.1-31.1-15.8 21.1-19.3-40.4-82.5-62.5-4.5 24.3-72.8c-1-15.5-20.3-27.8-32.4-34L309.3 223c-1.1 1.5-.9.5-1.2-.9l4.1-52.3c-3.5-.6-10.3-1.3-17.8-1.3zm-85 60.6 33.1 22.1 53.9-8.8 14.4 47.7-35.6 23.1-43.2-16.6 40.6 48.7 60.6-43.1 63.6 4.6 13.4 27.2-58.9 14.6 67.6 3.1 7.9 16.2-30.3 27.9 49.7 25.2 20.6 33.7-43.2 17.9-85.1-30.8-30.7 27.9-65.2 9-66.9-31.5-83.71 10.7-42.16-17.7 34.75-21.4-3.94-72.7L119 328.4l33.6 39.5 35.7-31.1-39 2.7-16.3-18.6-6.4-39.1 22.9-8.3 45.6 1.7-20-14.3zm138.2 162-66.2 20.2-36.5-14.4 50.4 43zm-230.3 17.6 40.2 24.7 56.5-2.8z" fill="url(#delapouite-coal-pile-gradient-1)" stroke="#000000" stroke-opacity="0.78" stroke-width="4" filter="url(#shadow-1)"></path></g></svg>