<svg xmlns="http://www.w3.org/2000/svg" viewBox="0 0 512 512" style="height: 512px; width: 512px;"><defs><filter id="shadow-1" height="300%" width="300%" x="-100%" y="-100%"><feFlood flood-color="rgba(0, 0, 0, 0.46)" result="flood"></feFlood><feComposite in="flood" in2="SourceGraphic" operator="atop" result="composite"></feComposite><feGaussianBlur in="composite" stdDeviation="15" result="blur"></feGaussianBlur><feOffset dx="0" dy="0" result="offset"></feOffset><feComposite in="SourceGraphic" in2="offset" operator="over"></feComposite></filter><radialGradient id="lorc-cracked-shield-gradient-1"><stop offset="0%" stop-color="#820a0a" stop-opacity="0.33"></stop><stop offset="100%" stop-color="#820a0a" stop-opacity="1"></stop></radialGradient></defs><g class="" transform="translate(0,0)" style=""><path d="M53.156 25.78c30.55 26.034 52.813 95.137 52.813 176.47 0 44.36-6.922 84.657-17.814 116.688 31.134 71.43 85.946 122.39 179.906 175.28 91.558-48.747 144.024-96.565 173.75-167.593-12.5-33.06-20.28-76.47-20.28-124.375 0-81.333 22.262-150.436 52.812-176.47-41.924 9.324-83.858 16.318-125.78 20.595L277.904 181.72l46.47 20.655L209.312 391.72l41.468-169.595-22.53-10.25-71.375 19.938 59.406-50.22L259.938 51.22c-68.92.347-137.86-7.508-206.78-25.44z" fill="url(#lorc-cracked-shield-gradient-1)" stroke="#000000" stroke-opacity="0.78" stroke-width="4" filter="url(#shadow-1)"></path></g></svg>