<svg xmlns="http://www.w3.org/2000/svg" viewBox="0 0 512 512" style="height: 512px; width: 512px;"><defs><filter id="shadow-1" height="300%" width="300%" x="-100%" y="-100%"><feFlood flood-color="rgba(0, 0, 0, 0.46)" result="flood"></feFlood><feComposite in="flood" in2="SourceGraphic" operator="atop" result="composite"></feComposite><feGaussianBlur in="composite" stdDeviation="15" result="blur"></feGaussianBlur><feOffset dx="0" dy="0" result="offset"></feOffset><feComposite in="SourceGraphic" in2="offset" operator="over"></feComposite></filter><radialGradient id="lorc-crenulated-shield-gradient-1"><stop offset="0%" stop-color="#820a0a" stop-opacity="0.33"></stop><stop offset="100%" stop-color="#820a0a" stop-opacity="1"></stop></radialGradient></defs><g class="" transform="translate(0,0)" style=""><path d="M45.063 17.406v99.938l63.656 60.312 2.936 2.78v185.25c33.96 43.39 82.572 83.76 148.906 122.627 67.823-39.784 116.793-81.943 150.688-126.094V180.436l2.906-2.78 63.656-60.282v-99.97h-58.968v67.753h-66v-67.75h-58.97v67.75H228.47v-67.75h-59v67.75h-65.41v-67.75h-59zm56.656 100.47h160.03v152.75H148.437v-108.97l-46.718-43.78zM262.312 271.81h112.156v73.813c-24.952 33.1-61.87 64.714-112.158 94.03V271.814z" fill="url(#lorc-crenulated-shield-gradient-1)" stroke="#000000" stroke-opacity="0.78" stroke-width="4" filter="url(#shadow-1)"></path></g></svg>