<svg xmlns="http://www.w3.org/2000/svg" viewBox="0 0 512 512" style="height: 512px; width: 512px;"><defs><filter id="shadow-1" height="300%" width="300%" x="-100%" y="-100%"><feFlood flood-color="rgba(0, 0, 0, 0.46)" result="flood"></feFlood><feComposite in="flood" in2="SourceGraphic" operator="atop" result="composite"></feComposite><feGaussianBlur in="composite" stdDeviation="15" result="blur"></feGaussianBlur><feOffset dx="0" dy="0" result="offset"></feOffset><feComposite in="SourceGraphic" in2="offset" operator="over"></feComposite></filter><radialGradient id="delapouite-crosscut-saw-gradient-1"><stop offset="0%" stop-color="#204231" stop-opacity="0.33"></stop><stop offset="100%" stop-color="#204231" stop-opacity="1"></stop></radialGradient></defs><g class="" transform="translate(0,0)" style=""><path d="M333.2 25.24c-2.6 2.79-4.7 8.5 4.3 17.93l53.2 53.59L406 82.83l-54.2-53.11c-10.5-9.45-16-7.26-18.6-4.48zM25.21 333.3c-2.7 2.6-4.97 8.1 4.48 17.8l53.11 55 15.05-15-54.65-53.5c-9.49-9-15.22-6.9-17.99-4.3zm72.64 85.5 69.65 70.3 3.5-31.3 26.5 15.9c.1-.1.2-.1.3-.1l5.2-33.7 32.7 8.8.2-.1 9-36.4 34 7.8c.1-.1.3-.3.5-.4l6.5-38.1 31 6.7 2.8-35.1 35 1.6-1.4-35 34.9-2.8-6.7-30.7 38-6.8.4-.5-7.7-34.1 36.7-8.8.2-.2-9.2-32.7 33.5-6.7.2-.2-15.9-25.1 31.4-3.5-70.4-70.84z" fill="url(#delapouite-crosscut-saw-gradient-1)" stroke="#000000" stroke-opacity="0.78" stroke-width="4" filter="url(#shadow-1)"></path></g></svg>