<svg xmlns="http://www.w3.org/2000/svg" viewBox="0 0 512 512" style="height: 512px; width: 512px;"><defs><filter id="shadow-1" height="300%" width="300%" x="-100%" y="-100%"><feFlood flood-color="rgba(0, 0, 0, 0.46)" result="flood"></feFlood><feComposite in="flood" in2="SourceGraphic" operator="atop" result="composite"></feComposite><feGaussianBlur in="composite" stdDeviation="15" result="blur"></feGaussianBlur><feOffset dx="0" dy="0" result="offset"></feOffset><feComposite in="SourceGraphic" in2="offset" operator="over"></feComposite></filter><radialGradient id="lorc-cut-diamond-gradient-1"><stop offset="0%" stop-color="#820a0a" stop-opacity="0.33"></stop><stop offset="100%" stop-color="#820a0a" stop-opacity="1"></stop></radialGradient></defs><g class="" transform="translate(0,0)" style=""><path d="m92.906 94.813 60.438 79.75 78.125-79.75H92.905zm189.25 0L359.25 173.5l58.688-78.688H282.155zm-25.344.843-84.718 86.47H341.53l-84.717-86.47zm177.907 7.906-58.626 78.563H494.53l-59.81-78.563zm-358.064.75-57.78 77.813h116.78l-59-77.813zm-58.5 96.5L226.562 429.22l-83.218-228.41H18.156zm145.063 0 93.593 256.844 93.593-256.844H163.22zm207.06 0L287.064 429.22l208.405-228.41H370.28z" fill="url(#lorc-cut-diamond-gradient-1)" stroke="#000000" stroke-opacity="0.78" stroke-width="4" filter="url(#shadow-1)"></path></g></svg>