<svg xmlns="http://www.w3.org/2000/svg" viewBox="0 0 512 512" style="height: 512px; width: 512px;"><defs><filter id="shadow-1" height="300%" width="300%" x="-100%" y="-100%"><feFlood flood-color="rgba(0, 0, 0, 0.46)" result="flood"></feFlood><feComposite in="flood" in2="SourceGraphic" operator="atop" result="composite"></feComposite><feGaussianBlur in="composite" stdDeviation="15" result="blur"></feGaussianBlur><feOffset dx="0" dy="0" result="offset"></feOffset><feComposite in="SourceGraphic" in2="offset" operator="over"></feComposite></filter><radialGradient id="delapouite-direction-sign-gradient-1"><stop offset="0%" stop-color="#820a0a" stop-opacity="0.33"></stop><stop offset="100%" stop-color="#820a0a" stop-opacity="1"></stop></radialGradient></defs><g class="" transform="translate(0,0)" style=""><path d="M66.26 62.5c-4.533 0-9.11.862-11.564 1.906-.914.39-1.142.617-1.377.797v32.26l26.488.287-.47-32.488c-.237-.183-.513-.445-1.47-.85C75.382 63.36 70.795 62.5 66.26 62.5zm298.96 15.793c-.528.005-1.08.022-1.65.05a49.609 49.609 0 0 0-7.47.968c-5.167 1.08-10.42 3.023-13.677 4.973-2.754 1.65-3.064 2.87-3.095 2.225l.143 20.05 29.85.323V78.585c-.124-.03-.017-.013-.16-.04-.998-.18-2.358-.267-3.94-.25zM19.413 115.1l.56 54.732 11.036 8.027-4.257 66.695 132.46 8.416-133.66 6.99-3.5 44.987 361.22-1.93 48.19-36.52.257-12.01 60.867-41.66-39.547-40.106-56.44-6.484 39.544-5.52-58.74-35.747zM369.32 321.092l-27.723.148 1.63 167.76h26.092V370.074l-9.272-4.303 9.27-5.23zm-286.428 1.53-29.573.16V489h31.867z" fill="url(#delapouite-direction-sign-gradient-1)" stroke="#000000" stroke-opacity="0.78" stroke-width="4" filter="url(#shadow-1)"></path></g></svg>