<svg xmlns="http://www.w3.org/2000/svg" viewBox="0 0 512 512" style="height: 512px; width: 512px;"><defs><filter id="shadow-1" height="300%" width="300%" x="-100%" y="-100%"><feFlood flood-color="rgba(0, 0, 0, 0.46)" result="flood"></feFlood><feComposite in="flood" in2="SourceGraphic" operator="atop" result="composite"></feComposite><feGaussianBlur in="composite" stdDeviation="15" result="blur"></feGaussianBlur><feOffset dx="0" dy="0" result="offset"></feOffset><feComposite in="SourceGraphic" in2="offset" operator="over"></feComposite></filter><radialGradient id="skoll-dress-gradient-1"><stop offset="0%" stop-color="#820a0a" stop-opacity="0.33"></stop><stop offset="100%" stop-color="#820a0a" stop-opacity="1"></stop></radialGradient></defs><g class="" transform="translate(0,0)" style=""><path d="M342.842 462.946c-2.029 31.63-171.708 29.834-173.863 0-6.223-162.824 18.646-224.226 26.506-280.24 1.902-13.533-14.843-37.589-19.016-54.323-8.917-35.36 3.856-66.262-8.917-95.42L185.977 26C196.373 66.568 223.8 95.547 256 95.547c32.201 0 59.627-28.979 70.023-69.547l18.425 6.962c-12.773 29.159 0 60.06-8.917 95.42-4.226 16.735-20.96 40.79-19.016 54.324 7.68 56.025 32.55 117.427 26.327 280.24z" fill="url(#skoll-dress-gradient-1)" stroke="#000000" stroke-opacity="0.78" stroke-width="4" filter="url(#shadow-1)"></path></g></svg>