<svg xmlns="http://www.w3.org/2000/svg" viewBox="0 0 512 512" style="height: 512px; width: 512px;"><defs><filter id="shadow-1" height="300%" width="300%" x="-100%" y="-100%"><feFlood flood-color="rgba(0, 0, 0, 0.46)" result="flood"></feFlood><feComposite in="flood" in2="SourceGraphic" operator="atop" result="composite"></feComposite><feGaussianBlur in="composite" stdDeviation="15" result="blur"></feGaussianBlur><feOffset dx="0" dy="0" result="offset"></feOffset><feComposite in="SourceGraphic" in2="offset" operator="over"></feComposite></filter><radialGradient id="lorc-emerald-gradient-1"><stop offset="0%" stop-color="#820a0a" stop-opacity="0.33"></stop><stop offset="100%" stop-color="#820a0a" stop-opacity="1"></stop></radialGradient></defs><g class="" transform="translate(0,0)" style=""><path d="M310.375 16.75 89.405 75.72l58.126 50.905L282.563 90.28l2.032-.53 25.78-73zm17.063 7.844-27.157 76.812 91.69 91.875 95.624-8.78L327.438 24.594zm-41.813 12.062-8.594 33.657c-.28-15.516-38.03-17.018-107.56-4.376l116.155-29.28zm51.063 14.625 123.5 123.407-58.844 7.563c16.2-21.37-32.277-91.112-64.656-130.97zM74.75 87.72 15.594 308.405l79-31.47 37.28-139.155L74.75 87.72zm207.438 22-133.032 35.81-35.72 133.376 97.25 97.53 133.064-35.81 35.72-133.376-97.283-97.53zm-201.72 5.686 32.844 30.5-30.156 118.97-39.03 15.812c50.817-30.543 65.667-130.132 36.343-165.282zm195.876 14.78L359 213.377l-30.156 113.81-44.688 11.97c119.527-107.872-34.816-238.375-131.5-140.875l9.875-37.405 113.814-30.688zM490.564 203l-92.877 8.53-35.968 134.19 71.342 71.842L490.563 203zm-17.283 13.875L444.03 333.03c6.73-68.874-.03-90.85-30.655-111.5l59.906-4.655zm-371.155 77.188L20.22 326.688l161.75 161.468 17.31-96.72-97.155-97.373zm.094 20 78.124 82.437-7.438 61.375c-5.23-44.565-28.34-85.92-70.687-143.813zm246.124 44.687-130.53 35.125-17.564 98.188 221.688-59.157-73.594-74.156zm18.625 42.5 24.28 24.844-115.22 32.72c61.28-26.446 83.34-37.418 90.94-57.564z" fill="url(#lorc-emerald-gradient-1)" stroke="#000000" stroke-opacity="0.78" stroke-width="4" filter="url(#shadow-1)"></path></g></svg>