<svg xmlns="http://www.w3.org/2000/svg" viewBox="0 0 512 512" style="height: 512px; width: 512px;"><defs><filter id="shadow-1" height="300%" width="300%" x="-100%" y="-100%"><feFlood flood-color="rgba(0, 0, 0, 0.46)" result="flood"></feFlood><feComposite in="flood" in2="SourceGraphic" operator="atop" result="composite"></feComposite><feGaussianBlur in="composite" stdDeviation="15" result="blur"></feGaussianBlur><feOffset dx="0" dy="0" result="offset"></feOffset><feComposite in="SourceGraphic" in2="offset" operator="over"></feComposite></filter><radialGradient id="lorc-energy-sword-gradient-1"><stop offset="0%" stop-color="#820a0a" stop-opacity="0.33"></stop><stop offset="100%" stop-color="#820a0a" stop-opacity="1"></stop></radialGradient></defs><g class="" transform="translate(0,0)" style=""><path d="M491.313 21.406C331.102 120.193 194.688 226.866 70 350.906c29.11-21.616 63.387-37.86 103.875-49.28 40.95-60.157 100.923-106.7 170.844-130.157-23.522 69.8-70.747 130.135-131.314 171.25-9.76 38.353-26.835 69.38-48 96.374C289.153 314.63 403.748 181.7 491.312 21.406zM132.656 345.5v.344c-30.526 52.844-71.12 87.318-115.437 115.47-4.89 28.29 9.777 39.067 34.75 34.56 30.594-51.69 68.69-88.052 115.436-115.468 0-19.56-12.363-34.906-34.75-34.906z" fill="url(#lorc-energy-sword-gradient-1)" stroke="#000000" stroke-opacity="0.78" stroke-width="4" filter="url(#shadow-1)"></path></g></svg>