<svg xmlns="http://www.w3.org/2000/svg" viewBox="0 0 512 512" style="height: 512px; width: 512px;"><defs><filter id="shadow-1" height="300%" width="300%" x="-100%" y="-100%"><feFlood flood-color="rgba(0, 0, 0, 0.46)" result="flood"></feFlood><feComposite in="flood" in2="SourceGraphic" operator="atop" result="composite"></feComposite><feGaussianBlur in="composite" stdDeviation="15" result="blur"></feGaussianBlur><feOffset dx="0" dy="0" result="offset"></feOffset><feComposite in="SourceGraphic" in2="offset" operator="over"></feComposite></filter><radialGradient id="lorc-folded-paper-gradient-1"><stop offset="0%" stop-color="#820a0a" stop-opacity="0.33"></stop><stop offset="100%" stop-color="#820a0a" stop-opacity="1"></stop></radialGradient></defs><g class="" transform="translate(0,0)" style=""><path d="M210.28 18.344c-21.362 43.312-84.904 72.3-146.968 101.78L181.22 156.94 54.312 142.5c28.592 58.053 71.69 113.348 120.968 157.75l99.314 29.906L179 323.312c-35.158 32.766-95.2 70.74-161.5 91.782 88.447 40.53 161.28 46.956 280.344 77.25C378.36 453.12 415.57 425.644 470.094 382l-149.25-42.438 147.47 18.938c-49.763-45.25-89.572-102.69-115.47-161.438L227.53 165.125l141.064 13.594c55.096-20.42 85.08-49.28 124.53-102.282-97.707-20.988-177.93-45.69-282.843-58.094z" fill="url(#lorc-folded-paper-gradient-1)" stroke="#000000" stroke-opacity="0.78" stroke-width="4" filter="url(#shadow-1)"></path></g></svg>