<svg xmlns="http://www.w3.org/2000/svg" viewBox="0 0 512 512" style="height: 512px; width: 512px;"><defs><filter id="shadow-1" height="300%" width="300%" x="-100%" y="-100%"><feFlood flood-color="rgba(0, 0, 0, 0.46)" result="flood"></feFlood><feComposite in="flood" in2="SourceGraphic" operator="atop" result="composite"></feComposite><feGaussianBlur in="composite" stdDeviation="15" result="blur"></feGaussianBlur><feOffset dx="0" dy="0" result="offset"></feOffset><feComposite in="SourceGraphic" in2="offset" operator="over"></feComposite></filter><radialGradient id="delapouite-fork-knife-spoon-gradient-1"><stop offset="0%" stop-color="#820a0a" stop-opacity="0.33"></stop><stop offset="100%" stop-color="#820a0a" stop-opacity="1"></stop></radialGradient></defs><g class="" transform="translate(0,0)" style=""><path d="M48 34v144c0 16 32 32 32 32 0 112-16 176-16 208 0 16 0 32 16 48s16 16 32 0 16-32 16-48c0-32-16-96-16-208 0 0 32-16 32-32V34h-18v96h-21V34H87v96H66V34H48zm202 0c-16 0-16 16-16 16v272h.4c-4.6 45.8-10.4 76.8-10.4 96 0 16 0 32 16 48s16 16 32 0 16-32 16-48c0-22.1-7.6-59.5-12.4-117.5C287.9 270.4 298 232.2 298 194c0-48-25.8-137.6-48-160zm166 0a64 96 0 0 0-64 96 64 96 0 0 0 47.9 92.8C398.8 326.9 384 387.2 384 418c0 16 0 32 16 48s16 16 32 0 16-32 16-48c0-30.8-14.8-91.1-15.9-195.1A64 96 0 0 0 480 130a64 96 0 0 0-64-96z" fill="url(#delapouite-fork-knife-spoon-gradient-1)" stroke="#000000" stroke-opacity="0.78" stroke-width="4" filter="url(#shadow-1)"></path></g></svg>