<svg xmlns="http://www.w3.org/2000/svg" viewBox="0 0 512 512" style="height: 512px; width: 512px;"><defs><filter id="shadow-1" height="300%" width="300%" x="-100%" y="-100%"><feFlood flood-color="rgba(0, 0, 0, 0.46)" result="flood"></feFlood><feComposite in="flood" in2="SourceGraphic" operator="atop" result="composite"></feComposite><feGaussianBlur in="composite" stdDeviation="15" result="blur"></feGaussianBlur><feOffset dx="0" dy="0" result="offset"></feOffset><feComposite in="SourceGraphic" in2="offset" operator="over"></feComposite></filter><radialGradient id="delapouite-fuji-gradient-1"><stop offset="0%" stop-color="#820a0a" stop-opacity="0.33"></stop><stop offset="100%" stop-color="#820a0a" stop-opacity="1"></stop></radialGradient></defs><g class="" transform="translate(0,0)" style=""><path d="M154.256 47.115a96 96 0 0 0-96 96 96 96 0 0 0 96 96 96 96 0 0 0 14.176-1.136c6.022-12.03 11.431-23.802 15.906-35.06l2.248-5.653 47.04-.172a96 96 0 0 0 16.63-53.979 96 96 0 0 0-96-96zM198.012 215l-2.405 5.254C153.933 311.309 96.85 395.687 25.355 473.93L11.584 489h485.734l-9.953-14.172C426.91 388.75 357.94 302.642 328.467 220.945L326.32 215H198.012zm-7.83 56.92 8.687 48.08 19.666-43.785L240 320l24.78-48 7.22 64 24.385-64L336 320l-2.865-43.973C366.38 341.224 416.418 406.385 462.463 471H51.936c55.01-62.373 101.316-128.65 138.246-199.08z" fill="url(#delapouite-fuji-gradient-1)" stroke="#000000" stroke-opacity="0.78" stroke-width="4" filter="url(#shadow-1)"></path></g></svg>