<svg xmlns="http://www.w3.org/2000/svg" viewBox="0 0 512 512" style="height: 512px; width: 512px;"><defs><filter id="shadow-1" height="300%" width="300%" x="-100%" y="-100%"><feFlood flood-color="rgba(0, 0, 0, 0.46)" result="flood"></feFlood><feComposite in="flood" in2="SourceGraphic" operator="atop" result="composite"></feComposite><feGaussianBlur in="composite" stdDeviation="15" result="blur"></feGaussianBlur><feOffset dx="0" dy="0" result="offset"></feOffset><feComposite in="SourceGraphic" in2="offset" operator="over"></feComposite></filter><radialGradient id="delapouite-glaive-gradient-1"><stop offset="0%" stop-color="#820a0a" stop-opacity="0.33"></stop><stop offset="100%" stop-color="#820a0a" stop-opacity="1"></stop></radialGradient></defs><g class="" transform="translate(0,0)" style=""><path d="M488.7 24.74c-25.6 25.54-51.7 50.93-78 76.26-57-13.38-129.6 16.5-170.7 43 49.3-8 98.8-16.3 120.4 4.7-85.4 80.4-173.5 159.8-261.92 239l38.92 44.9c23.9-8.7 56.6-29.2 92-57.6 38-30.6 79.2-70.3 117.4-113.7 67.7-76.8 125.6-166.14 141.9-236.56zM94.96 409.3l-13.61 12.5 19.95 22.6 14-12.9-20.34-22.2zM68.06 434 18 480.1V494h29.39l40.65-37.4L68.06 434z" fill="url(#delapouite-glaive-gradient-1)" stroke="#000000" stroke-opacity="0.78" stroke-width="4" filter="url(#shadow-1)"></path></g></svg>