<svg xmlns="http://www.w3.org/2000/svg" viewBox="0 0 512 512" style="height: 512px; width: 512px;"><defs><filter id="shadow-1" height="300%" width="300%" x="-100%" y="-100%"><feFlood flood-color="rgba(0, 0, 0, 0.46)" result="flood"></feFlood><feComposite in="flood" in2="SourceGraphic" operator="atop" result="composite"></feComposite><feGaussianBlur in="composite" stdDeviation="15" result="blur"></feGaussianBlur><feOffset dx="0" dy="0" result="offset"></feOffset><feComposite in="SourceGraphic" in2="offset" operator="over"></feComposite></filter><radialGradient id="lorc-halberd-gradient-1"><stop offset="0%" stop-color="#820a0a" stop-opacity="0.33"></stop><stop offset="100%" stop-color="#820a0a" stop-opacity="1"></stop></radialGradient></defs><g class="" transform="translate(0,0)" style=""><path d="m235.03 28.875-56.718 24.72 104.75 104.75c20.144 20.136 20.144 53.105 0 73.25-20.142 20.142-53.11 20.14-73.25 0l-104.437-104.44-20.688 51.782C113.004 210 131.48 257.957 135 307.375c1.212 17.01.622 34.248-2.094 50.97 149.04-19.577 267.116-137.07 285.531-283.47-17.79 3.418-36.113 4.446-54.156 3.406-49.99-2.88-98.137-21.155-129.25-49.405zm258 12.344c-16.42 13.404-35.253 22.85-55.217 28.905-16.75 160.278-146.32 289.245-309.063 307.563 0 .002-.03-.003-.03 0-5.427 19.857-14.23 38.525-27 54.625 77.81-1.162 148.893-22.316 208.5-58.688l106.655 6.563L419 273.625c46.883-64.243 73.995-144.145 74.03-232.406zm-289.405 64.124-46.875 46.75 44.406 44.406 46.875-46.75-44.405-44.406zM90.155 218.53 19.97 288.563v88.782l93.25-93.063c-4.38-23.864-12.445-46.66-23.064-65.75z" fill="url(#lorc-halberd-gradient-1)" stroke="#000000" stroke-opacity="0.78" stroke-width="4" filter="url(#shadow-1)"></path></g></svg>