<svg xmlns="http://www.w3.org/2000/svg" viewBox="0 0 512 512" style="height: 512px; width: 512px;"><defs><filter id="shadow-1" height="300%" width="300%" x="-100%" y="-100%"><feFlood flood-color="rgba(0, 0, 0, 0.46)" result="flood"></feFlood><feComposite in="flood" in2="SourceGraphic" operator="atop" result="composite"></feComposite><feGaussianBlur in="composite" stdDeviation="15" result="blur"></feGaussianBlur><feOffset dx="0" dy="0" result="offset"></feOffset><feComposite in="SourceGraphic" in2="offset" operator="over"></feComposite></filter><radialGradient id="lorc-heart-tower-gradient-1"><stop offset="0%" stop-color="#820a0a" stop-opacity="0.33"></stop><stop offset="100%" stop-color="#820a0a" stop-opacity="1"></stop></radialGradient></defs><g class="" transform="translate(0,0)" style=""><path d="M67.813 23.03v111.126l61.156 75.813v188.655H89.624l-28.72 92.813h389.158l-28.72-92.813H382V209.97l61.156-75.814V23.03H378.72v52.407h-39.19V23.032h-65.124v52.407h-38.53V23.032H170.75v52.407h-38.5V23.032H67.812zm132.343 143.907c20.707-.04 41.94 10.97 55.156 35.782 32.476-55.953 118.296-42.723 116.094 26.218-2.067 64.67-89.716 86.23-116.094 154.906-27.862-68.683-117.91-86.106-115.75-154.906 1.203-38.326 30.33-61.943 60.594-62zm113.78 20.657a37.629 37.629 0 0 0-14.373 2.844c12.334 1.777 25.138 10.802 33.28 24.906 7.318 12.674 9.206 26.573 6.157 37.656 7.633-6.842 12.406-16.793 12.406-27.938 0-20.81-16.657-37.468-37.47-37.468z" fill="url(#lorc-heart-tower-gradient-1)" stroke="#000000" stroke-opacity="0.78" stroke-width="4" filter="url(#shadow-1)"></path></g></svg>