<svg xmlns="http://www.w3.org/2000/svg" viewBox="0 0 512 512" style="height: 512px; width: 512px;"><defs><filter id="shadow-1" height="300%" width="300%" x="-100%" y="-100%"><feFlood flood-color="rgba(0, 0, 0, 0.46)" result="flood"></feFlood><feComposite in="flood" in2="SourceGraphic" operator="atop" result="composite"></feComposite><feGaussianBlur in="composite" stdDeviation="15" result="blur"></feGaussianBlur><feOffset dx="0" dy="0" result="offset"></feOffset><feComposite in="SourceGraphic" in2="offset" operator="over"></feComposite></filter><radialGradient id="delapouite-hell-crosses-gradient-1"><stop offset="0%" stop-color="#820a0a" stop-opacity="0.33"></stop><stop offset="100%" stop-color="#820a0a" stop-opacity="1"></stop></radialGradient></defs><g class="" transform="translate(0,0)" style=""><path d="M112 64c17.48 40.785 28.587 87.938 33.336 136.818C110.51 194.896 69.158 186.632 16 176v160c53.158-10.632 94.51-18.896 129.336-24.818C140.586 360.062 129.48 407.215 112 448h128c-18.493-43.15-29.852-93.428-34.096-145.338 34.994-3.54 65.198-3.54 100.192 0C301.852 354.572 290.493 404.85 272 448h128c-17.48-40.785-28.587-87.938-33.336-136.818C401.49 317.104 442.842 325.368 496 336V176c-53.158 10.632-94.51 18.896-129.336 24.818C371.414 151.938 382.52 104.785 400 64H272c18.493 43.15 29.852 93.428 34.096 145.338-34.994 3.54-65.198 3.54-100.192 0C210.148 157.428 221.507 107.15 240 64H112z" fill="url(#delapouite-hell-crosses-gradient-1)" stroke="#000000" stroke-opacity="0.78" stroke-width="4" filter="url(#shadow-1)"></path></g></svg>