<svg xmlns="http://www.w3.org/2000/svg" viewBox="0 0 512 512" style="height: 512px; width: 512px;"><defs><filter id="shadow-1" height="300%" width="300%" x="-100%" y="-100%"><feFlood flood-color="rgba(0, 0, 0, 0.46)" result="flood"></feFlood><feComposite in="flood" in2="SourceGraphic" operator="atop" result="composite"></feComposite><feGaussianBlur in="composite" stdDeviation="15" result="blur"></feGaussianBlur><feOffset dx="0" dy="0" result="offset"></feOffset><feComposite in="SourceGraphic" in2="offset" operator="over"></feComposite></filter><radialGradient id="lorc-high-shot-gradient-1"><stop offset="0%" stop-color="#820a0a" stop-opacity="0.33"></stop><stop offset="100%" stop-color="#820a0a" stop-opacity="1"></stop></radialGradient></defs><g class="" transform="translate(0,0)" style=""><path d="m492.656 20.406-118.594 56.22L413.875 86l-86.97 86.97-305.5 259.374.69.687 104.75-47.467-46.376 105.843.905.906 272.5-319.875 73.22-73.218 9.342 39.81 56.22-118.624zm-473.25.063c-1.347 23.43 5 39.947 16.563 52.218l24.093 302.28 17.562-14.874-21.72-272.438C113.879 119.609 225 112.82 272.811 194.375l66.625-56.564 1.22-1.218C292.74 38.666 86.01 99.716 19.406 20.47zm359.531 151.56-1.156 1.157-57.25 67.188c82.006 47.945 75.587 159.267 107.283 218.03l-272.157-24.5-14.812 17.408 301.562 27.125c12.48 12.283 29.4 19.084 53.688 17.687-79.95-67.2-18.36-275.754-117.156-324.094z" fill="url(#lorc-high-shot-gradient-1)" stroke="#000000" stroke-opacity="0.78" stroke-width="4" filter="url(#shadow-1)"></path></g></svg>