<svg xmlns="http://www.w3.org/2000/svg" viewBox="0 0 512 512" style="height: 512px; width: 512px;"><defs><filter id="shadow-1" height="300%" width="300%" x="-100%" y="-100%"><feFlood flood-color="rgba(0, 0, 0, 0.46)" result="flood"></feFlood><feComposite in="flood" in2="SourceGraphic" operator="atop" result="composite"></feComposite><feGaussianBlur in="composite" stdDeviation="15" result="blur"></feGaussianBlur><feOffset dx="0" dy="0" result="offset"></feOffset><feComposite in="SourceGraphic" in2="offset" operator="over"></feComposite></filter><radialGradient id="delapouite-hills-gradient-1"><stop offset="0%" stop-color="#820a0a" stop-opacity="0.33"></stop><stop offset="100%" stop-color="#820a0a" stop-opacity="1"></stop></radialGradient></defs><g class="" transform="translate(0,0)" style=""><path d="M416.104 18A88 84.324 0 0 0 494 99.674V18h-77.896zM128 137c-42.657 0-79.727 10.965-110 25.322v128.002c30.184-5.45 59.138-8.394 86.82-9.08 50.9-1.26 97.525 5.05 139.744 17.12 42.768-27.11 86.74-52.815 134.387-73.048C304.435 169.018 211.563 137 128 137zm366 71.98c-85.695 15.81-157.66 53.443-226.953 96.485 22.08 7.666 42.85 16.937 62.283 27.537 73.712 40.21 128.137 99.163 162.81 160.998H494V208.98zm-373.03 90.008c-5.196-.034-10.44.016-15.738.15-27.682.703-56.767 3.78-87.232 9.5V494h453.242c-33.246-55.78-83.587-108.678-150.53-145.195-55.257-30.142-121.817-49.31-199.743-49.817z" fill="url(#delapouite-hills-gradient-1)" stroke="#000000" stroke-opacity="0.78" stroke-width="4" filter="url(#shadow-1)"></path></g></svg>