<svg xmlns="http://www.w3.org/2000/svg" viewBox="0 0 512 512" style="height: 512px; width: 512px;">
	<defs>
		<filter id="shadow-1" height="300%" width="300%" x="-100%" y="-100%">
			<feFlood flood-color="rgba(0, 0, 0, 0.46)" result="flood"/>
			<feComposite in="flood" in2="SourceGraphic" operator="atop" result="composite"/>
			<feGaussianBlur in="composite" stdDeviation="15" result="blur"/>
			<feOffset dx="0" dy="0" result="offset"/>
			<feComposite in="SourceGraphic" in2="offset" operator="over"/>
		</filter>
		<radialGradient id="skoll-iron-cross-gradient-1">
			<stop offset="0%" stop-color="#0a623a" stop-opacity="0.33"/>
			<stop offset="100%" stop-color="#0a623a" stop-opacity="1"/>
		</radialGradient>
	</defs>
	<g class="" transform="translate(0,0)" style="">
		<path d="M486 371.316V142.75a399.056 399.056 0 0 1-185.685 69.28 399.135 399.135 0 0 1 70.973-186.002H142.72A399.056 399.056 0 0 1 212 211.714 399.135 399.135 0 0 1 26 140.74v228.57a399.056 399.056 0 0 1 185.685-69.28 399.135 399.135 0 0 1-70.973 185.944H369.28A399.056 399.056 0 0 1 300 300.342a399.135 399.135 0 0 1 186 70.974z" fill="url(#skoll-iron-cross-gradient-1)" stroke="#000000" stroke-opacity="0.78" stroke-width="4" filter="url(#shadow-1)"/>
	</g>
</svg>