<svg xmlns="http://www.w3.org/2000/svg" viewBox="0 0 512 512" style="height: 512px; width: 512px;"><defs><filter id="shadow-1" height="300%" width="300%" x="-100%" y="-100%"><feFlood flood-color="rgba(0, 0, 0, 0.46)" result="flood"></feFlood><feComposite in="flood" in2="SourceGraphic" operator="atop" result="composite"></feComposite><feGaussianBlur in="composite" stdDeviation="15" result="blur"></feGaussianBlur><feOffset dx="0" dy="0" result="offset"></feOffset><feComposite in="SourceGraphic" in2="offset" operator="over"></feComposite></filter><radialGradient id="delapouite-jerusalem-cross-gradient-1"><stop offset="0%" stop-color="#820a0a" stop-opacity="0.33"></stop><stop offset="100%" stop-color="#820a0a" stop-opacity="1"></stop></radialGradient></defs><g class="" transform="translate(0,0)" style=""><path d="M352 23v18h-78v197h197v-78h18v192h-18v-78H274v197h78v18H160v-18h78V274H41v78H23V160h18v78h197V41h-78V23zm41 41v55h55v18h-55v55h-18v-55h-55v-18h55V64zm-256 0v55h55v18h-55v55h-18v-55H64v-18h55V64zm256 256v55h55v18h-55v55h-18v-55h-55v-18h55v-55zm-256 0v55h55v18h-55v55h-18v-55H64v-18h55v-55z" fill="url(#delapouite-jerusalem-cross-gradient-1)" stroke="#000000" stroke-opacity="0.78" stroke-width="4" filter="url(#shadow-1)"></path></g></svg>