<svg xmlns="http://www.w3.org/2000/svg" viewBox="0 0 512 512" style="height: 512px; width: 512px;"><defs><filter id="shadow-1" height="300%" width="300%" x="-100%" y="-100%"><feFlood flood-color="rgba(0, 0, 0, 0.46)" result="flood"></feFlood><feComposite in="flood" in2="SourceGraphic" operator="atop" result="composite"></feComposite><feGaussianBlur in="composite" stdDeviation="15" result="blur"></feGaussianBlur><feOffset dx="0" dy="0" result="offset"></feOffset><feComposite in="SourceGraphic" in2="offset" operator="over"></feComposite></filter><radialGradient id="delapouite-ladder-gradient-1"><stop offset="0%" stop-color="#820a0a" stop-opacity="0.33"></stop><stop offset="100%" stop-color="#820a0a" stop-opacity="1"></stop></radialGradient></defs><g class="" transform="translate(0,0)" style=""><path d="M121 17v30h270V17H121zm16 48v46h30V65h-30zm208 0v46h30V65h-30zm-224 64v30h270v-30H121zm16 48v46h30v-46h-30zm208 0v46h30v-46h-30zm-224 64v30h270v-30H121zm16 48v46h30v-46h-30zm208 0v46h30v-46h-30zm-224 64v30h270v-30H121zm16 48v46h30v-46h-30zm208 0v46h30v-46h-30zm-224 64v30h270v-30H121z" fill="url(#delapouite-ladder-gradient-1)" stroke="#000000" stroke-opacity="0.78" stroke-width="4" filter="url(#shadow-1)"></path></g></svg>