<svg xmlns="http://www.w3.org/2000/svg" viewBox="0 0 512 512" style="height: 512px; width: 512px;"><defs><filter id="shadow-1" height="300%" width="300%" x="-100%" y="-100%"><feFlood flood-color="rgba(0, 0, 0, 0.46)" result="flood"></feFlood><feComposite in="flood" in2="SourceGraphic" operator="atop" result="composite"></feComposite><feGaussianBlur in="composite" stdDeviation="15" result="blur"></feGaussianBlur><feOffset dx="0" dy="0" result="offset"></feOffset><feComposite in="SourceGraphic" in2="offset" operator="over"></feComposite></filter><radialGradient id="delapouite-libra-gradient-1"><stop offset="0%" stop-color="#820a0a" stop-opacity="0.33"></stop><stop offset="100%" stop-color="#820a0a" stop-opacity="1"></stop></radialGradient></defs><g class="" transform="translate(0,0)" style=""><path d="M34.303 381.03h443.23v82.957H34.303V381.03zm258.44-66.852v-51.04c24.66-13.395 40.927-38.56 40.927-67.453 0-42.325-34.9-76.633-77.933-76.633-43.033 0-77.928 34.308-77.928 76.633 0 28.546 15.868 53.446 39.412 66.633v51.86l-.306 31.57H34.298v-82.95h66.225c-9.99-20.48-15.558-43.28-15.558-67.297 0-89.033 76.53-161.215 170.94-161.215s170.94 72.182 170.94 161.216c0 24.02-5.568 46.818-15.557 67.297h66.23v82.95H292.753l-.01-31.57z" fill="url(#delapouite-libra-gradient-1)" stroke="#000000" stroke-opacity="0.78" stroke-width="4" filter="url(#shadow-1)"></path></g></svg>