<svg xmlns="http://www.w3.org/2000/svg" viewBox="0 0 512 512" style="height: 512px; width: 512px;"><defs><filter id="shadow-1" height="300%" width="300%" x="-100%" y="-100%"><feFlood flood-color="rgba(0, 0, 0, 0.46)" result="flood"></feFlood><feComposite in="flood" in2="SourceGraphic" operator="atop" result="composite"></feComposite><feGaussianBlur in="composite" stdDeviation="15" result="blur"></feGaussianBlur><feOffset dx="0" dy="0" result="offset"></feOffset><feComposite in="SourceGraphic" in2="offset" operator="over"></feComposite></filter><radialGradient id="caro-asercion-medieval-village-01-gradient-1"><stop offset="0%" stop-color="#204231" stop-opacity="0.33"></stop><stop offset="100%" stop-color="#204231" stop-opacity="1"></stop></radialGradient></defs><g class="" transform="translate(0,0)" style=""><path d="M195.25 349.5h-16.667v133h16.667zm91.634 133h-74.968V376.263zm95.366 0h-74.98l74.98-106.656zm16.666-133v133h-2.665 19.332v-133zm-290.833 133v-100h36v100h17.636V350h-17.036l17.036-53.117V246.5H90.447v236zm180.667-26.26L213.429 349.5h75.321zm16.666-.08V349.5h74.98zm67.167-284.66h-151l-50 153h251zm-246.5 91.5c9.934 0 18 8.066 18 18s-8.066 18-18 18-18-8.066-18-18 8.066-18 18-18zm142.25 35h-36v-42l18-20 18 20zm93.5 0h-36v-42l18-20 18 20zm60.25-163h-37v19l37 111zm-239.424 96.595.924-66.095-11-27.5h124.5v19h-90.5zM81.583 214.833h89v-16.666h-89zM136.7 91.5h-21.234l-33.883 88h89zm240.05 22.833h53.666V97.667H376.75zM134.416 71.5v-42H117.75v42z" fill="url(#caro-asercion-medieval-village-01-gradient-1)" stroke="#000000" stroke-opacity="0.78" stroke-width="4" filter="url(#shadow-1)"></path></g></svg>