<svg xmlns="http://www.w3.org/2000/svg" viewBox="0 0 512 512" style="height: 512px; width: 512px;"><defs><filter id="shadow-1" height="300%" width="300%" x="-100%" y="-100%"><feFlood flood-color="rgba(0, 0, 0, 0.46)" result="flood"></feFlood><feComposite in="flood" in2="SourceGraphic" operator="atop" result="composite"></feComposite><feGaussianBlur in="composite" stdDeviation="15" result="blur"></feGaussianBlur><feOffset dx="0" dy="0" result="offset"></feOffset><feComposite in="SourceGraphic" in2="offset" operator="over"></feComposite></filter><radialGradient id="lorc-mirror-mirror-gradient-1"><stop offset="0%" stop-color="#204231" stop-opacity="0.33"></stop><stop offset="100%" stop-color="#204231" stop-opacity="1"></stop></radialGradient></defs><g class="" transform="translate(0,0)" style=""><path d="M257.688 20.375c-38.528 0-74.835 12.49-107.282 34.813h-54.25V460.5h53.907c32.555 22.454 69.036 35.063 107.625 35.063 38.588 0 75.044-12.61 107.593-35.063h53.908V55.188H364.97c-32.447-22.323-68.754-34.812-107.283-34.812zM123.155 84.28H392.28v347.877H123.157V84.28zm18.688 18.69v108.718l126.844-108.72H141.844zm200.437 0L141.845 274.78v56.626l231.75-198.687v-29.75H342.28zm31.314 140.093L174.53 413.469h46.532l152.532-128.376v-42.03zm0 66.468-123.5 103.94h123.5V309.53z" fill="url(#lorc-mirror-mirror-gradient-1)" stroke="#000000" stroke-opacity="0.78" stroke-width="4" filter="url(#shadow-1)"></path></g></svg>