<svg xmlns="http://www.w3.org/2000/svg" viewBox="0 0 512 512" style="height: 512px; width: 512px;"><defs><filter id="shadow-1" height="300%" width="300%" x="-100%" y="-100%"><feFlood flood-color="rgba(0, 0, 0, 0.46)" result="flood"></feFlood><feComposite in="flood" in2="SourceGraphic" operator="atop" result="composite"></feComposite><feGaussianBlur in="composite" stdDeviation="15" result="blur"></feGaussianBlur><feOffset dx="0" dy="0" result="offset"></feOffset><feComposite in="SourceGraphic" in2="offset" operator="over"></feComposite></filter><radialGradient id="delapouite-painted-pottery-gradient-1"><stop offset="0%" stop-color="#820a0a" stop-opacity="0.33"></stop><stop offset="100%" stop-color="#820a0a" stop-opacity="1"></stop></radialGradient></defs><g class="" transform="translate(0,0)" style=""><path d="M240 24c-16 0-48 16-64 32 0 13 0 26 8.582 39h142.836C336 82 336 69 336 56c-16-16-48-32-64-32zm-44.072 89c10.008 26.313 10.699 59.404 2.084 78h115.976c-8.615-18.596-7.924-51.687 2.084-78zm-16.471 96c-36.902 28.393-62.07 65.607-66.684 94h286.454c-4.614-28.393-29.782-65.607-66.684-94zm-66.908 112c5.395 44.88 49.453 88 79.451 103 8.465 8.465 12.43 16.904 14.307 23h99.386c1.878-6.096 5.842-14.535 14.307-23 29.998-15 74.056-58.12 79.451-103zm84.105 144c-11.436 6.993-20.654 7-20.654 7-16 0-16 16 0 16h160c16 0 16-16 0-16 0 0-9.218-.007-20.654-7z" fill="url(#delapouite-painted-pottery-gradient-1)" stroke="#000000" stroke-opacity="0.78" stroke-width="4" filter="url(#shadow-1)"></path></g></svg>