<svg xmlns="http://www.w3.org/2000/svg" viewBox="0 0 512 512" style="height: 512px; width: 512px;"><defs><filter id="shadow-1" height="300%" width="300%" x="-100%" y="-100%"><feFlood flood-color="rgba(0, 0, 0, 0.46)" result="flood"></feFlood><feComposite in="flood" in2="SourceGraphic" operator="atop" result="composite"></feComposite><feGaussianBlur in="composite" stdDeviation="15" result="blur"></feGaussianBlur><feOffset dx="0" dy="0" result="offset"></feOffset><feComposite in="SourceGraphic" in2="offset" operator="over"></feComposite></filter><radialGradient id="lorc-papers-gradient-1"><stop offset="0%" stop-color="#820a0a" stop-opacity="0.33"></stop><stop offset="100%" stop-color="#820a0a" stop-opacity="1"></stop></radialGradient></defs><g class="" transform="translate(0,0)" style=""><path d="M18.906 18.06v369.23C112.4 252.618 269.43 157.82 430.37 133.76L228.42 18.06H18.906zM325.72 179.327C200.38 223.948 86.405 311.052 18.157 422.568v33.602c113.074-111.488 277-176.38 434.373-175.25L325.72 179.326zm25.56 128.682c-125.218 21.642-246.974 83.6-333.124 174.812v10.297h58.916c113.9-65.58 251.166-95.325 379.492-80.814L351.28 308.008zm-2.253 120.96c-80.122 5.884-160.432 27.957-232.61 64.15h266.42l-33.81-64.15z" fill="url(#lorc-papers-gradient-1)" stroke="#000000" stroke-opacity="0.78" stroke-width="4" filter="url(#shadow-1)"></path></g></svg>