<svg xmlns="http://www.w3.org/2000/svg" viewBox="0 0 512 512" style="height: 512px; width: 512px;"><defs><filter id="shadow-1" height="300%" width="300%" x="-100%" y="-100%"><feFlood flood-color="rgba(0, 0, 0, 0.46)" result="flood"></feFlood><feComposite in="flood" in2="SourceGraphic" operator="atop" result="composite"></feComposite><feGaussianBlur in="composite" stdDeviation="15" result="blur"></feGaussianBlur><feOffset dx="0" dy="0" result="offset"></feOffset><feComposite in="SourceGraphic" in2="offset" operator="over"></feComposite></filter><radialGradient id="lorc-piercing-sword-gradient-1"><stop offset="0%" stop-color="#820a0a" stop-opacity="0.33"></stop><stop offset="100%" stop-color="#820a0a" stop-opacity="1"></stop></radialGradient></defs><g class="" transform="translate(0,0)" style=""><path d="M40.598 20.316c-11.602 0-21.008 9.406-21.008 21.008 0 11.602 9.406 21.006 21.008 21.006a21.05 21.05 0 0 0 5.18-.646l54.972 54.97-46.223 46.223 46.924 65.783 15.216-10.85-28.316-39.7 18.29-18.29 186.083 272.387 2.203 1.084c53.664 26.42 111.6 49.15 183.537 58.05l11.496 1.424-1.044-11.54c-6.375-70.503-30.856-128.572-58.082-183.845l-1.088-2.21L157.08 109.38l18.432-18.433 39.586 28.395 10.892-15.186-65.652-47.09-46.373 46.373-53.992-53.993c1.05-2.5 1.63-5.242 1.63-8.123 0-11.602-9.404-21.008-21.005-21.008zM143.63 122.828l271.49 184.988c.395.807.78 1.617 1.175 2.424l-9.844 28.38-259.538-191.436L338.066 406.8l-33.15 10.13-184.83-270.557 23.545-23.545zm127.327 147.45L418.13 379.3l11.85-49.017 37.204 135.32-135.317-37.205 49.014-11.856-109.923-146.26z" fill="url(#lorc-piercing-sword-gradient-1)" stroke="#000000" stroke-opacity="0.78" stroke-width="4" filter="url(#shadow-1)"></path></g></svg>