<svg xmlns="http://www.w3.org/2000/svg" viewBox="0 0 512 512" style="height: 512px; width: 512px;"><defs><filter id="shadow-1" height="300%" width="300%" x="-100%" y="-100%"><feFlood flood-color="rgba(0, 0, 0, 0.46)" result="flood"></feFlood><feComposite in="flood" in2="SourceGraphic" operator="atop" result="composite"></feComposite><feGaussianBlur in="composite" stdDeviation="15" result="blur"></feGaussianBlur><feOffset dx="0" dy="0" result="offset"></feOffset><feComposite in="SourceGraphic" in2="offset" operator="over"></feComposite></filter><radialGradient id="sbed-poison-gradient-1"><stop offset="0%" stop-color="#820a0a" stop-opacity="0.33"></stop><stop offset="100%" stop-color="#820a0a" stop-opacity="1"></stop></radialGradient></defs><g class="" transform="translate(0,0)" style=""><path d="M181 181c15 0 60-60 30-105 15-15 15-30 45-30s60 45 60 75-30 60-75 90-120 90-120 165c0 60 45 120 120 120s150-30 150-120c0-60-60-90-90-90-45 0-75 30-90 75 45-60 135-60 135 15 0 45-45 75-105 75-30 0-60-30-60-75s45-90 90-120 90-75 90-120c0-60-45-120-105-120-30 0-60 30-75 45s-45 15-45 60c0 15 30 60 45 60z" fill="url(#sbed-poison-gradient-1)" stroke="#000000" stroke-opacity="0.78" stroke-width="4" filter="url(#shadow-1)"></path></g></svg>