<svg xmlns="http://www.w3.org/2000/svg" viewBox="0 0 512 512" style="height: 512px; width: 512px;"><defs><filter id="shadow-1" height="300%" width="300%" x="-100%" y="-100%"><feFlood flood-color="rgba(0, 0, 0, 0.46)" result="flood"></feFlood><feComposite in="flood" in2="SourceGraphic" operator="atop" result="composite"></feComposite><feGaussianBlur in="composite" stdDeviation="15" result="blur"></feGaussianBlur><feOffset dx="0" dy="0" result="offset"></feOffset><feComposite in="SourceGraphic" in2="offset" operator="over"></feComposite></filter><radialGradient id="lorc-rosa-shield-gradient-1"><stop offset="0%" stop-color="#820a0a" stop-opacity="0.33"></stop><stop offset="100%" stop-color="#820a0a" stop-opacity="1"></stop></radialGradient></defs><g class="" transform="translate(0,0)" style=""><path d="M253.875 20.844c-61.545.405-123.647 9.54-187.47 27.812L59.938 50.5l-.28 6.72c-6.405 147.46 49.12 346.625 192.28 429.28l4.688 2.688 4.656-2.688c139.03-80.27 201.88-281.764 195.376-429.28l-.125-5.907-6.624-2.657c-63.63-18.215-126.57-27.65-190.062-27.812-1.984-.005-3.984-.013-5.97 0zm.344 18.625c1.86-.013 3.73-.006 5.593 0 59.47.15 118.43 8.782 178.28 25.343 3.956 139.034-57.428 327.223-181.468 402.625-128.09-77.646-182.55-263.02-178.438-402.594C138.233 48.228 196.493 39.838 254.22 39.47zM258 56.03l-28.438 126.72-45.312-25.313 26.97 48.25-92.5 26.157 91.655 25.937-26.688 47.72 45.625-25.5 28.657 127.688 28.655-127.625 45.875 25.656-26.72-47.814 91.845-26-92.75-26.25 27.063-48.406-45.5 25.438L258 56.03z" fill="url(#lorc-rosa-shield-gradient-1)" stroke="#000000" stroke-opacity="0.78" stroke-width="4" filter="url(#shadow-1)"></path></g></svg>