<svg xmlns="http://www.w3.org/2000/svg" viewBox="0 0 512 512" style="height: 512px; width: 512px;"><defs><filter id="shadow-1" height="300%" width="300%" x="-100%" y="-100%"><feFlood flood-color="rgba(0, 0, 0, 0.46)" result="flood"></feFlood><feComposite in="flood" in2="SourceGraphic" operator="atop" result="composite"></feComposite><feGaussianBlur in="composite" stdDeviation="15" result="blur"></feGaussianBlur><feOffset dx="0" dy="0" result="offset"></feOffset><feComposite in="SourceGraphic" in2="offset" operator="over"></feComposite></filter><radialGradient id="willdabeast-round-shield-gradient-1"><stop offset="0%" stop-color="#820a0a" stop-opacity="0.33"></stop><stop offset="100%" stop-color="#820a0a" stop-opacity="1"></stop></radialGradient></defs><g class="" transform="translate(0,0)" style=""><path d="M261.563 64.28A191.758 191.758 0 0 0 64.25 256a191.758 191.758 0 1 0 383.5 0A191.758 191.758 0 0 0 261.562 64.28zm-4.625 9.126 8.937 5.156v10.313l-8.938 5.156-8.906-5.155V78.562l8.907-5.156zm3.53 29.25A153.407 153.407 0 0 1 409.407 256a153.407 153.407 0 0 1-306.812 0A153.407 153.407 0 0 1 260.47 102.656zm-11.53 20.03a133.607 133.607 0 0 0-65.157 20.908V368.22a133.607 133.607 0 0 0 65.157 21.092V122.688zm17.687.314v266.125a133.607 133.607 0 0 0 63.438-22.03V145a133.607 133.607 0 0 0-63.438-22zm-100.5 34.344A133.607 133.607 0 0 0 122.405 256a133.607 133.607 0 0 0 43.72 98.78V157.345zm-60.72 1.625 8.907 5.155v10.28l-8.906 5.157-8.937-5.156v-10.28l8.936-5.157zm300.5 0 8.94 5.155v10.28l-8.94 5.157-8.905-5.156v-10.28l8.906-5.157zm-58.155.093V353.03A133.607 133.607 0 0 0 389.594 256a133.607 133.607 0 0 0-41.844-96.938zm57.813 173.125 8.937 5.156v10.312l-8.938 5.156-8.906-5.156v-10.312l8.906-5.156zm-299.813.718 8.938 5.156v10.313l-8.938 5.156-8.938-5.155v-10.313l8.938-5.156zm149.906 85.188 8.938 5.156v10.313l-8.938 5.156-8.906-5.158v-10.31l8.906-5.156z" fill="url(#willdabeast-round-shield-gradient-1)" stroke="#000000" stroke-opacity="0.78" stroke-width="4" filter="url(#shadow-1)"></path></g></svg>