<svg xmlns="http://www.w3.org/2000/svg" viewBox="0 0 512 512" style="height: 512px; width: 512px;"><defs><filter id="shadow-1" height="300%" width="300%" x="-100%" y="-100%"><feFlood flood-color="rgba(0, 0, 0, 0.46)" result="flood"></feFlood><feComposite in="flood" in2="SourceGraphic" operator="atop" result="composite"></feComposite><feGaussianBlur in="composite" stdDeviation="15" result="blur"></feGaussianBlur><feOffset dx="0" dy="0" result="offset"></feOffset><feComposite in="SourceGraphic" in2="offset" operator="over"></feComposite></filter><radialGradient id="delapouite-rub-el-hizb-gradient-1"><stop offset="0%" stop-color="#820a0a" stop-opacity="0.33"></stop><stop offset="100%" stop-color="#820a0a" stop-opacity="1"></stop></radialGradient></defs><g class="" transform="translate(0,0)" style=""><path d="m256 16.97-6.4 6.37L185.9 87H87v99l-70.03 70L87 326v99h99l70 70 70-70h99v-99l70-70-70-70V87h-99l-70-70.03zm0 25.46L300.6 87h-89.2L256 42.43zM105 105h63l-63 63v-63zm88.4 0h125.2l88.4 88.4v125.2L318.6 407H193.4L105 318.6V193.4l88.4-88.4zm150.6 0h63v63l-63-63zm-88 78c-40.2 0-73 32.8-73 73s32.8 73 73 73 73-32.8 73-73-32.8-73-73-73zm0 18c30.5 0 55 24.5 55 55s-24.5 55-55 55-55-24.5-55-55 24.5-55 55-55zm169 10.4 44.6 44.6-44.6 44.6v-89.2zm-338 0v89.2L42.43 256 87 211.4zM407 344v63h-63l63-63zm-302 0 63 63h-63v-63zm106.4 81h89.2L256 469.6 211.4 425z" fill="url(#delapouite-rub-el-hizb-gradient-1)" stroke="#000000" stroke-opacity="0.78" stroke-width="4" filter="url(#shadow-1)"></path></g></svg>