<svg xmlns="http://www.w3.org/2000/svg" viewBox="0 0 512 512" style="height: 512px; width: 512px;"><defs><filter id="shadow-1" height="300%" width="300%" x="-100%" y="-100%"><feFlood flood-color="rgba(0, 0, 0, 0.46)" result="flood"></feFlood><feComposite in="flood" in2="SourceGraphic" operator="atop" result="composite"></feComposite><feGaussianBlur in="composite" stdDeviation="15" result="blur"></feGaussianBlur><feOffset dx="0" dy="0" result="offset"></feOffset><feComposite in="SourceGraphic" in2="offset" operator="over"></feComposite></filter><radialGradient id="delapouite-sai-gradient-1"><stop offset="0%" stop-color="#820a0a" stop-opacity="0.33"></stop><stop offset="100%" stop-color="#820a0a" stop-opacity="1"></stop></radialGradient></defs><g class="" transform="translate(0,0)" style=""><path d="M476.953 34.873C470.795 28.715 237.497 251.72 162.997 326.2l22.628 22.628C261.473 273.082 483.11 41.03 476.953 34.873zM233.747 166.356c-.24-.24-.6-.335-1.07-.293-9.55.855-113.11 97.3-143.888 124.035a9 9 0 0 0 0 12.728l43.84 43.842-13.442 13.504 32.53 32.53 13.443-13.507L209 423.037a9.001 9.001 0 0 0 12.728 0c28.048-32.29 129.91-138.957 123.743-144.957L215.363 403.944l-107.48-107.48zm-120.442 213.39-2.346 21.12 21.12-2.346zm14.072 37.406-18.455 2.05-2.062 18.564zM94.63 384.844 74.666 404.9l17.955-1.996zm-4.045 36.396-32.575 3.62 28.955 28.958zM44.82 434.232l-9.9 9.9 33.122 33.12 9.902-9.896z" fill="url(#delapouite-sai-gradient-1)" stroke="#000000" stroke-opacity="0.78" stroke-width="4" filter="url(#shadow-1)"></path></g></svg>