<svg xmlns="http://www.w3.org/2000/svg" viewBox="0 0 512 512" style="height: 512px; width: 512px;"><defs><filter id="shadow-1" height="300%" width="300%" x="-100%" y="-100%"><feFlood flood-color="rgba(0, 0, 0, 0.46)" result="flood"></feFlood><feComposite in="flood" in2="SourceGraphic" operator="atop" result="composite"></feComposite><feGaussianBlur in="composite" stdDeviation="15" result="blur"></feGaussianBlur><feOffset dx="0" dy="0" result="offset"></feOffset><feComposite in="SourceGraphic" in2="offset" operator="over"></feComposite></filter><radialGradient id="lorc-scythe-gradient-1"><stop offset="0%" stop-color="#820a0a" stop-opacity="0.33"></stop><stop offset="100%" stop-color="#820a0a" stop-opacity="1"></stop></radialGradient></defs><g class="" transform="translate(0,0)" style=""><path d="M296.625 25.406c-63.794.388-135.81 14.683-206.03 32.844-3.472 34.08 2.226 68.906 14.03 104.25C181.175 75.936 393.65 44.825 486.72 128 456.02 50.466 384.046 24.874 296.624 25.406zM65.655 61.438 27.906 71c5.643 78.022 28.546 132.393 60.44 174.47-16.54 10.348-40.693 19.673-68.782 26.843 5.664 6.597 14.25 16.18 30.53 18.53 24.846-4.33 39.912-14.982 53.75-26.593 76.24 85.145 190.22 118.955 253.126 224.22l49.436-.126C290.996 275.316 81.01 364.804 65.656 61.438z" fill="url(#lorc-scythe-gradient-1)" stroke="#000000" stroke-opacity="0.78" stroke-width="4" filter="url(#shadow-1)"></path></g></svg>