<svg xmlns="http://www.w3.org/2000/svg" viewBox="0 0 512 512" style="height: 512px; width: 512px;"><defs><filter id="shadow-1" height="300%" width="300%" x="-100%" y="-100%"><feFlood flood-color="rgba(0, 0, 0, 0.46)" result="flood"></feFlood><feComposite in="flood" in2="SourceGraphic" operator="atop" result="composite"></feComposite><feGaussianBlur in="composite" stdDeviation="15" result="blur"></feGaussianBlur><feOffset dx="0" dy="0" result="offset"></feOffset><feComposite in="SourceGraphic" in2="offset" operator="over"></feComposite></filter><radialGradient id="lorc-shard-sword-gradient-1"><stop offset="0%" stop-color="#820a0a" stop-opacity="0.33"></stop><stop offset="100%" stop-color="#820a0a" stop-opacity="1"></stop></radialGradient></defs><g class="" transform="translate(0,0)" style=""><path d="m496.514 14.453-97.79 45.47-71.57 71.567-26.558-33.377-31.772 91.705-74.644 74.645-26.56-33.375-29.968 86.504 20.053 20.05L413.415 81.93l13.216 13.215L170.92 350.86l20.756 20.755 75.763-75.765 83.155-28.807-30.266-24.084 80.082-80.083 83.158-28.81-31.148-24.786 44.096-94.827zM43.57 266.525l-.002 39.75 23.793-.334 137.732 137.734-.336 23.79h39.754l-.28-39.538h-22.673L83.11 289.48v-22.675l-39.54-.28zm71.434 113.49-88.166 88.167 17.738 17.74 88.168-88.168-17.74-17.738z" fill="url(#lorc-shard-sword-gradient-1)" stroke="#000000" stroke-opacity="0.78" stroke-width="4" filter="url(#shadow-1)"></path></g></svg>