<svg xmlns="http://www.w3.org/2000/svg" viewBox="0 0 512 512" style="height: 512px; width: 512px;"><defs><filter id="shadow-1" height="300%" width="300%" x="-100%" y="-100%"><feFlood flood-color="rgba(0, 0, 0, 0.46)" result="flood"></feFlood><feComposite in="flood" in2="SourceGraphic" operator="atop" result="composite"></feComposite><feGaussianBlur in="composite" stdDeviation="15" result="blur"></feGaussianBlur><feOffset dx="0" dy="0" result="offset"></feOffset><feComposite in="SourceGraphic" in2="offset" operator="over"></feComposite></filter><radialGradient id="darkzaitzev-sharp-shuriken-gradient-1"><stop offset="0%" stop-color="#820a0a" stop-opacity="0.33"></stop><stop offset="100%" stop-color="#820a0a" stop-opacity="1"></stop></radialGradient></defs><g class="" transform="translate(0,0)" style=""><path d="m395.13 313 89.869-100.857H388.08c-45.748 0-82.824-37.063-82.824-82.824l-.297-33.208-100.857-77.147v96.917c0 45.751-37.06 82.824-82.822 82.824l-9.844.298L27.001 299.86h96.92c45.75 0 82.822 37.062 82.822 82.824l.298 20.484 100.854 89.868v-96.913c0-45.749 37.062-82.823 82.824-82.823zM256 306.669c-27.99 0-50.666-22.685-50.666-50.665 0-27.99 22.679-50.671 50.665-50.671 27.99 0 50.67 22.682 50.67 50.671 0 27.98-22.683 50.665-50.67 50.665z" fill="url(#darkzaitzev-sharp-shuriken-gradient-1)" stroke="#000000" stroke-opacity="0.78" stroke-width="4" filter="url(#shadow-1)"></path></g></svg>