<svg xmlns="http://www.w3.org/2000/svg" viewBox="0 0 512 512" style="height: 512px; width: 512px;"><defs><filter id="shadow-1" height="300%" width="300%" x="-100%" y="-100%"><feFlood flood-color="rgba(0, 0, 0, 0.46)" result="flood"></feFlood><feComposite in="flood" in2="SourceGraphic" operator="atop" result="composite"></feComposite><feGaussianBlur in="composite" stdDeviation="15" result="blur"></feGaussianBlur><feOffset dx="0" dy="0" result="offset"></feOffset><feComposite in="SourceGraphic" in2="offset" operator="over"></feComposite></filter><radialGradient id="lorc-spine-arrow-gradient-1"><stop offset="0%" stop-color="#820a0a" stop-opacity="0.33"></stop><stop offset="100%" stop-color="#820a0a" stop-opacity="1"></stop></radialGradient></defs><g class="" transform="translate(0,0)" style=""><path d="M14.563 15.406v104.75L72.97 135.72l52.436 52.468 34.72-18.594 8.81 16.47-86.186 46.155 119.875 33.155 84.28 84.313 20.22-7.594 6.563 17.5-65.438 24.594L491 494 381.812 252.72l-26.03 68.31-17.47-6.655 8.938-23.47-21.406-21.436-33.28-120.314-2.72 5.063-41.625 77.843-16.5-8.813 16.686-31.22-46.375-46.374-33.06-119.53-43.064 80.78-16.5-8.78 15.688-29.407L71.78 15.405H14.563z" fill="url(#lorc-spine-arrow-gradient-1)" stroke="#000000" stroke-opacity="0.78" stroke-width="4" filter="url(#shadow-1)"></path></g></svg>