<svg xmlns="http://www.w3.org/2000/svg" viewBox="0 0 512 512" style="height: 512px; width: 512px;"><defs><filter id="shadow-1" height="300%" width="300%" x="-100%" y="-100%"><feFlood flood-color="rgba(0, 0, 0, 0.46)" result="flood"></feFlood><feComposite in="flood" in2="SourceGraphic" operator="atop" result="composite"></feComposite><feGaussianBlur in="composite" stdDeviation="15" result="blur"></feGaussianBlur><feOffset dx="0" dy="0" result="offset"></feOffset><feComposite in="SourceGraphic" in2="offset" operator="over"></feComposite></filter><radialGradient id="lorc-stone-crafting-gradient-1"><stop offset="0%" stop-color="#204231" stop-opacity="0.33"></stop><stop offset="100%" stop-color="#204231" stop-opacity="1"></stop></radialGradient></defs><g class="" transform="translate(0,0)" style=""><path d="m352.75 39.47-33.094 83.374 111.156 111.28 58.22-58.28L352.75 39.47zm-160.344 5.218c-98.25 66.974-166.87 161.246-169.47 288.906 62.25-119.817 162.457-225.092 255.22-269.75l-85.75-19.157zM97.75 60.156 68.187 89.72c7.276 6.96 14.53 13.893 21.813 20.843 8.887-10.39 18.37-20.35 28.313-29.907l-20.563-20.5zm353.813 0L425.688 86l28.718 28.75c8.91-8.36 17.822-16.728 26.72-25.094l-29.563-29.5zm-263.938 89.75a634.862 634.862 0 0 0-28.063 27.063c25.263 24.13 50.526 48.323 75.688 72.75l26.188-26.126-73.813-73.688zm153.313 20.72L68 443.155l29.313 29.22c83.48-96.13 175.757-186.498 269.812-275.532l-26.188-26.22zm-28.25 104.155a5506.599 5506.599 0 0 0-25.97 25.314c55.896 55.38 111.166 112.353 165.157 172.437l29.438-29.374L312.688 274.78z" fill="url(#lorc-stone-crafting-gradient-1)" stroke="#000000" stroke-opacity="0.78" stroke-width="4" filter="url(#shadow-1)"></path></g></svg>