<svg xmlns="http://www.w3.org/2000/svg" viewBox="0 0 512 512" style="height: 512px; width: 512px;"><defs><filter id="shadow-1" height="300%" width="300%" x="-100%" y="-100%"><feFlood flood-color="rgba(0, 0, 0, 0.46)" result="flood"></feFlood><feComposite in="flood" in2="SourceGraphic" operator="atop" result="composite"></feComposite><feGaussianBlur in="composite" stdDeviation="15" result="blur"></feGaussianBlur><feOffset dx="0" dy="0" result="offset"></feOffset><feComposite in="SourceGraphic" in2="offset" operator="over"></feComposite></filter><radialGradient id="sbed-suicide-gradient-1"><stop offset="0%" stop-color="#820a0a" stop-opacity="0.33"></stop><stop offset="100%" stop-color="#820a0a" stop-opacity="1"></stop></radialGradient></defs><g class="" transform="translate(0,0)" style=""><path d="M241 16a15 15 0 0 0-15 15v60h-15a15 15 0 0 0-15 15v90a15 15 0 0 0 13.844 14.938C158.366 301.06 106 326.67 106 361c0 90 72.837 135 150 135s150-45 150-135c0-34.326-52.37-59.927-103.844-150.03A15 15 0 0 0 316 196v-90a15 15 0 0 0-15-15h-15V31a15 15 0 0 0-15-15h-30zm15 210c15 45 90 120 90 135 0 45-45.033 90-90 90-45.033 0-90-45-90-90 0-15 75-90 90-135z" fill="url(#sbed-suicide-gradient-1)" stroke="#000000" stroke-opacity="0.78" stroke-width="4" filter="url(#shadow-1)"></path></g></svg>