<svg xmlns="http://www.w3.org/2000/svg" viewBox="0 0 512 512" style="height: 512px; width: 512px;"><defs><filter id="shadow-1" height="300%" width="300%" x="-100%" y="-100%"><feFlood flood-color="rgba(0, 0, 0, 0.46)" result="flood"></feFlood><feComposite in="flood" in2="SourceGraphic" operator="atop" result="composite"></feComposite><feGaussianBlur in="composite" stdDeviation="15" result="blur"></feGaussianBlur><feOffset dx="0" dy="0" result="offset"></feOffset><feComposite in="SourceGraphic" in2="offset" operator="over"></feComposite></filter><radialGradient id="delapouite-sunrise-gradient-1"><stop offset="0%" stop-color="#820a0a" stop-opacity="0.33"></stop><stop offset="100%" stop-color="#820a0a" stop-opacity="1"></stop></radialGradient></defs><g class="" transform="translate(0,0)" style=""><path d="m256 32-64 80h32v64h64v-64h32l-64-80zm-9 187v80h18v-80h-18zm-63.992 53.602-16.631 6.886 15.309 36.955 16.628-6.886-15.306-36.955zm145.984 0-15.306 36.955 16.628 6.886 15.309-36.955-16.63-6.886zM77.795 284.068l-12.727 12.727 56.569 56.568 12.726-12.726-56.568-56.569zm356.41 0-56.568 56.569 12.726 12.726 56.569-56.568-12.727-12.727zM256 337.994a118.919 118.919 0 0 0-59.5 15.95c-34.215 19.754-56.177 55.048-59.129 94.056H374.63c-2.952-39.008-24.914-74.302-59.129-94.057a118.919 118.919 0 0 0-59.5-15.949zM66.488 387.377l-6.886 16.63 36.955 15.307 6.886-16.628-36.955-15.309zm379.024 0-36.955 15.309 6.886 16.628 36.955-15.306-6.886-16.631zM24 466v18h464v-18H24z" fill="url(#delapouite-sunrise-gradient-1)" stroke="#000000" stroke-opacity="0.78" stroke-width="4" filter="url(#shadow-1)"></path></g></svg>