<svg xmlns="http://www.w3.org/2000/svg" viewBox="0 0 512 512" style="height: 512px; width: 512px;"><defs><filter id="shadow-1" height="300%" width="300%" x="-100%" y="-100%"><feFlood flood-color="rgba(0, 0, 0, 0.46)" result="flood"></feFlood><feComposite in="flood" in2="SourceGraphic" operator="atop" result="composite"></feComposite><feGaussianBlur in="composite" stdDeviation="15" result="blur"></feGaussianBlur><feOffset dx="0" dy="0" result="offset"></feOffset><feComposite in="SourceGraphic" in2="offset" operator="over"></feComposite></filter><radialGradient id="delapouite-sword-altar-gradient-1"><stop offset="0%" stop-color="#820a0a" stop-opacity="0.33"></stop><stop offset="100%" stop-color="#820a0a" stop-opacity="1"></stop></radialGradient></defs><g class="" transform="translate(0,0)" style=""><path d="m256 24-20 24 12 19.2v38.7c5.3.3 10.7.3 16 0V67.2L276 48l-20-24zm-61.5 86.4-5 15.2c49 16.3 84 16.3 133 0l-5-15.2c-47 15.7-76 15.7-123 0zM232 152v128h16V152h-16zm32 0v128h16V152h-16zm-51.1 144-8 16h102.2l-8-16h-86.2zm-80.2 32L71.65 440H440.3l-61.1-112H132.7zm43.3 16h96v16h-96v-16zm112 0h48v16h-48v-16zm-112 32h32v16h-32v-16zm48 0h112v16H224v-16zm-48 32h64v16h-64v-16zM37.77 456 27.1 488h457.8l-10.7-32H37.77z" fill="url(#delapouite-sword-altar-gradient-1)" stroke="#000000" stroke-opacity="0.78" stroke-width="4" filter="url(#shadow-1)"></path></g></svg>