<svg xmlns="http://www.w3.org/2000/svg" viewBox="0 0 512 512" style="height: 512px; width: 512px;"><defs><filter id="shadow-1" height="300%" width="300%" x="-100%" y="-100%"><feFlood flood-color="rgba(0, 0, 0, 0.46)" result="flood"></feFlood><feComposite in="flood" in2="SourceGraphic" operator="atop" result="composite"></feComposite><feGaussianBlur in="composite" stdDeviation="15" result="blur"></feGaussianBlur><feOffset dx="0" dy="0" result="offset"></feOffset><feComposite in="SourceGraphic" in2="offset" operator="over"></feComposite></filter><radialGradient id="delapouite-templar-shield-gradient-1"><stop offset="0%" stop-color="#820a0a" stop-opacity="0.33"></stop><stop offset="100%" stop-color="#820a0a" stop-opacity="1"></stop></radialGradient></defs><g class="" transform="translate(0,0)" style=""><path d="m256 21.938-4.025 2.01c-96 48-93.455 47.175-189.455 63.175l-8.592 1.432 1.15 8.634c16.125 120.934 48.338 217.868 85.022 285.12 18.34 33.627 37.776 59.85 57.263 78.022C216.85 478.502 236.625 489 256 489s39.15-10.497 58.637-28.668c19.487-18.17 38.922-44.395 57.263-78.02 36.684-67.254 68.897-164.188 85.022-285.123l1.15-8.635-8.592-1.432c-96-16-93.455-15.174-189.455-63.174L256 21.937zM224 64c16 0 16 0 32 16 16-16 16-16 32-16-16 16-16 16-16 32l2.666 48h109.158S400 144 416 128c0 16 0 16-16 32 16 16 16 16 16 32-16-16-32.176-16-32.176-16h-107.38L288 384s0 32 16 64c-16 0-48 0-48-16 0 16-32 16-48 16 16-32 16-64 16-64l11.555-208H128.13S112 176 96 192c0-16 0-16 16-32-16-16-16-16-16-32 16 16 32.13 16 32.13 16h109.204L240 96c0-16 0-16-16-32z" fill="url(#delapouite-templar-shield-gradient-1)" stroke="#000000" stroke-opacity="0.78" stroke-width="4" filter="url(#shadow-1)"></path></g></svg>