<svg xmlns="http://www.w3.org/2000/svg" viewBox="0 0 512 512" style="height: 512px; width: 512px;"><defs><filter id="shadow-1" height="300%" width="300%" x="-100%" y="-100%"><feFlood flood-color="rgba(0, 0, 0, 0.46)" result="flood"></feFlood><feComposite in="flood" in2="SourceGraphic" operator="atop" result="composite"></feComposite><feGaussianBlur in="composite" stdDeviation="15" result="blur"></feGaussianBlur><feOffset dx="0" dy="0" result="offset"></feOffset><feComposite in="SourceGraphic" in2="offset" operator="over"></feComposite></filter><radialGradient id="delapouite-thor-hammer-gradient-1"><stop offset="0%" stop-color="#820a0a" stop-opacity="0.33"></stop><stop offset="100%" stop-color="#820a0a" stop-opacity="1"></stop></radialGradient></defs><g class="" transform="translate(0,0)" style=""><path d="m266.033 32.42-85.238 85.238v19.799L285.832 32.42h-19.799zm41.528 3.728L184.523 159.186l168.291 168.29L475.852 204.44 307.56 36.15zm172.02 190.02L374.542 331.205h19.799l85.238-85.238v-19.799zm-239.903 13.627-9.9 9.9 32.527 32.528 9.9-9.9-32.527-32.528zm-22.627 22.627-23.528 23.527h47.055l-23.527-23.527zm-41.528 41.527-27.255 27.256h65.054l27.256-27.256h-65.055zm-45.255 45.256-27.254 27.254h65.054l27.254-27.254h-65.054zm-27.254 45.254 23.527 23.527 23.527-23.527h-47.054zm-21.729 3.728-9.898 9.899 32.527 32.527 9.898-9.898-32.527-32.527zm-38.767 18.899-7.504 22.512 37.388 37.388 22.512-7.504v-12.414L54.93 417.086H42.518z" fill="url(#delapouite-thor-hammer-gradient-1)" stroke="#000000" stroke-opacity="0.78" stroke-width="4" filter="url(#shadow-1)"></path></g></svg>