<svg xmlns="http://www.w3.org/2000/svg" viewBox="0 0 512 512" style="height: 512px; width: 512px;"><defs><filter id="shadow-1" height="300%" width="300%" x="-100%" y="-100%"><feFlood flood-color="rgba(0, 0, 0, 0.46)" result="flood"></feFlood><feComposite in="flood" in2="SourceGraphic" operator="atop" result="composite"></feComposite><feGaussianBlur in="composite" stdDeviation="15" result="blur"></feGaussianBlur><feOffset dx="0" dy="0" result="offset"></feOffset><feComposite in="SourceGraphic" in2="offset" operator="over"></feComposite></filter><radialGradient id="delapouite-warhammer-gradient-1"><stop offset="0%" stop-color="#820a0a" stop-opacity="0.33"></stop><stop offset="100%" stop-color="#820a0a" stop-opacity="1"></stop></radialGradient></defs><g class="" transform="translate(0,0)" style=""><path d="m351.4 31.4-55.9 27.75 54 34.62 1.9-62.37zM143.2 67.33l20 33.47L182 71.5l-38.8-4.17zm57 9.16-7.6 11.82 100.2 64.19-9.7 15.1-100.2-64.1-24.8 38.7 100.2 64.1-9.7 15.2-100.2-64.1-7.5 11.7 150 96.1 37.9-7.6 44.8-70L200.2 76.49zm93.2 2.73-16.2 25.28 38.7 24.7 16.2-25.2-38.7-24.78zM108.7 121.2l20 33.5 18.8-29.3-38.8-4.2zm280.1 76.1L346.7 263l11.8 7.5 42.1-65.7-11.8-7.5zm-224.1 8.5.6 36 72.8 46.6 33-14.5-106.4-68.1zm250.4 9.9-33.2 51.8c11.7 2.8 24 7.3 36.5 12.3 19.3 7.6 39.1 16.7 56.6 24-9.5-27.2-22.2-57.9-59.9-88.1zm-242.5 52.1L27.77 494h54.61L211.4 292.6l-38.8-24.8z" fill="url(#delapouite-warhammer-gradient-1)" stroke="#000000" stroke-opacity="0.78" stroke-width="4" filter="url(#shadow-1)"></path></g></svg>