<svg xmlns="http://www.w3.org/2000/svg" viewBox="0 0 512 512" style="height: 512px; width: 512px;"><defs><filter id="shadow-1" height="300%" width="300%" x="-100%" y="-100%"><feFlood flood-color="rgba(0, 0, 0, 0.46)" result="flood"></feFlood><feComposite in="flood" in2="SourceGraphic" operator="atop" result="composite"></feComposite><feGaussianBlur in="composite" stdDeviation="15" result="blur"></feGaussianBlur><feOffset dx="0" dy="0" result="offset"></feOffset><feComposite in="SourceGraphic" in2="offset" operator="over"></feComposite></filter><radialGradient id="lorc-wolf-howl-gradient-1"><stop offset="0%" stop-color="#820a0a" stop-opacity="0.33"></stop><stop offset="100%" stop-color="#820a0a" stop-opacity="1"></stop></radialGradient></defs><g class="" transform="translate(0,0)" style=""><path d="M255.563 22.094c-126.81 0-229.594 102.784-229.594 229.594 0 25.4 4.132 49.846 11.75 72.687 40.154-24.203 76.02-41.17 107.56-52.03-35.752 5.615-66.405 23.66-109.843 4 31.552-27.765 87.682-65.842 138.532-71.658 26.58-21.615 68.113-43.962 89.655-37.28 30.492-26.873 67.982-61.093 108.125-85.75 10.667 16.156 17.124 35.94 12.563 57.874-80.37 20.205-61.692 148.928 13.468 67.44 6.348 13.064 9.41 26.665 9.095 41.436-32.675 33.83-66.97 63.026-101.938 87.906.466 23.99-5.605 52.915-19 84.813-5.635 13.42-7.33 36.406 22.875 53.97 101.14-24.012 176.375-114.924 176.375-223.408 0-126.81-102.815-229.593-229.625-229.593zm3.312 164.375c-17.835 2.22-32.794 9.046-45.844 18.968 12.083-.036 25.612 2.882 37.5 6.156 6.208-6.698 10.236-18.52 8.345-25.125z" fill="url(#lorc-wolf-howl-gradient-1)" stroke="#000000" stroke-opacity="0.78" stroke-width="4" filter="url(#shadow-1)"></path></g></svg>