<svg xmlns="http://www.w3.org/2000/svg" viewBox="0 0 512 512" style="height: 512px; width: 512px;"><defs><filter id="shadow-1" height="300%" width="300%" x="-100%" y="-100%"><feFlood flood-color="rgba(0, 0, 0, 0.46)" result="flood"></feFlood><feComposite in="flood" in2="SourceGraphic" operator="atop" result="composite"></feComposite><feGaussianBlur in="composite" stdDeviation="15" result="blur"></feGaussianBlur><feOffset dx="0" dy="0" result="offset"></feOffset><feComposite in="SourceGraphic" in2="offset" operator="over"></feComposite></filter><radialGradient id="delapouite-wood-frame-gradient-1"><stop offset="0%" stop-color="#820a0a" stop-opacity="0.33"></stop><stop offset="100%" stop-color="#820a0a" stop-opacity="1"></stop></radialGradient></defs><g class="" transform="translate(0,0)" style=""><path d="m100.3 19.86-36.62 2.02-.72 13.1a16 16 0 0 1 5.18-.86 16 16 0 0 1 16 16 16 16 0 0 1-16 16 16 16 0 0 1-16-16 16 16 0 0 1 2.38-8.4l-6.44-18.98-15.63.86-.78 377.3 23.01-.8.55-105.9 12.23 105.5 46.84-1.6zm353.5 11.6L121.5 41.71l2.6 58.39L485 85.15l3.5-36.38zm7 72.74-25.4 1-15 39-13.2-37.8-22.5 1-2.8 83.3 7.6 34-9.5 24.1-7.5 226.6 14.1.7 11.3-33.5 11.3 34.7 4.7.3 14.1-21.1 4.6 22 18.3 1zm-61.1 299a16 16 0 0 1 16 16 16 16 0 0 1-16 16 16 16 0 0 1-16-16 16 16 0 0 1 16-16zm85.3.8-14.1.5-1.9 75.2 16.2-.1zm-128.3 4.2-93 3-43.7 20.3-22-18.1-174.24 5.7-.28 63.8 330.82-2.3 1.3-40c-12.9-.3-87.9-2.3-89.6-2.3-1.6 0 69-9.9 90.1-13zM103 431.7a16 16 0 0 1 16 16 16 16 0 0 1-16 16 16 16 0 0 1-15.96-16 16 16 0 0 1 15.96-16zm-51.48.3a16 16 0 0 1 16 16 16 16 0 0 1-16 16 16 16 0 0 1-16-16 16 16 0 0 1 16-16z" fill="url(#delapouite-wood-frame-gradient-1)" stroke="#000000" stroke-opacity="0.78" stroke-width="4" filter="url(#shadow-1)"></path></g></svg>