<svg xmlns="http://www.w3.org/2000/svg" viewBox="0 0 512 512" style="height: 512px; width: 512px;"><defs><filter id="shadow-1" height="300%" width="300%" x="-100%" y="-100%"><feFlood flood-color="rgba(0, 0, 0, 0.46)" result="flood"></feFlood><feComposite in="flood" in2="SourceGraphic" operator="atop" result="composite"></feComposite><feGaussianBlur in="composite" stdDeviation="15" result="blur"></feGaussianBlur><feOffset dx="0" dy="0" result="offset"></feOffset><feComposite in="SourceGraphic" in2="offset" operator="over"></feComposite></filter><radialGradient id="lorc-zeus-sword-gradient-1"><stop offset="0%" stop-color="#820a0a" stop-opacity="0.33"></stop><stop offset="100%" stop-color="#820a0a" stop-opacity="1"></stop></radialGradient></defs><g class="" transform="translate(0,0)" style=""><path d="m498.03 15.125-87.06 34.72-164.5 164.5-34.657-32.095 31.156-28.844-223-133.594L176.155 164.5l-31.094 28.813 63.563 58.875-70.03 70.03a398.93 398.93 0 0 0 8.968 10.438l9.656 9.656 71.5-71.5 13.718 12.688-72 72 9.843 9.844a405.858 405.858 0 0 0 10.657 9.187l72-72 40.782 37.75-29 26.876 223 133.594-158.69-146.97 29-26.842-67.217-62.282 162.5-162.5 34.718-87.03zm-67.34 53.688 13.218 13.218L280.28 245.657l-13.717-12.687L430.688 68.812zm-341 216.875L61.874 313.5 199.22 450.875l27.81-27.844c-56.283-34.674-103.014-81.617-137.343-137.342zM108.44 386.5l-81 81 17.75 17.75 81-81-17.75-17.75z" fill="url(#lorc-zeus-sword-gradient-1)" stroke="#000000" stroke-opacity="0.78" stroke-width="4" filter="url(#shadow-1)"></path></g></svg>