<svg xmlns="http://www.w3.org/2000/svg" viewBox="0 0 512 512" style="height: 512px; width: 512px;"><defs><filter id="shadow-1" height="300%" width="300%" x="-100%" y="-100%"><feFlood flood-color="rgba(53, 58, 49, 1)" result="flood"></feFlood><feComposite in="flood" in2="SourceGraphic" operator="atop" result="composite"></feComposite><feGaussianBlur in="composite" stdDeviation="8" result="blur"></feGaussianBlur><feOffset dx="0" dy="0" result="offset"></feOffset><feComposite in="SourceGraphic" in2="offset" operator="over"></feComposite></filter><filter id="shadow-2" height="300%" width="300%" x="-100%" y="-100%"><feFlood flood-color="rgba(0, 0, 0, 1)" result="flood"></feFlood><feComposite in="flood" in2="SourceGraphic" operator="atop" result="composite"></feComposite><feGaussianBlur in="composite" stdDeviation="12" result="blur"></feGaussianBlur><feOffset dx="0" dy="0" result="offset"></feOffset><feComposite in="SourceGraphic" in2="offset" operator="over"></feComposite></filter><filter id="shadow-3" height="300%" width="300%" x="-100%" y="-100%"><feFlood flood-color="rgba(0, 0, 0, 1)" result="flood"></feFlood><feComposite in="flood" in2="SourceGraphic" operator="atop" result="composite"></feComposite><feGaussianBlur in="composite" stdDeviation="12" result="blur"></feGaussianBlur><feOffset dx="0" dy="0" result="offset"></feOffset><feComposite in="SourceGraphic" in2="offset" operator="over"></feComposite></filter><filter id="shadow-4" height="300%" width="300%" x="-100%" y="-100%"><feFlood flood-color="rgba(0, 0, 0, 1)" result="flood"></feFlood><feComposite in="flood" in2="SourceGraphic" operator="atop" result="composite"></feComposite><feGaussianBlur in="composite" stdDeviation="12" result="blur"></feGaussianBlur><feOffset dx="0" dy="0" result="offset"></feOffset><feComposite in="SourceGraphic" in2="offset" operator="over"></feComposite></filter><filter id="shadow-5" height="300%" width="300%" x="-100%" y="-100%"><feFlood flood-color="rgba(0, 0, 0, 1)" result="flood"></feFlood><feComposite in="flood" in2="SourceGraphic" operator="atop" result="composite"></feComposite><feGaussianBlur in="composite" stdDeviation="12" result="blur"></feGaussianBlur><feOffset dx="0" dy="0" result="offset"></feOffset><feComposite in="SourceGraphic" in2="offset" operator="over"></feComposite></filter><filter id="shadow-6" height="300%" width="300%" x="-100%" y="-100%"><feFlood flood-color="rgba(0, 0, 0, 1)" result="flood"></feFlood><feComposite in="flood" in2="SourceGraphic" operator="atop" result="composite"></feComposite><feGaussianBlur in="composite" stdDeviation="12" result="blur"></feGaussianBlur><feOffset dx="0" dy="0" result="offset"></feOffset><feComposite in="SourceGraphic" in2="offset" operator="over"></feComposite></filter><filter id="shadow-7" height="300%" width="300%" x="-100%" y="-100%"><feFlood flood-color="rgba(0, 0, 0, 1)" result="flood"></feFlood><feComposite in="flood" in2="SourceGraphic" operator="atop" result="composite"></feComposite><feGaussianBlur in="composite" stdDeviation="12" result="blur"></feGaussianBlur><feOffset dx="0" dy="0" result="offset"></feOffset><feComposite in="SourceGraphic" in2="offset" operator="over"></feComposite></filter><filter id="shadow-8" height="300%" width="300%" x="-100%" y="-100%"><feFlood flood-color="rgba(0, 0, 0, 1)" result="flood"></feFlood><feComposite in="flood" in2="SourceGraphic" operator="atop" result="composite"></feComposite><feGaussianBlur in="composite" stdDeviation="12" result="blur"></feGaussianBlur><feOffset dx="0" dy="0" result="offset"></feOffset><feComposite in="SourceGraphic" in2="offset" operator="over"></feComposite></filter><filter id="shadow-9" height="300%" width="300%" x="-100%" y="-100%"><feFlood flood-color="rgba(0, 0, 0, 1)" result="flood"></feFlood><feComposite in="flood" in2="SourceGraphic" operator="atop" result="composite"></feComposite><feGaussianBlur in="composite" stdDeviation="12" result="blur"></feGaussianBlur><feOffset dx="0" dy="0" result="offset"></feOffset><feComposite in="SourceGraphic" in2="offset" operator="over"></feComposite></filter><filter id="shadow-10" height="300%" width="300%" x="-100%" y="-100%"><feFlood flood-color="rgba(0, 0, 0, 1)" result="flood"></feFlood><feComposite in="flood" in2="SourceGraphic" operator="atop" result="composite"></feComposite><feGaussianBlur in="composite" stdDeviation="12" result="blur"></feGaussianBlur><feOffset dx="0" dy="0" result="offset"></feOffset><feComposite in="SourceGraphic" in2="offset" operator="over"></feComposite></filter><radialGradient id="delapouite-classical-knowledge-gradient-1"><stop offset="0%" stop-color="#ffffff" stop-opacity="0.56"></stop><stop offset="100%" stop-color="#5e4141" stop-opacity="0.94"></stop></radialGradient><radialGradient id="delapouite-classical-knowledge-gradient-2"><stop offset="0%" stop-color="#e7e7e6" stop-opacity="1"></stop><stop offset="100%" stop-color="#4d3232" stop-opacity="1"></stop></radialGradient><radialGradient id="delapouite-classical-knowledge-gradient-3"><stop offset="0%" stop-color="#e7e7e6" stop-opacity="1"></stop><stop offset="100%" stop-color="#4d3232" stop-opacity="1"></stop></radialGradient><radialGradient id="delapouite-classical-knowledge-gradient-4"><stop offset="0%" stop-color="#e7e7e6" stop-opacity="1"></stop><stop offset="100%" stop-color="#4d3232" stop-opacity="1"></stop></radialGradient><radialGradient id="delapouite-classical-knowledge-gradient-5"><stop offset="0%" stop-color="#e7e7e6" stop-opacity="1"></stop><stop offset="100%" stop-color="#4d3232" stop-opacity="1"></stop></radialGradient><radialGradient id="delapouite-classical-knowledge-gradient-6"><stop offset="0%" stop-color="#e7e7e6" stop-opacity="1"></stop><stop offset="100%" stop-color="#4d3232" stop-opacity="1"></stop></radialGradient><radialGradient id="delapouite-classical-knowledge-gradient-7"><stop offset="0%" stop-color="#e7e7e6" stop-opacity="1"></stop><stop offset="100%" stop-color="#4d3232" stop-opacity="1"></stop></radialGradient><radialGradient id="delapouite-classical-knowledge-gradient-8"><stop offset="0%" stop-color="#e7e7e6" stop-opacity="1"></stop><stop offset="100%" stop-color="#4d3232" stop-opacity="1"></stop></radialGradient><radialGradient id="delapouite-classical-knowledge-gradient-9"><stop offset="0%" stop-color="#e7e7e6" stop-opacity="1"></stop><stop offset="100%" stop-color="#4d3232" stop-opacity="1"></stop></radialGradient><radialGradient id="delapouite-classical-knowledge-gradient-10"><stop offset="0%" stop-color="#e7e7e6" stop-opacity="1"></stop><stop offset="100%" stop-color="#4d3232" stop-opacity="1"></stop></radialGradient></defs><g class="" transform="translate(-16,27)" style=""><path d="M104 37.25V215.1c3.6 9.9 10 14.1 20.9 17 11.4 2.9 27.1 3.1 43.9 3.1 16.8 0 34.6-.1 51.4 3.6 9.5 2.1 18.7 5.7 26.8 11.2V55.43c-7.2-9.9-15.9-13.69-27.3-15.09-12.2-1.49-27.3.55-42.9 2.83-15.7 2.28-31.9 4.81-47.7 2.88-8.7-1.07-17.3-3.87-25.1-8.8zm304 0c-7.8 4.93-16.4 7.73-25.1 8.8-15.8 1.93-32-.6-47.7-2.88-15.6-2.28-30.7-4.32-42.9-2.83-11.4 1.4-20.1 5.19-27.3 15.09V250c8.1-5.5 17.3-9.1 26.8-11.2 16.8-3.7 34.6-3.6 51.4-3.6 16.8 0 32.5-.2 43.9-3.1 10.9-2.9 17.3-7.1 20.9-17V37.25zM130.8 80.03h89.4v18h-89.4v-18zm161 0h89.4v18h-89.4v-18zm-161 44.47h89.4v18h-89.4v-18zm161 0h89.4v18h-89.4v-18zm-161 46.8h89.4v18h-89.4v-18zm161 0h89.4v18h-89.4v-18zM96 249c-17.3 0-29.19 7.3-37.77 18.9C49.66 279.4 45 295.7 45 312s4.66 32.6 13.23 44.1C66.81 367.7 78.7 375 96 375c22 0 35.7-7.1 44.4-14 8.6-6.9 11.5-13 11.5-13l2.5-5h203.2l2.5 5s2.9 6.1 11.5 13c8.7 6.9 22.4 14 44.4 14 17.3 0 29.2-7.3 37.8-18.9 8.5-11.5 13.2-27.8 13.2-44.1s-4.7-32.6-13.2-44.1c-8.6-11.6-20.5-18.9-37.8-18.9-22 0-35.7 7.1-44.4 14-8.6 6.9-11.5 13-11.5 13l-2.5 5H154.4l-2.5-5s-2.9-6.1-11.5-13c-8.7-6.9-22.4-14-44.4-14zm4.6 21.9c.9 0 1.9 0 2.9.1 13.5 1.2 28.2 8.9 44.1 24h216.8c15.9-15.1 30.6-22.8 44.1-24 14.2-1.2 26.6 5.8 33.1 16.2 13.1 20.9 7 53.9-20.6 72.3l-10-15c20.4-13.6 22.3-36.6 15.4-47.7-3.5-5.6-8.1-8.6-16.4-7.8-8.2.7-20.6 6.3-35.6 21.4l-2.7 2.6H140.3l-2.7-2.6c-15-15.1-27.4-20.7-35.6-21.4-8.26-.8-12.9 2.2-16.37 7.8-6.92 11.1-4.99 34.1 15.37 47.7l-9.99 15c-27.65-18.4-33.72-51.4-20.64-72.3 5.72-9.1 15.9-15.6 27.92-16.3h2.31zM169 361v126h30V361h-30zm48 0v126h30V361h-30zm48 0v126h30V361h-30zm48 0v126h30V361h-30z" fill="url(#delapouite-classical-knowledge-gradient-1)" stroke="#000000" stroke-opacity="0.4" stroke-width="1" transform="translate(460.8, 460.8) scale(-0.8, -0.8) rotate(180, 256, 256) skewX(0) skewY(0)" filter="url(#shadow-1)"></path></g></svg>