<svg xmlns="http://www.w3.org/2000/svg" viewBox="0 0 512 512" style="height: 512px; width: 512px;"><defs><filter id="shadow-1" height="300%" width="300%" x="-100%" y="-100%"><feFlood flood-color="rgba(53, 58, 49, 1)" result="flood"></feFlood><feComposite in="flood" in2="SourceGraphic" operator="atop" result="composite"></feComposite><feGaussianBlur in="composite" stdDeviation="8" result="blur"></feGaussianBlur><feOffset dx="0" dy="0" result="offset"></feOffset><feComposite in="SourceGraphic" in2="offset" operator="over"></feComposite></filter><filter id="shadow-2" height="300%" width="300%" x="-100%" y="-100%"><feFlood flood-color="rgba(0, 0, 0, 1)" result="flood"></feFlood><feComposite in="flood" in2="SourceGraphic" operator="atop" result="composite"></feComposite><feGaussianBlur in="composite" stdDeviation="12" result="blur"></feGaussianBlur><feOffset dx="0" dy="0" result="offset"></feOffset><feComposite in="SourceGraphic" in2="offset" operator="over"></feComposite></filter><filter id="shadow-3" height="300%" width="300%" x="-100%" y="-100%"><feFlood flood-color="rgba(0, 0, 0, 1)" result="flood"></feFlood><feComposite in="flood" in2="SourceGraphic" operator="atop" result="composite"></feComposite><feGaussianBlur in="composite" stdDeviation="12" result="blur"></feGaussianBlur><feOffset dx="0" dy="0" result="offset"></feOffset><feComposite in="SourceGraphic" in2="offset" operator="over"></feComposite></filter><filter id="shadow-4" height="300%" width="300%" x="-100%" y="-100%"><feFlood flood-color="rgba(0, 0, 0, 1)" result="flood"></feFlood><feComposite in="flood" in2="SourceGraphic" operator="atop" result="composite"></feComposite><feGaussianBlur in="composite" stdDeviation="12" result="blur"></feGaussianBlur><feOffset dx="0" dy="0" result="offset"></feOffset><feComposite in="SourceGraphic" in2="offset" operator="over"></feComposite></filter><filter id="shadow-5" height="300%" width="300%" x="-100%" y="-100%"><feFlood flood-color="rgba(0, 0, 0, 1)" result="flood"></feFlood><feComposite in="flood" in2="SourceGraphic" operator="atop" result="composite"></feComposite><feGaussianBlur in="composite" stdDeviation="12" result="blur"></feGaussianBlur><feOffset dx="0" dy="0" result="offset"></feOffset><feComposite in="SourceGraphic" in2="offset" operator="over"></feComposite></filter><filter id="shadow-6" height="300%" width="300%" x="-100%" y="-100%"><feFlood flood-color="rgba(0, 0, 0, 1)" result="flood"></feFlood><feComposite in="flood" in2="SourceGraphic" operator="atop" result="composite"></feComposite><feGaussianBlur in="composite" stdDeviation="12" result="blur"></feGaussianBlur><feOffset dx="0" dy="0" result="offset"></feOffset><feComposite in="SourceGraphic" in2="offset" operator="over"></feComposite></filter><filter id="shadow-7" height="300%" width="300%" x="-100%" y="-100%"><feFlood flood-color="rgba(0, 0, 0, 1)" result="flood"></feFlood><feComposite in="flood" in2="SourceGraphic" operator="atop" result="composite"></feComposite><feGaussianBlur in="composite" stdDeviation="12" result="blur"></feGaussianBlur><feOffset dx="0" dy="0" result="offset"></feOffset><feComposite in="SourceGraphic" in2="offset" operator="over"></feComposite></filter><filter id="shadow-8" height="300%" width="300%" x="-100%" y="-100%"><feFlood flood-color="rgba(0, 0, 0, 1)" result="flood"></feFlood><feComposite in="flood" in2="SourceGraphic" operator="atop" result="composite"></feComposite><feGaussianBlur in="composite" stdDeviation="12" result="blur"></feGaussianBlur><feOffset dx="0" dy="0" result="offset"></feOffset><feComposite in="SourceGraphic" in2="offset" operator="over"></feComposite></filter><filter id="shadow-9" height="300%" width="300%" x="-100%" y="-100%"><feFlood flood-color="rgba(0, 0, 0, 1)" result="flood"></feFlood><feComposite in="flood" in2="SourceGraphic" operator="atop" result="composite"></feComposite><feGaussianBlur in="composite" stdDeviation="12" result="blur"></feGaussianBlur><feOffset dx="0" dy="0" result="offset"></feOffset><feComposite in="SourceGraphic" in2="offset" operator="over"></feComposite></filter><filter id="shadow-10" height="300%" width="300%" x="-100%" y="-100%"><feFlood flood-color="rgba(0, 0, 0, 1)" result="flood"></feFlood><feComposite in="flood" in2="SourceGraphic" operator="atop" result="composite"></feComposite><feGaussianBlur in="composite" stdDeviation="12" result="blur"></feGaussianBlur><feOffset dx="0" dy="0" result="offset"></feOffset><feComposite in="SourceGraphic" in2="offset" operator="over"></feComposite></filter><radialGradient id="delapouite-holy-hand-grenade-gradient-1"><stop offset="0%" stop-color="#ffffff" stop-opacity="0.56"></stop><stop offset="100%" stop-color="#5e4141" stop-opacity="0.94"></stop></radialGradient><radialGradient id="delapouite-holy-hand-grenade-gradient-2"><stop offset="0%" stop-color="#e7e7e6" stop-opacity="1"></stop><stop offset="100%" stop-color="#4d3232" stop-opacity="1"></stop></radialGradient><radialGradient id="delapouite-holy-hand-grenade-gradient-3"><stop offset="0%" stop-color="#e7e7e6" stop-opacity="1"></stop><stop offset="100%" stop-color="#4d3232" stop-opacity="1"></stop></radialGradient><radialGradient id="delapouite-holy-hand-grenade-gradient-4"><stop offset="0%" stop-color="#e7e7e6" stop-opacity="1"></stop><stop offset="100%" stop-color="#4d3232" stop-opacity="1"></stop></radialGradient><radialGradient id="delapouite-holy-hand-grenade-gradient-5"><stop offset="0%" stop-color="#e7e7e6" stop-opacity="1"></stop><stop offset="100%" stop-color="#4d3232" stop-opacity="1"></stop></radialGradient><radialGradient id="delapouite-holy-hand-grenade-gradient-6"><stop offset="0%" stop-color="#e7e7e6" stop-opacity="1"></stop><stop offset="100%" stop-color="#4d3232" stop-opacity="1"></stop></radialGradient><radialGradient id="delapouite-holy-hand-grenade-gradient-7"><stop offset="0%" stop-color="#e7e7e6" stop-opacity="1"></stop><stop offset="100%" stop-color="#4d3232" stop-opacity="1"></stop></radialGradient><radialGradient id="delapouite-holy-hand-grenade-gradient-8"><stop offset="0%" stop-color="#e7e7e6" stop-opacity="1"></stop><stop offset="100%" stop-color="#4d3232" stop-opacity="1"></stop></radialGradient><radialGradient id="delapouite-holy-hand-grenade-gradient-9"><stop offset="0%" stop-color="#e7e7e6" stop-opacity="1"></stop><stop offset="100%" stop-color="#4d3232" stop-opacity="1"></stop></radialGradient><radialGradient id="delapouite-holy-hand-grenade-gradient-10"><stop offset="0%" stop-color="#e7e7e6" stop-opacity="1"></stop><stop offset="100%" stop-color="#4d3232" stop-opacity="1"></stop></radialGradient></defs><g class="" transform="translate(-16,27)" style=""><path d="M233 17.44v56.12h-64v46h64v56.57c7.523-1.028 15.2-1.57 23-1.57 7.8 0 15.477.542 23 1.57v-56.57h64v-46h-64V17.44h-46zm23 54.89c13.7 0 25 11.3 25 25s-11.3 25-25 25-25-11.3-25-25 11.3-25 25-25zm0 18c-3.973 0-7 3.027-7 7s3.027 7 7 7 7-3.027 7-7-3.027-7-7-7zm-7.545 102.416c-5.226.256-10.383.778-15.455 1.55v12.536c2.85-6.65 8.516-11.855 15.455-14.086zm15.09 0c6.94 2.23 12.605 7.437 15.455 14.086v-12.535c-5.072-.773-10.23-1.295-15.455-1.55zM215 198.18c-56.035 15.73-98.793 62.918-108.1 121.38H215V198.18zm82 0v121.38h108.1C395.793 261.1 353.035 213.91 297 198.18zm-41 11.38c-3.973 0-7 3.028-7 7 0 3.973 3.027 7 7 7s7-3.027 7-7c0-3.972-3.027-7-7-7zm-23 16.73v28.542c2.934-6.843 8.85-12.156 16.066-14.27-7.217-2.117-13.132-7.43-16.066-14.273zm46 0c-2.934 6.842-8.85 12.155-16.066 14.27 7.217 2.116 13.132 7.43 16.066 14.272V226.29zm-23 31.27c-3.973 0-7 3.028-7 7 0 3.973 3.027 7 7 7s7-3.027 7-7c0-3.972-3.027-7-7-7zm-23 16.73v28.542c2.934-6.843 8.85-12.156 16.066-14.27-7.217-2.117-13.132-7.43-16.066-14.273zm46 0c-2.934 6.842-8.85 12.155-16.066 14.27 7.217 2.116 13.132 7.43 16.066 14.272V274.29zm-23 31.27c-3.973 0-7 3.028-7 7 0 3.973 3.027 7 7 7s7-3.027 7-7c0-3.972-3.027-7-7-7zm-23 16.73v15.27h-15.27c6.842 2.934 12.155 8.85 14.27 16.067 2.395-8.173 8.894-14.67 17.066-17.066-7.217-2.115-13.132-7.428-16.066-14.27zm46 0c-2.934 6.842-8.85 12.155-16.066 14.27 8.172 2.396 14.67 8.894 17.066 17.067 2.115-7.217 7.428-13.133 14.27-16.066H279v-15.27zm-157.27 15.27c6.842 2.934 12.155 8.85 14.27 16.067 2.115-7.217 7.428-13.133 14.27-16.066h-28.54zm48 0c6.842 2.934 12.155 8.85 14.27 16.067 2.115-7.217 7.428-13.133 14.27-16.066h-28.54zm144 0c6.842 2.934 12.155 8.85 14.27 16.067 2.115-7.217 7.428-13.133 14.27-16.066h-28.54zm48 0c6.842 2.934 12.155 8.85 14.27 16.067 2.115-7.217 7.428-13.133 14.27-16.066h-28.54zm-249.73 16c-2.882 0-5.26 1.597-6.352 3.99.23 2.498.52 4.978.868 7.44 1.264 1.583 3.22 2.57 5.484 2.57 3.973 0 7-3.027 7-7 0-3.972-3.027-7-7-7zm48 0c-3.973 0-7 3.028-7 7 0 3.973 3.027 7 7 7s7-3.027 7-7c0-3.972-3.027-7-7-7zm48 0c-3.973 0-7 3.028-7 7 0 3.973 3.027 7 7 7s7-3.027 7-7c0-3.972-3.027-7-7-7zm48 0c-3.973 0-7 3.028-7 7 0 3.973 3.027 7 7 7s7-3.027 7-7c0-3.972-3.027-7-7-7zm48 0c-3.973 0-7 3.028-7 7 0 3.973 3.027 7 7 7s7-3.027 7-7c0-3.972-3.027-7-7-7zm48 0c-3.973 0-7 3.028-7 7 0 3.973 3.027 7 7 7s7-3.027 7-7c0-3.972-3.027-7-7-7zm48 0c-3.973 0-7 3.028-7 7 0 3.973 3.027 7 7 7 2.265 0 4.22-.987 5.484-2.57.35-2.462.64-4.942.868-7.44-1.093-2.393-3.47-3.99-6.352-3.99zm-264 13.934c-2.115 7.217-7.428 13.133-14.27 16.067h28.54c-6.842-2.933-12.155-8.85-14.27-16.066zm48 0c-2.115 7.217-7.428 13.133-14.27 16.067h28.54c-6.842-2.933-12.155-8.85-14.27-16.066zm48 0c-2.115 7.217-7.428 13.133-14.27 16.067h28.54c-6.842-2.933-12.155-8.85-14.27-16.066zm48 0c-2.115 7.217-7.428 13.133-14.27 16.067h28.54c-6.842-2.933-12.155-8.85-14.27-16.066zm48 0c-2.115 7.217-7.428 13.133-14.27 16.067h28.54c-6.842-2.933-12.155-8.85-14.27-16.066zm48 0c-2.115 7.217-7.428 13.133-14.27 16.067h28.54c-6.842-2.933-12.155-8.85-14.27-16.066zM116.518 401.56c22.702 54.647 76.542 93 139.482 93s116.78-38.353 139.482-93H116.518z" fill="url(#delapouite-holy-hand-grenade-gradient-1)" stroke="#000000" stroke-opacity="0.4" stroke-width="1" transform="translate(460.8, 460.8) scale(-0.8, -0.8) rotate(180, 256, 256) skewX(0) skewY(0)" filter="url(#shadow-1)"></path></g></svg>