<svg xmlns="http://www.w3.org/2000/svg" viewBox="0 0 512 512" style="height: 512px; width: 512px;"><defs><filter id="shadow-1" height="300%" width="300%" x="-100%" y="-100%"><feFlood flood-color="rgba(53, 58, 49, 1)" result="flood"></feFlood><feComposite in="flood" in2="SourceGraphic" operator="atop" result="composite"></feComposite><feGaussianBlur in="composite" stdDeviation="8" result="blur"></feGaussianBlur><feOffset dx="0" dy="0" result="offset"></feOffset><feComposite in="SourceGraphic" in2="offset" operator="over"></feComposite></filter><filter id="shadow-2" height="300%" width="300%" x="-100%" y="-100%"><feFlood flood-color="rgba(0, 0, 0, 1)" result="flood"></feFlood><feComposite in="flood" in2="SourceGraphic" operator="atop" result="composite"></feComposite><feGaussianBlur in="composite" stdDeviation="12" result="blur"></feGaussianBlur><feOffset dx="0" dy="0" result="offset"></feOffset><feComposite in="SourceGraphic" in2="offset" operator="over"></feComposite></filter><filter id="shadow-3" height="300%" width="300%" x="-100%" y="-100%"><feFlood flood-color="rgba(0, 0, 0, 1)" result="flood"></feFlood><feComposite in="flood" in2="SourceGraphic" operator="atop" result="composite"></feComposite><feGaussianBlur in="composite" stdDeviation="12" result="blur"></feGaussianBlur><feOffset dx="0" dy="0" result="offset"></feOffset><feComposite in="SourceGraphic" in2="offset" operator="over"></feComposite></filter><filter id="shadow-4" height="300%" width="300%" x="-100%" y="-100%"><feFlood flood-color="rgba(0, 0, 0, 1)" result="flood"></feFlood><feComposite in="flood" in2="SourceGraphic" operator="atop" result="composite"></feComposite><feGaussianBlur in="composite" stdDeviation="12" result="blur"></feGaussianBlur><feOffset dx="0" dy="0" result="offset"></feOffset><feComposite in="SourceGraphic" in2="offset" operator="over"></feComposite></filter><filter id="shadow-5" height="300%" width="300%" x="-100%" y="-100%"><feFlood flood-color="rgba(0, 0, 0, 1)" result="flood"></feFlood><feComposite in="flood" in2="SourceGraphic" operator="atop" result="composite"></feComposite><feGaussianBlur in="composite" stdDeviation="12" result="blur"></feGaussianBlur><feOffset dx="0" dy="0" result="offset"></feOffset><feComposite in="SourceGraphic" in2="offset" operator="over"></feComposite></filter><filter id="shadow-6" height="300%" width="300%" x="-100%" y="-100%"><feFlood flood-color="rgba(0, 0, 0, 1)" result="flood"></feFlood><feComposite in="flood" in2="SourceGraphic" operator="atop" result="composite"></feComposite><feGaussianBlur in="composite" stdDeviation="12" result="blur"></feGaussianBlur><feOffset dx="0" dy="0" result="offset"></feOffset><feComposite in="SourceGraphic" in2="offset" operator="over"></feComposite></filter><filter id="shadow-7" height="300%" width="300%" x="-100%" y="-100%"><feFlood flood-color="rgba(0, 0, 0, 1)" result="flood"></feFlood><feComposite in="flood" in2="SourceGraphic" operator="atop" result="composite"></feComposite><feGaussianBlur in="composite" stdDeviation="12" result="blur"></feGaussianBlur><feOffset dx="0" dy="0" result="offset"></feOffset><feComposite in="SourceGraphic" in2="offset" operator="over"></feComposite></filter><filter id="shadow-8" height="300%" width="300%" x="-100%" y="-100%"><feFlood flood-color="rgba(0, 0, 0, 1)" result="flood"></feFlood><feComposite in="flood" in2="SourceGraphic" operator="atop" result="composite"></feComposite><feGaussianBlur in="composite" stdDeviation="12" result="blur"></feGaussianBlur><feOffset dx="0" dy="0" result="offset"></feOffset><feComposite in="SourceGraphic" in2="offset" operator="over"></feComposite></filter><filter id="shadow-9" height="300%" width="300%" x="-100%" y="-100%"><feFlood flood-color="rgba(0, 0, 0, 1)" result="flood"></feFlood><feComposite in="flood" in2="SourceGraphic" operator="atop" result="composite"></feComposite><feGaussianBlur in="composite" stdDeviation="12" result="blur"></feGaussianBlur><feOffset dx="0" dy="0" result="offset"></feOffset><feComposite in="SourceGraphic" in2="offset" operator="over"></feComposite></filter><filter id="shadow-10" height="300%" width="300%" x="-100%" y="-100%"><feFlood flood-color="rgba(0, 0, 0, 1)" result="flood"></feFlood><feComposite in="flood" in2="SourceGraphic" operator="atop" result="composite"></feComposite><feGaussianBlur in="composite" stdDeviation="12" result="blur"></feGaussianBlur><feOffset dx="0" dy="0" result="offset"></feOffset><feComposite in="SourceGraphic" in2="offset" operator="over"></feComposite></filter><radialGradient id="delapouite-telescope-gradient-1"><stop offset="0%" stop-color="#ffffff" stop-opacity="0.56"></stop><stop offset="100%" stop-color="#5e4141" stop-opacity="0.94"></stop></radialGradient><radialGradient id="delapouite-telescope-gradient-2"><stop offset="0%" stop-color="#e7e7e6" stop-opacity="1"></stop><stop offset="100%" stop-color="#4d3232" stop-opacity="1"></stop></radialGradient><radialGradient id="delapouite-telescope-gradient-3"><stop offset="0%" stop-color="#e7e7e6" stop-opacity="1"></stop><stop offset="100%" stop-color="#4d3232" stop-opacity="1"></stop></radialGradient><radialGradient id="delapouite-telescope-gradient-4"><stop offset="0%" stop-color="#e7e7e6" stop-opacity="1"></stop><stop offset="100%" stop-color="#4d3232" stop-opacity="1"></stop></radialGradient><radialGradient id="delapouite-telescope-gradient-5"><stop offset="0%" stop-color="#e7e7e6" stop-opacity="1"></stop><stop offset="100%" stop-color="#4d3232" stop-opacity="1"></stop></radialGradient><radialGradient id="delapouite-telescope-gradient-6"><stop offset="0%" stop-color="#e7e7e6" stop-opacity="1"></stop><stop offset="100%" stop-color="#4d3232" stop-opacity="1"></stop></radialGradient><radialGradient id="delapouite-telescope-gradient-7"><stop offset="0%" stop-color="#e7e7e6" stop-opacity="1"></stop><stop offset="100%" stop-color="#4d3232" stop-opacity="1"></stop></radialGradient><radialGradient id="delapouite-telescope-gradient-8"><stop offset="0%" stop-color="#e7e7e6" stop-opacity="1"></stop><stop offset="100%" stop-color="#4d3232" stop-opacity="1"></stop></radialGradient><radialGradient id="delapouite-telescope-gradient-9"><stop offset="0%" stop-color="#e7e7e6" stop-opacity="1"></stop><stop offset="100%" stop-color="#4d3232" stop-opacity="1"></stop></radialGradient><radialGradient id="delapouite-telescope-gradient-10"><stop offset="0%" stop-color="#e7e7e6" stop-opacity="1"></stop><stop offset="100%" stop-color="#4d3232" stop-opacity="1"></stop></radialGradient></defs><g class="" transform="translate(-16,27)" style=""><path d="M275.3 19.02c-1 0-1.6.19-1.9.37-.5.35-1.5 1.93-.9 6.16.7 4.17 3.4 9.96 8 15.36 4.6 5.4 10.1 9.2 14.3 10.81 4.4 1.55 6.3 1.04 6.8.69.5-.35 1.5-1.93.9-6.16-.7-4.17-3.4-9.96-8-15.36-4.6-5.4-10.1-9.2-14.3-10.81-2.2-.78-3.8-1.04-4.9-1.06zM404.4 35.2c-.7.1-1.1.24-1.5.45-.7.42-1.5 1.25-2.2 3.91-.7 2.75-.9 6.99-.1 12.13.5 3.22 1.4 6.85 2.5 10.63a35.08 13.15 58.61 0 1 3.2-8.44 35.08 13.15 58.61 0 1 29.5 23.09 35.08 13.15 58.61 0 1 7 36.83 35.08 13.15 58.61 0 1-8.8-1c2.8 2.7 5.6 5.2 8.2 7 4.2 3.1 8.1 4.8 10.8 5.5 2.7.6 3.8.2 4.5-.2.7-.4 1.4-1.2 2.2-3.9.6-2.7.8-7 .1-12.1-1.5-10.32-6.6-24.17-14.9-37.74-8.2-13.57-18.2-24.35-26.7-30.41-4.2-3.05-8.1-4.79-10.8-5.45-1.3-.29-2.3-.36-3-.3zm-146.6 3.98-10 8.93c-.2.17-.6.3.4 3.65s3.9 8.19 7.5 12.28 8.1 7.46 11.3 8.85c3.2 1.37 3.3.98 3.4.84l10.6-9.49c-5.5-3.2-10.6-7.54-15.1-12.85-3.4-3.95-6.1-8.05-8.1-12.21zm125.5 18.34-28.5 17.47c-1.8 1.1-2.8 2.36-3.6 4.83-.8 2.47-1 6.16-.5 10.59 1.2 8.87 5.7 20.39 12 30.79 6.3 10.4 14.5 19.7 21.9 24.8 3.6 2.5 7 3.9 9.6 4.4 2.5.4 4.1.1 5.9-1l28.4-17.4c-10.1-7.9-20-19.3-28.4-33.22-8.7-14.16-14.4-28.41-16.8-41.26zM234.6 65.3l-48.5 49.9-.2.2c-1.3 1.2-1.4 1.6-1.2 3.2.2 1.6 1.3 4.1 3.1 6.2 1.8 2 4.2 3.4 5.8 3.8 1.6.4 2.1.4 3.6-.9l.2-.2 54.7-42.54c-3.6-2.55-6.8-5.62-9.8-8.98-3-3.31-5.6-6.89-7.7-10.68zm98.9 30.96L214.7 181.1l-.3.2c-15.4 9.4-3 38.2 13 45L169 489l17.6 4 34.3-154.3 63.2 31.5 12.8 121.7 17.9-1.8-13.1-123.9 44.9-27.9 47.6 143.9 17-5.6-90-271.8-16.1 8.3 35.6 107.6-41.1 25.6-13-123.6-17.1 8.8L281.9 349l-57-28.5 21.7-97.4 124.8-64.6c-7.1-5.4-13.5-12.5-19.1-20.4l-45 27.4-9.4-15.4 45-27.4c-4.4-8.6-7.8-17.6-9.4-26.44zm-90.9 18.94-14.1 10.9 11.7 14.7 14.5-10.4zm-52.4 87.4L74.44 287.5l-.33.2c-4.7 2.8 4.27 17.4 8.94 14.6l.29-.2 128.16-64.5c-10.8-8.3-18.9-21.6-21.3-35zM65.44 221.9c-3.46.2-7.08 2.2-9.92 5.1-2.16 2.2-3.41 4.8-3.65 6.3-.25 1.4-.3 1.5.82 2.6l.12.1 26.11 25.8 21.98-16.1-30.59-22.9c-1.07-.5-2.21-.9-3.4-.9z" fill="url(#delapouite-telescope-gradient-1)" stroke="#000000" stroke-opacity="0.4" stroke-width="1" transform="translate(460.8, 460.8) scale(-0.8, -0.8) rotate(180, 256, 256) skewX(0) skewY(0)" filter="url(#shadow-1)"></path></g></svg>