<svg id="e8UxPABEe9b1" xmlns="http://www.w3.org/2000/svg" xmlns:xlink="http://www.w3.org/1999/xlink" viewBox="0 0 512 512" shape-rendering="geometricPrecision" text-rendering="geometricPrecision"><defs><filter id="e8UxPABEe9b3-filter" x="-150%" width="400%" y="-150%" height="400%"><feGaussianBlur id="e8UxPABEe9b3-filter-drop-shadow-0-blur" in="SourceAlpha" stdDeviation="12,12"/><feOffset id="e8UxPABEe9b3-filter-drop-shadow-0-offset" dx="0" dy="0" result="tmp"/><feFlood id="e8UxPABEe9b3-filter-drop-shadow-0-flood" flood-color="#000"/><feComposite id="e8UxPABEe9b3-filter-drop-shadow-0-composite" operator="in" in2="tmp"/><feMerge id="e8UxPABEe9b3-filter-drop-shadow-0-merge" result="result"><feMergeNode id="e8UxPABEe9b3-filter-drop-shadow-0-merge-node-1"/><feMergeNode id="e8UxPABEe9b3-filter-drop-shadow-0-merge-node-2" in="SourceGraphic"/></feMerge></filter><radialGradient id="e8UxPABEe9b3-fill" cx="0" cy="0" r="0.5" spreadMethod="pad" gradientUnits="objectBoundingBox" gradientTransform="translate(0.5 0.5)"><stop id="e8UxPABEe9b3-fill-0" offset="0%" stop-color="#e7e7e6"/><stop id="e8UxPABEe9b3-fill-1" offset="100%" stop-color="#4d3232"/></radialGradient></defs><g transform="matrix(1.070954 0 0 1.091384-17.921851-16.218514)"><path d="M13.58914,19.294651L210,20l.259243,30.116085q-48.433682-5.870749-48.433682,19.079935q20,40,62.376712,139.430298Q233.008397,194.683288,260,190q17.772861-15.864335,60-120q6.206544-22.085446-33.421015-19.150071-14.676873.733844-16.14456,0L270,20l154.541596.028494v30.087591L390,50L320,180q30,0,70,0c40,0,96.918308,18.352507,98.385995,47.706253c0,24.950685-24.950685,36.692184-70.448992,37.426028C403.993973,269.535343,430,210,360,210c-55.074923,3.02938-88,20-104,90s10.118953,127.585544,40.118953,137.585544c27.88606,11.741498,84.567203,32.935374,144.567203,2.935374q21.281467-11.741498,38.893715-26.418372l13.94303,19.079936q-3.669219,23.482997-35.224497,38.15987c-20,10-68.247461,22.749154-150.437952,15.410718-32.289122-2.935375-92.825705-11.182837-132.825705-71.182837-32.289121-52.1029-19.539967-117.631828-9.539967-141.631828Q151.55175,238.713909,54.684385,50.116085L12.121452,48.648398L13.58914,19.294651Z" transform="matrix(.9 0 0 0.9 25.6 25.6)" filter="url(#e8UxPABEe9b3-filter)" fill="url(#e8UxPABEe9b3-fill)" stroke="#000" stroke-width="4"/></g></svg>
