<svg xmlns="http://www.w3.org/2000/svg" viewBox="0 0 512 512" style="height: 512px; width: 512px;"><defs><filter id="shadow-1" height="300%" width="300%" x="-100%" y="-100%"><feFlood flood-color="rgba(0, 0, 0, 1)" result="flood"></feFlood><feComposite in="flood" in2="SourceGraphic" operator="atop" result="composite"></feComposite><feGaussianBlur in="composite" stdDeviation="12" result="blur"></feGaussianBlur><feOffset dx="0" dy="0" result="offset"></feOffset><feComposite in="SourceGraphic" in2="offset" operator="over"></feComposite></filter><filter id="shadow-2" height="300%" width="300%" x="-100%" y="-100%"><feFlood flood-color="rgba(0, 0, 0, 1)" result="flood"></feFlood><feComposite in="flood" in2="SourceGraphic" operator="atop" result="composite"></feComposite><feGaussianBlur in="composite" stdDeviation="12" result="blur"></feGaussianBlur><feOffset dx="0" dy="0" result="offset"></feOffset><feComposite in="SourceGraphic" in2="offset" operator="over"></feComposite></filter><filter id="shadow-3" height="300%" width="300%" x="-100%" y="-100%"><feFlood flood-color="rgba(0, 0, 0, 1)" result="flood"></feFlood><feComposite in="flood" in2="SourceGraphic" operator="atop" result="composite"></feComposite><feGaussianBlur in="composite" stdDeviation="12" result="blur"></feGaussianBlur><feOffset dx="0" dy="0" result="offset"></feOffset><feComposite in="SourceGraphic" in2="offset" operator="over"></feComposite></filter><filter id="shadow-4" height="300%" width="300%" x="-100%" y="-100%"><feFlood flood-color="rgba(0, 0, 0, 1)" result="flood"></feFlood><feComposite in="flood" in2="SourceGraphic" operator="atop" result="composite"></feComposite><feGaussianBlur in="composite" stdDeviation="12" result="blur"></feGaussianBlur><feOffset dx="0" dy="0" result="offset"></feOffset><feComposite in="SourceGraphic" in2="offset" operator="over"></feComposite></filter><filter id="shadow-5" height="300%" width="300%" x="-100%" y="-100%"><feFlood flood-color="rgba(0, 0, 0, 1)" result="flood"></feFlood><feComposite in="flood" in2="SourceGraphic" operator="atop" result="composite"></feComposite><feGaussianBlur in="composite" stdDeviation="12" result="blur"></feGaussianBlur><feOffset dx="0" dy="0" result="offset"></feOffset><feComposite in="SourceGraphic" in2="offset" operator="over"></feComposite></filter><filter id="shadow-6" height="300%" width="300%" x="-100%" y="-100%"><feFlood flood-color="rgba(0, 0, 0, 1)" result="flood"></feFlood><feComposite in="flood" in2="SourceGraphic" operator="atop" result="composite"></feComposite><feGaussianBlur in="composite" stdDeviation="12" result="blur"></feGaussianBlur><feOffset dx="0" dy="0" result="offset"></feOffset><feComposite in="SourceGraphic" in2="offset" operator="over"></feComposite></filter><filter id="shadow-7" height="300%" width="300%" x="-100%" y="-100%"><feFlood flood-color="rgba(0, 0, 0, 1)" result="flood"></feFlood><feComposite in="flood" in2="SourceGraphic" operator="atop" result="composite"></feComposite><feGaussianBlur in="composite" stdDeviation="12" result="blur"></feGaussianBlur><feOffset dx="0" dy="0" result="offset"></feOffset><feComposite in="SourceGraphic" in2="offset" operator="over"></feComposite></filter><filter id="shadow-8" height="300%" width="300%" x="-100%" y="-100%"><feFlood flood-color="rgba(0, 0, 0, 1)" result="flood"></feFlood><feComposite in="flood" in2="SourceGraphic" operator="atop" result="composite"></feComposite><feGaussianBlur in="composite" stdDeviation="12" result="blur"></feGaussianBlur><feOffset dx="0" dy="0" result="offset"></feOffset><feComposite in="SourceGraphic" in2="offset" operator="over"></feComposite></filter><filter id="shadow-9" height="300%" width="300%" x="-100%" y="-100%"><feFlood flood-color="rgba(0, 0, 0, 1)" result="flood"></feFlood><feComposite in="flood" in2="SourceGraphic" operator="atop" result="composite"></feComposite><feGaussianBlur in="composite" stdDeviation="12" result="blur"></feGaussianBlur><feOffset dx="0" dy="0" result="offset"></feOffset><feComposite in="SourceGraphic" in2="offset" operator="over"></feComposite></filter><filter id="shadow-10" height="300%" width="300%" x="-100%" y="-100%"><feFlood flood-color="rgba(0, 0, 0, 1)" result="flood"></feFlood><feComposite in="flood" in2="SourceGraphic" operator="atop" result="composite"></feComposite><feGaussianBlur in="composite" stdDeviation="12" result="blur"></feGaussianBlur><feOffset dx="0" dy="0" result="offset"></feOffset><feComposite in="SourceGraphic" in2="offset" operator="over"></feComposite></filter><radialGradient id="lorc-magic-palm-gradient-1"><stop offset="0%" stop-color="#e7e7e6" stop-opacity="1"></stop><stop offset="100%" stop-color="#4d3232" stop-opacity="1"></stop></radialGradient><radialGradient id="lorc-magic-palm-gradient-2"><stop offset="0%" stop-color="#e7e7e6" stop-opacity="1"></stop><stop offset="100%" stop-color="#4d3232" stop-opacity="1"></stop></radialGradient><radialGradient id="lorc-magic-palm-gradient-3"><stop offset="0%" stop-color="#e7e7e6" stop-opacity="1"></stop><stop offset="100%" stop-color="#4d3232" stop-opacity="1"></stop></radialGradient><radialGradient id="lorc-magic-palm-gradient-4"><stop offset="0%" stop-color="#e7e7e6" stop-opacity="1"></stop><stop offset="100%" stop-color="#4d3232" stop-opacity="1"></stop></radialGradient><radialGradient id="lorc-magic-palm-gradient-5"><stop offset="0%" stop-color="#e7e7e6" stop-opacity="1"></stop><stop offset="100%" stop-color="#4d3232" stop-opacity="1"></stop></radialGradient><radialGradient id="lorc-magic-palm-gradient-6"><stop offset="0%" stop-color="#e7e7e6" stop-opacity="1"></stop><stop offset="100%" stop-color="#4d3232" stop-opacity="1"></stop></radialGradient><radialGradient id="lorc-magic-palm-gradient-7"><stop offset="0%" stop-color="#e7e7e6" stop-opacity="1"></stop><stop offset="100%" stop-color="#4d3232" stop-opacity="1"></stop></radialGradient><radialGradient id="lorc-magic-palm-gradient-8"><stop offset="0%" stop-color="#e7e7e6" stop-opacity="1"></stop><stop offset="100%" stop-color="#4d3232" stop-opacity="1"></stop></radialGradient><radialGradient id="lorc-magic-palm-gradient-9"><stop offset="0%" stop-color="#e7e7e6" stop-opacity="1"></stop><stop offset="100%" stop-color="#4d3232" stop-opacity="1"></stop></radialGradient><radialGradient id="lorc-magic-palm-gradient-10"><stop offset="0%" stop-color="#e7e7e6" stop-opacity="1"></stop><stop offset="100%" stop-color="#4d3232" stop-opacity="1"></stop></radialGradient></defs><g class="" transform="translate(-16,27)" style=""><path d="M245.813 23.188c-1.228-.006-2.455.027-3.657.093-10.103.56-19.646 3.682-30.156 11.25l20.72 196.782c-8.394 2.127-16.676 4.47-24.814 7.094L137.72 57.812c-7.032-1.706-17.442-.3-27.126 4.626-10.248 5.213-19.034 13.84-22.813 22.937L155.03 261.5c-7.414 4.345-14.59 9.137-21.5 14.47l-74.343-94.25c-16.34.698-34.965 14.455-37.562 32.655C28.89 222.693 93.978 297.77 126 357.405c10.3 19.184 29.543 50.725 39.188 70.064 5.83 11.693 16.004 24.238 27.843 32.342 11.84 8.104 24.7 11.82 37.907 8.282l112.907-30.22c5.493-1.47 9.196-5.39 13.22-11.937 4.02-6.545 7.535-15.137 12.905-23 20.61-30.185 50.432-76.085 115.186-112.062-2.696-15.053-7.405-24.57-12.72-29.563-6.03-5.667-13.198-7.372-23.686-5.843-18.062 2.63-43.498 17.063-69.594 36.874-1.68 1.39-3.318 2.802-4.937 4.22l-7-61.252 42.5-155.718c-4.478-7.355-13.806-13.258-24.845-15.97-10.874-2.67-22.506-1.698-30.28 1.595l-38.75 149.874c-9.365 1.58-18.732 3.17-28.064 4.812L273.69 27.5c-10.057-2.52-19.284-4.272-27.875-4.313zM234.343 255l30.157 56.625 54.406-33.906-33.78 54.186L341.562 362l-64.157-2.188 2.188 64.032-30.03-56.344-54.283 33.813 33.97-54.438-56.53-30.125 63.78 2.156L234.344 255z" fill="url(#lorc-magic-palm-gradient-1)" stroke="#000000" stroke-opacity="1" stroke-width="4" filter="url(#shadow-1)"></path></g></svg>