<svg xmlns="http://www.w3.org/2000/svg" viewBox="0 0 512 512" style="height: 512px; width: 512px;"><defs><filter id="shadow-1" height="300%" width="300%" x="-100%" y="-100%"><feFlood flood-color="rgba(53, 58, 49, 1)" result="flood"></feFlood><feComposite in="flood" in2="SourceGraphic" operator="atop" result="composite"></feComposite><feGaussianBlur in="composite" stdDeviation="8" result="blur"></feGaussianBlur><feOffset dx="0" dy="0" result="offset"></feOffset><feComposite in="SourceGraphic" in2="offset" operator="over"></feComposite></filter><filter id="shadow-2" height="300%" width="300%" x="-100%" y="-100%"><feFlood flood-color="rgba(0, 0, 0, 1)" result="flood"></feFlood><feComposite in="flood" in2="SourceGraphic" operator="atop" result="composite"></feComposite><feGaussianBlur in="composite" stdDeviation="12" result="blur"></feGaussianBlur><feOffset dx="0" dy="0" result="offset"></feOffset><feComposite in="SourceGraphic" in2="offset" operator="over"></feComposite></filter><filter id="shadow-3" height="300%" width="300%" x="-100%" y="-100%"><feFlood flood-color="rgba(0, 0, 0, 1)" result="flood"></feFlood><feComposite in="flood" in2="SourceGraphic" operator="atop" result="composite"></feComposite><feGaussianBlur in="composite" stdDeviation="12" result="blur"></feGaussianBlur><feOffset dx="0" dy="0" result="offset"></feOffset><feComposite in="SourceGraphic" in2="offset" operator="over"></feComposite></filter><filter id="shadow-4" height="300%" width="300%" x="-100%" y="-100%"><feFlood flood-color="rgba(0, 0, 0, 1)" result="flood"></feFlood><feComposite in="flood" in2="SourceGraphic" operator="atop" result="composite"></feComposite><feGaussianBlur in="composite" stdDeviation="12" result="blur"></feGaussianBlur><feOffset dx="0" dy="0" result="offset"></feOffset><feComposite in="SourceGraphic" in2="offset" operator="over"></feComposite></filter><filter id="shadow-5" height="300%" width="300%" x="-100%" y="-100%"><feFlood flood-color="rgba(0, 0, 0, 1)" result="flood"></feFlood><feComposite in="flood" in2="SourceGraphic" operator="atop" result="composite"></feComposite><feGaussianBlur in="composite" stdDeviation="12" result="blur"></feGaussianBlur><feOffset dx="0" dy="0" result="offset"></feOffset><feComposite in="SourceGraphic" in2="offset" operator="over"></feComposite></filter><filter id="shadow-6" height="300%" width="300%" x="-100%" y="-100%"><feFlood flood-color="rgba(0, 0, 0, 1)" result="flood"></feFlood><feComposite in="flood" in2="SourceGraphic" operator="atop" result="composite"></feComposite><feGaussianBlur in="composite" stdDeviation="12" result="blur"></feGaussianBlur><feOffset dx="0" dy="0" result="offset"></feOffset><feComposite in="SourceGraphic" in2="offset" operator="over"></feComposite></filter><filter id="shadow-7" height="300%" width="300%" x="-100%" y="-100%"><feFlood flood-color="rgba(0, 0, 0, 1)" result="flood"></feFlood><feComposite in="flood" in2="SourceGraphic" operator="atop" result="composite"></feComposite><feGaussianBlur in="composite" stdDeviation="12" result="blur"></feGaussianBlur><feOffset dx="0" dy="0" result="offset"></feOffset><feComposite in="SourceGraphic" in2="offset" operator="over"></feComposite></filter><filter id="shadow-8" height="300%" width="300%" x="-100%" y="-100%"><feFlood flood-color="rgba(0, 0, 0, 1)" result="flood"></feFlood><feComposite in="flood" in2="SourceGraphic" operator="atop" result="composite"></feComposite><feGaussianBlur in="composite" stdDeviation="12" result="blur"></feGaussianBlur><feOffset dx="0" dy="0" result="offset"></feOffset><feComposite in="SourceGraphic" in2="offset" operator="over"></feComposite></filter><filter id="shadow-9" height="300%" width="300%" x="-100%" y="-100%"><feFlood flood-color="rgba(0, 0, 0, 1)" result="flood"></feFlood><feComposite in="flood" in2="SourceGraphic" operator="atop" result="composite"></feComposite><feGaussianBlur in="composite" stdDeviation="12" result="blur"></feGaussianBlur><feOffset dx="0" dy="0" result="offset"></feOffset><feComposite in="SourceGraphic" in2="offset" operator="over"></feComposite></filter><filter id="shadow-10" height="300%" width="300%" x="-100%" y="-100%"><feFlood flood-color="rgba(0, 0, 0, 1)" result="flood"></feFlood><feComposite in="flood" in2="SourceGraphic" operator="atop" result="composite"></feComposite><feGaussianBlur in="composite" stdDeviation="12" result="blur"></feGaussianBlur><feOffset dx="0" dy="0" result="offset"></feOffset><feComposite in="SourceGraphic" in2="offset" operator="over"></feComposite></filter><radialGradient id="delapouite-asparagus-gradient-1"><stop offset="0%" stop-color="#ffffff" stop-opacity="0.56"></stop><stop offset="100%" stop-color="#5e4141" stop-opacity="0.94"></stop></radialGradient><radialGradient id="delapouite-asparagus-gradient-2"><stop offset="0%" stop-color="#e7e7e6" stop-opacity="1"></stop><stop offset="100%" stop-color="#4d3232" stop-opacity="1"></stop></radialGradient><radialGradient id="delapouite-asparagus-gradient-3"><stop offset="0%" stop-color="#e7e7e6" stop-opacity="1"></stop><stop offset="100%" stop-color="#4d3232" stop-opacity="1"></stop></radialGradient><radialGradient id="delapouite-asparagus-gradient-4"><stop offset="0%" stop-color="#e7e7e6" stop-opacity="1"></stop><stop offset="100%" stop-color="#4d3232" stop-opacity="1"></stop></radialGradient><radialGradient id="delapouite-asparagus-gradient-5"><stop offset="0%" stop-color="#e7e7e6" stop-opacity="1"></stop><stop offset="100%" stop-color="#4d3232" stop-opacity="1"></stop></radialGradient><radialGradient id="delapouite-asparagus-gradient-6"><stop offset="0%" stop-color="#e7e7e6" stop-opacity="1"></stop><stop offset="100%" stop-color="#4d3232" stop-opacity="1"></stop></radialGradient><radialGradient id="delapouite-asparagus-gradient-7"><stop offset="0%" stop-color="#e7e7e6" stop-opacity="1"></stop><stop offset="100%" stop-color="#4d3232" stop-opacity="1"></stop></radialGradient><radialGradient id="delapouite-asparagus-gradient-8"><stop offset="0%" stop-color="#e7e7e6" stop-opacity="1"></stop><stop offset="100%" stop-color="#4d3232" stop-opacity="1"></stop></radialGradient><radialGradient id="delapouite-asparagus-gradient-9"><stop offset="0%" stop-color="#e7e7e6" stop-opacity="1"></stop><stop offset="100%" stop-color="#4d3232" stop-opacity="1"></stop></radialGradient><radialGradient id="delapouite-asparagus-gradient-10"><stop offset="0%" stop-color="#e7e7e6" stop-opacity="1"></stop><stop offset="100%" stop-color="#4d3232" stop-opacity="1"></stop></radialGradient></defs><g class="" transform="translate(-16,27)" style=""><path d="M377.9 25.46v.04h-2.1c-15.8.54-30.2 4.13-43.1 9.71 12 17.79 14.8 34.85 13.5 50.27 4.6-.25 8.5-.3 12.8-.26 5.6-19.47 12.6-40.4 25.3-59.61-2.2-.1-4.3-.16-6.4-.15zm-61.2 18.08c-9.6 5.79-18.1 12.61-25.8 19.92 4.8 11.74 9.4 23.71 13.3 35.57 7.8-5.65 15.4-9.21 23.7-11.12 2.4-14.2 1.4-27.52-11.2-44.37zm-39.4 34.42c-4.9 5.94-9.4 11.98-13.3 17.85-11.9 17.89-15.9 31.89-15.1 42.69.8 10.9 6 19.6 16.3 28.2 7 5.8 18.5 6.5 31.1 3.5 2.4-11.5 1.2-26.9-3-44-3.7-15.2-9.5-31.74-16-48.24zm161.2 17.7c-7.4.04-14.7 1.06-21.7 3.24 5.6 13.6 4.9 28.7 1.4 42-2.4 8.8-5.9 17.1-10.1 24.2 5.2.4 10.8 1.1 16.7 1.9 13.6-25 26.4-49.7 42.5-67.01-9.6-2.8-19.3-4.38-28.8-4.33zm-84.4 7.64c-16.5.3-34.7 2.9-44.1 15.3.2 1.1.5 2.3.8 3.4 3.5 14.5 5.6 28.5 4.7 41.4.2-.2.5-.3.8-.4 3.7-5.2 8-10.5 13.1-16 5.2-5.6 10.7-12 16.8-18.6 2.8-7.5 5.4-16 7.9-25.1zm46.2 2.8c-12.4 7.4-24.3 17.7-33.2 26.6 2.5 12.5 5.7 25.1 8.1 37.2 3.2-1.6 6.6-2.9 9.9-3.7 5.7-6.2 12.5-17.7 15.7-29.9 2.8-10.6 3.1-21.3-.5-30.2zm-48.2 42.7c-3.2 3.5-6.4 7.1-9.5 10.4-14.6 15.9-21.3 28.9-22.8 39-1.5 10.1 1.4 17.9 8.8 26.3 3.9 4.4 11.5 6.3 21 5.8 18.1-29.3 9.1-51.1 2.5-81.5zm-107.3 23l-79.7 99.3c1.7 2.9 4.6 8.2 6 10.3l-16.3 7.3c-15.9-9.4-20.7-41.1-24.8-33.5-15.4 33.7-12.4 57.7-6.5 90.1l-15.2 11.6c-.2-1-2.8-10.3-2.9-11.3L19.24 452.9v19.3L149 352.4l121.6-163.7c-6-1.4-11.7-4-16.8-8.2-3.3-2.7-6.3-5.6-9-8.7zm153.4 11c-1.7 0-3.3.1-4.8.2-5.9.7-10.4 2.1-15.2 6.1 1 12 .1 26.1-3.9 35.6 5.7-2 10.7-4.4 13.9-6.3 10.8-6.3 19.3-18.7 27.8-34.3-6.1-.7-11.4-1.3-16-1.3h-1.8zm96.1 7.8c-17.3 10.7-35.9 17.1-53.3 22.3-.2 2.1-.5 4.3-.8 6.4 16.2-1.9 35.5 2.9 47 9.1 3.3-11 5.8-23.5 7.1-37.8zM422 218.4c-3 .8-6.1 1.8-9 2.7-4.5 5-9.7 9.4-15.6 12.9-6.5 3.8-15.5 7.7-25.7 10.6-2.4 3.7-5.2 9.2-7.4 15.4 4.4-.8 9-1.3 13.7-1.3 9-.1 18.4 1.1 27.8 3.3 7.3-13.7 13.5-28.4 16.2-43.6zm-112.7 10.3l-30.2 28c1.7 2.7 3.5 4.6 4.4 5.1l-8.6 15.8c-12.2-7.7-18-30.1-31-32.4-9 23.3-6.7 45.8-7.5 67.8l-17.6-.6L22.83 493.3h53.44L327.6 245.2c-4.6-1.9-8.8-4.7-12.4-8.7-2.2-2.4-4.1-5-5.9-7.8zm142.4 7.6c-5.3 0-10.6.8-16.1 2-3.2 10.2-7.5 19.8-12.1 28.8 11 3.7 21.9 8.5 32.5 13.6 9.3-8.8 18-20.2 24.8-35.4-10.8-6.7-20-9-29.1-9zm-73.3 40.8c-6.9 0-13.2.8-18.7 2.7-.5 8.2.9 15.2 4.3 19.1 7.4 8.5 15 12.3 25.7 12.5 10.7.1 25-4 43.1-13.9 2.4-1.3 4.8-2.7 7.2-4.3-21.6-9.5-43.6-15.9-61.6-16.1zM342.2 293L194.4 401.9l-92.6 91.4h29l2.5-18c38.5 5.1 104.7 13.2 42.2-21.2l9.2-15.6c3.2 1.9 6.7 4.1 10.3 6.3l161.3-128.2c-2.1-1.8-4-3.8-5.9-5.9-4.5-5.2-7-11.3-8.2-17.7z" fill="url(#delapouite-asparagus-gradient-1)" stroke="#000000" stroke-opacity="0.4" stroke-width="1" transform="translate(460.8, 460.8) scale(-0.8, -0.8) rotate(540, 256, 256) skewX(0) skewY(0)" filter="url(#shadow-1)"></path></g></svg>