<svg xmlns="http://www.w3.org/2000/svg" viewBox="0 0 512 512" style="height: 512px; width: 512px;"><defs><filter id="shadow-1" height="300%" width="300%" x="-100%" y="-100%"><feFlood flood-color="rgba(53, 58, 49, 1)" result="flood"></feFlood><feComposite in="flood" in2="SourceGraphic" operator="atop" result="composite"></feComposite><feGaussianBlur in="composite" stdDeviation="8" result="blur"></feGaussianBlur><feOffset dx="0" dy="0" result="offset"></feOffset><feComposite in="SourceGraphic" in2="offset" operator="over"></feComposite></filter><filter id="shadow-2" height="300%" width="300%" x="-100%" y="-100%"><feFlood flood-color="rgba(0, 0, 0, 1)" result="flood"></feFlood><feComposite in="flood" in2="SourceGraphic" operator="atop" result="composite"></feComposite><feGaussianBlur in="composite" stdDeviation="12" result="blur"></feGaussianBlur><feOffset dx="0" dy="0" result="offset"></feOffset><feComposite in="SourceGraphic" in2="offset" operator="over"></feComposite></filter><filter id="shadow-3" height="300%" width="300%" x="-100%" y="-100%"><feFlood flood-color="rgba(0, 0, 0, 1)" result="flood"></feFlood><feComposite in="flood" in2="SourceGraphic" operator="atop" result="composite"></feComposite><feGaussianBlur in="composite" stdDeviation="12" result="blur"></feGaussianBlur><feOffset dx="0" dy="0" result="offset"></feOffset><feComposite in="SourceGraphic" in2="offset" operator="over"></feComposite></filter><filter id="shadow-4" height="300%" width="300%" x="-100%" y="-100%"><feFlood flood-color="rgba(0, 0, 0, 1)" result="flood"></feFlood><feComposite in="flood" in2="SourceGraphic" operator="atop" result="composite"></feComposite><feGaussianBlur in="composite" stdDeviation="12" result="blur"></feGaussianBlur><feOffset dx="0" dy="0" result="offset"></feOffset><feComposite in="SourceGraphic" in2="offset" operator="over"></feComposite></filter><filter id="shadow-5" height="300%" width="300%" x="-100%" y="-100%"><feFlood flood-color="rgba(0, 0, 0, 1)" result="flood"></feFlood><feComposite in="flood" in2="SourceGraphic" operator="atop" result="composite"></feComposite><feGaussianBlur in="composite" stdDeviation="12" result="blur"></feGaussianBlur><feOffset dx="0" dy="0" result="offset"></feOffset><feComposite in="SourceGraphic" in2="offset" operator="over"></feComposite></filter><filter id="shadow-6" height="300%" width="300%" x="-100%" y="-100%"><feFlood flood-color="rgba(0, 0, 0, 1)" result="flood"></feFlood><feComposite in="flood" in2="SourceGraphic" operator="atop" result="composite"></feComposite><feGaussianBlur in="composite" stdDeviation="12" result="blur"></feGaussianBlur><feOffset dx="0" dy="0" result="offset"></feOffset><feComposite in="SourceGraphic" in2="offset" operator="over"></feComposite></filter><filter id="shadow-7" height="300%" width="300%" x="-100%" y="-100%"><feFlood flood-color="rgba(0, 0, 0, 1)" result="flood"></feFlood><feComposite in="flood" in2="SourceGraphic" operator="atop" result="composite"></feComposite><feGaussianBlur in="composite" stdDeviation="12" result="blur"></feGaussianBlur><feOffset dx="0" dy="0" result="offset"></feOffset><feComposite in="SourceGraphic" in2="offset" operator="over"></feComposite></filter><filter id="shadow-8" height="300%" width="300%" x="-100%" y="-100%"><feFlood flood-color="rgba(0, 0, 0, 1)" result="flood"></feFlood><feComposite in="flood" in2="SourceGraphic" operator="atop" result="composite"></feComposite><feGaussianBlur in="composite" stdDeviation="12" result="blur"></feGaussianBlur><feOffset dx="0" dy="0" result="offset"></feOffset><feComposite in="SourceGraphic" in2="offset" operator="over"></feComposite></filter><filter id="shadow-9" height="300%" width="300%" x="-100%" y="-100%"><feFlood flood-color="rgba(0, 0, 0, 1)" result="flood"></feFlood><feComposite in="flood" in2="SourceGraphic" operator="atop" result="composite"></feComposite><feGaussianBlur in="composite" stdDeviation="12" result="blur"></feGaussianBlur><feOffset dx="0" dy="0" result="offset"></feOffset><feComposite in="SourceGraphic" in2="offset" operator="over"></feComposite></filter><filter id="shadow-10" height="300%" width="300%" x="-100%" y="-100%"><feFlood flood-color="rgba(0, 0, 0, 1)" result="flood"></feFlood><feComposite in="flood" in2="SourceGraphic" operator="atop" result="composite"></feComposite><feGaussianBlur in="composite" stdDeviation="12" result="blur"></feGaussianBlur><feOffset dx="0" dy="0" result="offset"></feOffset><feComposite in="SourceGraphic" in2="offset" operator="over"></feComposite></filter><radialGradient id="delapouite-bellows-gradient-1"><stop offset="0%" stop-color="#ffffff" stop-opacity="0.56"></stop><stop offset="100%" stop-color="#5e4141" stop-opacity="0.94"></stop></radialGradient><radialGradient id="delapouite-bellows-gradient-2"><stop offset="0%" stop-color="#e7e7e6" stop-opacity="1"></stop><stop offset="100%" stop-color="#4d3232" stop-opacity="1"></stop></radialGradient><radialGradient id="delapouite-bellows-gradient-3"><stop offset="0%" stop-color="#e7e7e6" stop-opacity="1"></stop><stop offset="100%" stop-color="#4d3232" stop-opacity="1"></stop></radialGradient><radialGradient id="delapouite-bellows-gradient-4"><stop offset="0%" stop-color="#e7e7e6" stop-opacity="1"></stop><stop offset="100%" stop-color="#4d3232" stop-opacity="1"></stop></radialGradient><radialGradient id="delapouite-bellows-gradient-5"><stop offset="0%" stop-color="#e7e7e6" stop-opacity="1"></stop><stop offset="100%" stop-color="#4d3232" stop-opacity="1"></stop></radialGradient><radialGradient id="delapouite-bellows-gradient-6"><stop offset="0%" stop-color="#e7e7e6" stop-opacity="1"></stop><stop offset="100%" stop-color="#4d3232" stop-opacity="1"></stop></radialGradient><radialGradient id="delapouite-bellows-gradient-7"><stop offset="0%" stop-color="#e7e7e6" stop-opacity="1"></stop><stop offset="100%" stop-color="#4d3232" stop-opacity="1"></stop></radialGradient><radialGradient id="delapouite-bellows-gradient-8"><stop offset="0%" stop-color="#e7e7e6" stop-opacity="1"></stop><stop offset="100%" stop-color="#4d3232" stop-opacity="1"></stop></radialGradient><radialGradient id="delapouite-bellows-gradient-9"><stop offset="0%" stop-color="#e7e7e6" stop-opacity="1"></stop><stop offset="100%" stop-color="#4d3232" stop-opacity="1"></stop></radialGradient><radialGradient id="delapouite-bellows-gradient-10"><stop offset="0%" stop-color="#e7e7e6" stop-opacity="1"></stop><stop offset="100%" stop-color="#4d3232" stop-opacity="1"></stop></radialGradient></defs><g class="" transform="translate(-16,27)" style=""><path d="M109 23.76c-2 0-3.9.22-5.8.83-7.29 2.25-10.55 4.99-11.98 7.22-1.42 2.24-1.85 4.78-.81 9.3 2.06 9.04 11.39 23.41 23.59 38.22 12.2 14.81 26.9 30.47 39.2 44.97 12.2 14.6 22.5 27.2 24.6 41.2l.2 1.6-.3 1.6c-4.8 22.2-11.6 43.2-12.6 62.3-1 19 2.8 35.5 19.8 52.4 34.8 34.8 73.3 64.8 111.9 85.7 32.1-1 62.1-4 84.6-15.5-5.2-40.8.9-82.3-38.9-119.8-36.2-34.2-84.9-53.4-130.4-82.6l-.2-.2-.2-.2c-10.1-7.4-18.4-19.8-27.3-34.2-9-14.4-18.2-30.91-27.8-46.03-9.5-15.11-19.5-28.79-28.9-37.2-7.1-6.3-13-9.45-18.7-9.61zm44.8 245.94l-5.9 22.3c14.8 29.7 42.7 68.4 69.2 83.1-18.2-2.2-60.9-28.7-78.4-48.6l-4.5 17.1c13.2 20.4 34.1 36.7 60 48.5-16.5 1.3-45.9-7.3-63.3-20.1 6.8 11.9 17.1 20.8 30.6 28.4 16.4 9.2 37.3 15.8 60 21.7l138.2 30.8-1.1-20.3-79.8-52.9c-37.2-21.6-73.5-50.5-106.7-83.5-8.4-8.4-14.3-17.4-18.3-26.5zm-109.73 2c-.76 0-1.48.1-2.18.1-5.58.4-9.34 2.5-12.1 5-5.5 4.9-7.05 14.3-6.15 17.9-.17-.6 2.99 3.9 10.29 8.1 7.3 4.1 17.69 8.6 29.21 12.9 17.98 6.6 37.86 12.6 55.06 17.8l5.3-19.8c-6.5-3.8-14.2-8.6-22-13.6-8.27-5.3-16.62-10.7-23.41-15.1-6.79-4.3-12.96-7.8-13.21-7.9-8.76-3.9-15.52-5.3-20.81-5.4zm343.53 99.1c-20 9.8-42.9 13.6-66.7 15.2l44.6 29.5 39.8-9.7zm11.9 55.4c-2.7.1-5 .5-6.9 1.1-5 1.6-7.8 4.6-9.4 8.4-3.4 7.6-.4 17.4 5.8 19.9.2.1 23 8.6 46.4 17.2 6.3 2.3 12.6 4.6 18.6 6.8-.4-2.3-.6-4.6-.6-7 0-8.5 2.4-16.4 6.8-22.6.5-.6.9-1.2 1.5-1.8l-44.8-18.6c-5.7-2-10.5-3-14.5-3.3-1-.1-2-.1-2.9-.1zM480 457c-1.5 0-3.2.8-5.1 3.5-2 2.7-3.5 7.1-3.5 12.1s1.5 9.4 3.5 12.1c1.9 2.7 3.6 3.5 5.1 3.5 1.5 0 3.2-.8 5.1-3.5 2-2.7 3.5-7.1 3.5-12.1s-1.5-9.4-3.5-12.1c-1.9-2.7-3.6-3.5-5.1-3.5z" fill="url(#delapouite-bellows-gradient-1)" stroke="#000000" stroke-opacity="0.65" stroke-width="1" transform="translate(460.8, 460.8) scale(-0.8, -0.8) rotate(540, 256, 256) skewX(0) skewY(0)" filter="url(#shadow-1)"></path></g></svg>