<svg xmlns="http://www.w3.org/2000/svg" viewBox="0 0 512 512" style="height: 512px; width: 512px;"><defs><filter id="shadow-1" height="300%" width="300%" x="-100%" y="-100%"><feFlood flood-color="rgba(53, 58, 49, 1)" result="flood"></feFlood><feComposite in="flood" in2="SourceGraphic" operator="atop" result="composite"></feComposite><feGaussianBlur in="composite" stdDeviation="8" result="blur"></feGaussianBlur><feOffset dx="0" dy="0" result="offset"></feOffset><feComposite in="SourceGraphic" in2="offset" operator="over"></feComposite></filter><filter id="shadow-2" height="300%" width="300%" x="-100%" y="-100%"><feFlood flood-color="rgba(0, 0, 0, 1)" result="flood"></feFlood><feComposite in="flood" in2="SourceGraphic" operator="atop" result="composite"></feComposite><feGaussianBlur in="composite" stdDeviation="12" result="blur"></feGaussianBlur><feOffset dx="0" dy="0" result="offset"></feOffset><feComposite in="SourceGraphic" in2="offset" operator="over"></feComposite></filter><filter id="shadow-3" height="300%" width="300%" x="-100%" y="-100%"><feFlood flood-color="rgba(0, 0, 0, 1)" result="flood"></feFlood><feComposite in="flood" in2="SourceGraphic" operator="atop" result="composite"></feComposite><feGaussianBlur in="composite" stdDeviation="12" result="blur"></feGaussianBlur><feOffset dx="0" dy="0" result="offset"></feOffset><feComposite in="SourceGraphic" in2="offset" operator="over"></feComposite></filter><filter id="shadow-4" height="300%" width="300%" x="-100%" y="-100%"><feFlood flood-color="rgba(0, 0, 0, 1)" result="flood"></feFlood><feComposite in="flood" in2="SourceGraphic" operator="atop" result="composite"></feComposite><feGaussianBlur in="composite" stdDeviation="12" result="blur"></feGaussianBlur><feOffset dx="0" dy="0" result="offset"></feOffset><feComposite in="SourceGraphic" in2="offset" operator="over"></feComposite></filter><filter id="shadow-5" height="300%" width="300%" x="-100%" y="-100%"><feFlood flood-color="rgba(0, 0, 0, 1)" result="flood"></feFlood><feComposite in="flood" in2="SourceGraphic" operator="atop" result="composite"></feComposite><feGaussianBlur in="composite" stdDeviation="12" result="blur"></feGaussianBlur><feOffset dx="0" dy="0" result="offset"></feOffset><feComposite in="SourceGraphic" in2="offset" operator="over"></feComposite></filter><filter id="shadow-6" height="300%" width="300%" x="-100%" y="-100%"><feFlood flood-color="rgba(0, 0, 0, 1)" result="flood"></feFlood><feComposite in="flood" in2="SourceGraphic" operator="atop" result="composite"></feComposite><feGaussianBlur in="composite" stdDeviation="12" result="blur"></feGaussianBlur><feOffset dx="0" dy="0" result="offset"></feOffset><feComposite in="SourceGraphic" in2="offset" operator="over"></feComposite></filter><filter id="shadow-7" height="300%" width="300%" x="-100%" y="-100%"><feFlood flood-color="rgba(0, 0, 0, 1)" result="flood"></feFlood><feComposite in="flood" in2="SourceGraphic" operator="atop" result="composite"></feComposite><feGaussianBlur in="composite" stdDeviation="12" result="blur"></feGaussianBlur><feOffset dx="0" dy="0" result="offset"></feOffset><feComposite in="SourceGraphic" in2="offset" operator="over"></feComposite></filter><filter id="shadow-8" height="300%" width="300%" x="-100%" y="-100%"><feFlood flood-color="rgba(0, 0, 0, 1)" result="flood"></feFlood><feComposite in="flood" in2="SourceGraphic" operator="atop" result="composite"></feComposite><feGaussianBlur in="composite" stdDeviation="12" result="blur"></feGaussianBlur><feOffset dx="0" dy="0" result="offset"></feOffset><feComposite in="SourceGraphic" in2="offset" operator="over"></feComposite></filter><filter id="shadow-9" height="300%" width="300%" x="-100%" y="-100%"><feFlood flood-color="rgba(0, 0, 0, 1)" result="flood"></feFlood><feComposite in="flood" in2="SourceGraphic" operator="atop" result="composite"></feComposite><feGaussianBlur in="composite" stdDeviation="12" result="blur"></feGaussianBlur><feOffset dx="0" dy="0" result="offset"></feOffset><feComposite in="SourceGraphic" in2="offset" operator="over"></feComposite></filter><filter id="shadow-10" height="300%" width="300%" x="-100%" y="-100%"><feFlood flood-color="rgba(0, 0, 0, 1)" result="flood"></feFlood><feComposite in="flood" in2="SourceGraphic" operator="atop" result="composite"></feComposite><feGaussianBlur in="composite" stdDeviation="12" result="blur"></feGaussianBlur><feOffset dx="0" dy="0" result="offset"></feOffset><feComposite in="SourceGraphic" in2="offset" operator="over"></feComposite></filter><radialGradient id="caro-asercion-charcuterie-gradient-1"><stop offset="0%" stop-color="#ffffff" stop-opacity="0.56"></stop><stop offset="100%" stop-color="#5e4141" stop-opacity="0.94"></stop></radialGradient><radialGradient id="caro-asercion-charcuterie-gradient-2"><stop offset="0%" stop-color="#e7e7e6" stop-opacity="1"></stop><stop offset="100%" stop-color="#4d3232" stop-opacity="1"></stop></radialGradient><radialGradient id="caro-asercion-charcuterie-gradient-3"><stop offset="0%" stop-color="#e7e7e6" stop-opacity="1"></stop><stop offset="100%" stop-color="#4d3232" stop-opacity="1"></stop></radialGradient><radialGradient id="caro-asercion-charcuterie-gradient-4"><stop offset="0%" stop-color="#e7e7e6" stop-opacity="1"></stop><stop offset="100%" stop-color="#4d3232" stop-opacity="1"></stop></radialGradient><radialGradient id="caro-asercion-charcuterie-gradient-5"><stop offset="0%" stop-color="#e7e7e6" stop-opacity="1"></stop><stop offset="100%" stop-color="#4d3232" stop-opacity="1"></stop></radialGradient><radialGradient id="caro-asercion-charcuterie-gradient-6"><stop offset="0%" stop-color="#e7e7e6" stop-opacity="1"></stop><stop offset="100%" stop-color="#4d3232" stop-opacity="1"></stop></radialGradient><radialGradient id="caro-asercion-charcuterie-gradient-7"><stop offset="0%" stop-color="#e7e7e6" stop-opacity="1"></stop><stop offset="100%" stop-color="#4d3232" stop-opacity="1"></stop></radialGradient><radialGradient id="caro-asercion-charcuterie-gradient-8"><stop offset="0%" stop-color="#e7e7e6" stop-opacity="1"></stop><stop offset="100%" stop-color="#4d3232" stop-opacity="1"></stop></radialGradient><radialGradient id="caro-asercion-charcuterie-gradient-9"><stop offset="0%" stop-color="#e7e7e6" stop-opacity="1"></stop><stop offset="100%" stop-color="#4d3232" stop-opacity="1"></stop></radialGradient><radialGradient id="caro-asercion-charcuterie-gradient-10"><stop offset="0%" stop-color="#e7e7e6" stop-opacity="1"></stop><stop offset="100%" stop-color="#4d3232" stop-opacity="1"></stop></radialGradient></defs><g class="" transform="translate(-16,27)" style=""><path d="m429.7 55.3-42.8 64.8 4.9 16.9c33.7-25.9 41.1-58.8 41.7-80.6-.8-2.44-2.2-2.48-3.8-1.1zm-51.8 78.5-86.3 130.7c9.9-2.6 20.7-5 31.8-6.5l66.6-81.8c-4-14.1-8.1-28.3-12.1-42.4zM249 202.2c-24.1.1-51.3 4.4-76.4 17.8l4.6 20.5 51.2 18.6-1.1 20.7c5.9.5 12.1.8 18.4.8 4.7-2.1 14.4-6.2 27.2-10.4l39.3-59.6c-12.3-3.3-35.8-8.6-63.2-8.4zm46.9 16.7c-48.4 18.2-102.1 4.2-102.1 4.2 33.3-9.9 67.3-13.5 102.1-4.2zm65 30.4c-7.4 8.1-12.8 16.7-15.8 24.5.9-.4 1.9-.8 2.9-1.3 16.3-7 32.5-9.2 44.1-7.2l1.2.3c6.5-8.8 10.6-17.7 11.8-25.2 2.9-31.4-38.8 3.2-44.2 8.9zm-218.1-8c-6.2.4-35 3.5-53.04 21.4l3.01 13.9 36.23-8.8c2.3-.6 4.8.2 6.3 2.1l11.5 14.2 24.1-5.9c2.3-.5 4.8.3 6.3 2.2l10.9 13.5c15.4-3.2 0 0 26.3-5.4l1-20.8zm273.2 7.3c-2 6.9-5.8 14.5-11 22 2.8 2.1 4.8 4.7 6.1 7.6 1.9 4.4 2 9.5.2 14.8 2.8-1.7 5.6-3.6 8.3-5.7 11.9-9 20.5-19.7 23.8-29 5.9-20.9-17.3-14-27.4-9.7zm-82.5 20.6c-33.4 3.2-64.7 15.1-78.3 20.9l3.2 4.2 68.2-9.3c1.1-.9 2.3-1.8 3.5-2.6.6-4.6 2-9.5 3.4-13.2zm48.5 7.9c-8.6.1-18.7 2.5-29.1 6.9-13.7 5.9-24.6 14.3-30 22.5-2.5 3.9-4 7.7-2.6 10.8 1.4 3.2 5.1 4.7 9.7 5.6 9.7 1.7 23.2-.5 36.9-6.4 13.8-5.9 24.7-14.3 30-22.5 2.6-3.9 4.1-7.7 2.7-10.8-1.4-3.2-5.1-4.7-9.7-5.6-2.4-.4-5.1-.6-7.9-.5zm-253.9 3.7L82.28 292l29.62 36.9 14.1-4.2-17.7-22c-2.4-4-.8-8.9 3.4-10l21.6-5.3zm326.5.9c-55.7 57.4-118.7 54.2-118.7 54.2-2.9 0-5.6-.3-8.1-.7-9.5-1.7-16.2-6.4-19-12.9-2.8-6.5-1.6-14.6 3.7-22.7l.1-.1-56.2 7.6c-6-.2-8.2-5.6-11.6-10.1-7.5 0-14.8-.4-21.5-1l32.1 39.9c2.5 3.9.9 8.6-3.1 9.9l-57 17.3c-2.4.7-5.1-.1-6.7-2.1l-12.3-15.3-22.9 6.9c-2.4.7-5.1-.1-6.7-2.1l-12.3-15.3-22.9 6.9c-2.5.7-5.1-.1-6.7-2.1l-23.32-29-44.12 12.3c-10.86 3.4-8.18 17.7.96 20.3L80.14 354c29.36 9-27.27 10-44.59 23.7-7.53 13.3 2.71 26.7 11.65 30.3 49.15 19 88.5-42.5 148.2-25.1 8.6 1.9 46 11.3 62.8 15.5 6.5 1.6 13.3 1 19.4-1.7 36.7-16.3 169.7-75.3 201.2-89.3 9.9-4 13.4-20.2 1.2-22.2zM170 291.3l-45.8 11.2 29.6 36.9 14.1-4.3-17.7-21.9c-2.4-4-.8-8.9 3.4-10l21.7-5.3zm41.9 10.5L166.1 313l29.6 36.9 44.1-13.4z" fill="url(#caro-asercion-charcuterie-gradient-1)" stroke="#000000" stroke-opacity="0.4" stroke-width="1" transform="translate(460.8, 460.8) scale(-0.8, -0.8) rotate(540, 256, 256) skewX(0) skewY(0)" filter="url(#shadow-1)"></path></g></svg>