<svg xmlns="http://www.w3.org/2000/svg" viewBox="0 0 512 512" style="height: 512px; width: 512px;"><defs><filter id="shadow-1" height="300%" width="300%" x="-100%" y="-100%"><feFlood flood-color="rgba(53, 58, 49, 1)" result="flood"></feFlood><feComposite in="flood" in2="SourceGraphic" operator="atop" result="composite"></feComposite><feGaussianBlur in="composite" stdDeviation="8" result="blur"></feGaussianBlur><feOffset dx="0" dy="0" result="offset"></feOffset><feComposite in="SourceGraphic" in2="offset" operator="over"></feComposite></filter><filter id="shadow-2" height="300%" width="300%" x="-100%" y="-100%"><feFlood flood-color="rgba(0, 0, 0, 1)" result="flood"></feFlood><feComposite in="flood" in2="SourceGraphic" operator="atop" result="composite"></feComposite><feGaussianBlur in="composite" stdDeviation="12" result="blur"></feGaussianBlur><feOffset dx="0" dy="0" result="offset"></feOffset><feComposite in="SourceGraphic" in2="offset" operator="over"></feComposite></filter><filter id="shadow-3" height="300%" width="300%" x="-100%" y="-100%"><feFlood flood-color="rgba(0, 0, 0, 1)" result="flood"></feFlood><feComposite in="flood" in2="SourceGraphic" operator="atop" result="composite"></feComposite><feGaussianBlur in="composite" stdDeviation="12" result="blur"></feGaussianBlur><feOffset dx="0" dy="0" result="offset"></feOffset><feComposite in="SourceGraphic" in2="offset" operator="over"></feComposite></filter><filter id="shadow-4" height="300%" width="300%" x="-100%" y="-100%"><feFlood flood-color="rgba(0, 0, 0, 1)" result="flood"></feFlood><feComposite in="flood" in2="SourceGraphic" operator="atop" result="composite"></feComposite><feGaussianBlur in="composite" stdDeviation="12" result="blur"></feGaussianBlur><feOffset dx="0" dy="0" result="offset"></feOffset><feComposite in="SourceGraphic" in2="offset" operator="over"></feComposite></filter><filter id="shadow-5" height="300%" width="300%" x="-100%" y="-100%"><feFlood flood-color="rgba(0, 0, 0, 1)" result="flood"></feFlood><feComposite in="flood" in2="SourceGraphic" operator="atop" result="composite"></feComposite><feGaussianBlur in="composite" stdDeviation="12" result="blur"></feGaussianBlur><feOffset dx="0" dy="0" result="offset"></feOffset><feComposite in="SourceGraphic" in2="offset" operator="over"></feComposite></filter><filter id="shadow-6" height="300%" width="300%" x="-100%" y="-100%"><feFlood flood-color="rgba(0, 0, 0, 1)" result="flood"></feFlood><feComposite in="flood" in2="SourceGraphic" operator="atop" result="composite"></feComposite><feGaussianBlur in="composite" stdDeviation="12" result="blur"></feGaussianBlur><feOffset dx="0" dy="0" result="offset"></feOffset><feComposite in="SourceGraphic" in2="offset" operator="over"></feComposite></filter><filter id="shadow-7" height="300%" width="300%" x="-100%" y="-100%"><feFlood flood-color="rgba(0, 0, 0, 1)" result="flood"></feFlood><feComposite in="flood" in2="SourceGraphic" operator="atop" result="composite"></feComposite><feGaussianBlur in="composite" stdDeviation="12" result="blur"></feGaussianBlur><feOffset dx="0" dy="0" result="offset"></feOffset><feComposite in="SourceGraphic" in2="offset" operator="over"></feComposite></filter><filter id="shadow-8" height="300%" width="300%" x="-100%" y="-100%"><feFlood flood-color="rgba(0, 0, 0, 1)" result="flood"></feFlood><feComposite in="flood" in2="SourceGraphic" operator="atop" result="composite"></feComposite><feGaussianBlur in="composite" stdDeviation="12" result="blur"></feGaussianBlur><feOffset dx="0" dy="0" result="offset"></feOffset><feComposite in="SourceGraphic" in2="offset" operator="over"></feComposite></filter><filter id="shadow-9" height="300%" width="300%" x="-100%" y="-100%"><feFlood flood-color="rgba(0, 0, 0, 1)" result="flood"></feFlood><feComposite in="flood" in2="SourceGraphic" operator="atop" result="composite"></feComposite><feGaussianBlur in="composite" stdDeviation="12" result="blur"></feGaussianBlur><feOffset dx="0" dy="0" result="offset"></feOffset><feComposite in="SourceGraphic" in2="offset" operator="over"></feComposite></filter><filter id="shadow-10" height="300%" width="300%" x="-100%" y="-100%"><feFlood flood-color="rgba(0, 0, 0, 1)" result="flood"></feFlood><feComposite in="flood" in2="SourceGraphic" operator="atop" result="composite"></feComposite><feGaussianBlur in="composite" stdDeviation="12" result="blur"></feGaussianBlur><feOffset dx="0" dy="0" result="offset"></feOffset><feComposite in="SourceGraphic" in2="offset" operator="over"></feComposite></filter><radialGradient id="delapouite-charging-bull-gradient-1"><stop offset="0%" stop-color="#ffffff" stop-opacity="0.56"></stop><stop offset="100%" stop-color="#5e4141" stop-opacity="0.94"></stop></radialGradient><radialGradient id="delapouite-charging-bull-gradient-2"><stop offset="0%" stop-color="#e7e7e6" stop-opacity="1"></stop><stop offset="100%" stop-color="#4d3232" stop-opacity="1"></stop></radialGradient><radialGradient id="delapouite-charging-bull-gradient-3"><stop offset="0%" stop-color="#e7e7e6" stop-opacity="1"></stop><stop offset="100%" stop-color="#4d3232" stop-opacity="1"></stop></radialGradient><radialGradient id="delapouite-charging-bull-gradient-4"><stop offset="0%" stop-color="#e7e7e6" stop-opacity="1"></stop><stop offset="100%" stop-color="#4d3232" stop-opacity="1"></stop></radialGradient><radialGradient id="delapouite-charging-bull-gradient-5"><stop offset="0%" stop-color="#e7e7e6" stop-opacity="1"></stop><stop offset="100%" stop-color="#4d3232" stop-opacity="1"></stop></radialGradient><radialGradient id="delapouite-charging-bull-gradient-6"><stop offset="0%" stop-color="#e7e7e6" stop-opacity="1"></stop><stop offset="100%" stop-color="#4d3232" stop-opacity="1"></stop></radialGradient><radialGradient id="delapouite-charging-bull-gradient-7"><stop offset="0%" stop-color="#e7e7e6" stop-opacity="1"></stop><stop offset="100%" stop-color="#4d3232" stop-opacity="1"></stop></radialGradient><radialGradient id="delapouite-charging-bull-gradient-8"><stop offset="0%" stop-color="#e7e7e6" stop-opacity="1"></stop><stop offset="100%" stop-color="#4d3232" stop-opacity="1"></stop></radialGradient><radialGradient id="delapouite-charging-bull-gradient-9"><stop offset="0%" stop-color="#e7e7e6" stop-opacity="1"></stop><stop offset="100%" stop-color="#4d3232" stop-opacity="1"></stop></radialGradient><radialGradient id="delapouite-charging-bull-gradient-10"><stop offset="0%" stop-color="#e7e7e6" stop-opacity="1"></stop><stop offset="100%" stop-color="#4d3232" stop-opacity="1"></stop></radialGradient></defs><g class="" transform="translate(-16,27)" style=""><path d="M151.22 61.008c-45.151 7.449-99.44 35.085-131.642 54.097V297.21c5.34 7.523 13.07 12.906 24.904 17.07 5.308 1.868 11.417 3.433 18.221 4.783-21.112-27.026-26.391-50.921-21.297-79.236l17.715 3.192c-6.724 34.584 13.695 64.344 34.152 77.013l7.15 4.37 2.407 3.814c9.482 17.063 28.034 25.752 51.426 41.152l9.723 6.403-8.645 7.798c-9.834 8.873-17.062 16.44-18.367 26.559l-1.592 12.342-24.098-11.545c-11.192 12.316-20.47 25.593-27.652 40.025 10.977 6.704 36.525 19.136 49.105 16.346 32.21-21.813 59.517-67.5 71.09-97.953-6.484-24.65-21.778-46.56-40.277-70.047l-4.1-5.205c4.853-7.592 11.429-14.973 18.084-19.31 26.259-20.873 35.437-38.189 37.44-53.362.675-21.155-6.159-35.841-14.106-53.04l16.34-7.55c9.207 20.935 17.712 44.638 15.611 62.947-1.68 12.732-7.198 25.876-17.857 39.399 9.34-1.382 16.555-2.574 25.883-4.121l.262 10.343c.44 17.375 1.668 24.569 15.748 49.57l1.554 2.763-8.457 51.103c7.432 10.524 20.33 11.513 30.994 10.781 25.144-26.855 42.492-57.16 57.1-89.058-8.896-1.83-15.986-6.023-20.451-11.895-5.026-6.609-6.408-14.801-5.057-22.137 2.702-14.67 16.832-27.65 34.66-25.044l-.304-.04c4.278.478 8.63.829 13.035 1.09-42.222-45.878-38.747-104.57-74.713-138.82-37.98-22.166-89.34-36.372-133.988-36.701zm299.657 133.017c-25.974 8.19-52.938 16.89-80.334 23.028a3126.23 3126.23 0 0 1 8.764 18.293c29.023-10.805 51.564-25.555 71.57-41.32zm19.978 55.053c-40.912 3.884-85.203 8.795-125.962 4.25l-.153-.017-.152-.022c-8.297-1.213-13.24 4.437-14.356 10.494-.557 3.029-.034 5.724 1.684 7.983 1.688 2.22 4.886 4.52 11.58 5.46 52.566 1.922 92.792-11.677 127.36-28.148zm-163.32 43.738c4.068-.076 9.831 6.07 9.94 9.87.123 4.33-4.278 13.351-12.106 22.978-2.335-8.081-8.27-32.478 2.166-32.848zm-13.96 64.67l-19.882 19.58s-2.011-12.095 1.621-16.068c6.037-2.969 12.016-3.867 18.26-3.512zm-44.636 38.348l-11.55 35.494s-12.831-12.815-20.018-10.535c-12.026 3.815-17.207 33.71-17.207 33.71l-23.176-9.13s3.691 28.627 14.748 34.416c15.559 8.145 51.621-10.535 51.621-10.535s1.372 21.203 9.483 23.176c15.088 3.669 35.467-30.2 35.467-30.2s36.32 34.765 51.972 23.88c14.938-10.39 2.14-52.38-4.103-54.432-7.744-2.546-16.676 17.888-16.676 17.888s-10.826-24.025-22.063-27.017c-9.81-2.613-28.445 10.885-28.445 10.885l5.393-31.528c-3.305-.031-6.567-.272-9.77-.781l-10.37 29.932 4.347-31.245c-3.373-.936-6.912-2.436-9.653-3.978zM84.4 398.047c-11.613 11.065-20.069 23.628-27.237 37.137 3.725 1.954 7.425 4.1 11.086 6.3 7.066-13.88 15.86-26.738 26.148-38.648z" fill="url(#delapouite-charging-bull-gradient-1)" stroke="#000000" stroke-opacity="0.65" stroke-width="1" transform="translate(460.8, 460.8) scale(-0.8, -0.8) rotate(540, 256, 256) skewX(0) skewY(0)" filter="url(#shadow-1)"></path></g></svg>