<svg xmlns="http://www.w3.org/2000/svg" viewBox="0 0 512 512" style="height: 512px; width: 512px;"><defs><filter id="shadow-1" height="300%" width="300%" x="-100%" y="-100%"><feFlood flood-color="rgba(53, 58, 49, 1)" result="flood"></feFlood><feComposite in="flood" in2="SourceGraphic" operator="atop" result="composite"></feComposite><feGaussianBlur in="composite" stdDeviation="8" result="blur"></feGaussianBlur><feOffset dx="0" dy="0" result="offset"></feOffset><feComposite in="SourceGraphic" in2="offset" operator="over"></feComposite></filter><filter id="shadow-2" height="300%" width="300%" x="-100%" y="-100%"><feFlood flood-color="rgba(0, 0, 0, 1)" result="flood"></feFlood><feComposite in="flood" in2="SourceGraphic" operator="atop" result="composite"></feComposite><feGaussianBlur in="composite" stdDeviation="12" result="blur"></feGaussianBlur><feOffset dx="0" dy="0" result="offset"></feOffset><feComposite in="SourceGraphic" in2="offset" operator="over"></feComposite></filter><filter id="shadow-3" height="300%" width="300%" x="-100%" y="-100%"><feFlood flood-color="rgba(0, 0, 0, 1)" result="flood"></feFlood><feComposite in="flood" in2="SourceGraphic" operator="atop" result="composite"></feComposite><feGaussianBlur in="composite" stdDeviation="12" result="blur"></feGaussianBlur><feOffset dx="0" dy="0" result="offset"></feOffset><feComposite in="SourceGraphic" in2="offset" operator="over"></feComposite></filter><filter id="shadow-4" height="300%" width="300%" x="-100%" y="-100%"><feFlood flood-color="rgba(0, 0, 0, 1)" result="flood"></feFlood><feComposite in="flood" in2="SourceGraphic" operator="atop" result="composite"></feComposite><feGaussianBlur in="composite" stdDeviation="12" result="blur"></feGaussianBlur><feOffset dx="0" dy="0" result="offset"></feOffset><feComposite in="SourceGraphic" in2="offset" operator="over"></feComposite></filter><filter id="shadow-5" height="300%" width="300%" x="-100%" y="-100%"><feFlood flood-color="rgba(0, 0, 0, 1)" result="flood"></feFlood><feComposite in="flood" in2="SourceGraphic" operator="atop" result="composite"></feComposite><feGaussianBlur in="composite" stdDeviation="12" result="blur"></feGaussianBlur><feOffset dx="0" dy="0" result="offset"></feOffset><feComposite in="SourceGraphic" in2="offset" operator="over"></feComposite></filter><filter id="shadow-6" height="300%" width="300%" x="-100%" y="-100%"><feFlood flood-color="rgba(0, 0, 0, 1)" result="flood"></feFlood><feComposite in="flood" in2="SourceGraphic" operator="atop" result="composite"></feComposite><feGaussianBlur in="composite" stdDeviation="12" result="blur"></feGaussianBlur><feOffset dx="0" dy="0" result="offset"></feOffset><feComposite in="SourceGraphic" in2="offset" operator="over"></feComposite></filter><filter id="shadow-7" height="300%" width="300%" x="-100%" y="-100%"><feFlood flood-color="rgba(0, 0, 0, 1)" result="flood"></feFlood><feComposite in="flood" in2="SourceGraphic" operator="atop" result="composite"></feComposite><feGaussianBlur in="composite" stdDeviation="12" result="blur"></feGaussianBlur><feOffset dx="0" dy="0" result="offset"></feOffset><feComposite in="SourceGraphic" in2="offset" operator="over"></feComposite></filter><filter id="shadow-8" height="300%" width="300%" x="-100%" y="-100%"><feFlood flood-color="rgba(0, 0, 0, 1)" result="flood"></feFlood><feComposite in="flood" in2="SourceGraphic" operator="atop" result="composite"></feComposite><feGaussianBlur in="composite" stdDeviation="12" result="blur"></feGaussianBlur><feOffset dx="0" dy="0" result="offset"></feOffset><feComposite in="SourceGraphic" in2="offset" operator="over"></feComposite></filter><filter id="shadow-9" height="300%" width="300%" x="-100%" y="-100%"><feFlood flood-color="rgba(0, 0, 0, 1)" result="flood"></feFlood><feComposite in="flood" in2="SourceGraphic" operator="atop" result="composite"></feComposite><feGaussianBlur in="composite" stdDeviation="12" result="blur"></feGaussianBlur><feOffset dx="0" dy="0" result="offset"></feOffset><feComposite in="SourceGraphic" in2="offset" operator="over"></feComposite></filter><filter id="shadow-10" height="300%" width="300%" x="-100%" y="-100%"><feFlood flood-color="rgba(0, 0, 0, 1)" result="flood"></feFlood><feComposite in="flood" in2="SourceGraphic" operator="atop" result="composite"></feComposite><feGaussianBlur in="composite" stdDeviation="12" result="blur"></feGaussianBlur><feOffset dx="0" dy="0" result="offset"></feOffset><feComposite in="SourceGraphic" in2="offset" operator="over"></feComposite></filter><radialGradient id="delapouite-coins-gradient-1"><stop offset="0%" stop-color="#ffffff" stop-opacity="0.56"></stop><stop offset="100%" stop-color="#5e4141" stop-opacity="0.94"></stop></radialGradient><radialGradient id="delapouite-coins-gradient-2"><stop offset="0%" stop-color="#e7e7e6" stop-opacity="1"></stop><stop offset="100%" stop-color="#4d3232" stop-opacity="1"></stop></radialGradient><radialGradient id="delapouite-coins-gradient-3"><stop offset="0%" stop-color="#e7e7e6" stop-opacity="1"></stop><stop offset="100%" stop-color="#4d3232" stop-opacity="1"></stop></radialGradient><radialGradient id="delapouite-coins-gradient-4"><stop offset="0%" stop-color="#e7e7e6" stop-opacity="1"></stop><stop offset="100%" stop-color="#4d3232" stop-opacity="1"></stop></radialGradient><radialGradient id="delapouite-coins-gradient-5"><stop offset="0%" stop-color="#e7e7e6" stop-opacity="1"></stop><stop offset="100%" stop-color="#4d3232" stop-opacity="1"></stop></radialGradient><radialGradient id="delapouite-coins-gradient-6"><stop offset="0%" stop-color="#e7e7e6" stop-opacity="1"></stop><stop offset="100%" stop-color="#4d3232" stop-opacity="1"></stop></radialGradient><radialGradient id="delapouite-coins-gradient-7"><stop offset="0%" stop-color="#e7e7e6" stop-opacity="1"></stop><stop offset="100%" stop-color="#4d3232" stop-opacity="1"></stop></radialGradient><radialGradient id="delapouite-coins-gradient-8"><stop offset="0%" stop-color="#e7e7e6" stop-opacity="1"></stop><stop offset="100%" stop-color="#4d3232" stop-opacity="1"></stop></radialGradient><radialGradient id="delapouite-coins-gradient-9"><stop offset="0%" stop-color="#e7e7e6" stop-opacity="1"></stop><stop offset="100%" stop-color="#4d3232" stop-opacity="1"></stop></radialGradient><radialGradient id="delapouite-coins-gradient-10"><stop offset="0%" stop-color="#e7e7e6" stop-opacity="1"></stop><stop offset="100%" stop-color="#4d3232" stop-opacity="1"></stop></radialGradient></defs><g class="" transform="translate(-16,27)" style=""><path d="M136 25.01c-16.5 0-31.3 3.4-41.29 8.4-9.9 5-13.7 10.6-13.7 14.6 0 3.9 3.8 9.61 13.7 14.5 9.99 5 24.79 8.5 41.29 8.5s31.3-3.5 41.2-8.5c10-4.89 13.8-10.6 13.8-14.5 0-4-3.8-9.6-13.8-14.6-9.9-5-24.7-8.4-41.2-8.4zm160 32c-16.5 0-31.3 3.4-41.2 8.4-10 5-13.8 10.6-13.8 14.6 0 3.9 3.8 9.61 13.8 14.5 9.9 5 24.7 8.49 41.2 8.49 4.6 0 9-.3 13.2-.8 4.3-5.49 10.4-10.36 17.5-13.6 8.2-3.7 17.7-6.7 24.3-8.59 0-4-3.8-9.6-13.8-14.6-9.9-5-24.7-8.4-41.2-8.4zM81.01 75.4c-.4 14.66 15.48 20.64 25.49 23.6 17.9 5.2 41.1 5.2 59 0 12.8-3.66 25.4-10.72 25.5-23.6-16.1 10.63-39.6 13.49-55 13.6-19.5-1.63-39.98-3.65-54.99-13.6zM376 96.31c-16.5 0-31.3 3.4-41.2 8.49-10 4.9-13.8 10.6-13.8 14.5 0 4 3.8 9.6 13.8 14.6 9.9 5 24.7 8.4 41.2 8.4 16.5 0 31.3-3.4 41.2-8.4 10-5 13.8-10.6 13.8-14.6 0-3.9-3.8-9.6-13.8-14.5-9.9-5.09-24.7-8.49-41.2-8.49zM241 107.4v2.4c2.9 1 5.7 2.2 8.3 3.5 9 4.5 16.8 10.8 20.8 18.7 10.2 2.5 21.7 3.4 32.9 2.7v-13.9c-2.3.1-4.6.2-7 .2-18.9 0-36.1-3.7-49.3-10.3-2-1-3.9-2.1-5.7-3.3zm-159.99.1c-.34 14.6 15.52 20.6 25.49 23.6 6.8 1.9 14.4 3.2 22.2 3.6 2-5.2 5.6-9.8 10.2-13.7-12.8.3-25.7-1.3-37.4-4.6-7.79-2.3-14.69-5.2-20.49-8.9zM200 121c-16.5 0-31.3 3.5-41.2 8.4-10 5-13.8 10.6-13.8 14.6s3.8 9.6 13.8 14.6c9.9 5 24.7 8.4 41.2 8.4 16.5 0 31.3-3.4 41.2-8.4 10-5 13.8-10.6 13.8-14.6s-3.8-9.6-13.8-14.6c-9.9-4.9-24.7-8.4-41.2-8.4zM81.01 139.5c-.34 14.6 15.52 20.6 25.49 23.6 6.3 1.8 13.3 3 20.5 3.5v-13.8c-8.8-.6-17.4-2.1-25.5-4.4-7.79-2.3-14.69-5.2-20.49-8.9zM321 146.8c-.2 14.7 15.4 20.6 25.5 23.6 17.9 5.2 41.1 5.2 59 0 12.7-3.7 25.4-10.7 25.5-23.6-1.8 1.1-3.7 2.2-5.7 3.2-13.2 6.6-30.4 10.3-49.3 10.3s-36.1-3.7-49.3-10.3c-2-1-3.9-2.1-5.7-3.2zm-48 4.2v13.7c9.4 1.9 19.9 2.6 30 2v-13.8c-10.1.5-20.3-.1-30-1.9zm-128 20.4c-.5 6 2.2 10.9 5.5 13.8 4.2 3.6 11 7.3 20 9.9 17.9 5.1 41.1 5.1 59 0 9-2.6 15.8-6.3 20-9.9 4.9-4.1 5.5-8.1 5.5-13.8-1.8 1.2-3.7 2.3-5.7 3.3-13.2 6.6-30.4 10.3-49.3 10.3s-36.1-3.7-49.3-10.3c-2-1-3.9-2.1-5.7-3.3zm-63.99.1c-.34 14.6 15.52 20.6 25.49 23.6 6.3 1.8 13.3 3 20.5 3.5v-13.8c-8.8-.6-17.4-2.1-25.5-4.4-7.79-2.3-14.69-5.2-20.49-8.9zM321 178.8c-.2 14.7 15.4 20.6 25.5 23.6 17.9 5.2 41.1 5.2 59 0 12.7-3.7 25.4-10.7 25.5-23.6-5.8 3.7-12.7 6.6-20.5 8.9-21.7 6.3-47.3 6.3-69 0-7.8-2.3-14.7-5.2-20.5-8.9zm-48 4.2v13.7c9.4 1.9 19.9 2.6 30 2v-13.8c-10.1.5-20.3-.1-30-1.9zM81.01 203.5c-.34 14.6 15.52 20.6 25.49 23.6 6.3 1.8 13.3 3 20.5 3.5v-13.8c-8.8-.6-17.4-2.1-25.5-4.4-7.79-2.3-14.69-5.2-20.49-8.9zm63.99 0c-.5 6 2.2 10.8 5.5 13.7 4.2 3.6 11 7.3 20 9.9 17.9 5.1 41.1 5.1 59 0 9-2.6 15.8-6.3 20-9.9 4.9-4.1 5.5-8 5.5-13.7-5.8 3.7-12.7 6.6-20.5 8.9-21.7 6.2-47.3 6.2-69 0-7.8-2.3-14.7-5.2-20.5-8.9zm176 7.3c-.2 14.7 15.4 20.6 25.5 23.6 17.9 5.2 41.1 5.2 59 0 12.7-3.7 25.4-10.7 25.5-23.6-5.8 3.7-12.7 6.6-20.5 8.9-21.7 6.3-47.3 6.3-69 0-7.8-2.3-14.7-5.2-20.5-8.9zm-48 4.2v13.7c9.4 1.9 19.9 2.6 30 2v-13.8c-10.1.5-20.3-.1-30-1.9zm-128 20.5v2.3c2.9 1 5.7 2.2 8.3 3.5 9 4.5 16.8 10.8 20.8 18.7 17.3 4.2 38.7 3.9 55.4-.9 9-2.6 15.8-6.3 20-9.9 4.9-4.1 5.5-8 5.5-13.7-5.8 3.7-12.7 6.6-20.5 8.9-21.7 6.2-47.3 6.2-69 0-7.8-2.3-14.7-5.2-20.5-8.9zm176 7.3c-.2 14.7 15.4 20.6 25.5 23.6 17.9 5.2 41.1 5.2 59 0 12.7-3.7 25.4-10.7 25.5-23.6-5.8 3.7-12.7 6.6-20.5 8.9-21.7 6.3-47.3 6.3-69 0-7.8-2.3-14.7-5.2-20.5-8.9zm-48 4.2v13.7c9.4 1.9 19.9 2.6 30 2v-13.8c-10.1.5-20.3-.1-30-1.9zm-169 2c-16.49 0-31.29 3.5-41.29 8.4-9.9 5-13.7 10.6-13.7 14.6s3.8 9.6 13.7 14.6c10 5 24.8 8.4 41.29 8.4 16.5 0 31.3-3.4 41.2-8.4 10-5 13.8-10.6 13.8-14.6s-3.8-9.6-13.8-14.6c-9.9-4.9-24.7-8.4-41.2-8.4zm151 18.5c-5.8 3.7-12.7 6.6-20.5 8.9-18 5.1-38.6 6-57.5 2.6v13.7c16.8 3.5 36.7 2.9 52.5-1.6 12.6-3.7 25.4-10.8 25.5-23.6zm66 7.3c-.3 14.2 14.7 20.3 24.6 23.3 5.6-4.5 10.7-7.9 16.7-10.4-7.2-.8-14.2-2.1-20.8-4-7.8-2.3-14.7-5.2-20.5-8.9zm110 0c-2.8 1.8-5.9 3.4-9.3 4.9 3.1.3 6.2.7 9.1 1.2.4-2 .2-4 .2-6.1zM273 279v13.6c10.9 2.1 20 2.6 30 2.2v-13.9c-10.1.5-20.3-.1-30-1.9zm135 18c-16.5 0-31.3 3.5-41.2 8.4-10 5-13.8 10.6-13.8 14.6s3.8 9.6 13.8 14.6c9.9 5 24.7 8.4 41.2 8.4 16.5 0 31.3-3.4 41.2-8.4 10-5 13.8-10.6 13.8-14.6s-3.8-9.6-13.8-14.6c-9.9-4.9-24.7-8.4-41.2-8.4zm-358.99 2.4c-.29 14.8 15.31 20.7 25.5 23.7 17.9 5.1 41.09 5.1 58.99 0 12.7-3.7 25.4-10.8 25.5-23.7-1.8 1.2-3.7 2.3-5.7 3.3-13.2 6.6-30.4 10.3-49.3 10.3-19.61-1.6-39.88-3.6-54.99-13.6zm205.99.1c-5.8 3.7-12.7 6.6-20.5 8.9-18 5.1-38.6 6-57.5 2.6v13.7c16.8 3.5 36.7 2.9 52.5-1.6 12.6-3.7 25.4-10.8 25.5-23.6zm66 7.3c-.4 10.3 8 16.1 13.8 19.1 0 0 .1.1.2.1v-12.4c-5.2-1.9-9.9-4.2-14-6.8zM49.01 331.5c-.34 14.6 15.52 20.6 25.5 23.6 17.9 5.1 41.09 5.1 58.99 0 12.6-3.7 25.4-10.8 25.5-23.6-5.8 3.7-12.7 6.6-20.5 8.9-21.7 6.2-47.29 6.2-68.99 0-7.8-2.3-14.7-5.2-20.5-8.9zM177 343v13.6c4.9 1.1 10.2 1.8 15.7 2.2 2-5.3 5.6-9.9 10.2-13.8-8.7.2-17.5-.5-25.9-2zm87 2c-16.5 0-31.3 3.5-41.2 8.4-10 5-13.8 10.6-13.8 14.6s3.8 9.6 13.8 14.6c9.9 5 24.7 8.4 41.2 8.4 16.5 0 31.3-3.4 41.2-8.4 10-5 13.8-10.6 13.8-14.6s-3.8-9.6-13.8-14.6c-9.9-4.9-24.7-8.4-41.2-8.4zm89 2.4c-.1 14.8 15.2 20.7 25.5 23.7 17.9 5.1 41.1 5.1 59 0 12.7-3.7 25.4-10.8 25.5-23.7-15.8 9.6-39.7 13.5-55 13.6-19.6-1.6-39.9-3.6-55-13.6zM49.01 363.5c-.34 14.6 15.52 20.6 25.5 23.6 17.9 5.1 41.09 5.1 58.99 0 12.6-3.7 25.4-10.8 25.5-23.6-5.8 3.7-12.7 6.6-20.5 8.9-21.7 6.2-47.29 6.2-68.99 0-7.8-2.3-14.7-5.2-20.5-8.9zm303.99 16c-.2 14.7 15.4 20.6 25.5 23.6 17.9 5.1 41.1 5.1 59 0 12.6-3.7 25.4-10.8 25.5-23.6-5.8 3.7-12.7 6.6-20.5 8.9-21.7 6.2-47.3 6.2-69 0-7.8-2.3-14.7-5.2-20.5-8.9zm-144 15.9c-.5 6 2.2 10.9 5.5 13.8 4.2 3.6 11 7.3 20 9.9 17.9 5.1 41.1 5.1 59 0 9-2.6 15.8-6.3 20-9.9 4.2-3.6 5.5-6.7 5.5-9.2v-4.6c-1.8 1.2-3.7 2.3-5.7 3.3-13.2 6.6-30.4 10.3-49.3 10.3s-36.1-3.7-49.3-10.3c-2-1-3.9-2.1-5.7-3.3zm-159.99.1c-.34 14.6 15.52 20.6 25.5 23.6 17.9 5.1 41.09 5.1 58.99 0 12.6-3.7 25.4-10.8 25.5-23.6-5.8 3.7-12.7 6.6-20.5 8.9-21.7 6.2-47.29 6.2-68.99 0-7.8-2.3-14.7-5.2-20.5-8.9zm303.99 16c-.2 14.7 15.4 20.6 25.5 23.6 17.9 5.1 41.1 5.1 59 0 12.6-3.7 25.4-10.8 25.5-23.6-5.8 3.7-12.7 6.6-20.5 8.9-21.7 6.2-47.3 6.2-69 0-7.8-2.3-14.7-5.2-20.5-8.9zm-303.99 16c-.34 14.6 15.52 20.6 25.5 23.6 17.9 5.1 41.09 5.1 58.99 0 12.6-3.7 25.4-10.8 25.5-23.6-5.8 3.7-12.7 6.6-20.5 8.9-21.7 6.2-47.29 6.2-68.99 0-7.8-2.3-14.7-5.2-20.5-8.9zm159.99 0c-.4 10.3 8 16.1 13.8 19.1 9.9 5 24.7 8.4 41.2 8.4 16.5 0 31.3-3.4 41.2-8.4 9.9-6.2 13.8-8.6 13.8-19.1-5.8 3.7-12.7 6.6-20.5 8.9-21.7 6.2-47.3 6.2-69 0-7.8-2.3-14.7-5.2-20.5-8.9zm144 16c-.4 10.3 8 16.1 13.8 19.1 9.9 5 24.7 8.4 41.2 8.4 16.5 0 31.3-3.4 41.2-8.4 9.9-6.2 13.8-8.6 13.8-19.1-5.8 3.7-12.7 6.6-20.5 8.9-21.7 6.2-47.3 6.2-69 0-7.8-2.3-14.7-5.2-20.5-8.9zm-303.99 16c-.44 10.2 7.88 16.1 13.7 19.1 10 5 24.8 8.4 41.29 8.4 16.5 0 31.3-3.4 41.2-8.4 9.9-6.2 13.8-8.6 13.8-19.1-5.8 3.7-12.7 6.6-20.5 8.9-21.7 6.2-47.29 6.2-68.99 0-7.8-2.3-14.7-5.2-20.5-8.9z" fill="url(#delapouite-coins-gradient-1)" stroke="#000000" stroke-opacity="0.65" stroke-width="1" transform="translate(460.8, 460.8) scale(-0.8, -0.8) rotate(540, 256, 256) skewX(0) skewY(0)" filter="url(#shadow-1)"></path></g></svg>