<svg xmlns="http://www.w3.org/2000/svg" viewBox="0 0 512 512" style="height: 512px; width: 512px;"><defs><filter id="shadow-1" height="300%" width="300%" x="-100%" y="-100%"><feFlood flood-color="rgba(53, 58, 49, 1)" result="flood"></feFlood><feComposite in="flood" in2="SourceGraphic" operator="atop" result="composite"></feComposite><feGaussianBlur in="composite" stdDeviation="8" result="blur"></feGaussianBlur><feOffset dx="0" dy="0" result="offset"></feOffset><feComposite in="SourceGraphic" in2="offset" operator="over"></feComposite></filter><filter id="shadow-2" height="300%" width="300%" x="-100%" y="-100%"><feFlood flood-color="rgba(0, 0, 0, 1)" result="flood"></feFlood><feComposite in="flood" in2="SourceGraphic" operator="atop" result="composite"></feComposite><feGaussianBlur in="composite" stdDeviation="12" result="blur"></feGaussianBlur><feOffset dx="0" dy="0" result="offset"></feOffset><feComposite in="SourceGraphic" in2="offset" operator="over"></feComposite></filter><filter id="shadow-3" height="300%" width="300%" x="-100%" y="-100%"><feFlood flood-color="rgba(0, 0, 0, 1)" result="flood"></feFlood><feComposite in="flood" in2="SourceGraphic" operator="atop" result="composite"></feComposite><feGaussianBlur in="composite" stdDeviation="12" result="blur"></feGaussianBlur><feOffset dx="0" dy="0" result="offset"></feOffset><feComposite in="SourceGraphic" in2="offset" operator="over"></feComposite></filter><filter id="shadow-4" height="300%" width="300%" x="-100%" y="-100%"><feFlood flood-color="rgba(0, 0, 0, 1)" result="flood"></feFlood><feComposite in="flood" in2="SourceGraphic" operator="atop" result="composite"></feComposite><feGaussianBlur in="composite" stdDeviation="12" result="blur"></feGaussianBlur><feOffset dx="0" dy="0" result="offset"></feOffset><feComposite in="SourceGraphic" in2="offset" operator="over"></feComposite></filter><filter id="shadow-5" height="300%" width="300%" x="-100%" y="-100%"><feFlood flood-color="rgba(0, 0, 0, 1)" result="flood"></feFlood><feComposite in="flood" in2="SourceGraphic" operator="atop" result="composite"></feComposite><feGaussianBlur in="composite" stdDeviation="12" result="blur"></feGaussianBlur><feOffset dx="0" dy="0" result="offset"></feOffset><feComposite in="SourceGraphic" in2="offset" operator="over"></feComposite></filter><filter id="shadow-6" height="300%" width="300%" x="-100%" y="-100%"><feFlood flood-color="rgba(0, 0, 0, 1)" result="flood"></feFlood><feComposite in="flood" in2="SourceGraphic" operator="atop" result="composite"></feComposite><feGaussianBlur in="composite" stdDeviation="12" result="blur"></feGaussianBlur><feOffset dx="0" dy="0" result="offset"></feOffset><feComposite in="SourceGraphic" in2="offset" operator="over"></feComposite></filter><filter id="shadow-7" height="300%" width="300%" x="-100%" y="-100%"><feFlood flood-color="rgba(0, 0, 0, 1)" result="flood"></feFlood><feComposite in="flood" in2="SourceGraphic" operator="atop" result="composite"></feComposite><feGaussianBlur in="composite" stdDeviation="12" result="blur"></feGaussianBlur><feOffset dx="0" dy="0" result="offset"></feOffset><feComposite in="SourceGraphic" in2="offset" operator="over"></feComposite></filter><filter id="shadow-8" height="300%" width="300%" x="-100%" y="-100%"><feFlood flood-color="rgba(0, 0, 0, 1)" result="flood"></feFlood><feComposite in="flood" in2="SourceGraphic" operator="atop" result="composite"></feComposite><feGaussianBlur in="composite" stdDeviation="12" result="blur"></feGaussianBlur><feOffset dx="0" dy="0" result="offset"></feOffset><feComposite in="SourceGraphic" in2="offset" operator="over"></feComposite></filter><filter id="shadow-9" height="300%" width="300%" x="-100%" y="-100%"><feFlood flood-color="rgba(0, 0, 0, 1)" result="flood"></feFlood><feComposite in="flood" in2="SourceGraphic" operator="atop" result="composite"></feComposite><feGaussianBlur in="composite" stdDeviation="12" result="blur"></feGaussianBlur><feOffset dx="0" dy="0" result="offset"></feOffset><feComposite in="SourceGraphic" in2="offset" operator="over"></feComposite></filter><filter id="shadow-10" height="300%" width="300%" x="-100%" y="-100%"><feFlood flood-color="rgba(0, 0, 0, 1)" result="flood"></feFlood><feComposite in="flood" in2="SourceGraphic" operator="atop" result="composite"></feComposite><feGaussianBlur in="composite" stdDeviation="12" result="blur"></feGaussianBlur><feOffset dx="0" dy="0" result="offset"></feOffset><feComposite in="SourceGraphic" in2="offset" operator="over"></feComposite></filter><radialGradient id="delapouite-corset-gradient-1"><stop offset="0%" stop-color="#ffffff" stop-opacity="0.56"></stop><stop offset="100%" stop-color="#5e4141" stop-opacity="0.94"></stop></radialGradient><radialGradient id="delapouite-corset-gradient-2"><stop offset="0%" stop-color="#e7e7e6" stop-opacity="1"></stop><stop offset="100%" stop-color="#4d3232" stop-opacity="1"></stop></radialGradient><radialGradient id="delapouite-corset-gradient-3"><stop offset="0%" stop-color="#e7e7e6" stop-opacity="1"></stop><stop offset="100%" stop-color="#4d3232" stop-opacity="1"></stop></radialGradient><radialGradient id="delapouite-corset-gradient-4"><stop offset="0%" stop-color="#e7e7e6" stop-opacity="1"></stop><stop offset="100%" stop-color="#4d3232" stop-opacity="1"></stop></radialGradient><radialGradient id="delapouite-corset-gradient-5"><stop offset="0%" stop-color="#e7e7e6" stop-opacity="1"></stop><stop offset="100%" stop-color="#4d3232" stop-opacity="1"></stop></radialGradient><radialGradient id="delapouite-corset-gradient-6"><stop offset="0%" stop-color="#e7e7e6" stop-opacity="1"></stop><stop offset="100%" stop-color="#4d3232" stop-opacity="1"></stop></radialGradient><radialGradient id="delapouite-corset-gradient-7"><stop offset="0%" stop-color="#e7e7e6" stop-opacity="1"></stop><stop offset="100%" stop-color="#4d3232" stop-opacity="1"></stop></radialGradient><radialGradient id="delapouite-corset-gradient-8"><stop offset="0%" stop-color="#e7e7e6" stop-opacity="1"></stop><stop offset="100%" stop-color="#4d3232" stop-opacity="1"></stop></radialGradient><radialGradient id="delapouite-corset-gradient-9"><stop offset="0%" stop-color="#e7e7e6" stop-opacity="1"></stop><stop offset="100%" stop-color="#4d3232" stop-opacity="1"></stop></radialGradient><radialGradient id="delapouite-corset-gradient-10"><stop offset="0%" stop-color="#e7e7e6" stop-opacity="1"></stop><stop offset="100%" stop-color="#4d3232" stop-opacity="1"></stop></radialGradient></defs><g class="" transform="translate(-16,27)" style=""><path d="M144.338 41.857a56.97 56.97 0 0 0-3.11.077c-8.137.423-15.005 2.59-20.763 5.88-23.03 13.16-30.536 47.917-16.414 76.16 1.852 3.704 4.176 8.36 6.755 13.64l.09-.093c17.297 16.677 39.81 20.348 65.273 17.753 23.326-2.376 48.32-10.295 70.832-17.767v-37.73c-30.213-29.67-56.348-46.09-77.4-53.256-9.48-3.227-17.864-4.643-25.262-4.663zm223.326 0c-7.4.02-15.785 1.436-25.264 4.663-21.052 7.166-47.187 23.585-77.4 53.257v37.73c22.51 7.47 47.506 15.39 70.832 17.766 25.464 2.595 47.976-1.076 65.273-17.752l.09.095c2.58-5.28 4.903-9.937 6.754-13.64 14.12-28.244 6.616-63-16.415-76.16-6.477-3.702-14.358-5.983-23.87-5.958zM247 156.47c-21.26 7.003-45.164 14.283-69.008 16.712-18.156 1.85-36.632.733-53.365-5.875 5.4 12.258 10.946 25.775 15.86 39.697 12.245 34.696 21.475 71.573 12.052 99.842-8.95 26.846-29.95 47.313-47.575 68.853C87.34 397.24 73 419 73 448c0 4.25 2.587 8.662 9.543 13.72.254.186.525.37.79.553 6-7.805 12.843-17.922 18.8-28.644C111.748 416.32 119 397 119 384h18c0 19-8.748 39.678-19.133 58.37-5.844 10.52-12.22 20.262-18.29 28.386 4.05 1.66 8.443 3.22 13.07 4.642 5.606 1.726 11.565 3.253 17.68 4.6C154.508 450.405 167 409.304 167 368h18c0 41.506-11.394 83.17-34.78 115.648C165.033 485.86 179.73 487 192 487c5 0 16.16-3.256 27.008-10.488 10.385-6.924 20.808-17.23 27.992-30.723V406.56l-34.975 17.49-8.05-16.103L235.873 392l-31.898-15.95 8.05-16.1L247 377.437v-52.45l-51.84 19.44-6.32-16.856L230.365 312l-41.525-15.572 6.32-16.856 51.84 19.44v-60.45l-50.975 25.49-8.05-16.103L235.873 224l-47.898-23.95 8.05-16.1L247 209.437v-52.97zm18 0v52.968l50.975-25.49 8.05 16.103L276.127 224l47.898 23.95-8.05 16.1L265 238.563v60.45l51.84-19.44 6.32 16.856L281.635 312l41.525 15.572-6.32 16.856-51.84-19.44v52.45l34.975-17.49 8.05 16.103L276.127 392l31.898 15.95-8.05 16.1L265 406.563v39.227c7.184 13.49 17.607 23.798 27.992 30.722C303.84 483.744 315 487 320 487c12.27 0 26.968-1.14 41.78-3.352C338.393 451.168 327 409.506 327 368h18c0 41.304 12.493 82.405 36.672 111.998 6.116-1.347 12.075-2.874 17.682-4.6 4.626-1.423 9.018-2.983 13.07-4.642-6.072-8.124-12.447-17.865-18.29-28.385C383.747 423.68 375 403 375 384h18c0 13 7.252 32.322 16.867 49.63 5.957 10.72 12.8 20.838 18.8 28.643.265-.184.536-.367.79-.552 6.956-5.058 9.543-9.47 9.543-13.72 0-29-14.34-50.76-31.965-72.3-17.624-21.54-38.625-42.008-47.574-68.854-9.422-28.27-.192-65.146 12.054-99.842 4.913-13.922 10.46-27.44 15.86-39.697-16.734 6.608-35.21 7.724-53.366 5.875-23.844-2.43-47.75-9.71-69.008-16.713z" fill="url(#delapouite-corset-gradient-1)" stroke="#000000" stroke-opacity="0.4" stroke-width="1" transform="translate(460.8, 460.8) scale(-0.8, -0.8) rotate(540, 256, 256) skewX(0) skewY(0)" filter="url(#shadow-1)"></path></g></svg>