<svg xmlns="http://www.w3.org/2000/svg" viewBox="0 0 512 512" style="height: 512px; width: 512px;"><defs><filter id="shadow-1" height="300%" width="300%" x="-100%" y="-100%"><feFlood flood-color="rgba(53, 58, 49, 1)" result="flood"></feFlood><feComposite in="flood" in2="SourceGraphic" operator="atop" result="composite"></feComposite><feGaussianBlur in="composite" stdDeviation="8" result="blur"></feGaussianBlur><feOffset dx="0" dy="0" result="offset"></feOffset><feComposite in="SourceGraphic" in2="offset" operator="over"></feComposite></filter><filter id="shadow-2" height="300%" width="300%" x="-100%" y="-100%"><feFlood flood-color="rgba(0, 0, 0, 1)" result="flood"></feFlood><feComposite in="flood" in2="SourceGraphic" operator="atop" result="composite"></feComposite><feGaussianBlur in="composite" stdDeviation="12" result="blur"></feGaussianBlur><feOffset dx="0" dy="0" result="offset"></feOffset><feComposite in="SourceGraphic" in2="offset" operator="over"></feComposite></filter><filter id="shadow-3" height="300%" width="300%" x="-100%" y="-100%"><feFlood flood-color="rgba(0, 0, 0, 1)" result="flood"></feFlood><feComposite in="flood" in2="SourceGraphic" operator="atop" result="composite"></feComposite><feGaussianBlur in="composite" stdDeviation="12" result="blur"></feGaussianBlur><feOffset dx="0" dy="0" result="offset"></feOffset><feComposite in="SourceGraphic" in2="offset" operator="over"></feComposite></filter><filter id="shadow-4" height="300%" width="300%" x="-100%" y="-100%"><feFlood flood-color="rgba(0, 0, 0, 1)" result="flood"></feFlood><feComposite in="flood" in2="SourceGraphic" operator="atop" result="composite"></feComposite><feGaussianBlur in="composite" stdDeviation="12" result="blur"></feGaussianBlur><feOffset dx="0" dy="0" result="offset"></feOffset><feComposite in="SourceGraphic" in2="offset" operator="over"></feComposite></filter><filter id="shadow-5" height="300%" width="300%" x="-100%" y="-100%"><feFlood flood-color="rgba(0, 0, 0, 1)" result="flood"></feFlood><feComposite in="flood" in2="SourceGraphic" operator="atop" result="composite"></feComposite><feGaussianBlur in="composite" stdDeviation="12" result="blur"></feGaussianBlur><feOffset dx="0" dy="0" result="offset"></feOffset><feComposite in="SourceGraphic" in2="offset" operator="over"></feComposite></filter><filter id="shadow-6" height="300%" width="300%" x="-100%" y="-100%"><feFlood flood-color="rgba(0, 0, 0, 1)" result="flood"></feFlood><feComposite in="flood" in2="SourceGraphic" operator="atop" result="composite"></feComposite><feGaussianBlur in="composite" stdDeviation="12" result="blur"></feGaussianBlur><feOffset dx="0" dy="0" result="offset"></feOffset><feComposite in="SourceGraphic" in2="offset" operator="over"></feComposite></filter><filter id="shadow-7" height="300%" width="300%" x="-100%" y="-100%"><feFlood flood-color="rgba(0, 0, 0, 1)" result="flood"></feFlood><feComposite in="flood" in2="SourceGraphic" operator="atop" result="composite"></feComposite><feGaussianBlur in="composite" stdDeviation="12" result="blur"></feGaussianBlur><feOffset dx="0" dy="0" result="offset"></feOffset><feComposite in="SourceGraphic" in2="offset" operator="over"></feComposite></filter><filter id="shadow-8" height="300%" width="300%" x="-100%" y="-100%"><feFlood flood-color="rgba(0, 0, 0, 1)" result="flood"></feFlood><feComposite in="flood" in2="SourceGraphic" operator="atop" result="composite"></feComposite><feGaussianBlur in="composite" stdDeviation="12" result="blur"></feGaussianBlur><feOffset dx="0" dy="0" result="offset"></feOffset><feComposite in="SourceGraphic" in2="offset" operator="over"></feComposite></filter><filter id="shadow-9" height="300%" width="300%" x="-100%" y="-100%"><feFlood flood-color="rgba(0, 0, 0, 1)" result="flood"></feFlood><feComposite in="flood" in2="SourceGraphic" operator="atop" result="composite"></feComposite><feGaussianBlur in="composite" stdDeviation="12" result="blur"></feGaussianBlur><feOffset dx="0" dy="0" result="offset"></feOffset><feComposite in="SourceGraphic" in2="offset" operator="over"></feComposite></filter><filter id="shadow-10" height="300%" width="300%" x="-100%" y="-100%"><feFlood flood-color="rgba(0, 0, 0, 1)" result="flood"></feFlood><feComposite in="flood" in2="SourceGraphic" operator="atop" result="composite"></feComposite><feGaussianBlur in="composite" stdDeviation="12" result="blur"></feGaussianBlur><feOffset dx="0" dy="0" result="offset"></feOffset><feComposite in="SourceGraphic" in2="offset" operator="over"></feComposite></filter><radialGradient id="delapouite-earrings-gradient-1"><stop offset="0%" stop-color="#ffffff" stop-opacity="0.56"></stop><stop offset="100%" stop-color="#5e4141" stop-opacity="0.94"></stop></radialGradient><radialGradient id="delapouite-earrings-gradient-2"><stop offset="0%" stop-color="#e7e7e6" stop-opacity="1"></stop><stop offset="100%" stop-color="#4d3232" stop-opacity="1"></stop></radialGradient><radialGradient id="delapouite-earrings-gradient-3"><stop offset="0%" stop-color="#e7e7e6" stop-opacity="1"></stop><stop offset="100%" stop-color="#4d3232" stop-opacity="1"></stop></radialGradient><radialGradient id="delapouite-earrings-gradient-4"><stop offset="0%" stop-color="#e7e7e6" stop-opacity="1"></stop><stop offset="100%" stop-color="#4d3232" stop-opacity="1"></stop></radialGradient><radialGradient id="delapouite-earrings-gradient-5"><stop offset="0%" stop-color="#e7e7e6" stop-opacity="1"></stop><stop offset="100%" stop-color="#4d3232" stop-opacity="1"></stop></radialGradient><radialGradient id="delapouite-earrings-gradient-6"><stop offset="0%" stop-color="#e7e7e6" stop-opacity="1"></stop><stop offset="100%" stop-color="#4d3232" stop-opacity="1"></stop></radialGradient><radialGradient id="delapouite-earrings-gradient-7"><stop offset="0%" stop-color="#e7e7e6" stop-opacity="1"></stop><stop offset="100%" stop-color="#4d3232" stop-opacity="1"></stop></radialGradient><radialGradient id="delapouite-earrings-gradient-8"><stop offset="0%" stop-color="#e7e7e6" stop-opacity="1"></stop><stop offset="100%" stop-color="#4d3232" stop-opacity="1"></stop></radialGradient><radialGradient id="delapouite-earrings-gradient-9"><stop offset="0%" stop-color="#e7e7e6" stop-opacity="1"></stop><stop offset="100%" stop-color="#4d3232" stop-opacity="1"></stop></radialGradient><radialGradient id="delapouite-earrings-gradient-10"><stop offset="0%" stop-color="#e7e7e6" stop-opacity="1"></stop><stop offset="100%" stop-color="#4d3232" stop-opacity="1"></stop></radialGradient></defs><g class="" transform="translate(-16,27)" style=""><path d="M164.6 38.64c-20.5 0-36.1 13.09-46.4 26.64-12.3 16.31-17.6 30.96-33.6 39.32 20.5 0 34.4-14.56 46.4-26.6 12-12 22.1-21.36 33.6-21.36 5 0 11.1 2.78 15.6 7.36 4.6 4.59 7.4 10.64 7.4 15.64 0 1-1 4.22-3.6 8.2-2.5 4-6.4 8.7-10.4 13.56-4 4.9-8.1 9.9-11.6 15.2-3.4 5.3-6.4 11-6.4 18v61.8l.9-1.8 8.1-16.1 9 18v-61.9c0-1 1-4.2 3.6-8.2 2.5-4 6.4-8.7 10.4-13.6s8.1-9.9 11.6-15.16c3.4-5.3 6.4-11 6.4-18 0-11-5.2-20.95-12.6-28.36-7.5-7.42-17.4-12.64-28.4-12.64zm192 0c-20.5 0-36.1 13.09-46.4 26.64-12.3 16.31-17.6 30.96-33.6 39.32C297.1 104.6 311 90 323 78c12-12 22.1-21.36 33.6-21.36 5 0 11.1 2.78 15.6 7.36 4.6 4.59 7.4 10.64 7.4 15.64 0 1-1 4.22-3.6 8.22-2.5 3.98-6.4 8.68-10.4 13.54-4 4.9-8.1 9.9-11.6 15.2-3.4 5.3-6.4 11-6.4 18v61.8l.9-1.8 8.1-16.1 9 18v-61.9c0-1 1-4.2 3.6-8.2 2.5-4 6.4-8.7 10.4-13.6s8.1-9.9 11.6-15.16c3.4-5.3 6.4-11 6.4-18 0-11-5.2-20.95-12.6-28.36-7.5-7.42-17.4-12.64-28.4-12.64zm-192 180.06L93.8 360.3c.5 5.8 3.8 17.5 9.4 30.8 6 14.6 14.4 31.4 23.2 47.1 8.9 15.7 18.3 30.5 26.1 41 4 5.3 7.6 9.5 10.3 12 .8.8 1.3 1 1.9 1.3.6-.3 1-.5 1.8-1.2 2.6-2.4 6.2-6.4 10-11.4 7.8-10.1 17-24.3 25.8-39.7 8.7-15.4 17.1-31.9 23.2-46.7 5.6-13.7 9.1-25.9 9.9-33.3l-70.8-141.5zm192 0l-70.8 141.6c.5 5.8 3.8 17.5 9.4 30.8 6 14.6 14.4 31.4 23.2 47.1 8.9 15.7 18.3 30.5 26.1 41 4 5.3 7.6 9.5 10.3 12 .8.8 1.3 1 1.9 1.3.6-.3 1-.5 1.8-1.2 2.6-2.4 6.2-6.4 10-11.4 7.8-10.1 17-24.3 25.8-39.7 8.7-15.4 17.1-31.9 23.2-46.7 5.6-13.7 9.1-25.9 9.9-33.3l-70.8-141.5zm-192 72.9c9.3 0 15.6 6.9 19.4 14.3 3.7 7.5 5.6 16.6 5.6 26.7 0 10.1-1.9 19.2-5.6 26.7-.4.8-.9 1.7-1.4 2.5 13.6 6.7 23 20.7 23 36.8 0 22.5-18.5 41-41 41s-41-18.5-41-41c0-16.1 9.4-30.1 23-36.8-.5-.8-1-1.7-1.4-2.5-3.7-7.5-5.6-16.6-5.6-26.7 0-10.1 1.9-19.2 5.6-26.7 3.8-7.4 10.1-14.3 19.4-14.3zm192 0c9.3 0 15.6 6.9 19.4 14.3 3.7 7.5 5.6 16.6 5.6 26.7 0 10.1-1.9 19.2-5.6 26.7-.4.8-.9 1.7-1.4 2.5 13.6 6.7 23 20.7 23 36.8 0 22.5-18.5 41-41 41s-41-18.5-41-41c0-16.1 9.4-30.1 23-36.8-.5-.8-1-1.7-1.4-2.5-3.7-7.5-5.6-16.6-5.6-26.7 0-10.1 1.9-19.2 5.6-26.7 3.8-7.4 10.1-14.3 19.4-14.3zm-192 18c-.1 0-.1 0 0 .1.1-.1.1-.1 0-.1zm0 .1c-.3.1-1.6.9-3.3 4.3-2 4.2-3.7 11-3.7 18.6 0 7.6 1.7 14.4 3.7 18.6 1.7 3.4 3 4.2 3.3 4.3.3-.1 1.6-.9 3.3-4.3 2-4.2 3.7-11 3.7-18.6 0-7.6-1.7-14.4-3.7-18.6-1.7-3.4-3-4.2-3.3-4.3zm0 45.8c-.1.1-.1.1 0 .1s.1 0 0-.1zm192-45.9c-.1 0-.1 0 0 .1.1-.1.1-.1 0-.1zm0 .1c-.3.1-1.6.9-3.3 4.3-2 4.2-3.7 11-3.7 18.6 0 7.6 1.7 14.4 3.7 18.6 1.7 3.4 3 4.2 3.3 4.3.3-.1 1.6-.9 3.3-4.3 2-4.2 3.7-11 3.7-18.6 0-7.6-1.7-14.4-3.7-18.6-1.7-3.4-3-4.2-3.3-4.3zm0 45.8c-.1.1-.1.1 0 .1s.1 0 0-.1zm-192 20.1c-12.8 0-23 10.2-23 23s10.2 23 23 23 23-10.2 23-23-10.2-23-23-23zm192 0c-12.8 0-23 10.2-23 23s10.2 23 23 23 23-10.2 23-23-10.2-23-23-23z" fill="url(#delapouite-earrings-gradient-1)" stroke="#000000" stroke-opacity="0.65" stroke-width="1" transform="translate(460.8, 460.8) scale(-0.8, -0.8) rotate(540, 256, 256) skewX(0) skewY(0)" filter="url(#shadow-1)"></path></g></svg>