<svg xmlns="http://www.w3.org/2000/svg" viewBox="0 0 512 512" style="height: 512px; width: 512px;"><defs><filter id="shadow-1" height="300%" width="300%" x="-100%" y="-100%"><feFlood flood-color="rgba(53, 58, 49, 1)" result="flood"></feFlood><feComposite in="flood" in2="SourceGraphic" operator="atop" result="composite"></feComposite><feGaussianBlur in="composite" stdDeviation="8" result="blur"></feGaussianBlur><feOffset dx="0" dy="0" result="offset"></feOffset><feComposite in="SourceGraphic" in2="offset" operator="over"></feComposite></filter><filter id="shadow-2" height="300%" width="300%" x="-100%" y="-100%"><feFlood flood-color="rgba(0, 0, 0, 1)" result="flood"></feFlood><feComposite in="flood" in2="SourceGraphic" operator="atop" result="composite"></feComposite><feGaussianBlur in="composite" stdDeviation="12" result="blur"></feGaussianBlur><feOffset dx="0" dy="0" result="offset"></feOffset><feComposite in="SourceGraphic" in2="offset" operator="over"></feComposite></filter><filter id="shadow-3" height="300%" width="300%" x="-100%" y="-100%"><feFlood flood-color="rgba(0, 0, 0, 1)" result="flood"></feFlood><feComposite in="flood" in2="SourceGraphic" operator="atop" result="composite"></feComposite><feGaussianBlur in="composite" stdDeviation="12" result="blur"></feGaussianBlur><feOffset dx="0" dy="0" result="offset"></feOffset><feComposite in="SourceGraphic" in2="offset" operator="over"></feComposite></filter><filter id="shadow-4" height="300%" width="300%" x="-100%" y="-100%"><feFlood flood-color="rgba(0, 0, 0, 1)" result="flood"></feFlood><feComposite in="flood" in2="SourceGraphic" operator="atop" result="composite"></feComposite><feGaussianBlur in="composite" stdDeviation="12" result="blur"></feGaussianBlur><feOffset dx="0" dy="0" result="offset"></feOffset><feComposite in="SourceGraphic" in2="offset" operator="over"></feComposite></filter><filter id="shadow-5" height="300%" width="300%" x="-100%" y="-100%"><feFlood flood-color="rgba(0, 0, 0, 1)" result="flood"></feFlood><feComposite in="flood" in2="SourceGraphic" operator="atop" result="composite"></feComposite><feGaussianBlur in="composite" stdDeviation="12" result="blur"></feGaussianBlur><feOffset dx="0" dy="0" result="offset"></feOffset><feComposite in="SourceGraphic" in2="offset" operator="over"></feComposite></filter><filter id="shadow-6" height="300%" width="300%" x="-100%" y="-100%"><feFlood flood-color="rgba(0, 0, 0, 1)" result="flood"></feFlood><feComposite in="flood" in2="SourceGraphic" operator="atop" result="composite"></feComposite><feGaussianBlur in="composite" stdDeviation="12" result="blur"></feGaussianBlur><feOffset dx="0" dy="0" result="offset"></feOffset><feComposite in="SourceGraphic" in2="offset" operator="over"></feComposite></filter><filter id="shadow-7" height="300%" width="300%" x="-100%" y="-100%"><feFlood flood-color="rgba(0, 0, 0, 1)" result="flood"></feFlood><feComposite in="flood" in2="SourceGraphic" operator="atop" result="composite"></feComposite><feGaussianBlur in="composite" stdDeviation="12" result="blur"></feGaussianBlur><feOffset dx="0" dy="0" result="offset"></feOffset><feComposite in="SourceGraphic" in2="offset" operator="over"></feComposite></filter><filter id="shadow-8" height="300%" width="300%" x="-100%" y="-100%"><feFlood flood-color="rgba(0, 0, 0, 1)" result="flood"></feFlood><feComposite in="flood" in2="SourceGraphic" operator="atop" result="composite"></feComposite><feGaussianBlur in="composite" stdDeviation="12" result="blur"></feGaussianBlur><feOffset dx="0" dy="0" result="offset"></feOffset><feComposite in="SourceGraphic" in2="offset" operator="over"></feComposite></filter><filter id="shadow-9" height="300%" width="300%" x="-100%" y="-100%"><feFlood flood-color="rgba(0, 0, 0, 1)" result="flood"></feFlood><feComposite in="flood" in2="SourceGraphic" operator="atop" result="composite"></feComposite><feGaussianBlur in="composite" stdDeviation="12" result="blur"></feGaussianBlur><feOffset dx="0" dy="0" result="offset"></feOffset><feComposite in="SourceGraphic" in2="offset" operator="over"></feComposite></filter><filter id="shadow-10" height="300%" width="300%" x="-100%" y="-100%"><feFlood flood-color="rgba(0, 0, 0, 1)" result="flood"></feFlood><feComposite in="flood" in2="SourceGraphic" operator="atop" result="composite"></feComposite><feGaussianBlur in="composite" stdDeviation="12" result="blur"></feGaussianBlur><feOffset dx="0" dy="0" result="offset"></feOffset><feComposite in="SourceGraphic" in2="offset" operator="over"></feComposite></filter><radialGradient id="delapouite-goose-gradient-1"><stop offset="0%" stop-color="#ffffff" stop-opacity="0.56"></stop><stop offset="100%" stop-color="#5e4141" stop-opacity="0.94"></stop></radialGradient><radialGradient id="delapouite-goose-gradient-2"><stop offset="0%" stop-color="#e7e7e6" stop-opacity="1"></stop><stop offset="100%" stop-color="#4d3232" stop-opacity="1"></stop></radialGradient><radialGradient id="delapouite-goose-gradient-3"><stop offset="0%" stop-color="#e7e7e6" stop-opacity="1"></stop><stop offset="100%" stop-color="#4d3232" stop-opacity="1"></stop></radialGradient><radialGradient id="delapouite-goose-gradient-4"><stop offset="0%" stop-color="#e7e7e6" stop-opacity="1"></stop><stop offset="100%" stop-color="#4d3232" stop-opacity="1"></stop></radialGradient><radialGradient id="delapouite-goose-gradient-5"><stop offset="0%" stop-color="#e7e7e6" stop-opacity="1"></stop><stop offset="100%" stop-color="#4d3232" stop-opacity="1"></stop></radialGradient><radialGradient id="delapouite-goose-gradient-6"><stop offset="0%" stop-color="#e7e7e6" stop-opacity="1"></stop><stop offset="100%" stop-color="#4d3232" stop-opacity="1"></stop></radialGradient><radialGradient id="delapouite-goose-gradient-7"><stop offset="0%" stop-color="#e7e7e6" stop-opacity="1"></stop><stop offset="100%" stop-color="#4d3232" stop-opacity="1"></stop></radialGradient><radialGradient id="delapouite-goose-gradient-8"><stop offset="0%" stop-color="#e7e7e6" stop-opacity="1"></stop><stop offset="100%" stop-color="#4d3232" stop-opacity="1"></stop></radialGradient><radialGradient id="delapouite-goose-gradient-9"><stop offset="0%" stop-color="#e7e7e6" stop-opacity="1"></stop><stop offset="100%" stop-color="#4d3232" stop-opacity="1"></stop></radialGradient><radialGradient id="delapouite-goose-gradient-10"><stop offset="0%" stop-color="#e7e7e6" stop-opacity="1"></stop><stop offset="100%" stop-color="#4d3232" stop-opacity="1"></stop></radialGradient></defs><g class="" transform="translate(-16,27)" style=""><path d="M370.019 18.023c-2.843-.035-5.859.197-9.075.73-81.664 13.54-38.657 142.295-36.095 217.397-84.163-16.327-168.007 121.048-289.118 152.787 58.086 52.473 206.05 89.6 331.739 11.85 39.804-24.622 45.26-92.014 34.343-165.049-6.703-44.845-71.755-133.176-10.269-141.266l.611-.504c12.884-10.608 16.606-23.842 22.522-37.699l1.699-3.976c-11.688-16.016-23.17-33.986-46.357-34.27zm5.08 19.625a9 9 0 0 1 9 9 9 9 0 0 1-9 9 9 9 0 0 1-9-9 9 9 0 0 1 9-9zm52.703 34.172c-3.28 8.167-7.411 17.45-14.612 26.293 21.035 7.63 41.929 3.078 63.079-.863-15.515-9.272-32.003-18.195-48.467-25.43zm-89.608 181.053c19.109 25.924 21.374 53.965 11.637 78.183-9.737 24.219-30.345 44.797-55.67 60.49-50.65 31.389-121.288 44.45-170.553 17.11l8.735-15.738c40.364 22.4 106.342 11.833 152.338-16.67 22.997-14.252 40.72-32.684 48.449-51.906 7.729-19.223 6.596-39.053-9.426-60.79l14.49-10.68zM273.28 456.322a332.68 332.68 0 0 1-19.095 3.232l-3.508 16.426h-13.084l3.508-14.842a400.208 400.208 0 0 1-18.852 1.506l-7.408 31.336h95.79v-18h-41.548l4.197-19.658z" fill="url(#delapouite-goose-gradient-1)" stroke="#000000" stroke-opacity="0.65" stroke-width="1" transform="translate(460.8, 460.8) scale(-0.8, -0.8) rotate(540, 256, 256) skewX(0) skewY(0)" filter="url(#shadow-1)"></path></g></svg>