<svg xmlns="http://www.w3.org/2000/svg" viewBox="0 0 512 512" style="height: 512px; width: 512px;"><defs><filter id="shadow-1" height="300%" width="300%" x="-100%" y="-100%"><feFlood flood-color="rgba(53, 58, 49, 1)" result="flood"></feFlood><feComposite in="flood" in2="SourceGraphic" operator="atop" result="composite"></feComposite><feGaussianBlur in="composite" stdDeviation="8" result="blur"></feGaussianBlur><feOffset dx="0" dy="0" result="offset"></feOffset><feComposite in="SourceGraphic" in2="offset" operator="over"></feComposite></filter><filter id="shadow-2" height="300%" width="300%" x="-100%" y="-100%"><feFlood flood-color="rgba(0, 0, 0, 1)" result="flood"></feFlood><feComposite in="flood" in2="SourceGraphic" operator="atop" result="composite"></feComposite><feGaussianBlur in="composite" stdDeviation="12" result="blur"></feGaussianBlur><feOffset dx="0" dy="0" result="offset"></feOffset><feComposite in="SourceGraphic" in2="offset" operator="over"></feComposite></filter><filter id="shadow-3" height="300%" width="300%" x="-100%" y="-100%"><feFlood flood-color="rgba(0, 0, 0, 1)" result="flood"></feFlood><feComposite in="flood" in2="SourceGraphic" operator="atop" result="composite"></feComposite><feGaussianBlur in="composite" stdDeviation="12" result="blur"></feGaussianBlur><feOffset dx="0" dy="0" result="offset"></feOffset><feComposite in="SourceGraphic" in2="offset" operator="over"></feComposite></filter><filter id="shadow-4" height="300%" width="300%" x="-100%" y="-100%"><feFlood flood-color="rgba(0, 0, 0, 1)" result="flood"></feFlood><feComposite in="flood" in2="SourceGraphic" operator="atop" result="composite"></feComposite><feGaussianBlur in="composite" stdDeviation="12" result="blur"></feGaussianBlur><feOffset dx="0" dy="0" result="offset"></feOffset><feComposite in="SourceGraphic" in2="offset" operator="over"></feComposite></filter><filter id="shadow-5" height="300%" width="300%" x="-100%" y="-100%"><feFlood flood-color="rgba(0, 0, 0, 1)" result="flood"></feFlood><feComposite in="flood" in2="SourceGraphic" operator="atop" result="composite"></feComposite><feGaussianBlur in="composite" stdDeviation="12" result="blur"></feGaussianBlur><feOffset dx="0" dy="0" result="offset"></feOffset><feComposite in="SourceGraphic" in2="offset" operator="over"></feComposite></filter><filter id="shadow-6" height="300%" width="300%" x="-100%" y="-100%"><feFlood flood-color="rgba(0, 0, 0, 1)" result="flood"></feFlood><feComposite in="flood" in2="SourceGraphic" operator="atop" result="composite"></feComposite><feGaussianBlur in="composite" stdDeviation="12" result="blur"></feGaussianBlur><feOffset dx="0" dy="0" result="offset"></feOffset><feComposite in="SourceGraphic" in2="offset" operator="over"></feComposite></filter><filter id="shadow-7" height="300%" width="300%" x="-100%" y="-100%"><feFlood flood-color="rgba(0, 0, 0, 1)" result="flood"></feFlood><feComposite in="flood" in2="SourceGraphic" operator="atop" result="composite"></feComposite><feGaussianBlur in="composite" stdDeviation="12" result="blur"></feGaussianBlur><feOffset dx="0" dy="0" result="offset"></feOffset><feComposite in="SourceGraphic" in2="offset" operator="over"></feComposite></filter><filter id="shadow-8" height="300%" width="300%" x="-100%" y="-100%"><feFlood flood-color="rgba(0, 0, 0, 1)" result="flood"></feFlood><feComposite in="flood" in2="SourceGraphic" operator="atop" result="composite"></feComposite><feGaussianBlur in="composite" stdDeviation="12" result="blur"></feGaussianBlur><feOffset dx="0" dy="0" result="offset"></feOffset><feComposite in="SourceGraphic" in2="offset" operator="over"></feComposite></filter><filter id="shadow-9" height="300%" width="300%" x="-100%" y="-100%"><feFlood flood-color="rgba(0, 0, 0, 1)" result="flood"></feFlood><feComposite in="flood" in2="SourceGraphic" operator="atop" result="composite"></feComposite><feGaussianBlur in="composite" stdDeviation="12" result="blur"></feGaussianBlur><feOffset dx="0" dy="0" result="offset"></feOffset><feComposite in="SourceGraphic" in2="offset" operator="over"></feComposite></filter><filter id="shadow-10" height="300%" width="300%" x="-100%" y="-100%"><feFlood flood-color="rgba(0, 0, 0, 1)" result="flood"></feFlood><feComposite in="flood" in2="SourceGraphic" operator="atop" result="composite"></feComposite><feGaussianBlur in="composite" stdDeviation="12" result="blur"></feGaussianBlur><feOffset dx="0" dy="0" result="offset"></feOffset><feComposite in="SourceGraphic" in2="offset" operator="over"></feComposite></filter><radialGradient id="delapouite-power-ring-gradient-1"><stop offset="0%" stop-color="#ffffff" stop-opacity="0.56"></stop><stop offset="100%" stop-color="#5e4141" stop-opacity="0.94"></stop></radialGradient><radialGradient id="delapouite-power-ring-gradient-2"><stop offset="0%" stop-color="#e7e7e6" stop-opacity="1"></stop><stop offset="100%" stop-color="#4d3232" stop-opacity="1"></stop></radialGradient><radialGradient id="delapouite-power-ring-gradient-3"><stop offset="0%" stop-color="#e7e7e6" stop-opacity="1"></stop><stop offset="100%" stop-color="#4d3232" stop-opacity="1"></stop></radialGradient><radialGradient id="delapouite-power-ring-gradient-4"><stop offset="0%" stop-color="#e7e7e6" stop-opacity="1"></stop><stop offset="100%" stop-color="#4d3232" stop-opacity="1"></stop></radialGradient><radialGradient id="delapouite-power-ring-gradient-5"><stop offset="0%" stop-color="#e7e7e6" stop-opacity="1"></stop><stop offset="100%" stop-color="#4d3232" stop-opacity="1"></stop></radialGradient><radialGradient id="delapouite-power-ring-gradient-6"><stop offset="0%" stop-color="#e7e7e6" stop-opacity="1"></stop><stop offset="100%" stop-color="#4d3232" stop-opacity="1"></stop></radialGradient><radialGradient id="delapouite-power-ring-gradient-7"><stop offset="0%" stop-color="#e7e7e6" stop-opacity="1"></stop><stop offset="100%" stop-color="#4d3232" stop-opacity="1"></stop></radialGradient><radialGradient id="delapouite-power-ring-gradient-8"><stop offset="0%" stop-color="#e7e7e6" stop-opacity="1"></stop><stop offset="100%" stop-color="#4d3232" stop-opacity="1"></stop></radialGradient><radialGradient id="delapouite-power-ring-gradient-9"><stop offset="0%" stop-color="#e7e7e6" stop-opacity="1"></stop><stop offset="100%" stop-color="#4d3232" stop-opacity="1"></stop></radialGradient><radialGradient id="delapouite-power-ring-gradient-10"><stop offset="0%" stop-color="#e7e7e6" stop-opacity="1"></stop><stop offset="100%" stop-color="#4d3232" stop-opacity="1"></stop></radialGradient></defs><g class="" transform="translate(-16,27)" style=""><path d="M102.6 34.33c-7.03 7-19.03 19.24-32.07 34.6 25.53 3.3 56.47 11.09 84.97 19.76 18.8 5.72 36.4 11.81 50.2 17.41 7 2.8 13 5.5 17.9 7.9 4.9 2.5 8.4 4.4 11.6 7.6l-12.6 12.8c-.1-.1-3-2.2-7.2-4.3-4.1-2.1-9.8-4.6-16.4-7.3-13.2-5.3-30.4-11.3-48.7-16.9-32.4-9.84-68.89-18.34-93.24-20.24-9.14 12.07-17.4 24.64-22.72 35.84 63.22 13.9 134.16 40.1 173.46 79.3l3.4 3.4-1 4.8s-3 15.4-3 33.8 3.8 38.8 13.5 48.5c9.7 9.8 30.2 13.6 48.6 13.6 18.4 0 33.8-3 33.8-3l4.8-1 3.4 3.4c39.2 39.3 65.4 110.1 79.3 173.4 11.2-5.3 23.7-13.6 35.8-22.7-1.9-24.4-10.3-60.8-20.2-93.1-5.6-18.4-11.6-35.6-16.9-48.8-2.7-6.6-5.2-12.3-7.3-16.4-2.1-4.2-4.2-7.1-4.3-7.2l12.8-12.6c3.2 3.2 5.1 6.7 7.6 11.6 2.4 4.9 5.1 10.9 7.9 17.9 5.6 13.8 11.7 31.4 17.4 50.2 8.6 28.4 16.4 59.4 19.7 85 15.4-13.1 27.6-25.1 34.6-32.1-12.7-64.7-26.1-151.4-62.6-212.2l-1.8-3 .7-3.4s3-15.4 3.1-33.8c0-8.3-.8-17-2.5-25 1.6 11-.2 23.4-4.4 36-7.6 22.8-23.4 47.5-45.6 69.8-22.3 22.2-47 38-69.8 45.6-22.8 7.6-45.2 7.3-59.4-6.9-14.1-14.1-14.5-36.6-6.8-59.3 7.5-22.8 23.3-47.5 45.6-69.8 22.3-22.3 46.9-38.1 69.8-45.6 12.3-4.19 24.6-5.97 35.4-4.51C371.6 95.74 363.1 95 355 95c-18.4 0-33.8 3.06-33.8 3.06l-3.5.68-2.9-1.79c-60.9-36.55-147.5-49.9-212.2-62.62zM371.9 115c-6.4-.1-13.9 1.2-22.3 4-14.2 4.7-30.3 13.7-46 26.3 5.1-3.1 10.2-5.7 15.2-7.8 7.9-3.2 15.4-5.1 22.5-5.2 7.2 0 14.5 2 19.7 7.3 1.7 1.7 3 3.5 4.1 5.5-9-3.9-19.5-1.8-26.4 5.1-9.4 9.4-9.4 24.6 0 34 5.3 5.2 12.6 7.7 20 6.8-6.8 13-17 26.6-29.9 39.4-15.9 16-33 27.8-48.6 34.3-7 2.9-13.7 4.7-20.2 5 7.6 1.5 17.4.6 29.1-3.3 19.4-6.4 42.2-20.7 62.7-41.3 20.6-20.6 34.9-43.3 41.3-62.7 6.4-19.3 4.8-33.7-2.5-40.9-4.1-4.1-10.5-6.4-18.7-6.5zM30.64 135.9c-.48 5.1.53 12.6 4.04 22.1 5.19 14.2 15.06 32.1 28.35 51.7C89.6 249 129.7 295.6 173.1 338.9c43.3 43.4 89.9 83.5 129.2 110.1 19.6 13.3 37.5 23.1 51.7 28.3 9.5 3.5 17 4.5 22.1 4-5.1-23.3-12.1-47.8-20.7-71.2-49.3-29.2-92.9-61.9-131.9-99.1-4.7-2.5-9.2-5.6-13.1-9.5a50.9 50.9 0 0 1-9.5-13.2c-37.2-38.9-69.8-82.5-99-131.7-23.36-8.7-47.92-15.7-71.26-20.7zM130 168c19.1 30.3 39.7 58.2 62 84-.2-4-.3-8-.3-11.8 0-15.7 1.7-26.8 2.6-32.2-16.1-15-38.7-28.5-64.3-40zm174 149.7c-5.4.9-16.5 2.6-32.2 2.6-3.8 0-7.8-.1-11.9-.4 25.9 22.4 53.8 43 84.1 62.1-11.5-25.5-25-48.2-40-64.3z" fill="url(#delapouite-power-ring-gradient-1)" stroke="#000000" stroke-opacity="0.65" stroke-width="1" transform="translate(460.8, 460.8) scale(-0.8, -0.8) rotate(540, 256, 256) skewX(0) skewY(0)" filter="url(#shadow-1)"></path></g></svg>