<svg xmlns="http://www.w3.org/2000/svg" viewBox="0 0 512 512" style="height: 512px; width: 512px;"><defs><filter id="shadow-1" height="300%" width="300%" x="-100%" y="-100%"><feFlood flood-color="rgba(53, 58, 49, 1)" result="flood"></feFlood><feComposite in="flood" in2="SourceGraphic" operator="atop" result="composite"></feComposite><feGaussianBlur in="composite" stdDeviation="8" result="blur"></feGaussianBlur><feOffset dx="0" dy="0" result="offset"></feOffset><feComposite in="SourceGraphic" in2="offset" operator="over"></feComposite></filter><filter id="shadow-2" height="300%" width="300%" x="-100%" y="-100%"><feFlood flood-color="rgba(0, 0, 0, 1)" result="flood"></feFlood><feComposite in="flood" in2="SourceGraphic" operator="atop" result="composite"></feComposite><feGaussianBlur in="composite" stdDeviation="12" result="blur"></feGaussianBlur><feOffset dx="0" dy="0" result="offset"></feOffset><feComposite in="SourceGraphic" in2="offset" operator="over"></feComposite></filter><filter id="shadow-3" height="300%" width="300%" x="-100%" y="-100%"><feFlood flood-color="rgba(0, 0, 0, 1)" result="flood"></feFlood><feComposite in="flood" in2="SourceGraphic" operator="atop" result="composite"></feComposite><feGaussianBlur in="composite" stdDeviation="12" result="blur"></feGaussianBlur><feOffset dx="0" dy="0" result="offset"></feOffset><feComposite in="SourceGraphic" in2="offset" operator="over"></feComposite></filter><filter id="shadow-4" height="300%" width="300%" x="-100%" y="-100%"><feFlood flood-color="rgba(0, 0, 0, 1)" result="flood"></feFlood><feComposite in="flood" in2="SourceGraphic" operator="atop" result="composite"></feComposite><feGaussianBlur in="composite" stdDeviation="12" result="blur"></feGaussianBlur><feOffset dx="0" dy="0" result="offset"></feOffset><feComposite in="SourceGraphic" in2="offset" operator="over"></feComposite></filter><filter id="shadow-5" height="300%" width="300%" x="-100%" y="-100%"><feFlood flood-color="rgba(0, 0, 0, 1)" result="flood"></feFlood><feComposite in="flood" in2="SourceGraphic" operator="atop" result="composite"></feComposite><feGaussianBlur in="composite" stdDeviation="12" result="blur"></feGaussianBlur><feOffset dx="0" dy="0" result="offset"></feOffset><feComposite in="SourceGraphic" in2="offset" operator="over"></feComposite></filter><filter id="shadow-6" height="300%" width="300%" x="-100%" y="-100%"><feFlood flood-color="rgba(0, 0, 0, 1)" result="flood"></feFlood><feComposite in="flood" in2="SourceGraphic" operator="atop" result="composite"></feComposite><feGaussianBlur in="composite" stdDeviation="12" result="blur"></feGaussianBlur><feOffset dx="0" dy="0" result="offset"></feOffset><feComposite in="SourceGraphic" in2="offset" operator="over"></feComposite></filter><filter id="shadow-7" height="300%" width="300%" x="-100%" y="-100%"><feFlood flood-color="rgba(0, 0, 0, 1)" result="flood"></feFlood><feComposite in="flood" in2="SourceGraphic" operator="atop" result="composite"></feComposite><feGaussianBlur in="composite" stdDeviation="12" result="blur"></feGaussianBlur><feOffset dx="0" dy="0" result="offset"></feOffset><feComposite in="SourceGraphic" in2="offset" operator="over"></feComposite></filter><filter id="shadow-8" height="300%" width="300%" x="-100%" y="-100%"><feFlood flood-color="rgba(0, 0, 0, 1)" result="flood"></feFlood><feComposite in="flood" in2="SourceGraphic" operator="atop" result="composite"></feComposite><feGaussianBlur in="composite" stdDeviation="12" result="blur"></feGaussianBlur><feOffset dx="0" dy="0" result="offset"></feOffset><feComposite in="SourceGraphic" in2="offset" operator="over"></feComposite></filter><filter id="shadow-9" height="300%" width="300%" x="-100%" y="-100%"><feFlood flood-color="rgba(0, 0, 0, 1)" result="flood"></feFlood><feComposite in="flood" in2="SourceGraphic" operator="atop" result="composite"></feComposite><feGaussianBlur in="composite" stdDeviation="12" result="blur"></feGaussianBlur><feOffset dx="0" dy="0" result="offset"></feOffset><feComposite in="SourceGraphic" in2="offset" operator="over"></feComposite></filter><filter id="shadow-10" height="300%" width="300%" x="-100%" y="-100%"><feFlood flood-color="rgba(0, 0, 0, 1)" result="flood"></feFlood><feComposite in="flood" in2="SourceGraphic" operator="atop" result="composite"></feComposite><feGaussianBlur in="composite" stdDeviation="12" result="blur"></feGaussianBlur><feOffset dx="0" dy="0" result="offset"></feOffset><feComposite in="SourceGraphic" in2="offset" operator="over"></feComposite></filter><radialGradient id="caro-asercion-water-mill-gradient-1"><stop offset="0%" stop-color="#ffffff" stop-opacity="0.56"></stop><stop offset="100%" stop-color="#5e4141" stop-opacity="0.94"></stop></radialGradient><radialGradient id="caro-asercion-water-mill-gradient-2"><stop offset="0%" stop-color="#e7e7e6" stop-opacity="1"></stop><stop offset="100%" stop-color="#4d3232" stop-opacity="1"></stop></radialGradient><radialGradient id="caro-asercion-water-mill-gradient-3"><stop offset="0%" stop-color="#e7e7e6" stop-opacity="1"></stop><stop offset="100%" stop-color="#4d3232" stop-opacity="1"></stop></radialGradient><radialGradient id="caro-asercion-water-mill-gradient-4"><stop offset="0%" stop-color="#e7e7e6" stop-opacity="1"></stop><stop offset="100%" stop-color="#4d3232" stop-opacity="1"></stop></radialGradient><radialGradient id="caro-asercion-water-mill-gradient-5"><stop offset="0%" stop-color="#e7e7e6" stop-opacity="1"></stop><stop offset="100%" stop-color="#4d3232" stop-opacity="1"></stop></radialGradient><radialGradient id="caro-asercion-water-mill-gradient-6"><stop offset="0%" stop-color="#e7e7e6" stop-opacity="1"></stop><stop offset="100%" stop-color="#4d3232" stop-opacity="1"></stop></radialGradient><radialGradient id="caro-asercion-water-mill-gradient-7"><stop offset="0%" stop-color="#e7e7e6" stop-opacity="1"></stop><stop offset="100%" stop-color="#4d3232" stop-opacity="1"></stop></radialGradient><radialGradient id="caro-asercion-water-mill-gradient-8"><stop offset="0%" stop-color="#e7e7e6" stop-opacity="1"></stop><stop offset="100%" stop-color="#4d3232" stop-opacity="1"></stop></radialGradient><radialGradient id="caro-asercion-water-mill-gradient-9"><stop offset="0%" stop-color="#e7e7e6" stop-opacity="1"></stop><stop offset="100%" stop-color="#4d3232" stop-opacity="1"></stop></radialGradient><radialGradient id="caro-asercion-water-mill-gradient-10"><stop offset="0%" stop-color="#e7e7e6" stop-opacity="1"></stop><stop offset="100%" stop-color="#4d3232" stop-opacity="1"></stop></radialGradient></defs><g class="" transform="translate(-16,27)" style=""><path d="M317.8 21.93 188.4 72.87v30.03l129.4-50.97 129.4 50.97V72.87L317.8 21.93zm0 49.97-102.3 40.3v70.1L86.1 233.2v102.7H216c-.8-8.6-.6-17.3.5-26l-25.6-10 21.2-54.4 25.6 10c13.3-18.9 31.6-33.2 52.3-41.8l-4.2-27.2 57.7-8.9 4.1 27.2c11.1 1 22.1 3.6 33 7.8 10.8 4.2 20.7 9.8 29.5 16.5l10-8V112.2L317.8 71.9zm-27.2 34.8H341v50.4h-50.4v-50.4zm-95.1 33.6L66.09 191.2v30l129.41-50.9v-30zm134 56.3-24.7 3.8 3.5 22.8c-22.5 6.3-42.8 20-57.1 39.4l24.4 9.5c9.8-11.3 22.6-19.5 36.5-23.9l6.5 42.3c.7-.4 1.5-.7 2.2-1.1 7.4-3.2 15.2-4 22.5-2.7l-13.8-90.1zm18.8 23.4 4 25.9c14.8 2.9 26.6 9.4 38.9 19.7l-33.4 26.8c6.3 4 11.5 9.8 14.7 17.2.4.7.7 1.5.9 2.3l71.2-57-15.7-19.5-18 14.4c-16-15.6-39.2-27.1-62.6-29.8zm-126.7 47.1-9.1 23.3 21.5 8.4c-6.2 23.6-3.8 47.9 5.5 69.1l20.5-16.4c-4.7-13.7-5.8-28.7-2.5-43.6l39.9 15.6c.4-8.5 3.6-16.7 9.1-23.3l-84.9-33.1zm212.1 15.7-20.5 16.4c4.7 13.7 5.8 28.8 2.5 43.6l-39.9-15.6c-.4 8.6-3.6 16.8-9.1 23.3l84.9 33.1 9.1-23.3-21.5-8.3c6.1-23.7 3.8-47.9-5.5-69.2zm-97.4 20c-3 0-5.9.6-8.8 1.9-11.4 5-16.6 18.3-11.6 29.7 5 11.5 18.4 16.7 29.8 11.6 11.4-5 16.6-18.3 11.6-29.7-3.7-8.5-12.2-13.6-21-13.5zm-36.6 36.1-71.1 56.9 15.7 19.2 18-14c6.7 7 14.4 12 22.9 17H323l-2.1-13c-4.6-1-9.2-2-13.7-4-9.6-3.9-18.1-9.3-25.2-15.8l33.4-26.8c-6.2-4-12.2-11.7-15.7-19.5zM26.27 358v35.3H205.2l21.5-17.2c-2.7-5.9-4.9-11.9-6.7-18.1H26.27zm453.23 0-13.8 35.3h20V358h-6.2zm-124.9 2.3c-7.4 3.4-15.2 4.6-24.7 3.7l8.2 54h49.8c13.2-7 24.9-17 34.1-29.8l-24.4-9.5c-9.8 11.2-22.6 19.4-36.5 24.3l-6.5-42.7zm-171.2 73.8c-4.6 0-8.4 3.7-8.4 8.3 0 4.6 3.8 8.4 8.4 8.4h270.5c4.6 0 8.3-3.8 8.3-8.4 0-4.6-3.7-8.3-8.3-8.3H183.4zm-139 36c-4.6 0-8.4 3.7-8.4 8.3 0 4.6 3.8 8.4 8.4 8.4h270.5c4.6 0 8.3-3.8 8.3-8.4 0-4.6-3.7-8.3-8.3-8.3H44.4z" fill="url(#caro-asercion-water-mill-gradient-1)" stroke="#000000" stroke-opacity="0.65" stroke-width="1" transform="translate(460.8, 460.8) scale(-0.8, -0.8) rotate(540, 256, 256) skewX(0) skewY(0)" filter="url(#shadow-1)"></path></g></svg>