<svg xmlns="http://www.w3.org/2000/svg" viewBox="0 0 512 512" style="height: 512px; width: 512px;"><defs><filter id="shadow-1" height="300%" width="300%" x="-100%" y="-100%"><feFlood flood-color="rgba(53, 58, 49, 1)" result="flood"></feFlood><feComposite in="flood" in2="SourceGraphic" operator="atop" result="composite"></feComposite><feGaussianBlur in="composite" stdDeviation="8" result="blur"></feGaussianBlur><feOffset dx="0" dy="0" result="offset"></feOffset><feComposite in="SourceGraphic" in2="offset" operator="over"></feComposite></filter><filter id="shadow-2" height="300%" width="300%" x="-100%" y="-100%"><feFlood flood-color="rgba(0, 0, 0, 1)" result="flood"></feFlood><feComposite in="flood" in2="SourceGraphic" operator="atop" result="composite"></feComposite><feGaussianBlur in="composite" stdDeviation="12" result="blur"></feGaussianBlur><feOffset dx="0" dy="0" result="offset"></feOffset><feComposite in="SourceGraphic" in2="offset" operator="over"></feComposite></filter><filter id="shadow-3" height="300%" width="300%" x="-100%" y="-100%"><feFlood flood-color="rgba(0, 0, 0, 1)" result="flood"></feFlood><feComposite in="flood" in2="SourceGraphic" operator="atop" result="composite"></feComposite><feGaussianBlur in="composite" stdDeviation="12" result="blur"></feGaussianBlur><feOffset dx="0" dy="0" result="offset"></feOffset><feComposite in="SourceGraphic" in2="offset" operator="over"></feComposite></filter><filter id="shadow-4" height="300%" width="300%" x="-100%" y="-100%"><feFlood flood-color="rgba(0, 0, 0, 1)" result="flood"></feFlood><feComposite in="flood" in2="SourceGraphic" operator="atop" result="composite"></feComposite><feGaussianBlur in="composite" stdDeviation="12" result="blur"></feGaussianBlur><feOffset dx="0" dy="0" result="offset"></feOffset><feComposite in="SourceGraphic" in2="offset" operator="over"></feComposite></filter><filter id="shadow-5" height="300%" width="300%" x="-100%" y="-100%"><feFlood flood-color="rgba(0, 0, 0, 1)" result="flood"></feFlood><feComposite in="flood" in2="SourceGraphic" operator="atop" result="composite"></feComposite><feGaussianBlur in="composite" stdDeviation="12" result="blur"></feGaussianBlur><feOffset dx="0" dy="0" result="offset"></feOffset><feComposite in="SourceGraphic" in2="offset" operator="over"></feComposite></filter><filter id="shadow-6" height="300%" width="300%" x="-100%" y="-100%"><feFlood flood-color="rgba(0, 0, 0, 1)" result="flood"></feFlood><feComposite in="flood" in2="SourceGraphic" operator="atop" result="composite"></feComposite><feGaussianBlur in="composite" stdDeviation="12" result="blur"></feGaussianBlur><feOffset dx="0" dy="0" result="offset"></feOffset><feComposite in="SourceGraphic" in2="offset" operator="over"></feComposite></filter><filter id="shadow-7" height="300%" width="300%" x="-100%" y="-100%"><feFlood flood-color="rgba(0, 0, 0, 1)" result="flood"></feFlood><feComposite in="flood" in2="SourceGraphic" operator="atop" result="composite"></feComposite><feGaussianBlur in="composite" stdDeviation="12" result="blur"></feGaussianBlur><feOffset dx="0" dy="0" result="offset"></feOffset><feComposite in="SourceGraphic" in2="offset" operator="over"></feComposite></filter><filter id="shadow-8" height="300%" width="300%" x="-100%" y="-100%"><feFlood flood-color="rgba(0, 0, 0, 1)" result="flood"></feFlood><feComposite in="flood" in2="SourceGraphic" operator="atop" result="composite"></feComposite><feGaussianBlur in="composite" stdDeviation="12" result="blur"></feGaussianBlur><feOffset dx="0" dy="0" result="offset"></feOffset><feComposite in="SourceGraphic" in2="offset" operator="over"></feComposite></filter><filter id="shadow-9" height="300%" width="300%" x="-100%" y="-100%"><feFlood flood-color="rgba(0, 0, 0, 1)" result="flood"></feFlood><feComposite in="flood" in2="SourceGraphic" operator="atop" result="composite"></feComposite><feGaussianBlur in="composite" stdDeviation="12" result="blur"></feGaussianBlur><feOffset dx="0" dy="0" result="offset"></feOffset><feComposite in="SourceGraphic" in2="offset" operator="over"></feComposite></filter><filter id="shadow-10" height="300%" width="300%" x="-100%" y="-100%"><feFlood flood-color="rgba(0, 0, 0, 1)" result="flood"></feFlood><feComposite in="flood" in2="SourceGraphic" operator="atop" result="composite"></feComposite><feGaussianBlur in="composite" stdDeviation="12" result="blur"></feGaussianBlur><feOffset dx="0" dy="0" result="offset"></feOffset><feComposite in="SourceGraphic" in2="offset" operator="over"></feComposite></filter><radialGradient id="delapouite-wood-cabin-gradient-1"><stop offset="0%" stop-color="#ffffff" stop-opacity="0.56"></stop><stop offset="100%" stop-color="#5e4141" stop-opacity="0.94"></stop></radialGradient><radialGradient id="delapouite-wood-cabin-gradient-2"><stop offset="0%" stop-color="#e7e7e6" stop-opacity="1"></stop><stop offset="100%" stop-color="#4d3232" stop-opacity="1"></stop></radialGradient><radialGradient id="delapouite-wood-cabin-gradient-3"><stop offset="0%" stop-color="#e7e7e6" stop-opacity="1"></stop><stop offset="100%" stop-color="#4d3232" stop-opacity="1"></stop></radialGradient><radialGradient id="delapouite-wood-cabin-gradient-4"><stop offset="0%" stop-color="#e7e7e6" stop-opacity="1"></stop><stop offset="100%" stop-color="#4d3232" stop-opacity="1"></stop></radialGradient><radialGradient id="delapouite-wood-cabin-gradient-5"><stop offset="0%" stop-color="#e7e7e6" stop-opacity="1"></stop><stop offset="100%" stop-color="#4d3232" stop-opacity="1"></stop></radialGradient><radialGradient id="delapouite-wood-cabin-gradient-6"><stop offset="0%" stop-color="#e7e7e6" stop-opacity="1"></stop><stop offset="100%" stop-color="#4d3232" stop-opacity="1"></stop></radialGradient><radialGradient id="delapouite-wood-cabin-gradient-7"><stop offset="0%" stop-color="#e7e7e6" stop-opacity="1"></stop><stop offset="100%" stop-color="#4d3232" stop-opacity="1"></stop></radialGradient><radialGradient id="delapouite-wood-cabin-gradient-8"><stop offset="0%" stop-color="#e7e7e6" stop-opacity="1"></stop><stop offset="100%" stop-color="#4d3232" stop-opacity="1"></stop></radialGradient><radialGradient id="delapouite-wood-cabin-gradient-9"><stop offset="0%" stop-color="#e7e7e6" stop-opacity="1"></stop><stop offset="100%" stop-color="#4d3232" stop-opacity="1"></stop></radialGradient><radialGradient id="delapouite-wood-cabin-gradient-10"><stop offset="0%" stop-color="#e7e7e6" stop-opacity="1"></stop><stop offset="100%" stop-color="#4d3232" stop-opacity="1"></stop></radialGradient></defs><g class="" transform="translate(-16,27)" style=""><path d="M495.145 15.451l-178.215.205s7.918 25.215 15.652 35.63c13.155 17.712 67.295 2.752 59.79 35.714h55.4c6.995-6.98 14.212-15.862 15.064-23.44 1.035-9.207-15.175-16.126-12.29-24.931 5.22-15.92 44.599-23.178 44.599-23.178zM256 28.311L30.455 238.82l32.666 21.777L256 83.79l192.879 176.807 32.666-21.778L256 28.31zM393 105v26.555l46 42.933V105h-46zm-137 3.209L209.318 151h93.364L256 108.209zM189.682 169l-32.727 30H279v-30h-89.318zM297 169v30h58.045l-32.727-30H297zm-159.682 48l-34.564 31.684 64.246-.288V217h-29.682zM185 217v31.316l222.76-.994L374.682 217H185zm242.303 48.236L83.02 266.773l-18.141 16.63-.932-.622A31.64 31.64 0 0 1 60.737 295H451.263a31.64 31.64 0 0 1-3.211-12.219l-.932.621-19.818-18.166zM32 267c-7.839 0-14 6.161-14 14s6.161 14 14 14 14-6.161 14-14-6.161-14-14-14zm448 0c-7.839 0-14 6.161-14 14s6.161 14 14 14 14-6.161 14-14-6.161-14-14-14zM59.656 313a31.659 31.659 0 0 1 1.08 30H103v-30H59.656zM121 313v78h46v-78h-46zm64 0v78h46v-78h-46zm64 0v30h30v-30h-30zm48 0v174h94V313h-94zm112 0v30h42.264a31.659 31.659 0 0 1 1.08-30H409zm-377 2c-7.839 0-14 6.161-14 14s6.161 14 14 14 14-6.161 14-14-6.161-14-14-14zm448 0c-7.839 0-14 6.161-14 14s6.161 14 14 14 14-6.161 14-14-6.161-14-14-14zM59.656 361a31.659 31.659 0 0 1 1.08 30H103v-30H59.656zM249 361v30h30v-30h-30zm160 0v30h42.264a31.659 31.659 0 0 1 1.08-30H409zm-377 2c-7.839 0-14 6.161-14 14s6.161 14 14 14 14-6.161 14-14-6.161-14-14-14zm448 0c-7.839 0-14 6.161-14 14s6.161 14 14 14 14-6.161 14-14-6.161-14-14-14zm-128 28h22v18h-22v-18zM59.656 409a31.659 31.659 0 0 1 1.08 30H279v-30H59.656zM409 409v30h42.264a31.659 31.659 0 0 1 1.08-30H409zm-377 2c-7.839 0-14 6.161-14 14s6.161 14 14 14 14-6.161 14-14-6.161-14-14-14zm448 0c-7.839 0-14 6.161-14 14s6.161 14 14 14 14-6.161 14-14-6.161-14-14-14zM32 457c-7.839 0-14 6.161-14 14s6.161 14 14 14 14-6.161 14-14-6.161-14-14-14zm28.736 0a31.659 31.659 0 0 1-1.08 30H87v-30H60.736zM105 457v30h174v-30H105zm304 0v30h43.344a31.659 31.659 0 0 1-1.08-30H409zm71 0c-7.839 0-14 6.161-14 14s6.161 14 14 14 14-6.161 14-14-6.161-14-14-14z" fill="url(#delapouite-wood-cabin-gradient-1)" stroke="#000000" stroke-opacity="0.65" stroke-width="1" transform="translate(460.8, 460.8) scale(-0.8, -0.8) rotate(540, 256, 256) skewX(0) skewY(0)" filter="url(#shadow-1)"></path></g></svg>