<svg xmlns="http://www.w3.org/2000/svg" viewBox="0 0 512 512" style="height: 512px; width: 512px;"><defs><filter id="shadow-1" height="300%" width="300%" x="-100%" y="-100%"><feFlood flood-color="rgba(0, 0, 0, 1)" result="flood"></feFlood><feComposite in="flood" in2="SourceGraphic" operator="atop" result="composite"></feComposite><feGaussianBlur in="composite" stdDeviation="12" result="blur"></feGaussianBlur><feOffset dx="0" dy="0" result="offset"></feOffset><feComposite in="SourceGraphic" in2="offset" operator="over"></feComposite></filter><filter id="shadow-2" height="300%" width="300%" x="-100%" y="-100%"><feFlood flood-color="rgba(0, 0, 0, 1)" result="flood"></feFlood><feComposite in="flood" in2="SourceGraphic" operator="atop" result="composite"></feComposite><feGaussianBlur in="composite" stdDeviation="12" result="blur"></feGaussianBlur><feOffset dx="0" dy="0" result="offset"></feOffset><feComposite in="SourceGraphic" in2="offset" operator="over"></feComposite></filter><filter id="shadow-3" height="300%" width="300%" x="-100%" y="-100%"><feFlood flood-color="rgba(0, 0, 0, 1)" result="flood"></feFlood><feComposite in="flood" in2="SourceGraphic" operator="atop" result="composite"></feComposite><feGaussianBlur in="composite" stdDeviation="12" result="blur"></feGaussianBlur><feOffset dx="0" dy="0" result="offset"></feOffset><feComposite in="SourceGraphic" in2="offset" operator="over"></feComposite></filter><filter id="shadow-4" height="300%" width="300%" x="-100%" y="-100%"><feFlood flood-color="rgba(0, 0, 0, 1)" result="flood"></feFlood><feComposite in="flood" in2="SourceGraphic" operator="atop" result="composite"></feComposite><feGaussianBlur in="composite" stdDeviation="12" result="blur"></feGaussianBlur><feOffset dx="0" dy="0" result="offset"></feOffset><feComposite in="SourceGraphic" in2="offset" operator="over"></feComposite></filter><filter id="shadow-5" height="300%" width="300%" x="-100%" y="-100%"><feFlood flood-color="rgba(0, 0, 0, 1)" result="flood"></feFlood><feComposite in="flood" in2="SourceGraphic" operator="atop" result="composite"></feComposite><feGaussianBlur in="composite" stdDeviation="12" result="blur"></feGaussianBlur><feOffset dx="0" dy="0" result="offset"></feOffset><feComposite in="SourceGraphic" in2="offset" operator="over"></feComposite></filter><filter id="shadow-6" height="300%" width="300%" x="-100%" y="-100%"><feFlood flood-color="rgba(0, 0, 0, 1)" result="flood"></feFlood><feComposite in="flood" in2="SourceGraphic" operator="atop" result="composite"></feComposite><feGaussianBlur in="composite" stdDeviation="12" result="blur"></feGaussianBlur><feOffset dx="0" dy="0" result="offset"></feOffset><feComposite in="SourceGraphic" in2="offset" operator="over"></feComposite></filter><filter id="shadow-7" height="300%" width="300%" x="-100%" y="-100%"><feFlood flood-color="rgba(0, 0, 0, 1)" result="flood"></feFlood><feComposite in="flood" in2="SourceGraphic" operator="atop" result="composite"></feComposite><feGaussianBlur in="composite" stdDeviation="12" result="blur"></feGaussianBlur><feOffset dx="0" dy="0" result="offset"></feOffset><feComposite in="SourceGraphic" in2="offset" operator="over"></feComposite></filter><filter id="shadow-8" height="300%" width="300%" x="-100%" y="-100%"><feFlood flood-color="rgba(0, 0, 0, 1)" result="flood"></feFlood><feComposite in="flood" in2="SourceGraphic" operator="atop" result="composite"></feComposite><feGaussianBlur in="composite" stdDeviation="12" result="blur"></feGaussianBlur><feOffset dx="0" dy="0" result="offset"></feOffset><feComposite in="SourceGraphic" in2="offset" operator="over"></feComposite></filter><filter id="shadow-9" height="300%" width="300%" x="-100%" y="-100%"><feFlood flood-color="rgba(0, 0, 0, 1)" result="flood"></feFlood><feComposite in="flood" in2="SourceGraphic" operator="atop" result="composite"></feComposite><feGaussianBlur in="composite" stdDeviation="12" result="blur"></feGaussianBlur><feOffset dx="0" dy="0" result="offset"></feOffset><feComposite in="SourceGraphic" in2="offset" operator="over"></feComposite></filter><filter id="shadow-10" height="300%" width="300%" x="-100%" y="-100%"><feFlood flood-color="rgba(0, 0, 0, 1)" result="flood"></feFlood><feComposite in="flood" in2="SourceGraphic" operator="atop" result="composite"></feComposite><feGaussianBlur in="composite" stdDeviation="12" result="blur"></feGaussianBlur><feOffset dx="0" dy="0" result="offset"></feOffset><feComposite in="SourceGraphic" in2="offset" operator="over"></feComposite></filter><radialGradient id="lorc-hood-gradient-1"><stop offset="0%" stop-color="#e7e7e6" stop-opacity="1"></stop><stop offset="100%" stop-color="#4d3232" stop-opacity="1"></stop></radialGradient><radialGradient id="lorc-hood-gradient-2"><stop offset="0%" stop-color="#e7e7e6" stop-opacity="1"></stop><stop offset="100%" stop-color="#4d3232" stop-opacity="1"></stop></radialGradient><radialGradient id="lorc-hood-gradient-3"><stop offset="0%" stop-color="#e7e7e6" stop-opacity="1"></stop><stop offset="100%" stop-color="#4d3232" stop-opacity="1"></stop></radialGradient><radialGradient id="lorc-hood-gradient-4"><stop offset="0%" stop-color="#e7e7e6" stop-opacity="1"></stop><stop offset="100%" stop-color="#4d3232" stop-opacity="1"></stop></radialGradient><radialGradient id="lorc-hood-gradient-5"><stop offset="0%" stop-color="#e7e7e6" stop-opacity="1"></stop><stop offset="100%" stop-color="#4d3232" stop-opacity="1"></stop></radialGradient><radialGradient id="lorc-hood-gradient-6"><stop offset="0%" stop-color="#e7e7e6" stop-opacity="1"></stop><stop offset="100%" stop-color="#4d3232" stop-opacity="1"></stop></radialGradient><radialGradient id="lorc-hood-gradient-7"><stop offset="0%" stop-color="#e7e7e6" stop-opacity="1"></stop><stop offset="100%" stop-color="#4d3232" stop-opacity="1"></stop></radialGradient><radialGradient id="lorc-hood-gradient-8"><stop offset="0%" stop-color="#e7e7e6" stop-opacity="1"></stop><stop offset="100%" stop-color="#4d3232" stop-opacity="1"></stop></radialGradient><radialGradient id="lorc-hood-gradient-9"><stop offset="0%" stop-color="#e7e7e6" stop-opacity="1"></stop><stop offset="100%" stop-color="#4d3232" stop-opacity="1"></stop></radialGradient><radialGradient id="lorc-hood-gradient-10"><stop offset="0%" stop-color="#e7e7e6" stop-opacity="1"></stop><stop offset="100%" stop-color="#4d3232" stop-opacity="1"></stop></radialGradient></defs><g class="" transform="translate(-16,27)" style=""><path d="M249.49786,95.36118c-3.7175.04144-6.7183,3.06788-6.7183,6.79519c0,3.74794,3.03411,6.78722,6.78008,6.7956l.04019,8.84093c-.07408-.00239-.14846-.00359-.22313-.00359-3.75312,0-6.79562,3.0425-6.79562,6.79562c0,1.70773.62992,3.26833,1.67007,4.46212L167.88514,75.28538c-.13291-.26674-.26634-.53295-.40019-.7989c7.83675-.92448,16.99167-1.84898,27.46476-2.77346-.70282-5.86875-1.40565-17.58843-2.10847-35.15905c21.95039,9.2867,40.10167,13.93005,54.45384,13.93005.6724.6724.80927,6.43235.4106,17.27984.55342-.03596,1.10884-.07192,1.66625-.10789l.12593,27.70521Zm-.12116,36.01937c.09543,0,.19039-.00197.28486-.00586l.00676,1.48605-2.7579-1.94156c.76455.2979,1.59633.46137,2.46628.46137Zm-6.39865,17.41929c0,3.75245,3.04142,6.79453,6.79361,6.79562l.04693,10.32401c-.08078-.00284-.16193-.00428-.2434-.00428-.44501,0-.88003.04277-1.30116.12444L195.3368,135.94455c-6.14144-14.51025-12.97231-29.89271-20.48458-45.88763l72.69692,52.31975c-2.66062.92131-4.57108,3.44913-4.57108,6.42317h-.00001Zm-91.89212-38.01213c-3.60177-9.15607-7.41306-18.56312-11.4324-28.16725-.41419-1.11429-.8448-2.1944-1.28626-3.25583c3.81043-1.10092,9.49016-2.20184,17.03921-3.30276l4.68021,3.36833c.91566,1.62581,1.80404,3.1477,2.65481,4.52724c2.99886,4.86274,11.60708,22.786,21.63098,45.75382l-33.28655-18.92355ZM111.301,88.16978c8.67707-1.01815,17.16809-1.56163,20.41516-4.66519.41986.82397.83153,1.61233,1.23358,2.359c1.48762,2.76272,4.55612,9.74114,8.53403,19.46526L111.301,88.16978Zm138.27419,91.33665c.10225,0,.20398-.00226.30513-.00673l.0403,8.86549c-.17943-.01421-.36083-.02145-.54391-.02145-3.75312,0-6.79562,3.0425-6.79562,6.79562s3.0425,6.79562,6.79562,6.79562c.20405,0,.406-.00899.60547-.02661l.03415,7.5128-30.91424-12.67686c-4.82291-13.5635-10.68697-29.02425-17.57763-45.91314l41.66753,24.21637c.95279,2.60197,3.45114,4.45889,6.3832,4.45889Zm-73.72467-.4981c-5.42444-16.36622-11.89714-34.68656-19.40222-54.37456l34.30108,19.93513c6.52928,15.47061,13.27276,32.26699,19.20179,48.42293l-34.10065-13.9835Zm-71.19808-29.19587C94.13789,127.1345,85.26202,98.0412,92.54486,93.18597c1.55998-1.03999,3.41652-1.85756,5.4639-2.51614l49.00777,28.48238c6.33606,16.14111,13.83827,36.24792,20.78729,56.55645l-63.15138-25.8962Zm138.32561,69.5418c0,3.75312,3.0425,6.79562,6.79562,6.79562.10681,0,.21305-.00246.31866-.00734l.04704,10.34901c-3.59109.18149-6.44696,3.15065-6.44696,6.78683c0,3.65699,2.88864,6.6393,6.50867,6.78967l.01593,3.50364-15.00365-3.30199c-1.29138-7.37747-5.25117-21.71531-11.82195-41.16286l19.81273,8.50253c-.1475.55682-.2261,1.14167-.2261,1.74488l.00001.00001ZM194.0169,241.20323c-2.72662-11.76135-7.57302-29.27744-14.49516-50.92283l34.79589,14.93247c5.68188,16.38089,10.1912,31.51798,12.35972,43.17823l-32.66045-7.18787Zm-54.37604-11.96702c-6.66127-26.5954-14.22421-48.47134-19.74244-53.98957-2.85942-2.85942-6.35937-8.18945-9.94642-14.82173l61.60275,26.4365c6.2911,19.05186,11.81435,37.6725,15.1392,52.7302l-47.05309-10.3554Zm103.85307,36.47072c0,3.75312,3.0425,6.79562,6.79562,6.79562.0045,0,.00901,0,.01351-.00001l.04833,10.6318c-3.59744.1747-6.46049,3.14675-6.46049,6.7875c0,3.66154,2.89584,6.64673,6.5222,6.79022l.04693,10.32519c-1.29707.00523-2.50842.37385-3.5375,1.00933l-9.87366-.64465c.59212-18.55664.53762-35.38661-.40001-46.39628l7.54249,1.69909c-.44655.90532-.69743,1.92446-.69743,3.00219h.00001Zm-45.55005,39.14184c.51362-22.08402.1762-41.156-1.37809-49.96368-.07206-.82867-.19977-1.82934-.38295-2.99521l31.98649,7.20558c1.45207,13.91979,1.79625,30.50119,1.34381,47.81446l-31.56926-2.06115Zm-44.88109-2.93028c-2.11518-19.32007-6.15283-41.65018-10.8996-62.19758l46.59802,10.49711c.30518,1.87282.55784,3.65631.75377,5.34127c1.60652,13.81605,2.10886,30.84424,1.82063,48.85802l-38.27282-2.49882Zm97.42524,18.70994c.01127,0,.02253-.00003.03378-.00008l.04019,8.84276c-.09038-.00356-.18121-.00536-.27246-.00536-3.75312,0-6.79562,3.0425-6.79562,6.79562s3.0425,6.79562,6.79562,6.79562c.11205,0,.22346-.00271.33417-.00807l.04833,10.63175c-3.74647.00781-6.78115,3.04731-6.78115,6.7956c0,3.75312,3.0425,6.79562,6.79562,6.79562.01578,0,.03155-.00005.04731-.00016l.21675,47.68476c-7.18366-9.20352-14.0623-16.76751-20.6359-22.69197c2.87982-19.3707,5.22056-48.1523,6.36332-74.93978l8.40628.62933c1.24168,1.6256,3.20024,2.67436,5.40376,2.67436ZM211.3816,379.35347c-5.07645-2.23364-10.89882-5.73731-16.86449-9.95451c1.44174-17.10654,2.55756-36.68999,3.15797-54.99414l31.49948,2.35819c-1.01908,24.07532-3.43156,48.8459-6.42977,69.30486-3.90354-2.86062-7.69127-5.09875-11.36319-6.71439v-.00001Zm-56.23952-48.39449c8.76565,17.53128,19.94749,31.65278,31.94077,42.03036-1.67233,15.86402-3.68995,30.12386-5.79554,40.95262-2.10928,10.84774-4.68206,20.23878-7.71834,28.17312-29.21783-12.30435-43.46087-22.84697-42.72913-31.62784c1.82357-21.88285,21.88285-34.64784,23.70642-78.41353.25136-6.03269.01765-13.13947-.60561-20.94304l37.17389,2.783c-.51336,16.93984-1.65802,34.39229-3.18482,50.58829-13.79376-10.74407-27.17619-24.19057-32.78764-33.54298Zm54.61749,56.8519c4.17027,1.23212,7.89019,3.5564,11.66399,6.76337-1.0637,6.45844-2.18102,12.34327-3.32086,17.46158-2.71916,12.21007-6.11086,22.57457-10.17512,31.09352c8.24262-12.13881,14.17844-22.28213,17.80745-30.42995c1.02822-2.30855,2.03506-6.12125,2.99968-11.07741c5.95805,6.24337,12.72269,14.11912,21.90995,22.95606l.55084,44.26345c-18.40721-5.49469-34.70349-10.74103-48.88884-15.73903c1.9982-2.98256,3.87184-6.30694,5.62092-9.97312-2.08467,3.07007-4.3169,6.26778-6.69668,9.59313-10.1766-3.60375-19.25017-7.07773-27.22073-10.42194c6.36648-10.93518,11.01353-20.16685,13.94115-27.69502c2.10163-5.4042,4.10097-19.05116,5.7646-36.31394c5.29409,3.8944,10.6853,7.07652,16.04365,9.51929v.00001ZM111.75225,180.66982c12.36039,3.82657,8.90369,21.03644,18.59012,40.08094-9.93994,8.8355,1.71318-13.23707-19.81508-3.10612C88.99903,287.2949,91.53177,374.67433,96.59724,394.93622s13.93005,34.19195,11.39732,41.79016-10.13095-3.7991-15.19642,3.7991-40.52379,10.13095-50.65474,6.33184s22.79463-21.52826,6.33184-65.85116s6.33184-191.22163,26.59374-233.01179c6.29281-25.12495,10.72773-30.50857,13.30475-16.15088c3.46748,9.17862,8.79769,22.90486,17.97821,40.18584l5.40031,8.64049ZM255.1727,67.65597c.55741.03597,1.11283.07193,1.66625.10789-.39867-10.84749-.2618-16.60744.4106-17.27984c14.35217,0,32.50345-4.64335,54.45384-13.93005-.70282,17.57062-1.40565,29.2903-2.10847,35.15905c10.47309.92448,19.62801,1.84898,27.46476,2.77346-.13385.26595-.26728.53216-.40019.7989l-76.36601,53.76167c1.04015-1.19379,1.67007-2.75439,1.67007-4.46212c0-3.75312-3.0425-6.79562-6.79562-6.79562-.07467,0-.14905.0012-.22313.00359l.04019-8.84093c3.74597-.00838,6.78008-3.04766,6.78008-6.7956c0-3.72731-3.0008-6.75375-6.7183-6.79519l.12593-27.70521Zm2.46151,63.26321l-2.7579,1.94156.00676-1.48605c.09447.00389.18943.00586.28486.00586.86995,0,1.70173-.16347,2.46628-.46137Zm3.93236,17.88066c0-2.97404-1.91046-5.50186-4.57108-6.42317l72.69692-52.31975c-7.51227,15.99492-14.34314,31.37738-20.48458,45.88763L256.2706,166.03963c-.42113-.08167-.85615-.12444-1.30116-.12444-.08147,0-.16262.00144-.2434.00428l.04693-10.32401c3.75219-.00109,6.79361-3.04317,6.79361-6.79562h-.00001Zm58.60558-19.08858c10.0239-22.96782,18.63212-40.89108,21.63098-45.75382.85077-1.37954,1.73915-2.90143,2.65481-4.52724l4.68021-3.36833c7.54905,1.10092,13.22878,2.20184,17.03921,3.30276-.44146,1.06143-.87207,2.14154-1.28626,3.25583-4.01934,9.60413-7.83063,19.01118-11.4324,28.16725l-33.28655,18.92355Zm42.88871-24.38241c3.97791-9.72412,7.04641-16.70254,8.53403-19.46526.40205-.74667.81372-1.53503,1.23358-2.359c3.24707,3.10356,11.73809,3.64704,20.41516,4.66519l-30.18277,17.15907ZM261.35264,175.04754l41.66753-24.21637c-6.89066,16.88889-12.75472,32.34964-17.57763,45.91314L254.5283,209.42117l.03415-7.5128c.19947.01762.40142.02661.60547.02661c3.75312,0,6.79562-3.0425,6.79562-6.79562s-3.0425-6.79562-6.79562-6.79562c-.18308,0-.36448.00724-.54391.02145l.0403-8.86549c.10115.00447.20288.00673.30513.00673c2.93206,0,5.43041-1.85692,6.3832-4.45889Zm33.24082,17.94429c5.92903-16.15594,12.67251-32.95232,19.20179-48.42293l34.30108-19.93513c-7.50508,19.688-13.97778,38.00834-19.40222,54.37456l-34.10065,13.9835Zm42.14735-17.28317c6.94902-20.30853,14.45123-40.41534,20.78729-56.55645l49.00777-28.48238c2.04738.65858,3.90392,1.47615,5.4639,2.51614c7.28284,4.85523-1.59303,33.94853-12.10758,56.62649l-63.15138,25.8962Zm-75.17422,43.64559c0-.60321-.0786-1.18806-.2261-1.74488l19.81273-8.50253c-6.57078,19.44755-10.53057,33.78539-11.82195,41.16286l-15.00365,3.30199.01593-3.50364c3.62003-.15037,6.50867-3.13268,6.50867-6.78967c0-3.63618-2.85587-6.60534-6.44696-6.78683l.04704-10.34901c.10561.00488.21185.00734.31866.00734c3.75312,0,6.79562-3.0425,6.79562-6.79562l.00001-.00001Zm16.30069,29.03685c2.16852-11.66025,6.67784-26.79734,12.35972-43.17823l34.79589-14.93247c-6.92214,21.64539-11.76854,39.16148-14.49516,50.92283l-32.66045,7.18787Zm39.9834-8.79949c3.32485-15.0577,8.8481-33.67834,15.1392-52.7302l61.60275-26.4365c-3.58705,6.63228-7.087,11.96231-9.94642,14.82173-5.51823,5.51823-13.08117,27.39417-19.74244,53.98957l-47.05309,10.3554Zm-56.79997,26.11532c0-1.07773-.25088-2.09687-.69743-3.00219l7.54249-1.69909c-.93763,11.00967-.99213,27.83964-.40001,46.39628l-9.87366.64465c-1.02908-.63548-2.24043-1.0041-3.5375-1.00933l.04693-10.32519c3.62636-.14349,6.5222-3.12868,6.5222-6.79022c0-3.64075-2.86305-6.6128-6.46049-6.7875l.04833-10.6318c.0045.00001.00901.00001.01351.00001c3.75312,0,6.79562-3.0425,6.79562-6.79562h.00001Zm13.98078,41.20299c-.45244-17.31327-.10826-33.89467,1.34381-47.81446l31.98649-7.20558c-.18318,1.16587-.31089,2.16654-.38295,2.99521-1.55429,8.80768-1.89171,27.87966-1.37809,49.96368l-31.56926,2.06115Zm38.17753-2.49261c-.28823-18.01378.21411-35.04197,1.82063-48.85802.19593-1.68496.44859-3.46845.75377-5.34127l46.59802-10.49711c-4.74677,20.5474-8.78442,42.87751-10.8996,62.19758l-38.27282,2.49882Zm-53.74866,13.53676l8.40628-.62933c1.14276,26.78748,3.4835,55.56908,6.36332,74.93978-6.5736,5.92446-13.45224,13.48845-20.6359,22.69197l.21675-47.68476c.01576.00011.03153.00016.04731.00016c3.75312,0,6.79562-3.0425,6.79562-6.79562c0-3.74829-3.03468-6.78779-6.78115-6.7956l.04833-10.63175c.11071.00536.22212.00807.33417.00807c3.75312,0,6.79562-3.0425,6.79562-6.79562s-3.0425-6.79562-6.79562-6.79562c-.09125,0-.18208.0018-.27246.00536l.04019-8.84276c.01125.00005.02251.00008.03378.00008c2.20352,0,4.16208-1.04876,5.40376-2.67436Zm33.70267,61.39941c-3.67192,1.61564-7.45965,3.85377-11.36319,6.71439-2.99821-20.45896-5.41069-45.22954-6.42977-69.30486l31.49948-2.35819c.60041,18.30415,1.71623,37.8876,3.15797,54.99414-5.96567,4.2172-11.78804,7.72087-16.86449,9.95451v.00001Zm23.45188-14.85152c-1.5268-16.196-2.67146-33.64845-3.18482-50.58829l37.17389-2.783c-.62326,7.80357-.85697,14.91035-.60561,20.94304c1.82357,43.76569,21.88285,56.53068,23.70642,78.41353.73174,8.78087-13.5113,19.32349-42.72913,31.62784-3.03628-7.93434-5.60906-17.32538-7.71834-28.17312-2.10559-10.82876-4.12321-25.0886-5.79554-40.95262c11.99328-10.37758,23.17512-24.49908,31.94077-42.03036-5.61145,9.35241-18.99388,22.79891-32.78764,33.54298Zm-21.82985,23.30891c5.35835-2.44277,10.74956-5.62489,16.04365-9.51929c1.66363,17.26278,3.66297,30.90974,5.7646,36.31394c2.92762,7.52817,7.57467,16.75984,13.94115,27.69502-7.97056,3.34421-17.04413,6.81819-27.22073,10.42194-2.37978-3.32535-4.61201-6.52306-6.69668-9.59313c1.74908,3.66618,3.62272,6.99056,5.62092,9.97312-14.18535,4.998-30.48163,10.24434-48.88884,15.73903l.55084-44.26345c9.18726-8.83694,15.9519-16.71269,21.90995-22.95606.96462,4.95616,1.97146,8.76886,2.99968,11.07741c3.62901,8.14782,9.56483,18.29114,17.80745,30.42995-4.06426-8.51895-7.45596-18.88345-10.17512-31.09352-1.13984-5.11831-2.25716-11.00314-3.32086-17.46158c3.7738-3.20697,7.49372-5.53125,11.66399-6.76337v-.00001ZM398.19269,172.02933c9.18052-17.28098,14.51073-31.00722,17.97821-40.18584c2.57702-14.35769,7.01194-8.97407,13.30475,16.15088c20.2619,41.79016,43.05653,188.68889,26.59374,233.01179s16.46279,62.05206,6.33184,65.85116-45.58927,1.26637-50.65474-6.33184-12.66368,3.79911-15.19642-3.7991s6.33185-21.52826,11.39732-41.79016s7.59821-107.64132-13.93005-177.29158c-21.52826-10.13095-9.87514,11.94162-19.81508,3.10612c9.68643-19.0445,6.22973-36.25437,18.59012-40.08094l5.40031-8.64049Z" fill="url(#lorc-hood-gradient-1)" stroke="#000000" stroke-opacity="1" stroke-width="4" transform="translate(486.4, 486.4) scale(-0.9, -0.9) rotate(-180, 256, 256) skewX(0) skewY(0)" filter="url(#shadow-1)"></path></g></svg>