<svg id="e2TH609zMWb1" xmlns="http://www.w3.org/2000/svg" xmlns:xlink="http://www.w3.org/1999/xlink" viewBox="0 0 512 512" shape-rendering="geometricPrecision" text-rendering="geometricPrecision"><defs><filter id="e2TH609zMWb3-filter" x="-150%" width="400%" y="-150%" height="400%"><feGaussianBlur id="e2TH609zMWb3-filter-drop-shadow-0-blur" in="SourceAlpha" stdDeviation="12,12"/><feOffset id="e2TH609zMWb3-filter-drop-shadow-0-offset" dx="0" dy="0" result="tmp"/><feFlood id="e2TH609zMWb3-filter-drop-shadow-0-flood" flood-color="#000"/><feComposite id="e2TH609zMWb3-filter-drop-shadow-0-composite" operator="in" in2="tmp"/><feMerge id="e2TH609zMWb3-filter-drop-shadow-0-merge" result="result"><feMergeNode id="e2TH609zMWb3-filter-drop-shadow-0-merge-node-1"/><feMergeNode id="e2TH609zMWb3-filter-drop-shadow-0-merge-node-2" in="SourceGraphic"/></feMerge></filter><radialGradient id="e2TH609zMWb3-fill" cx="0" cy="0" r="0.5" spreadMethod="pad" gradientUnits="objectBoundingBox" gradientTransform="translate(0.5 0.5)"><stop id="e2TH609zMWb3-fill-0" offset="0%" stop-color="#e7e7e6"/><stop id="e2TH609zMWb3-fill-1" offset="100%" stop-color="#4d3232"/></radialGradient></defs><g transform="translate(-16 27)"><path d="M242.04656,117.13108c-.00001,0-.00003,0-.00004,0v-.00004l.00004.00004Zm.03613,7.9568c-.06667-.00215-.13361-.00323-.20082-.00323-3.37781,0-6.11606,2.73825-6.11606,6.11606s2.73825,6.11606,6.11606,6.11606c.08589,0,.17135-.00177.25637-.00527l.04349,9.56684c-3.35137.03082-6.05865,2.75714-6.05865,6.1158c0,3.37721,2.73728,6.11508,6.11425,6.11606l.04224,9.29161c-.0727-.00256-.14574-.00385-.21906-.00385-3.37781,0-6.11606,2.73825-6.11606,6.11606s2.73825,6.11606,6.11606,6.11606c.09202,0,.18358-.00203.27462-.00606l.03627,7.97894c-.16149-.01279-.32475-.01931-.48952-.01931-3.37781,0-6.11606,2.73825-6.11606,6.11606s2.73825,6.11606,6.11606,6.11606c.18364,0,.3654-.00809.54492-.02395l.04359,9.58954c-.07672-.00285-.15382-.00429-.23125-.00429-3.37781,0-6.11606,2.73825-6.11606,6.11606s2.73825,6.11606,6.11606,6.11606c.09613,0,.19174-.00221.28679-.00661l.04234,9.31411c-3.23198.16334-5.80226,2.83559-5.80226,6.10815c0,3.29129,2.59978,5.97537,5.8578,6.1107l.03618,7.95909c-3.35781.02336-6.07262,2.7526-6.07262,6.1159c0,3.37781,2.73825,6.11606,6.11606,6.11606.00405,0,.00811,0,.01216-.00001l.0435,9.56862c-3.2377.15723-5.81444,2.83207-5.81444,6.10875c0,3.29539,2.60626,5.98206,5.86998,6.1112l.04224,9.29267c-3.36622.01358-6.09086,2.7466-6.09086,6.116c0,3.37781,2.73825,6.11606,6.11606,6.11606.01014,0,.02028-.00003.0304-.00007l.03617,7.95848c-.08134-.0032-.16309-.00482-.24521-.00482-3.37781,0-6.11606,2.73825-6.11606,6.11606s2.73825,6.11606,6.11606,6.11606c.10084,0,.20111-.00244.30075-.00726l.0435,9.56858c-3.37182.00703-6.10303,2.74258-6.10303,6.11604c0,3.37781,2.73825,6.11606,6.11606,6.11606.0142,0,.02839-.00005.04258-.00014l.19508,42.91628c-12.97663-16.62532-24.84732-27.30622-35.61207-32.04272-16.76476-7.37649-43.10471-25.49965-51.15179-38.91146c12.74122,25.48243,31.69076,38.3167,49.69197,46.52313c11.64784,3.4414,19.39199,16.34953,36.79658,33.09045l.49576,39.83711c-73.30754-21.88284-109.41423-39.38912-108.32009-52.51883c1.64121-19.69456,19.69456-31.18306,21.33578-70.57218c1.62095-38.90295-19.17138-127.43532-30.75322-140.6832c1.27029-2.59306,2.56236-5.24606,3.8762-7.959c23.42488-48.36992,16.32643-68.22106,15.61659-72.47741-.18451-1.10638-1.31119-3.20489-3.38003-6.29553c7.51714-2.1885,23.24199-4.37701,47.17453-6.56551l3.82902,4.87985c12.03371,13.77063,26.43524,21.62436,43.2046,23.56118.6269,2.7058,3.04942,4.72356,5.94432,4.73005l.03617,7.9568ZM100.73325,102.94169c8.39453-5.59635,26.33054-4.03661,33.47342-7.52151.60191,3.58212.90286,7.04187.90286,10.37927c0,11.0219-4.65673,28.11214-13.97018,51.27073l-3.19265,9.16694c-11.56416-20.17375-25.20908-57.96501-17.21345-63.29544v.00001Zm90.26673-50.96885c0,0,0,.00001,0,.00001s-.00001-.00001-.00002-.00001h.00002Zm49.00844,12.53705c.60516.60516.72834,5.78911.36954,15.55186.49808-.03236.99796-.06473,1.49963-.0971l.09379,20.63358c-17.36338-.63458-33.72132-7.75635-49.0738-21.36532l-.46023-.38941c-.47912-5.93563-.95825-14.89251-1.43737-26.87065c19.75534,8.35802,36.09148,12.53704,49.00844,12.53704Zm8.66631,15.42333c-.3588-9.76274-.23562-14.9467.36954-15.55186c12.91695,0,29.2531-4.17901,49.00846-12.53704-.48646,12.16162-.97293,21.20871-1.45939,27.14129l-.43825.37583c-15.35266,13.52741-31.71078,20.60644-49.07435,21.23709l.09437-20.76241c.50167.03237,1.00155.06474,1.49962.0971Zm139.64474,22.8799c8.00206,5.3347-5.67121,43.18239-17.24129,63.34399l-3.16478-9.08693c-9.31345-23.15859-13.97018-40.24883-13.97018-51.27073c0-3.37428.30764-6.87364.92292-10.49807c7.15636,3.47222,25.06666,1.92062,33.45333,7.51174ZM332.51821,317.81208c1.64121,39.38912,19.69456,50.87761,21.33578,70.57218c1.09414,13.12971-35.01256,30.63599-108.32009,52.51883l.49576-39.8371c17.40459-16.74093,25.14875-29.64905,36.79658-33.09045c18.00121-8.20643,36.95075-24.55246,49.69197-50.03489-8.04708,13.41181-34.38703,35.04673-51.15179,42.42322-10.76476,4.73649-22.63544,15.4174-35.61207,32.04272l.19508-42.91628c.01418.0001.02838.00014.04258.00014c3.37781,0,6.11606-2.73825,6.11606-6.11606c0-3.37346-2.73121-6.10901-6.10303-6.11604l.0435-9.56858c.09964.00482.19991.00726.30075.00726c3.37781,0,6.11606-2.73825,6.11606-6.11606s-2.73825-6.11606-6.11606-6.11606c-.08212,0-.16387.00162-.24521.00482l.03617-7.95848c.01012.00005.02026.00007.0304.00007c3.37781,0,6.11606-2.73825,6.11606-6.11606c0-3.3694-2.72464-6.10242-6.09086-6.116l.04224-9.29267c3.26372-.12914,5.86998-2.81581,5.86998-6.1112c0-3.27668-2.57674-5.95152-5.81444-6.10875l.0435-9.56862c.00405.00001.00811.00001.01216.00001c3.37781,0,6.11606-2.73825,6.11606-6.11606c0-3.36331-2.71481-6.09255-6.07262-6.1159l.03618-7.95909c3.25803-.13533,5.8578-2.81941,5.8578-6.1107c0-3.27256-2.57028-5.94481-5.80226-6.10815l.04234-9.31411c.09505.00439.19066.00661.28679.00661c3.37781,0,6.11606-2.73825,6.11606-6.11606s-2.73825-6.11606-6.11606-6.11606c-.07743,0-.15452.00144-.23125.00429l.04359-9.58954c.17952.01586.36128.02395.54492.02395c3.37781,0,6.11606-2.73825,6.11606-6.11606s-2.73825-6.11606-6.11606-6.11606c-.16477,0-.32803.00652-.48952.01931l.03627-7.97894c.09103.00402.18259.00606.27462.00606c3.37781,0,6.11606-2.73825,6.11606-6.11606s-2.73825-6.11606-6.11606-6.11606c-.07332,0-.14636.0013-.21906.00385l.04224-9.29161c3.37697-.00098,6.11425-2.73885,6.11425-6.11606c0-3.35866-2.70728-6.08498-6.05865-6.1158l.04349-9.56684c.08502.0035.17049.00527.25637.00527c3.37781,0,6.11606-2.73825,6.11606-6.11606s-2.73825-6.11606-6.11606-6.11606c-.0672,0-.13414.00108-.20082.00323l.03617-7.95684c2.846-.00637,5.23544-1.95661,5.91104-4.59346c16.95116-1.92301,31.99633-9.77942,45.1355-23.56925l3.47931-4.86578c23.13953,2.14799,38.37245,4.29598,45.69875,6.44396-2.11477,3.14956-3.26549,5.28392-3.45213,6.40309-.70985,4.25635-7.80829,24.10749,15.61659,72.47741c1.29995,2.68426,2.57858,5.30984,3.83591,7.87675-11.58969,13.4065-32.33203,101.77898-30.71295,140.63688h-.00001Z" filter="url(#e2TH609zMWb3-filter)" fill="url(#e2TH609zMWb3-fill)" stroke="#000" stroke-width="4"/></g></svg>
