<svg id="e3sSe5Tmh6n1" xmlns="http://www.w3.org/2000/svg" xmlns:xlink="http://www.w3.org/1999/xlink" viewBox="0 0 512 512" shape-rendering="geometricPrecision" text-rendering="geometricPrecision"><defs><filter id="e3sSe5Tmh6n3-filter" x="-150%" width="400%" y="-150%" height="400%"><feGaussianBlur id="e3sSe5Tmh6n3-filter-drop-shadow-0-blur" in="SourceAlpha" stdDeviation="12,12"/><feOffset id="e3sSe5Tmh6n3-filter-drop-shadow-0-offset" dx="0" dy="0" result="tmp"/><feFlood id="e3sSe5Tmh6n3-filter-drop-shadow-0-flood" flood-color="#000"/><feComposite id="e3sSe5Tmh6n3-filter-drop-shadow-0-composite" operator="in" in2="tmp"/><feMerge id="e3sSe5Tmh6n3-filter-drop-shadow-0-merge" result="result"><feMergeNode id="e3sSe5Tmh6n3-filter-drop-shadow-0-merge-node-1"/><feMergeNode id="e3sSe5Tmh6n3-filter-drop-shadow-0-merge-node-2" in="SourceGraphic"/></feMerge></filter><radialGradient id="e3sSe5Tmh6n3-fill" cx="0" cy="0" r="0.5" spreadMethod="pad" gradientUnits="objectBoundingBox" gradientTransform="translate(0.5 0.5)"><stop id="e3sSe5Tmh6n3-fill-0" offset="0%" stop-color="#e7e7e6"/><stop id="e3sSe5Tmh6n3-fill-1" offset="100%" stop-color="#4d3232"/></radialGradient></defs><path d="M253.08822,467.2568c-63.23521-21.67368-104.1917-14.92368-103.17493-28.3064c1.62117-21.33771,24.22393-122.42685,26.35753-166.53205c4.96825,8.85694,31.93524,41.67367,76.81739,37.41995l.00001,157.4185ZM159.20606,190.60231c-8.75544,8.44393,1.57088-13.13029-17.72678-3.16975-11.13651,39.51849-15.11898,84.81878-15.62653,119.99683-5.72003,6.7169-45.38244,1.10854-45.28353-8.8456c5.87265-2.56977,11.37825-5.84751,11.37825-14.18414c0-6.22331-3.30777-12.47565-9.92331-18.75704c4.13426-56.3572,16.27369-121.47215,27.54264-146.96479c5.66353-24.8019,9.65496-30.1163,11.97427-15.94322c3.12073,9.06061,7.91792,22.61036,16.18039,39.66915l4.86028,8.52938c11.06379,3.7568,8.04677,20.58139,16.58978,39.25873-1.87883-22.2199-4.84047-39.76668-9.25823-44.61219-11.48849-12.60087-34.46548-73.80508-24.6182-81.00557c6.48391-4.74114,18.66023-4.7996,27.15859-6.34197c27.36204,52.48243,51.78346,241.18435,51.78346,226.16751-3.26615-79.53187-17.5446-156.4073-42.83535-230.62628c1.37216-3.01006,15.65062-6.02011,42.83535-9.03017c14.06893,42.15505,32.08505,264.38404,32.08505,249.08167.58323-57.14648-5.57975-139.55013-18.48895-247.21097c10.95257,8.65852,22.70423,12.98779,35.25498,12.98779v6.32121L239.88399,81.7582h7.02636l6.17787-7.75348v25.65858l-8.46144-9.76759h-6.67504l15.13647,18.57606v6.32121l-13.20423,15.83531h7.02636l6.17787-7.75348v26.19258l-8.46143-9.76758h-6.67504l15.13647,18.57606v6.32121l-13.20422,15.8353h7.02636l6.17787-7.75347v26.75539l-8.46143-9.76758h-6.67504l15.13647,18.57606v6.32122L239.884,229.9993h7.02636l6.17787-7.75347v27.24242l-8.46143-9.76758h-6.67504l15.13647,18.57606v6.32122l-13.20422,15.8353h7.02636l6.17786-7.75347v21.59758c-35.48669,2.42668-54.51628-3.46913-76.74773-23.48836c1.00622-26.48765-14.16007-44.68866-17.13442-80.20672l-.00002.00003Zm17.13442,80.20673c-.02004.52756-.04329,1.06408-.06966,1.60932-1.12923-2.01309-1.12199-2.7884.06966-1.60932ZM258.9118,309.8383c44.88215,4.25372,71.84914-28.56301,76.81739-37.41995c2.1336,44.1052,24.73636,145.19434,26.35753,166.53205c1.01677,13.38272-39.93972,6.63272-103.17493,28.3064l.00001-157.4185Zm93.88213-119.23599c-2.97435,35.51806-18.14064,53.71907-17.13442,80.20672-22.23145,20.01924-41.26104,25.91505-76.74773,23.48836v-21.59758l6.17786,7.75347h7.02636l-13.20422-15.8353v-6.32122l15.13647-18.57606h-6.67504l-8.46143,9.76758v-27.24242l6.17787,7.75347h7.02636l-13.20422-15.8353v-6.32122l15.13647-18.57606h-6.67504l-8.46143,9.76758v-26.75539l6.17787,7.75347h7.02636l-13.20422-15.8353v-6.32121l15.13647-18.57606h-6.67504l-8.46143,9.76758v-26.19258l6.17787,7.75348h7.02636L258.9118,114.79301v-6.32121l15.13647-18.57606h-6.67504l-8.46144,9.76759v-25.65858l6.17787,7.75348h7.02636L258.91179,65.92292v-6.32121l.27528-.33783c11.45603-1.26375,23.18709-6.073,35.1932-14.42776-13.05474,108.5319-19.28889,191.52815-18.70245,248.98877c0,15.30236,18.01612-206.92662,32.08505-249.08167c27.18473,3.01006,41.46319,6.02011,42.83535,9.03017-25.29075,74.21898-39.5692,151.09441-42.83535,230.62628c0,15.01684,24.42142-173.68508,51.78346-226.16751c8.49836,1.54238,20.67468,1.60084,27.15859,6.34197c9.84728,7.20049-13.12971,68.4047-24.6182,81.00557-4.41776,4.84551-7.3794,22.3923-9.25823,44.61219c8.54301-18.67734,5.52599-35.50193,16.58978-39.25873l4.86028-8.52938c8.26247-17.0588,13.05966-30.60855,16.18039-39.66915c2.31931-14.17308,6.31074-8.85868,11.97427,15.94322c11.21873,25.37903,23.3002,90.02801,27.48689,146.2108-7.15543,6.53508-10.73315,13.03876-10.73315,19.51103c0,8.74692,6.06086,11.92475,12.24739,14.55893.08734,9.70418-39.79911,16.28294-45.27279,9.53149-.44228-35.32489-4.39206-81.14068-15.64082-121.05751-19.29766-9.96054-8.97134,11.61368-17.72678,3.16975l-.00002-.00003Zm-17.06474,81.81604c-.02637-.54523-.04962-1.08175-.06966-1.60932c1.19165-1.17909,1.19889-.40377.06966,1.60932Z" transform="translate(-.001766 0.000005)" filter="url(#e3sSe5Tmh6n3-filter)" fill="url(#e3sSe5Tmh6n3-fill)" stroke="#000" stroke-width="4"/></svg>
