<svg xmlns="http://www.w3.org/2000/svg" viewBox="0 0 512 512" style="height: 512px; width: 512px;"><defs><filter id="shadow-1" height="300%" width="300%" x="-100%" y="-100%"><feFlood flood-color="rgba(0, 0, 0, 1)" result="flood"></feFlood><feComposite in="flood" in2="SourceGraphic" operator="atop" result="composite"></feComposite><feGaussianBlur in="composite" stdDeviation="12" result="blur"></feGaussianBlur><feOffset dx="0" dy="0" result="offset"></feOffset><feComposite in="SourceGraphic" in2="offset" operator="over"></feComposite></filter><filter id="shadow-2" height="300%" width="300%" x="-100%" y="-100%"><feFlood flood-color="rgba(0, 0, 0, 1)" result="flood"></feFlood><feComposite in="flood" in2="SourceGraphic" operator="atop" result="composite"></feComposite><feGaussianBlur in="composite" stdDeviation="12" result="blur"></feGaussianBlur><feOffset dx="0" dy="0" result="offset"></feOffset><feComposite in="SourceGraphic" in2="offset" operator="over"></feComposite></filter><filter id="shadow-3" height="300%" width="300%" x="-100%" y="-100%"><feFlood flood-color="rgba(0, 0, 0, 1)" result="flood"></feFlood><feComposite in="flood" in2="SourceGraphic" operator="atop" result="composite"></feComposite><feGaussianBlur in="composite" stdDeviation="12" result="blur"></feGaussianBlur><feOffset dx="0" dy="0" result="offset"></feOffset><feComposite in="SourceGraphic" in2="offset" operator="over"></feComposite></filter><filter id="shadow-4" height="300%" width="300%" x="-100%" y="-100%"><feFlood flood-color="rgba(0, 0, 0, 1)" result="flood"></feFlood><feComposite in="flood" in2="SourceGraphic" operator="atop" result="composite"></feComposite><feGaussianBlur in="composite" stdDeviation="12" result="blur"></feGaussianBlur><feOffset dx="0" dy="0" result="offset"></feOffset><feComposite in="SourceGraphic" in2="offset" operator="over"></feComposite></filter><filter id="shadow-5" height="300%" width="300%" x="-100%" y="-100%"><feFlood flood-color="rgba(0, 0, 0, 1)" result="flood"></feFlood><feComposite in="flood" in2="SourceGraphic" operator="atop" result="composite"></feComposite><feGaussianBlur in="composite" stdDeviation="12" result="blur"></feGaussianBlur><feOffset dx="0" dy="0" result="offset"></feOffset><feComposite in="SourceGraphic" in2="offset" operator="over"></feComposite></filter><filter id="shadow-6" height="300%" width="300%" x="-100%" y="-100%"><feFlood flood-color="rgba(0, 0, 0, 1)" result="flood"></feFlood><feComposite in="flood" in2="SourceGraphic" operator="atop" result="composite"></feComposite><feGaussianBlur in="composite" stdDeviation="12" result="blur"></feGaussianBlur><feOffset dx="0" dy="0" result="offset"></feOffset><feComposite in="SourceGraphic" in2="offset" operator="over"></feComposite></filter><filter id="shadow-7" height="300%" width="300%" x="-100%" y="-100%"><feFlood flood-color="rgba(0, 0, 0, 1)" result="flood"></feFlood><feComposite in="flood" in2="SourceGraphic" operator="atop" result="composite"></feComposite><feGaussianBlur in="composite" stdDeviation="12" result="blur"></feGaussianBlur><feOffset dx="0" dy="0" result="offset"></feOffset><feComposite in="SourceGraphic" in2="offset" operator="over"></feComposite></filter><filter id="shadow-8" height="300%" width="300%" x="-100%" y="-100%"><feFlood flood-color="rgba(0, 0, 0, 1)" result="flood"></feFlood><feComposite in="flood" in2="SourceGraphic" operator="atop" result="composite"></feComposite><feGaussianBlur in="composite" stdDeviation="12" result="blur"></feGaussianBlur><feOffset dx="0" dy="0" result="offset"></feOffset><feComposite in="SourceGraphic" in2="offset" operator="over"></feComposite></filter><filter id="shadow-9" height="300%" width="300%" x="-100%" y="-100%"><feFlood flood-color="rgba(0, 0, 0, 1)" result="flood"></feFlood><feComposite in="flood" in2="SourceGraphic" operator="atop" result="composite"></feComposite><feGaussianBlur in="composite" stdDeviation="12" result="blur"></feGaussianBlur><feOffset dx="0" dy="0" result="offset"></feOffset><feComposite in="SourceGraphic" in2="offset" operator="over"></feComposite></filter><filter id="shadow-10" height="300%" width="300%" x="-100%" y="-100%"><feFlood flood-color="rgba(0, 0, 0, 1)" result="flood"></feFlood><feComposite in="flood" in2="SourceGraphic" operator="atop" result="composite"></feComposite><feGaussianBlur in="composite" stdDeviation="12" result="blur"></feGaussianBlur><feOffset dx="0" dy="0" result="offset"></feOffset><feComposite in="SourceGraphic" in2="offset" operator="over"></feComposite></filter><radialGradient id="delapouite-fish-scales-gradient-1"><stop offset="0%" stop-color="#e7e7e6" stop-opacity="1"></stop><stop offset="100%" stop-color="#4d3232" stop-opacity="1"></stop></radialGradient><radialGradient id="delapouite-fish-scales-gradient-2"><stop offset="0%" stop-color="#e7e7e6" stop-opacity="1"></stop><stop offset="100%" stop-color="#4d3232" stop-opacity="1"></stop></radialGradient><radialGradient id="delapouite-fish-scales-gradient-3"><stop offset="0%" stop-color="#e7e7e6" stop-opacity="1"></stop><stop offset="100%" stop-color="#4d3232" stop-opacity="1"></stop></radialGradient><radialGradient id="delapouite-fish-scales-gradient-4"><stop offset="0%" stop-color="#e7e7e6" stop-opacity="1"></stop><stop offset="100%" stop-color="#4d3232" stop-opacity="1"></stop></radialGradient><radialGradient id="delapouite-fish-scales-gradient-5"><stop offset="0%" stop-color="#e7e7e6" stop-opacity="1"></stop><stop offset="100%" stop-color="#4d3232" stop-opacity="1"></stop></radialGradient><radialGradient id="delapouite-fish-scales-gradient-6"><stop offset="0%" stop-color="#e7e7e6" stop-opacity="1"></stop><stop offset="100%" stop-color="#4d3232" stop-opacity="1"></stop></radialGradient><radialGradient id="delapouite-fish-scales-gradient-7"><stop offset="0%" stop-color="#e7e7e6" stop-opacity="1"></stop><stop offset="100%" stop-color="#4d3232" stop-opacity="1"></stop></radialGradient><radialGradient id="delapouite-fish-scales-gradient-8"><stop offset="0%" stop-color="#e7e7e6" stop-opacity="1"></stop><stop offset="100%" stop-color="#4d3232" stop-opacity="1"></stop></radialGradient><radialGradient id="delapouite-fish-scales-gradient-9"><stop offset="0%" stop-color="#e7e7e6" stop-opacity="1"></stop><stop offset="100%" stop-color="#4d3232" stop-opacity="1"></stop></radialGradient><radialGradient id="delapouite-fish-scales-gradient-10"><stop offset="0%" stop-color="#e7e7e6" stop-opacity="1"></stop><stop offset="100%" stop-color="#4d3232" stop-opacity="1"></stop></radialGradient></defs><g class="" transform="translate(-16,27)" style=""><path d="M64 494c-9.2 0-18.58-6.3-26.22-19.1-6.66-11.1-11.41-26.6-12.53-44 13.27-3.3 24.47-13.5 32.41-26.7 2.36-3.9 4.48-8.2 6.34-12.7 1.86 4.5 3.98 8.8 6.34 12.7 7.94 13.2 19.14 23.4 32.36 26.7-1.1 17.4-5.82 32.9-12.48 44C82.58 487.7 73.2 494 64 494zm96 0c-9.2 0-18.6-6.3-26.2-19.1-6.7-11.1-11.4-26.6-12.5-44 13.2-3.3 24.4-13.5 32.4-26.7 2.3-3.9 4.5-8.2 6.3-12.6 1.8 4.4 4 8.7 6.3 12.6 8 13.2 19.2 23.4 32.4 26.7-1.1 17.4-5.8 32.9-12.5 44-7.6 12.8-17 19.1-26.2 19.1zm96 0c-9.2 0-18.6-6.3-26.2-19.1-6.7-11.1-11.4-26.6-12.5-44 13.2-3.3 24.4-13.5 32.4-26.7 2.3-3.9 4.5-8.2 6.3-12.6 1.8 4.4 4 8.7 6.3 12.6 8 13.2 19.2 23.4 32.4 26.7-1.1 17.4-5.8 32.9-12.5 44-7.6 12.8-17 19.1-26.2 19.1zm96 0c-9.2 0-18.6-6.3-26.2-19.1-6.7-11.1-11.4-26.6-12.5-44 13.2-3.3 24.4-13.5 32.4-26.7 2.3-3.9 4.5-8.2 6.3-12.6 1.8 4.4 4 8.7 6.3 12.6 8 13.2 19.2 23.4 32.4 26.7-1.1 17.4-5.8 32.9-12.5 44-7.6 12.8-17 19.1-26.2 19.1zm96 0c-9.2 0-18.6-6.3-26.2-19.1-6.7-11.1-11.4-26.6-12.5-44 13.2-3.3 24.4-13.5 32.4-26.7 2.3-3.9 4.5-8.2 6.3-12.6 1.8 4.4 4 8.7 6.3 12.6 8 13.2 19.2 23.4 32.4 26.7-1.1 17.4-5.8 32.9-12.5 44-7.6 12.8-17 19.1-26.2 19.1zm-336-80c-9.2 0-18.58-6.3-26.22-19.1-6.66-11.1-11.41-26.6-12.52-44 13.26-3.3 24.46-13.5 32.44-26.7 2.3-3.9 4.4-8.2 6.3-12.7 1.8 4.5 4 8.8 6.3 12.7 8 13.2 19.2 23.4 32.4 26.7-1.1 17.4-5.8 32.9-12.5 44-7.6 12.8-17 19.1-26.2 19.1zm96 0c-9.2 0-18.6-6.3-26.2-19.1-6.7-11.1-11.4-26.6-12.5-44 13.2-3.3 24.4-13.5 32.4-26.7 2.3-3.9 4.5-8.2 6.3-12.6 1.8 4.4 4 8.7 6.3 12.6 8 13.2 19.2 23.4 32.4 26.7-1.1 17.4-5.8 32.9-12.5 44-7.6 12.8-17 19.1-26.2 19.1zm96 0c-9.2 0-18.6-6.3-26.2-19.1-6.7-11.1-11.4-26.6-12.5-44 13.2-3.3 24.4-13.5 32.4-26.7 2.3-3.9 4.5-8.2 6.3-12.6 1.8 4.4 4 8.7 6.3 12.6 8 13.2 19.2 23.4 32.4 26.7-1.1 17.4-5.8 32.9-12.5 44-7.6 12.8-17 19.1-26.2 19.1zm96 0c-9.2 0-18.6-6.3-26.2-19.1-6.7-11.1-11.4-26.6-12.5-44 13.2-3.3 24.4-13.5 32.4-26.7 2.3-3.9 4.5-8.2 6.3-12.6 1.8 4.4 4 8.7 6.3 12.6 8 13.2 19.2 23.4 32.4 26.7-1.1 17.4-5.8 32.9-12.5 44-7.6 12.8-17 19.1-26.2 19.1zm-382-.1V316c1.34 2.9 2.78 5.6 4.34 8.2 7.94 13.2 19.14 23.4 32.4 26.7-1.11 17.4-5.86 32.9-12.52 44-7.09 11.9-15.67 18.1-24.22 19zm476 0c-8.6-.9-17.1-7.1-24.2-19-6.7-11.1-11.4-26.6-12.5-44 13.2-3.3 24.4-13.5 32.4-26.7 1.5-2.6 3-5.3 4.3-8.1zM64 334c-9.2 0-18.58-6.3-26.22-19.1-6.66-11.1-11.41-26.6-12.52-44 13.26-3.3 24.46-13.5 32.4-26.7 2.36-3.9 4.48-8.2 6.34-12.7 1.86 4.5 3.98 8.8 6.34 12.7 7.94 13.2 19.14 23.4 32.36 26.7-1.1 17.4-5.82 32.9-12.48 44C82.58 327.7 73.2 334 64 334zm96 0c-9.2 0-18.6-6.3-26.2-19.1-6.7-11.1-11.4-26.6-12.5-44 13.2-3.3 24.4-13.5 32.4-26.7 2.3-3.9 4.5-8.2 6.3-12.6 1.8 4.4 4 8.7 6.3 12.6 8 13.2 19.2 23.4 32.4 26.7-1.1 17.4-5.8 32.9-12.5 44-7.6 12.8-17 19.1-26.2 19.1zm96 0c-9.2 0-18.6-6.3-26.2-19.1-6.7-11.1-11.4-26.6-12.5-44 13.2-3.3 24.4-13.5 32.4-26.7 2.3-3.9 4.5-8.2 6.3-12.6 1.8 4.4 4 8.7 6.3 12.6 8 13.2 19.2 23.4 32.4 26.7-1.1 17.4-5.8 32.9-12.5 44-7.6 12.8-17 19.1-26.2 19.1zm96 0c-9.2 0-18.6-6.3-26.2-19.1-6.7-11.1-11.4-26.6-12.5-44 13.2-3.3 24.4-13.5 32.4-26.7 2.3-3.9 4.5-8.2 6.3-12.6 1.8 4.4 4 8.7 6.3 12.6 8 13.2 19.2 23.4 32.4 26.7-1.1 17.4-5.8 32.9-12.5 44-7.6 12.8-17 19.1-26.2 19.1zm96 0c-9.2 0-18.6-6.3-26.2-19.1-6.7-11.1-11.4-26.6-12.5-44 13.2-3.3 24.4-13.5 32.4-26.7 2.3-3.9 4.5-8.2 6.3-12.6 1.8 4.4 4 8.7 6.3 12.6 8 13.2 19.2 23.4 32.4 26.7-1.1 17.4-5.8 32.9-12.5 44-7.6 12.8-17 19.1-26.2 19.1zm-336-80c-9.2 0-18.58-6.3-26.22-19.1-6.66-11.1-11.41-26.6-12.52-44 13.26-3.3 24.46-13.5 32.44-26.7 2.3-3.9 4.4-8.2 6.3-12.7 1.8 4.5 4 8.8 6.3 12.7 8 13.2 19.2 23.4 32.4 26.7-1.1 17.4-5.8 32.9-12.5 44-7.6 12.8-17 19.1-26.2 19.1zm96 0c-9.2 0-18.6-6.3-26.2-19.1-6.7-11.1-11.4-26.6-12.5-44 13.2-3.3 24.4-13.5 32.4-26.7 2.3-3.9 4.5-8.2 6.3-12.6 1.8 4.4 4 8.7 6.3 12.6 8 13.2 19.2 23.4 32.4 26.7-1.1 17.4-5.8 32.9-12.5 44-7.6 12.8-17 19.1-26.2 19.1zm96 0c-9.2 0-18.6-6.3-26.2-19.1-6.7-11.1-11.4-26.6-12.5-44 13.2-3.3 24.4-13.5 32.4-26.7 2.4-3.9 4.5-8.2 6.3-12.7 1.9 4.5 3.9 8.8 6.3 12.7 8 13.2 19.2 23.4 32.4 26.7-1.1 17.4-5.8 32.9-12.5 44-7.6 12.8-17 19.1-26.2 19.1zm96 0c-9.2 0-18.6-6.3-26.2-19.1-6.7-11.1-11.4-26.6-12.5-44 13.2-3.3 24.4-13.5 32.4-26.7 2.4-3.9 4.5-8.2 6.3-12.7 1.9 4.5 3.9 8.8 6.3 12.7 8 13.2 19.2 23.4 32.4 26.7-1.1 17.4-5.8 32.9-12.5 44-7.6 12.8-17 19.1-26.2 19.1zm-382-.1V156c1.34 2.9 2.78 5.6 4.34 8.2 7.94 13.2 19.14 23.4 32.4 26.7-1.11 17.4-5.86 32.9-12.52 44-7.09 11.9-15.67 18.1-24.22 19zm476 0c-8.6-.9-17.1-7.1-24.2-19-6.7-11.1-11.4-26.6-12.5-44 13.2-3.3 24.4-13.5 32.4-26.7 1.6-2.5 3-5.3 4.3-8.1zM64 174c-9.2 0-18.58-6.3-26.22-19.1-6.66-11.1-11.41-26.6-12.52-44 13.26-3.3 24.46-13.5 32.4-26.7 2.36-3.9 4.48-8.2 6.34-12.7 1.86 4.5 3.98 8.8 6.34 12.7 7.94 13.2 19.14 23.4 32.36 26.7-1.1 17.4-5.82 32.9-12.48 44C82.58 167.7 73.2 174 64 174zm96 0c-9.2 0-18.6-6.3-26.2-19.1-6.7-11.1-11.4-26.6-12.5-44 13.2-3.3 24.4-13.5 32.4-26.7 2.3-3.9 4.5-8.2 6.3-12.6 1.8 4.4 4 8.7 6.3 12.6 8 13.2 19.2 23.4 32.4 26.7-1.1 17.4-5.8 32.9-12.5 44-7.6 12.8-17 19.1-26.2 19.1zm96 0c-9.2 0-18.6-6.3-26.2-19.1-6.7-11.1-11.4-26.6-12.5-44 13.2-3.3 24.4-13.5 32.4-26.7 2.3-3.9 4.5-8.2 6.3-12.6 1.8 4.4 4 8.7 6.3 12.6 8 13.2 19.2 23.4 32.4 26.7-1.1 17.4-5.8 32.9-12.5 44-7.6 12.8-17 19.1-26.2 19.1zm96 0c-9.2 0-18.6-6.3-26.2-19.1-6.7-11.1-11.4-26.6-12.5-44 13.2-3.3 24.4-13.5 32.4-26.7 2.3-3.9 4.5-8.2 6.3-12.6 1.8 4.4 4 8.7 6.3 12.6 8 13.2 19.2 23.4 32.4 26.7-1.1 17.4-5.8 32.9-12.5 44-7.6 12.8-17 19.1-26.2 19.1zm96 0c-9.2 0-18.6-6.3-26.2-19.1-6.7-11.1-11.4-26.6-12.5-44 13.2-3.3 24.4-13.5 32.4-26.7 2.3-3.9 4.5-8.2 6.3-12.6 1.8 4.4 4 8.7 6.3 12.6 8 13.2 19.2 23.4 32.4 26.7-1.1 17.4-5.8 32.9-12.5 44-7.6 12.8-17 19.1-26.2 19.1zM112 94c-9.2 0-18.58-6.3-26.22-19.1-6.66-11.1-11.41-26.6-12.52-44C80.93 29 87.9 24.8 93.96 19H130c6.1 5.8 13.1 10 20.7 11.9-1.1 17.4-5.8 32.9-12.5 44-7.6 12.8-17 19.1-26.2 19.1zm96 0c-9.2 0-18.6-6.3-26.2-19.1-6.7-11.1-11.4-26.6-12.5-44 7.6-1.9 14.6-6.1 20.7-11.9h36c6.1 5.8 13.1 10 20.7 11.9-1.1 17.4-5.8 32.9-12.5 44-7.6 12.8-17 19.1-26.2 19.1zm96 0c-9.2 0-18.6-6.3-26.2-19.1-6.7-11.1-11.4-26.6-12.5-44 7.6-1.9 14.6-6.1 20.7-11.9h36c6.1 5.8 13.1 10 20.7 11.9-1.1 17.4-5.8 32.9-12.5 44-7.6 12.8-17 19.1-26.2 19.1zm96 0c-9.2 0-18.6-6.3-26.2-19.1-6.7-11.1-11.4-26.6-12.5-44 7.6-1.9 14.6-6.1 20.7-11.9h36c6.1 5.8 13.1 10 20.7 11.9-1.1 17.4-5.8 32.9-12.5 44-7.6 12.8-17 19.1-26.2 19.1zm-382-.1V19h16.04c6.06 5.8 13.03 10 20.7 11.9-1.11 17.4-5.86 32.9-12.52 44C35.13 86.8 26.55 93 18 93.9zm476 0c-8.6-.9-17.1-7.1-24.2-19-6.7-11.1-11.4-26.6-12.5-44 7.6-1.9 14.6-6.1 20.7-11.9h16z" fill="url(#delapouite-fish-scales-gradient-1)" stroke="#000000" stroke-opacity="1" stroke-width="4" transform="translate(486.4, 486.4) scale(-0.9, -0.9) rotate(-180, 256, 256) skewX(0) skewY(0)" filter="url(#shadow-1)"></path></g></svg>