<svg id="eA9lP1Nixst1" xmlns="http://www.w3.org/2000/svg" xmlns:xlink="http://www.w3.org/1999/xlink" viewBox="0 0 512 512" shape-rendering="geometricPrecision" text-rendering="geometricPrecision"><defs><filter id="eA9lP1Nixst3-filter" x="-150%" width="400%" y="-150%" height="400%"><feGaussianBlur id="eA9lP1Nixst3-filter-drop-shadow-0-blur" in="SourceAlpha" stdDeviation="12,12"/><feOffset id="eA9lP1Nixst3-filter-drop-shadow-0-offset" dx="0" dy="0" result="tmp"/><feFlood id="eA9lP1Nixst3-filter-drop-shadow-0-flood" flood-color="#000"/><feComposite id="eA9lP1Nixst3-filter-drop-shadow-0-composite" operator="in" in2="tmp"/><feMerge id="eA9lP1Nixst3-filter-drop-shadow-0-merge" result="result"><feMergeNode id="eA9lP1Nixst3-filter-drop-shadow-0-merge-node-1"/><feMergeNode id="eA9lP1Nixst3-filter-drop-shadow-0-merge-node-2" in="SourceGraphic"/></feMerge></filter><radialGradient id="eA9lP1Nixst3-fill" cx="0" cy="0" r="0.5" spreadMethod="pad" gradientUnits="objectBoundingBox" gradientTransform="translate(0.5 0.5)"><stop id="eA9lP1Nixst3-fill-0" offset="0%" stop-color="#e7e7e6"/><stop id="eA9lP1Nixst3-fill-1" offset="100%" stop-color="#4d3232"/></radialGradient></defs><path d="M253.52025,126.69309c-.00001,0-.00002,0-.00003,0l.03616,7.9568c-.06667-.00215-.13361-.00323-.20082-.00323-3.37781,0-6.11606,2.73825-6.11606,6.11606s2.73825,6.11606,6.11606,6.11606c.08589,0,.17135-.00177.25637-.00527l.04349,9.56684c-3.35137.03082-6.05865,2.75714-6.05865,6.1158c0,3.37721,2.73728,6.11508,6.11425,6.11606l.04224,9.29161c-.0727-.00256-.14574-.00385-.21906-.00385-3.37781,0-6.11606,2.73825-6.11606,6.11606s2.73825,6.11606,6.11606,6.11606c.09202,0,.18358-.00203.27462-.00606l.03627,7.97894c-.16149-.01279-.32475-.01931-.48952-.01931-3.37781,0-6.11606,2.73825-6.11606,6.11606s2.73825,6.11606,6.11606,6.11606c.18364,0,.3654-.00809.54492-.02395l.04359,9.58954c-.07672-.00285-.15382-.00429-.23125-.00429-3.37781,0-6.11606,2.73825-6.11606,6.11606s2.73825,6.11606,6.11606,6.11606c.09613,0,.19174-.00221.28679-.00661l.01395,3.06983c-6.66729-1.15163-12.97127-.49786-18.91194,1.96131-11.34896,4.28297-39.87779,0-53.10339-11.14059-5.9482-4.07737-10.51031-7.51108-13.68631-10.30113c11.42534,21.22189,33.68857,31.83284,66.78969,31.83284c4.34568,0,9.06448-1.12682,14.15641-3.38047-.64346.96839-1.01835,2.13065-1.01835,3.38047c0,3.29129,2.59978,5.97537,5.8578,6.1107l.03618,7.95909c-3.35781.02336-6.07262,2.7526-6.07262,6.1159c0,3.37781,2.73825,6.11606,6.11606,6.11606.00405,0,.00811,0,.01216-.00001l.0435,9.56862c-3.2377.15723-5.81444,2.83207-5.81444,6.10875c0,3.29539,2.60626,5.98206,5.86998,6.1112l.04224,9.29267c-3.36622.01358-6.09086,2.7466-6.09086,6.116c0,3.37781,2.73825,6.11606,6.11606,6.11606.01014,0,.02028-.00003.0304-.00007l.03617,7.95848c-.08134-.0032-.16309-.00482-.24521-.00482-3.37781,0-6.11606,2.73825-6.11606,6.11606s2.73825,6.11606,6.11606,6.11606c.10084,0,.20111-.00244.30075-.00726l.0435,9.56858c-3.37182.00703-6.10303,2.74258-6.10303,6.11604c0,3.37781,2.73825,6.11606,6.11606,6.11606.0142,0,.02839-.00005.04258-.00014l.19508,42.91628c-12.97663-16.62532-24.84732-27.30622-35.61207-32.04272-16.55951-7.28618-42.46119-25.0575-50.84805-38.41677l4.764,5.74267c6.94548-17.52967,9.79067-40.73227,8.53557-69.6078s-12.90146-56.77436-34.93908-83.69651c17.60234,32.05904,26.40351,59.95788,26.40351,83.69651c0,23.69663-1.68327,44.83005-5.04981,63.40026-.00598-.00994-.01196-.01989-.01792-.02982.00571.01141.01141.02282.01712.03423-.0057.03145-.01141.0629-.01712.09433l.16352.19711c12.73948,25.26625,31.60409,38.02606,49.52845,46.19746c11.64784,3.4414,19.39199,16.34953,36.79658,33.09045l.49576,39.83711c-73.30754-21.88284-109.41423-39.38912-108.32009-52.51883c1.64121-19.69456,19.69456-31.18306,21.33578-70.57218c1.62095-38.90295-19.17138-127.43532-30.75322-140.6832c1.27029-2.59306,2.56236-5.24606,3.8762-7.959c23.42488-48.36992,16.32643-68.22106,15.61659-72.47741-.18451-1.10638-1.31119-3.20489-3.38003-6.29553c7.51714-2.1885,23.24199-4.37701,47.17453-6.56551l3.82902,4.87985c12.03371,13.77063,26.43524,21.62436,43.2046,23.56118.6269,2.7058,3.04941,4.72356,5.94431,4.73005v-.00004l.00006.00004ZM112.20694,112.5037c8.39453-5.59635,26.33054-4.03661,33.47342-7.52151.60191,3.58212.90286,7.04187.90286,10.37927c0,11.0219-4.65673,28.11214-13.97018,51.27073l-3.19265,9.16694c-11.56416-20.17375-25.20908-57.96501-17.21345-63.29544v.00001Zm90.26673-50.96885v.00001c0,0-.00001-.00001-.00002-.00001h.00002ZM251.48211,74.0719c.60516.60516.72834,5.78911.36954,15.55186.49808-.03236.99796-.06473,1.49963-.0971l.09379,20.63358c-17.36338-.63458-33.72132-7.75635-49.0738-21.36532l-.46023-.38941c-.47912-5.93563-.95825-14.89251-1.43737-26.87065c19.75534,8.35802,36.09148,12.53704,49.00844,12.53704ZM101.64289,126.69305c10.71114,37.83585,19.97031,57.87799,27.7775,60.12641c7.83459,11.3262,12.47653,6.79333,7.83459,17.44226s9.37886,15.68165-7.83459,15.68165-34.64734,15.67307-37.39528-.00429.86418-79.05668,9.61778-93.24603Zm158.82942,0v.00004c2.8949-.00649,5.31741-2.02425,5.94431-4.73005c16.76936-1.93682,31.17089-9.79055,43.2046-23.56118l3.82902-4.87985c23.93254,2.1885,39.65739,4.37701,47.17453,6.56551-2.06884,3.09064-3.19552,5.18915-3.38003,6.29553-.70984,4.25635-7.80829,24.10749,15.61659,72.47741c1.31384,2.71294,2.60591,5.36594,3.8762,7.959-11.58184,13.24788-32.37417,101.78025-30.75322,140.6832c1.64122,39.38912,19.69457,50.87762,21.33578,70.57218C368.41423,411.20455,332.30754,428.71083,259,450.59367l.49576-39.83711c17.40459-16.74092,25.14874-29.64905,36.79658-33.09045c17.92436-8.1714,36.78897-20.93121,49.52845-46.19746l.16352-.19711c-.00571-.03143-.01142-.06288-.01712-.09433.00571-.01141.01141-.02282.01712-.03423-.00596.00993-.01194.01988-.01792.02982-3.36654-18.57021-5.04981-39.70363-5.04981-63.40026c0-23.73863,8.80117-51.63747,26.40351-83.69651-22.03762,26.92215-33.68398,54.82098-34.93908,83.69651s1.59009,52.07813,8.53557,69.6078l4.764-5.74267c-8.38686,13.35927-34.28854,31.13059-50.84805,38.41677-10.76475,4.7365-22.63544,15.4174-35.61207,32.04272l.19508-42.91628c.01419.00009.02838.00014.04258.00014c3.37781,0,6.11606-2.73825,6.11606-6.11606c0-3.37346-2.73121-6.10901-6.10303-6.11604l.0435-9.56858c.09964.00482.19991.00726.30075.00726c3.37781,0,6.11606-2.73825,6.11606-6.11606s-2.73825-6.11606-6.11606-6.11606c-.08212,0-.16387.00162-.24521.00482l.03617-7.95848c.01012.00004.02026.00007.0304.00007c3.37781,0,6.11606-2.73825,6.11606-6.11606c0-3.3694-2.72464-6.10242-6.09086-6.116l.04224-9.29267c3.26372-.12914,5.86998-2.81581,5.86998-6.1112c0-3.27668-2.57674-5.95152-5.81444-6.10875l.0435-9.56862c.00405.00001.00811.00001.01216.00001c3.37781,0,6.11606-2.73825,6.11606-6.11606c0-3.3633-2.71481-6.09254-6.07262-6.1159l.03618-7.95909c3.25802-.13533,5.8578-2.81941,5.8578-6.1107c0-1.24982-.37489-2.41208-1.01835-3.38047c5.09193,2.25365,9.81073,3.38047,14.15641,3.38047c33.10112,0,55.36435-10.61095,66.78969-31.83284-3.176,2.79005-7.73811,6.22376-13.68631,10.30113-13.2256,11.14059-41.75443,15.42356-53.10339,11.14059-5.94067-2.45917-12.24465-3.11294-18.91194-1.96131l.01395-3.06983c.09505.0044.19066.00661.28679.00661c3.37781,0,6.11606-2.73825,6.11606-6.11606s-2.73825-6.11606-6.11606-6.11606c-.07743,0-.15453.00144-.23125.00429l.04359-9.58954c.17952.01586.36128.02395.54492.02395c3.37781,0,6.11606-2.73825,6.11606-6.11606s-2.73825-6.11606-6.11606-6.11606c-.16477,0-.32803.00652-.48952.01931l.03627-7.97894c.09104.00403.1826.00606.27462.00606c3.37781,0,6.11606-2.73825,6.11606-6.11606s-2.73825-6.11606-6.11606-6.11606c-.07332,0-.14636.00129-.21906.00385l.04224-9.29161c3.37697-.00098,6.11425-2.73885,6.11425-6.11606c0-3.35866-2.70728-6.08498-6.05865-6.1158l.04349-9.56684c.08502.0035.17048.00527.25637.00527c3.37781,0,6.11606-2.73825,6.11606-6.11606s-2.73825-6.11606-6.11606-6.11606c-.06721,0-.13415.00108-.20082.00323l.03616-7.9568c-.00001,0-.00002,0-.00003,0l.00006-.00004Zm141.31325-14.18936c7.99563,5.33043-5.64929,43.12169-17.21345,63.29544l-3.19265-9.16694c-9.31345-23.15859-13.97018-40.24883-13.97018-51.27073c0-3.3374.30095-6.79715.90286-10.37927c7.14288,3.4849,25.07889,1.92516,33.47342,7.52151v-.00001ZM311.51885,61.53485c-.00001,0-.00002.00001-.00002.00001v-.00001h.00002Zm-.00002.00001c-.47912,11.97814-.95825,20.93502-1.43737,26.87065l-.46023.38941c-15.35248,13.60897-31.71042,20.73074-49.0738,21.36532l.09379-20.63358c.50167.03237,1.00155.06474,1.49963.0971-.3588-9.76275-.23562-14.9467.36954-15.55186c12.91696,0,29.2531-4.17902,49.00844-12.53704ZM421.96739,219.93908c-2.74794,15.67736-20.18183.00429-37.39528.00429s-3.19265-5.03272-7.83459-15.68165s0-6.11606,7.83459-17.44226c7.80719-2.24842,17.06636-22.29056,27.7775-60.12641c8.7536,14.18935,12.36572,77.56867,9.61778,93.24603Z" transform="translate(-.996257-.06426)" filter="url(#eA9lP1Nixst3-filter)" fill="url(#eA9lP1Nixst3-fill)" stroke="#000" stroke-width="4"/></svg>
