<svg xmlns="http://www.w3.org/2000/svg" viewBox="0 0 512 512" style="height: 512px; width: 512px;"><defs><filter id="shadow-1" height="300%" width="300%" x="-100%" y="-100%"><feFlood flood-color="rgba(0, 0, 0, 1)" result="flood"></feFlood><feComposite in="flood" in2="SourceGraphic" operator="atop" result="composite"></feComposite><feGaussianBlur in="composite" stdDeviation="12" result="blur"></feGaussianBlur><feOffset dx="0" dy="0" result="offset"></feOffset><feComposite in="SourceGraphic" in2="offset" operator="over"></feComposite></filter><filter id="shadow-2" height="300%" width="300%" x="-100%" y="-100%"><feFlood flood-color="rgba(0, 0, 0, 1)" result="flood"></feFlood><feComposite in="flood" in2="SourceGraphic" operator="atop" result="composite"></feComposite><feGaussianBlur in="composite" stdDeviation="12" result="blur"></feGaussianBlur><feOffset dx="0" dy="0" result="offset"></feOffset><feComposite in="SourceGraphic" in2="offset" operator="over"></feComposite></filter><filter id="shadow-3" height="300%" width="300%" x="-100%" y="-100%"><feFlood flood-color="rgba(0, 0, 0, 1)" result="flood"></feFlood><feComposite in="flood" in2="SourceGraphic" operator="atop" result="composite"></feComposite><feGaussianBlur in="composite" stdDeviation="12" result="blur"></feGaussianBlur><feOffset dx="0" dy="0" result="offset"></feOffset><feComposite in="SourceGraphic" in2="offset" operator="over"></feComposite></filter><filter id="shadow-4" height="300%" width="300%" x="-100%" y="-100%"><feFlood flood-color="rgba(0, 0, 0, 1)" result="flood"></feFlood><feComposite in="flood" in2="SourceGraphic" operator="atop" result="composite"></feComposite><feGaussianBlur in="composite" stdDeviation="12" result="blur"></feGaussianBlur><feOffset dx="0" dy="0" result="offset"></feOffset><feComposite in="SourceGraphic" in2="offset" operator="over"></feComposite></filter><filter id="shadow-5" height="300%" width="300%" x="-100%" y="-100%"><feFlood flood-color="rgba(0, 0, 0, 1)" result="flood"></feFlood><feComposite in="flood" in2="SourceGraphic" operator="atop" result="composite"></feComposite><feGaussianBlur in="composite" stdDeviation="12" result="blur"></feGaussianBlur><feOffset dx="0" dy="0" result="offset"></feOffset><feComposite in="SourceGraphic" in2="offset" operator="over"></feComposite></filter><filter id="shadow-6" height="300%" width="300%" x="-100%" y="-100%"><feFlood flood-color="rgba(0, 0, 0, 1)" result="flood"></feFlood><feComposite in="flood" in2="SourceGraphic" operator="atop" result="composite"></feComposite><feGaussianBlur in="composite" stdDeviation="12" result="blur"></feGaussianBlur><feOffset dx="0" dy="0" result="offset"></feOffset><feComposite in="SourceGraphic" in2="offset" operator="over"></feComposite></filter><filter id="shadow-7" height="300%" width="300%" x="-100%" y="-100%"><feFlood flood-color="rgba(0, 0, 0, 1)" result="flood"></feFlood><feComposite in="flood" in2="SourceGraphic" operator="atop" result="composite"></feComposite><feGaussianBlur in="composite" stdDeviation="12" result="blur"></feGaussianBlur><feOffset dx="0" dy="0" result="offset"></feOffset><feComposite in="SourceGraphic" in2="offset" operator="over"></feComposite></filter><filter id="shadow-8" height="300%" width="300%" x="-100%" y="-100%"><feFlood flood-color="rgba(0, 0, 0, 1)" result="flood"></feFlood><feComposite in="flood" in2="SourceGraphic" operator="atop" result="composite"></feComposite><feGaussianBlur in="composite" stdDeviation="12" result="blur"></feGaussianBlur><feOffset dx="0" dy="0" result="offset"></feOffset><feComposite in="SourceGraphic" in2="offset" operator="over"></feComposite></filter><filter id="shadow-9" height="300%" width="300%" x="-100%" y="-100%"><feFlood flood-color="rgba(0, 0, 0, 1)" result="flood"></feFlood><feComposite in="flood" in2="SourceGraphic" operator="atop" result="composite"></feComposite><feGaussianBlur in="composite" stdDeviation="12" result="blur"></feGaussianBlur><feOffset dx="0" dy="0" result="offset"></feOffset><feComposite in="SourceGraphic" in2="offset" operator="over"></feComposite></filter><filter id="shadow-10" height="300%" width="300%" x="-100%" y="-100%"><feFlood flood-color="rgba(0, 0, 0, 1)" result="flood"></feFlood><feComposite in="flood" in2="SourceGraphic" operator="atop" result="composite"></feComposite><feGaussianBlur in="composite" stdDeviation="12" result="blur"></feGaussianBlur><feOffset dx="0" dy="0" result="offset"></feOffset><feComposite in="SourceGraphic" in2="offset" operator="over"></feComposite></filter><radialGradient id="lorc-hood-gradient-1"><stop offset="0%" stop-color="#e7e7e6" stop-opacity="1"></stop><stop offset="100%" stop-color="#4d3232" stop-opacity="1"></stop></radialGradient><radialGradient id="lorc-hood-gradient-2"><stop offset="0%" stop-color="#e7e7e6" stop-opacity="1"></stop><stop offset="100%" stop-color="#4d3232" stop-opacity="1"></stop></radialGradient><radialGradient id="lorc-hood-gradient-3"><stop offset="0%" stop-color="#e7e7e6" stop-opacity="1"></stop><stop offset="100%" stop-color="#4d3232" stop-opacity="1"></stop></radialGradient><radialGradient id="lorc-hood-gradient-4"><stop offset="0%" stop-color="#e7e7e6" stop-opacity="1"></stop><stop offset="100%" stop-color="#4d3232" stop-opacity="1"></stop></radialGradient><radialGradient id="lorc-hood-gradient-5"><stop offset="0%" stop-color="#e7e7e6" stop-opacity="1"></stop><stop offset="100%" stop-color="#4d3232" stop-opacity="1"></stop></radialGradient><radialGradient id="lorc-hood-gradient-6"><stop offset="0%" stop-color="#e7e7e6" stop-opacity="1"></stop><stop offset="100%" stop-color="#4d3232" stop-opacity="1"></stop></radialGradient><radialGradient id="lorc-hood-gradient-7"><stop offset="0%" stop-color="#e7e7e6" stop-opacity="1"></stop><stop offset="100%" stop-color="#4d3232" stop-opacity="1"></stop></radialGradient><radialGradient id="lorc-hood-gradient-8"><stop offset="0%" stop-color="#e7e7e6" stop-opacity="1"></stop><stop offset="100%" stop-color="#4d3232" stop-opacity="1"></stop></radialGradient><radialGradient id="lorc-hood-gradient-9"><stop offset="0%" stop-color="#e7e7e6" stop-opacity="1"></stop><stop offset="100%" stop-color="#4d3232" stop-opacity="1"></stop></radialGradient><radialGradient id="lorc-hood-gradient-10"><stop offset="0%" stop-color="#e7e7e6" stop-opacity="1"></stop><stop offset="100%" stop-color="#4d3232" stop-opacity="1"></stop></radialGradient></defs><g class="" transform="translate(-16,27)" style=""><path d="M240.43435,88.11037c-3.7175.04144-6.7183,3.06788-6.7183,6.79519c0,3.74794,3.03411,6.78722,6.78008,6.7956l.04019,8.84093c-.07408-.00239-.14846-.00359-.22313-.00359-3.75312,0-6.79562,3.0425-6.79562,6.79562s3.0425,6.79562,6.79562,6.79562c.09543,0,.19039-.00197.28486-.00586l.04832,10.62982c-3.72374.03424-6.73183,3.06349-6.73183,6.79533c0,3.75245,3.04142,6.79453,6.79361,6.79562l.04693,10.32401c-.08078-.00284-.16193-.00428-.2434-.00428-3.75312,0-6.79562,3.0425-6.79562,6.79562s3.0425,6.79562,6.79562,6.79562c.10225,0,.20398-.00226.30513-.00673l.0403,8.86549c-.17943-.01421-.36083-.02145-.54391-.02145-3.75312,0-6.79562,3.0425-6.79562,6.79562s3.0425,6.79562,6.79562,6.79562c.20405,0,.406-.00899.60547-.02661l.04843,10.65504c-.08525-.00317-.17091-.00477-.25694-.00477-3.75312,0-6.79562,3.0425-6.79562,6.79562s3.0425,6.79562,6.79562,6.79562c.10681,0,.21305-.00246.31866-.00734l.04704,10.34901c-3.59109.18149-6.44696,3.15065-6.44696,6.78683c0,3.65699,2.88864,6.6393,6.50867,6.78967l.0402,8.84343c-3.7309.02595-6.74735,3.05844-6.74735,6.79545c0,3.75312,3.0425,6.79562,6.79562,6.79562.0045,0,.00901,0,.01351-.00001l.04833,10.6318c-3.59744.1747-6.46049,3.14675-6.46049,6.7875c0,3.66154,2.89584,6.64673,6.5222,6.79022l.04693,10.32519c-3.74024.01509-6.76762,3.05178-6.76762,6.79556c0,3.75312,3.0425,6.79562,6.79562,6.79562.01127,0,.02253-.00003.03378-.00008l.04019,8.84276c-.09038-.00356-.18121-.00536-.27246-.00536-3.75312,0-6.79562,3.0425-6.79562,6.79562s3.0425,6.79562,6.79562,6.79562c.11205,0,.22346-.00271.33417-.00807l.04833,10.63175c-3.74647.00781-6.78115,3.04731-6.78115,6.7956c0,3.75312,3.0425,6.79562,6.79562,6.79562.01578,0,.03155-.00005.04731-.00016l.21675,47.68476c-14.41848-18.47258-27.60813-30.34025-39.56897-35.60302-18.62751-8.1961-32.41187-19.74516-41.35307-34.64717c14.15691,28.31381,19.7297,33.98632,39.73104,43.10458c12.94204,3.82378,21.54666,18.16614,40.88509,36.76717l.55084,44.26345c-81.45282-24.31427-121.57137-43.76569-120.35566-58.35426c1.82357-21.88285,21.88285-34.64784,23.70642-78.41353s-21.88285-144.06207-34.64784-156.82707-38.29498-74.76639-27.35356-82.06067s36.47141-3.64714,40.11855-10.94142c1.75525-3.51051,22.51736-7.02102,62.2863-10.53153-.70282-5.86875-1.40565-17.58843-2.10847-35.15905c21.95039,9.2867,40.10167,13.93005,54.45384,13.93005.6724.6724.80927,6.43235.4106,17.27984.55342-.03596,1.10884-.07192,1.66625-.10789l.12593,27.70521ZM102.68874,173.41901c12.36039,3.82657,8.90369,21.03644,18.59012,40.08094-9.93994,8.8355,1.71318-13.23707-19.81508-3.10612-21.52826,69.65026-18.99552,157.02969-13.93005,177.29158s13.93005,34.19195,11.39732,41.79016-10.13095-3.7991-15.19642,3.7991-40.52379,10.13095-50.65474,6.33184s22.79463-21.52826,6.33184-65.85116s6.33184-191.22163,26.59374-233.01179c6.29281-25.12495,10.72773-30.50857,13.30475-16.15088c3.46748,9.17862,8.79769,22.90486,17.97821,40.18584l5.40031,8.64049ZM247.86081,60.37024c-.39867-10.84749-.2618-16.60744.4106-17.27984c14.35217,0,32.50345-4.64335,54.45384-13.93005-.70282,17.57062-1.40565,29.2903-2.10847,35.15905c39.76894,3.51051,60.53105,7.02102,62.2863,10.53153c3.64714,7.29428,29.17713,3.64714,40.11855,10.94142s-14.58857,69.29568-27.35356,82.06067-36.47141,113.06138-34.64784,156.82707s21.88285,56.53068,23.70642,78.41353c1.21571,14.58857-38.90284,34.03999-120.35566,58.35426l.55084-44.26345c19.33843-18.60103,27.94305-32.94339,40.88509-36.76717c20.00134-9.11826,25.57413-14.79077,39.73104-43.10458-8.9412,14.90201-22.72556,26.45107-41.35307,34.64717-11.96084,5.26277-25.15049,17.13044-39.56897,35.60302l.21675-47.68476c.01576.00011.03153.00016.04731.00016c3.75312,0,6.79562-3.0425,6.79562-6.79562c0-3.74829-3.03468-6.78779-6.78115-6.7956l.04833-10.63175c.11071.00536.22212.00807.33417.00807c3.75312,0,6.79562-3.0425,6.79562-6.79562s-3.0425-6.79562-6.79562-6.79562c-.09125,0-.18208.0018-.27246.00536l.04019-8.84276c.01125.00005.02251.00008.03378.00008c3.75312,0,6.79562-3.0425,6.79562-6.79562c0-3.74378-3.02738-6.78047-6.76762-6.79556l.04693-10.32519c3.62636-.14349,6.5222-3.12868,6.5222-6.79022c0-3.64075-2.86305-6.6128-6.46049-6.7875l.04833-10.6318c.0045.00001.00901.00001.01351.00001c3.75312,0,6.79562-3.0425,6.79562-6.79562c0-3.73701-3.01645-6.7695-6.74735-6.79545l.0402-8.84343c3.62003-.15037,6.50867-3.13268,6.50867-6.78967c0-3.63618-2.85587-6.60534-6.44696-6.78683l.04704-10.34901c.10561.00488.21185.00734.31866.00734c3.75312,0,6.79562-3.0425,6.79562-6.79562s-3.0425-6.79562-6.79562-6.79562c-.08603,0-.17169.0016-.25694.00477l.04843-10.65504c.19947.01762.40142.02661.60547.02661c3.75312,0,6.79562-3.0425,6.79562-6.79562s-3.0425-6.79562-6.79562-6.79562c-.18308,0-.36448.00724-.54391.02145l.0403-8.86549c.10115.00447.20288.00673.30513.00673c3.75312,0,6.79562-3.0425,6.79562-6.79562s-3.0425-6.79562-6.79562-6.79562c-.08147,0-.16262.00144-.2434.00428l.04693-10.32401c3.75219-.00109,6.79361-3.04317,6.79361-6.79562c0-3.73184-3.00809-6.76109-6.73183-6.79533l.04832-10.62982c.09447.00389.18943.00586.28486.00586c3.75312,0,6.79562-3.0425,6.79562-6.79562s-3.0425-6.79562-6.79562-6.79562c-.07467,0-.14905.0012-.22313.00359l.04019-8.84093c3.74597-.00838,6.78008-3.04766,6.78008-6.7956c0-3.72731-3.0008-6.75375-6.7183-6.79519l.12593-27.70521c.55741.03597,1.11283.07193,1.66625.10789ZM389.21455,164.63571c9.18052-17.28098,14.51073-31.00722,17.97821-40.18584c2.57702-14.35769,7.01194-8.97407,13.30475,16.15088c20.2619,41.79016,43.05653,188.68889,26.59374,233.01179s16.46279,62.05206,6.33184,65.85116-45.58927,1.26637-50.65474-6.33184-12.66368,3.79911-15.19642-3.7991s6.33185-21.52826,11.39732-41.79016s7.59821-107.64132-13.93005-177.29158c-21.52826-10.13095-9.87514,11.94162-19.81508,3.10612c9.68643-19.0445,6.22973-36.25437,18.59012-40.08094l5.40031-8.64049Z" fill="url(#lorc-hood-gradient-1)" stroke="#000000" stroke-opacity="1" stroke-width="4" transform="translate(486.4, 486.4) scale(-0.9, -0.9) rotate(-180, 256, 256) skewX(0) skewY(0)" filter="url(#shadow-1)"></path></g></svg>