<svg id="e5pPzZnIKgy1" xmlns="http://www.w3.org/2000/svg" xmlns:xlink="http://www.w3.org/1999/xlink" viewBox="0 0 512 512" shape-rendering="geometricPrecision" text-rendering="geometricPrecision"><defs><filter id="e5pPzZnIKgy3-filter" x="-150%" width="400%" y="-150%" height="400%"><feGaussianBlur id="e5pPzZnIKgy3-filter-drop-shadow-0-blur" in="SourceAlpha" stdDeviation="12,12"/><feOffset id="e5pPzZnIKgy3-filter-drop-shadow-0-offset" dx="0" dy="0" result="tmp"/><feFlood id="e5pPzZnIKgy3-filter-drop-shadow-0-flood" flood-color="#000"/><feComposite id="e5pPzZnIKgy3-filter-drop-shadow-0-composite" operator="in" in2="tmp"/><feMerge id="e5pPzZnIKgy3-filter-drop-shadow-0-merge" result="result"><feMergeNode id="e5pPzZnIKgy3-filter-drop-shadow-0-merge-node-1"/><feMergeNode id="e5pPzZnIKgy3-filter-drop-shadow-0-merge-node-2" in="SourceGraphic"/></feMerge></filter><radialGradient id="e5pPzZnIKgy3-fill" cx="0" cy="0" r="0.5" spreadMethod="pad" gradientUnits="objectBoundingBox" gradientTransform="translate(0.5 0.5)"><stop id="e5pPzZnIKgy3-fill-0" offset="0%" stop-color="#e7e7e6"/><stop id="e5pPzZnIKgy3-fill-1" offset="100%" stop-color="#4d3232"/></radialGradient></defs><g transform="translate(-16 27)"><path d="M195.7,53.97c-6.5-.1,7.1.06,0,0ZM121.1,95.96c-16,7.14-33.09,16.14-45.82,28.34-33.62,35.1-56.12,87.9-50.74,172.6c16.25,22.5,64.96,41.845076,96.56,46.845076C204.164428,397.089799,369.025724,364.310635,397.7,316.5c-1.4-47.7-13.8-105.6-45.1-151.9-19.6-35.8-50.2-62-89.9-75.84-45.6-14.5-97-13.1-141.6,7.2Z" transform="matrix(.9 0 0 0.9 25.6 25.6)" filter="url(#e5pPzZnIKgy3-filter)" fill="url(#e5pPzZnIKgy3-fill)" stroke="#000" stroke-width="4"/></g></svg>
