<svg id="eIfHk4RFnqh1" xmlns="http://www.w3.org/2000/svg" xmlns:xlink="http://www.w3.org/1999/xlink" viewBox="0 0 512 512" shape-rendering="geometricPrecision" text-rendering="geometricPrecision"><defs><filter id="eIfHk4RFnqh3-filter" x="-150%" width="400%" y="-150%" height="400%"><feGaussianBlur id="eIfHk4RFnqh3-filter-drop-shadow-0-blur" in="SourceAlpha" stdDeviation="12,12"/><feOffset id="eIfHk4RFnqh3-filter-drop-shadow-0-offset" dx="0" dy="0" result="tmp"/><feFlood id="eIfHk4RFnqh3-filter-drop-shadow-0-flood" flood-color="#000"/><feComposite id="eIfHk4RFnqh3-filter-drop-shadow-0-composite" operator="in" in2="tmp"/><feMerge id="eIfHk4RFnqh3-filter-drop-shadow-0-merge" result="result"><feMergeNode id="eIfHk4RFnqh3-filter-drop-shadow-0-merge-node-1"/><feMergeNode id="eIfHk4RFnqh3-filter-drop-shadow-0-merge-node-2" in="SourceGraphic"/></feMerge></filter><radialGradient id="eIfHk4RFnqh3-fill" cx="0" cy="0" r="0.5" spreadMethod="pad" gradientUnits="objectBoundingBox" gradientTransform="translate(0.5 0.5)"><stop id="eIfHk4RFnqh3-fill-0" offset="0%" stop-color="#e7e7e6"/><stop id="eIfHk4RFnqh3-fill-1" offset="100%" stop-color="#4d3232"/></radialGradient></defs><g transform="matrix(1.139173 0 0 1.048822-17.764873 18.203173)"><path d="M146.46147,196.88939c8.08641-9.59086,23.962538-20.482868,37.854328-22.117188c31.46085-21.65487,45.4535-28.470096,66.819097-16.5963c21.365613,10.389568,19.722098,47.198326,34.184963,73.023831c6.90575,6.45635,21.6943-13.358018,19.393388-47.495175c3.21822-1.71726,8.265764,24.283582,12.320994,36.291522c7.96611,29.62874,13.782724-7.668199,32.711114-19.668209c19.323122,113.655571,87.049027,138.994225,102.045481,150.352912-6.288821,4.805606-88.04368-34.076093-104.497965-136.971403-10.35483,2.80591-79.55658,156.37112-153.96727,179.8953-122.95151,38.86988-230.0999-29.93056-82.38635-85.96836c0-62.09622,13.36641-82.72961,35.52221-110.74693h.00001Zm197.451674,27.97215C375.357307,341.069552,445.985763,354.09884,445.985763,356.797c-32.09508,24.9042-81.264361,8.829498-155.211461-46.193142l53.138842-85.742318ZM186.50523,164.87617c7.80813-53.6809,24.88842-82.47338,51.24086-86.37744s46.30429,19.69429,59.85555,70.79507c3.04101,41.62077,1.14546,65.84722-5.68665,72.67933-10.24817,10.24817-5.8561-48.31281-35.13659-68.80915-19.52033-13.66423-42.94472-9.76016-70.27317,11.7122v-.00001Z" transform="matrix(.974243 0 0 1.131217 2.134715-36.796011)" filter="url(#eIfHk4RFnqh3-filter)" fill="url(#eIfHk4RFnqh3-fill)" stroke="#000" stroke-width="4"/></g></svg>
