<svg id="ek4iJF3opGS1" xmlns="http://www.w3.org/2000/svg" xmlns:xlink="http://www.w3.org/1999/xlink" viewBox="0 0 512 512" shape-rendering="geometricPrecision" text-rendering="geometricPrecision"><defs><filter id="ek4iJF3opGS3-filter" x="-150%" width="400%" y="-150%" height="400%"><feGaussianBlur id="ek4iJF3opGS3-filter-drop-shadow-0-blur" in="SourceAlpha" stdDeviation="12,12"/><feOffset id="ek4iJF3opGS3-filter-drop-shadow-0-offset" dx="0" dy="0" result="tmp"/><feFlood id="ek4iJF3opGS3-filter-drop-shadow-0-flood" flood-color="#000"/><feComposite id="ek4iJF3opGS3-filter-drop-shadow-0-composite" operator="in" in2="tmp"/><feMerge id="ek4iJF3opGS3-filter-drop-shadow-0-merge" result="result"><feMergeNode id="ek4iJF3opGS3-filter-drop-shadow-0-merge-node-1"/><feMergeNode id="ek4iJF3opGS3-filter-drop-shadow-0-merge-node-2" in="SourceGraphic"/></feMerge></filter><radialGradient id="ek4iJF3opGS3-fill" cx="0" cy="0" r="0.5" spreadMethod="pad" gradientUnits="objectBoundingBox" gradientTransform="translate(0.5 0.5)"><stop id="ek4iJF3opGS3-fill-0" offset="0%" stop-color="#e7e7e6"/><stop id="ek4iJF3opGS3-fill-1" offset="100%" stop-color="#4d3232"/></radialGradient></defs><path d="M252.62249,119.7418c0,21.94709,1.64769,22.58619,1.64769,51.06039l.44428,40.10876c-14.40972-29.73222-27.89191-48.56261-40.44657-56.49121-18.83199-11.89288-41.43037-37.16528-30.13117-44.59833c7.53279-4.95536,17.995-11.39735,31.38665-19.32594-30.13117,10.90181-46.87072,13.3795-50.21862,7.43305-5.02187-8.91967-1.25546-26.75899,12.55466-29.73222c9.20675-1.98215,6.27731-8.22909,19.69825-8.22909c0-8.46094,0-16.03438,12.42665-16.03438c14.03009,0,14.23003,46.56265,37.00528,46.56265l5.6329,29.24632ZM159.83377,73.28509c-5.66054,15.25444-5.36775,24.61512.87836,28.08204s12.29704,4.96925,18.15277,4.50699c-6.83169,4.1603-8.7836,8.78286-5.85573,13.86768c4.3918,7.62722,9.0891,22.34764,32.42288,40.6604c12.48086,3.85532,28.76024,26.55886,48.83813,68.11061l-.11001,14.33441-7.79534,9.09456l7.65264,9.49982-.16613,21.64693-8.11128,9.46316l7.96279,9.88484-.14342,18.68688-6.56984,7.66481l6.44957,8.00636-.13857,18.05588-8.1853,9.54952l8.03546,9.97505-.14206,18.5103-6.64387,7.75118l6.52225,8.09658-.26458,34.47533c0,18.87672-3.32119,30.28142-9.96356,34.21406-9.96356,5.89898-86.68292,5.89898-91.6647-18.87673-3.32119-16.51713-6.97449-16.9104-10.95991-1.17979-9.29931-3.14612-11.62415-12.97775-6.97449-29.49489c6.97449-24.7757,18.93075-73.14732,14.94533-96.74322s-9.96356-69.60793-4.98178-76.6867-.99635-25.95551-7.97084-55.45038-22.91618-99.10282-16.93805-106.18159c3.98542-4.71919,17.89185-11.22722,41.71927-19.52412l.00001.00003ZM111.41478,98.7063c7.50883,58.22184,13.76099,91.60488,18.75651,100.14913c7.49328,12.81637-.42494,54.0414-3.09657,82.51294s-9.16365,59.37678-10.49946,65.70379-14.14795,16.50622-37.40279,7.90876c-22.74371.93103-13.6973-52.64249-4.5229-91.96135c2.62126-23.59131,3.88152-89.25892,6.55314-111.40344c4.55626-17.3062,4.37065-31.56622,13.45616-41.17354c3.88888-4.11223,6.40052-13.16784,16.75588-11.73627l.00003-.00002ZM256,209.44518l-.49962,1.02573c.07117.14641.14237.29309.21358.44004l-.21396-.43926-.21396.43926c.07122-.14694.14241-.29362.21358-.44004L255,209.44518c.16654.34019.33321.68184.5,1.02496.16679-.34312.33346-.68477.5-1.02496Zm-.01696,51.99643L256,261.42055v2.23108l-.01696-2.21002Zm-.1427-18.59439l-.11001-14.33441c.08997-.18619.17986-.372.26967-.55743v15.07812l-.15966-.18628Zm8.17007-152.35175c22.77525,0,22.97519-46.56265,37.00528-46.56265c12.42665,0,12.42665,7.57344,12.42665,16.03438c13.42095,0,10.49151,6.24694,19.69825,8.22909c13.81012,2.97323,17.57653,20.81255,12.55466,29.73222-3.3479,5.94645-20.08745,3.46876-50.21862-7.43305c13.39165,7.92859,23.85386,14.37058,31.38665,19.32594c11.2992,7.43305-11.29918,32.70545-30.13117,44.59833-12.55466,7.9286-26.03685,26.75899-40.44657,56.49121l.44428-40.10876c0-28.47419,1.64769-29.1133,1.64769-51.06039l5.6329-29.24632Zm87.15583-17.21041c23.82742,8.2969,37.73385,14.80493,41.71927,19.52412c5.97813,7.07877-9.96356,76.68672-16.93805,106.18159s-12.95262,48.37161-7.97084,55.45038-.99636,53.0908-4.98178,76.6867s7.97084,71.96752,14.94533,96.74322c4.64966,16.51714,2.32482,26.34877-6.97449,29.49489-3.98542-15.73061-7.63872-15.33734-10.95991,1.17979-4.98178,24.77571-81.70114,24.77571-91.6647,18.87673-6.64237-3.93264-9.96356-15.33734-9.96356-34.21406l-.26458-34.47533l6.52225-8.09658-6.64387-7.75118-.14206-18.5103l8.03546-9.97505-8.1853-9.54952-.13857-18.05588l6.44957-8.00636-6.56984-7.66481-.14342-18.68688l7.96279-9.88484-8.11128-9.46316-.16613-21.64693l7.65264-9.49982-7.79534-9.09456-.11001-14.33441c20.07789-41.55175,36.35727-64.25529,48.83813-68.11061c23.33378-18.31276,28.03108-33.03318,32.42288-40.6604c2.92787-5.08482.97596-9.70738-5.85573-13.86768c5.85573.46226,11.90666-1.04006,18.15277-4.50699s6.5389-12.8276.87836-28.08204l.00001-.00003Zm48.41901,25.42126c10.35536-1.43157,12.867,7.62404,16.75588,11.73627c9.08551,9.60732,8.8999,23.86734,13.45616,41.17354c2.67162,22.14452,3.93188,87.81213,6.55314,111.40344c9.1744,39.31886,18.22081,92.89238-4.5229,91.96135-23.25484,8.59746-36.06697-1.58175-37.40279-7.90876s-7.82783-37.23225-10.49946-65.70379-10.58985-69.69657-3.09657-82.51294c4.99552-8.54425,11.24768-41.92729,18.75651-100.14913l.00003.00002ZM255,263.65163v-2.23108l.01696.02106L255,263.65163Zm0-20.61813v-15.07812c.08981.18543.1797.37124.26967.55743l-.11001,14.33441L255,243.0335Z" transform="translate(.500263-6.251032)" filter="url(#ek4iJF3opGS3-filter)" fill="url(#ek4iJF3opGS3-fill)" stroke="#000" stroke-width="4"/></svg>
