<svg id="eSLtFh6DBrV1" xmlns="http://www.w3.org/2000/svg" xmlns:xlink="http://www.w3.org/1999/xlink" viewBox="0 0 512 512" shape-rendering="geometricPrecision" text-rendering="geometricPrecision"><defs><filter id="eSLtFh6DBrV3-filter" x="-150%" width="400%" y="-150%" height="400%"><feGaussianBlur id="eSLtFh6DBrV3-filter-drop-shadow-0-blur" in="SourceAlpha" stdDeviation="12,12"/><feOffset id="eSLtFh6DBrV3-filter-drop-shadow-0-offset" dx="0" dy="0" result="tmp"/><feFlood id="eSLtFh6DBrV3-filter-drop-shadow-0-flood" flood-color="#000"/><feComposite id="eSLtFh6DBrV3-filter-drop-shadow-0-composite" operator="in" in2="tmp"/><feMerge id="eSLtFh6DBrV3-filter-drop-shadow-0-merge" result="result"><feMergeNode id="eSLtFh6DBrV3-filter-drop-shadow-0-merge-node-1"/><feMergeNode id="eSLtFh6DBrV3-filter-drop-shadow-0-merge-node-2" in="SourceGraphic"/></feMerge></filter><radialGradient id="eSLtFh6DBrV3-fill" cx="0" cy="0" r="0.5" spreadMethod="pad" gradientUnits="objectBoundingBox" gradientTransform="translate(0.5 0.5)"><stop id="eSLtFh6DBrV3-fill-0" offset="0%" stop-color="#e7e7e6"/><stop id="eSLtFh6DBrV3-fill-1" offset="100%" stop-color="#4d3232"/></radialGradient><filter id="eSLtFh6DBrV5-filter" x="-150%" width="400%" y="-150%" height="400%"><feGaussianBlur id="eSLtFh6DBrV5-filter-drop-shadow-0-blur" in="SourceAlpha" stdDeviation="12,12"/><feOffset id="eSLtFh6DBrV5-filter-drop-shadow-0-offset" dx="0" dy="0" result="tmp"/><feFlood id="eSLtFh6DBrV5-filter-drop-shadow-0-flood" flood-color="#000"/><feComposite id="eSLtFh6DBrV5-filter-drop-shadow-0-composite" operator="in" in2="tmp"/><feMerge id="eSLtFh6DBrV5-filter-drop-shadow-0-merge" result="result"><feMergeNode id="eSLtFh6DBrV5-filter-drop-shadow-0-merge-node-1"/><feMergeNode id="eSLtFh6DBrV5-filter-drop-shadow-0-merge-node-2" in="SourceGraphic"/></feMerge></filter><radialGradient id="eSLtFh6DBrV5-fill" cx="0" cy="0" r="0.5" spreadMethod="pad" gradientUnits="objectBoundingBox" gradientTransform="translate(0.5 0.5)"><stop id="eSLtFh6DBrV5-fill-0" offset="0%" stop-color="#e7e7e6"/><stop id="eSLtFh6DBrV5-fill-1" offset="100%" stop-color="#4d3232"/></radialGradient></defs><g transform="matrix(.981846 0 0 1-1034.780405 27.000004)"><path d="M712.05516,35.5408v77.38368h-235.46573v-77.38368h235.46573Zm0,154.76736v77.38368h-235.46573v-77.38368h235.46573Zm0,154.76736v77.38368h-235.46573v-77.38368h235.46573Z" transform="matrix(.694971 0 0 1 775.572358 0)" filter="url(#eSLtFh6DBrV3-filter)" fill="url(#eSLtFh6DBrV3-fill)" stroke="#000" stroke-width="4"/></g><g transform="matrix(.981846 0 0 1-786.302826 27.000004)"><path d="M712.05516,35.5408v77.38368h-235.46573v-77.38368h235.46573Zm0,154.76736v77.38368h-235.46573v-77.38368h235.46573Zm0,154.76736v77.38368h-235.46573v-77.38368h235.46573Z" transform="matrix(.694971 0 0 1 775.572358 0)" filter="url(#eSLtFh6DBrV5-filter)" fill="url(#eSLtFh6DBrV5-fill)" stroke="#000" stroke-width="4"/></g></svg>
