<svg xmlns="http://www.w3.org/2000/svg" viewBox="0 0 512 512" style="height: 512px; width: 512px;"><defs><filter id="shadow-1" height="300%" width="300%" x="-100%" y="-100%"><feFlood flood-color="rgba(0, 0, 0, 1)" result="flood"></feFlood><feComposite in="flood" in2="SourceGraphic" operator="atop" result="composite"></feComposite><feGaussianBlur in="composite" stdDeviation="12" result="blur"></feGaussianBlur><feOffset dx="0" dy="0" result="offset"></feOffset><feComposite in="SourceGraphic" in2="offset" operator="over"></feComposite></filter><filter id="shadow-2" height="300%" width="300%" x="-100%" y="-100%"><feFlood flood-color="rgba(0, 0, 0, 1)" result="flood"></feFlood><feComposite in="flood" in2="SourceGraphic" operator="atop" result="composite"></feComposite><feGaussianBlur in="composite" stdDeviation="12" result="blur"></feGaussianBlur><feOffset dx="0" dy="0" result="offset"></feOffset><feComposite in="SourceGraphic" in2="offset" operator="over"></feComposite></filter><filter id="shadow-3" height="300%" width="300%" x="-100%" y="-100%"><feFlood flood-color="rgba(0, 0, 0, 1)" result="flood"></feFlood><feComposite in="flood" in2="SourceGraphic" operator="atop" result="composite"></feComposite><feGaussianBlur in="composite" stdDeviation="12" result="blur"></feGaussianBlur><feOffset dx="0" dy="0" result="offset"></feOffset><feComposite in="SourceGraphic" in2="offset" operator="over"></feComposite></filter><filter id="shadow-4" height="300%" width="300%" x="-100%" y="-100%"><feFlood flood-color="rgba(0, 0, 0, 1)" result="flood"></feFlood><feComposite in="flood" in2="SourceGraphic" operator="atop" result="composite"></feComposite><feGaussianBlur in="composite" stdDeviation="12" result="blur"></feGaussianBlur><feOffset dx="0" dy="0" result="offset"></feOffset><feComposite in="SourceGraphic" in2="offset" operator="over"></feComposite></filter><filter id="shadow-5" height="300%" width="300%" x="-100%" y="-100%"><feFlood flood-color="rgba(0, 0, 0, 1)" result="flood"></feFlood><feComposite in="flood" in2="SourceGraphic" operator="atop" result="composite"></feComposite><feGaussianBlur in="composite" stdDeviation="12" result="blur"></feGaussianBlur><feOffset dx="0" dy="0" result="offset"></feOffset><feComposite in="SourceGraphic" in2="offset" operator="over"></feComposite></filter><filter id="shadow-6" height="300%" width="300%" x="-100%" y="-100%"><feFlood flood-color="rgba(0, 0, 0, 1)" result="flood"></feFlood><feComposite in="flood" in2="SourceGraphic" operator="atop" result="composite"></feComposite><feGaussianBlur in="composite" stdDeviation="12" result="blur"></feGaussianBlur><feOffset dx="0" dy="0" result="offset"></feOffset><feComposite in="SourceGraphic" in2="offset" operator="over"></feComposite></filter><filter id="shadow-7" height="300%" width="300%" x="-100%" y="-100%"><feFlood flood-color="rgba(0, 0, 0, 1)" result="flood"></feFlood><feComposite in="flood" in2="SourceGraphic" operator="atop" result="composite"></feComposite><feGaussianBlur in="composite" stdDeviation="12" result="blur"></feGaussianBlur><feOffset dx="0" dy="0" result="offset"></feOffset><feComposite in="SourceGraphic" in2="offset" operator="over"></feComposite></filter><filter id="shadow-8" height="300%" width="300%" x="-100%" y="-100%"><feFlood flood-color="rgba(0, 0, 0, 1)" result="flood"></feFlood><feComposite in="flood" in2="SourceGraphic" operator="atop" result="composite"></feComposite><feGaussianBlur in="composite" stdDeviation="12" result="blur"></feGaussianBlur><feOffset dx="0" dy="0" result="offset"></feOffset><feComposite in="SourceGraphic" in2="offset" operator="over"></feComposite></filter><filter id="shadow-9" height="300%" width="300%" x="-100%" y="-100%"><feFlood flood-color="rgba(0, 0, 0, 1)" result="flood"></feFlood><feComposite in="flood" in2="SourceGraphic" operator="atop" result="composite"></feComposite><feGaussianBlur in="composite" stdDeviation="12" result="blur"></feGaussianBlur><feOffset dx="0" dy="0" result="offset"></feOffset><feComposite in="SourceGraphic" in2="offset" operator="over"></feComposite></filter><filter id="shadow-10" height="300%" width="300%" x="-100%" y="-100%"><feFlood flood-color="rgba(0, 0, 0, 1)" result="flood"></feFlood><feComposite in="flood" in2="SourceGraphic" operator="atop" result="composite"></feComposite><feGaussianBlur in="composite" stdDeviation="12" result="blur"></feGaussianBlur><feOffset dx="0" dy="0" result="offset"></feOffset><feComposite in="SourceGraphic" in2="offset" operator="over"></feComposite></filter><radialGradient id="lorc-arrowhead-gradient-1"><stop offset="0%" stop-color="#e7e7e6" stop-opacity="1"></stop><stop offset="100%" stop-color="#4d3232" stop-opacity="1"></stop></radialGradient><radialGradient id="lorc-arrowhead-gradient-2"><stop offset="0%" stop-color="#e7e7e6" stop-opacity="1"></stop><stop offset="100%" stop-color="#4d3232" stop-opacity="1"></stop></radialGradient><radialGradient id="lorc-arrowhead-gradient-3"><stop offset="0%" stop-color="#e7e7e6" stop-opacity="1"></stop><stop offset="100%" stop-color="#4d3232" stop-opacity="1"></stop></radialGradient><radialGradient id="lorc-arrowhead-gradient-4"><stop offset="0%" stop-color="#e7e7e6" stop-opacity="1"></stop><stop offset="100%" stop-color="#4d3232" stop-opacity="1"></stop></radialGradient><radialGradient id="lorc-arrowhead-gradient-5"><stop offset="0%" stop-color="#e7e7e6" stop-opacity="1"></stop><stop offset="100%" stop-color="#4d3232" stop-opacity="1"></stop></radialGradient><radialGradient id="lorc-arrowhead-gradient-6"><stop offset="0%" stop-color="#e7e7e6" stop-opacity="1"></stop><stop offset="100%" stop-color="#4d3232" stop-opacity="1"></stop></radialGradient><radialGradient id="lorc-arrowhead-gradient-7"><stop offset="0%" stop-color="#e7e7e6" stop-opacity="1"></stop><stop offset="100%" stop-color="#4d3232" stop-opacity="1"></stop></radialGradient><radialGradient id="lorc-arrowhead-gradient-8"><stop offset="0%" stop-color="#e7e7e6" stop-opacity="1"></stop><stop offset="100%" stop-color="#4d3232" stop-opacity="1"></stop></radialGradient><radialGradient id="lorc-arrowhead-gradient-9"><stop offset="0%" stop-color="#e7e7e6" stop-opacity="1"></stop><stop offset="100%" stop-color="#4d3232" stop-opacity="1"></stop></radialGradient><radialGradient id="lorc-arrowhead-gradient-10"><stop offset="0%" stop-color="#e7e7e6" stop-opacity="1"></stop><stop offset="100%" stop-color="#4d3232" stop-opacity="1"></stop></radialGradient></defs><g class="" transform="translate(-16,27)" style=""><path d="M34.22 19.844l-12.407.125.062 30 177.97 177.5c4.98-8.957 12.884-16.088 22.405-20.064L34.22 19.844zm205.436 202.75c-14.946 0-26.844 11.93-26.844 26.875s11.898 26.874 26.844 26.874c14.946 0 26.875-11.93 26.875-26.875 0-14.947-11.928-26.876-26.874-26.876zm150.875 15.75c-15.905 11.413-31.637 18.404-47.467 21.5 29.263 39.57 49.927 71.443 62.28 96 6.804 13.523 11.162 24.788 12.907 34.562 1.745 9.774.876 19.417-5.813 25.906-6.688 6.49-16.216 7.208-26.125 5.532-9.908-1.676-21.394-5.88-35.187-12.438-25.368-12.058-58.377-32.294-99.22-60.906-2.646 16.347-8.904 32.21-19.06 47.53 64.07 43.58 163.496 83.783 246.468 88.783 3.614-85.247-42.328-181.024-88.782-246.47zm-105.655 16.562c-2.375 19.668-17.412 35.58-36.656 39.28 3.07 11 4.776 21.816 5.093 32.44 44.728 31.797 80.314 53.785 105.812 65.905 12.888 6.127 23.263 9.684 30.313 10.876 7.05 1.193 9.577-.12 9.968-.5.392-.38 1.644-2.46.438-9.22-1.207-6.756-4.852-16.84-11.188-29.436-12.4-24.647-34.88-59.106-67.5-102.563-11.922-.288-23.968-2.61-36.28-6.78z" fill="url(#lorc-arrowhead-gradient-1)" stroke="#000000" stroke-opacity="1" stroke-width="4" filter="url(#shadow-1)"></path></g></svg>