<svg xmlns="http://www.w3.org/2000/svg" viewBox="0 0 512 512" style="height: 512px; width: 512px;"><defs><filter id="shadow-1" height="300%" width="300%" x="-100%" y="-100%"><feFlood flood-color="rgba(0, 0, 0, 1)" result="flood"></feFlood><feComposite in="flood" in2="SourceGraphic" operator="atop" result="composite"></feComposite><feGaussianBlur in="composite" stdDeviation="12" result="blur"></feGaussianBlur><feOffset dx="0" dy="0" result="offset"></feOffset><feComposite in="SourceGraphic" in2="offset" operator="over"></feComposite></filter><filter id="shadow-2" height="300%" width="300%" x="-100%" y="-100%"><feFlood flood-color="rgba(0, 0, 0, 1)" result="flood"></feFlood><feComposite in="flood" in2="SourceGraphic" operator="atop" result="composite"></feComposite><feGaussianBlur in="composite" stdDeviation="12" result="blur"></feGaussianBlur><feOffset dx="0" dy="0" result="offset"></feOffset><feComposite in="SourceGraphic" in2="offset" operator="over"></feComposite></filter><filter id="shadow-3" height="300%" width="300%" x="-100%" y="-100%"><feFlood flood-color="rgba(0, 0, 0, 1)" result="flood"></feFlood><feComposite in="flood" in2="SourceGraphic" operator="atop" result="composite"></feComposite><feGaussianBlur in="composite" stdDeviation="12" result="blur"></feGaussianBlur><feOffset dx="0" dy="0" result="offset"></feOffset><feComposite in="SourceGraphic" in2="offset" operator="over"></feComposite></filter><filter id="shadow-4" height="300%" width="300%" x="-100%" y="-100%"><feFlood flood-color="rgba(0, 0, 0, 1)" result="flood"></feFlood><feComposite in="flood" in2="SourceGraphic" operator="atop" result="composite"></feComposite><feGaussianBlur in="composite" stdDeviation="12" result="blur"></feGaussianBlur><feOffset dx="0" dy="0" result="offset"></feOffset><feComposite in="SourceGraphic" in2="offset" operator="over"></feComposite></filter><filter id="shadow-5" height="300%" width="300%" x="-100%" y="-100%"><feFlood flood-color="rgba(0, 0, 0, 1)" result="flood"></feFlood><feComposite in="flood" in2="SourceGraphic" operator="atop" result="composite"></feComposite><feGaussianBlur in="composite" stdDeviation="12" result="blur"></feGaussianBlur><feOffset dx="0" dy="0" result="offset"></feOffset><feComposite in="SourceGraphic" in2="offset" operator="over"></feComposite></filter><filter id="shadow-6" height="300%" width="300%" x="-100%" y="-100%"><feFlood flood-color="rgba(0, 0, 0, 1)" result="flood"></feFlood><feComposite in="flood" in2="SourceGraphic" operator="atop" result="composite"></feComposite><feGaussianBlur in="composite" stdDeviation="12" result="blur"></feGaussianBlur><feOffset dx="0" dy="0" result="offset"></feOffset><feComposite in="SourceGraphic" in2="offset" operator="over"></feComposite></filter><filter id="shadow-7" height="300%" width="300%" x="-100%" y="-100%"><feFlood flood-color="rgba(0, 0, 0, 1)" result="flood"></feFlood><feComposite in="flood" in2="SourceGraphic" operator="atop" result="composite"></feComposite><feGaussianBlur in="composite" stdDeviation="12" result="blur"></feGaussianBlur><feOffset dx="0" dy="0" result="offset"></feOffset><feComposite in="SourceGraphic" in2="offset" operator="over"></feComposite></filter><filter id="shadow-8" height="300%" width="300%" x="-100%" y="-100%"><feFlood flood-color="rgba(0, 0, 0, 1)" result="flood"></feFlood><feComposite in="flood" in2="SourceGraphic" operator="atop" result="composite"></feComposite><feGaussianBlur in="composite" stdDeviation="12" result="blur"></feGaussianBlur><feOffset dx="0" dy="0" result="offset"></feOffset><feComposite in="SourceGraphic" in2="offset" operator="over"></feComposite></filter><filter id="shadow-9" height="300%" width="300%" x="-100%" y="-100%"><feFlood flood-color="rgba(0, 0, 0, 1)" result="flood"></feFlood><feComposite in="flood" in2="SourceGraphic" operator="atop" result="composite"></feComposite><feGaussianBlur in="composite" stdDeviation="12" result="blur"></feGaussianBlur><feOffset dx="0" dy="0" result="offset"></feOffset><feComposite in="SourceGraphic" in2="offset" operator="over"></feComposite></filter><filter id="shadow-10" height="300%" width="300%" x="-100%" y="-100%"><feFlood flood-color="rgba(0, 0, 0, 1)" result="flood"></feFlood><feComposite in="flood" in2="SourceGraphic" operator="atop" result="composite"></feComposite><feGaussianBlur in="composite" stdDeviation="12" result="blur"></feGaussianBlur><feOffset dx="0" dy="0" result="offset"></feOffset><feComposite in="SourceGraphic" in2="offset" operator="over"></feComposite></filter><radialGradient id="lorc-cannon-shot-gradient-1"><stop offset="0%" stop-color="#e7e7e6" stop-opacity="1"></stop><stop offset="100%" stop-color="#4d3232" stop-opacity="1"></stop></radialGradient><radialGradient id="lorc-cannon-shot-gradient-2"><stop offset="0%" stop-color="#e7e7e6" stop-opacity="1"></stop><stop offset="100%" stop-color="#4d3232" stop-opacity="1"></stop></radialGradient><radialGradient id="lorc-cannon-shot-gradient-3"><stop offset="0%" stop-color="#e7e7e6" stop-opacity="1"></stop><stop offset="100%" stop-color="#4d3232" stop-opacity="1"></stop></radialGradient><radialGradient id="lorc-cannon-shot-gradient-4"><stop offset="0%" stop-color="#e7e7e6" stop-opacity="1"></stop><stop offset="100%" stop-color="#4d3232" stop-opacity="1"></stop></radialGradient><radialGradient id="lorc-cannon-shot-gradient-5"><stop offset="0%" stop-color="#e7e7e6" stop-opacity="1"></stop><stop offset="100%" stop-color="#4d3232" stop-opacity="1"></stop></radialGradient><radialGradient id="lorc-cannon-shot-gradient-6"><stop offset="0%" stop-color="#e7e7e6" stop-opacity="1"></stop><stop offset="100%" stop-color="#4d3232" stop-opacity="1"></stop></radialGradient><radialGradient id="lorc-cannon-shot-gradient-7"><stop offset="0%" stop-color="#e7e7e6" stop-opacity="1"></stop><stop offset="100%" stop-color="#4d3232" stop-opacity="1"></stop></radialGradient><radialGradient id="lorc-cannon-shot-gradient-8"><stop offset="0%" stop-color="#e7e7e6" stop-opacity="1"></stop><stop offset="100%" stop-color="#4d3232" stop-opacity="1"></stop></radialGradient><radialGradient id="lorc-cannon-shot-gradient-9"><stop offset="0%" stop-color="#e7e7e6" stop-opacity="1"></stop><stop offset="100%" stop-color="#4d3232" stop-opacity="1"></stop></radialGradient><radialGradient id="lorc-cannon-shot-gradient-10"><stop offset="0%" stop-color="#e7e7e6" stop-opacity="1"></stop><stop offset="100%" stop-color="#4d3232" stop-opacity="1"></stop></radialGradient></defs><g class="" transform="translate(-16,27)" style=""><path d="M168.875 11.395l86.455 98.443c2.175-1.122 4.337-2.206 6.47-3.215 14.37-6.805 27.684-11.083 39.76-12.103.75-.064 1.498-.113 2.243-.15L242.69 11.396h-73.815zM18.348 64.145v27.722l.21-.25 128.432 107.3c3.262-3.764 6.643-7.526 10.127-11.276L18.347 64.147zm287.896 48.835c-.982.017-2.017.07-3.11.163-8.734.738-20.327 4.21-33.337 10.37-.564.268-1.146.567-1.715.844l30.996 35.295c1.406-.72 2.808-1.43 4.193-2.1 13.245-6.395 25.504-10.477 36.683-11.554.592-.057 1.183-.1 1.774-.14l-21.385-29.032-.344.344c-2.62-2.62-6.88-4.304-13.754-4.19zm-287.896 2.817V264.15l69.13 47.274c.036-.995.088-1.993.172-2.996 1.02-12.077 5.298-25.392 12.104-39.762 8.213-17.34 20.215-36.21 35.324-55.348l-116.73-97.52zm326.18 48.625c-.875.025-1.802.083-2.784.178-7.853.756-18.432 4.027-30.346 9.78-23.826 11.508-53.028 32.712-80.87 60.554-27.843 27.84-49.048 57.044-60.555 80.87-5.754 11.914-9.025 22.494-9.782 30.346-.755 7.853.795 12.184 3.197 14.586 2.402 2.402 6.735 3.952 14.588 3.196 7.852-.757 18.432-4.028 30.345-9.782 7.81-3.77 16.202-8.6 24.928-14.347-17.195 39.23-28.067 89.333-34.394 153.564 37.517-129.093 80.838-109.43 114.544-6.287-18.62-109.564 99.38-61.623 185.008 5.397-66.417-101.782-124.625-177.518 4.55-188.135-124.058-5.07-140.995-44.53-21.876-102.653-58.372 6.19-105.555 15.9-143.54 32.65 4.806-7.536 8.915-14.8 12.206-21.613 5.754-11.914 9.023-22.494 9.78-30.346.756-7.852-.794-12.183-3.196-14.585-1.8-1.8-4.688-3.122-9.332-3.352-.774-.038-1.596-.046-2.47-.02zm-173.442 35.65c-3.353 3.61-6.6 7.226-9.734 10.842l37.066 30.97c2.84-3.234 5.753-6.464 8.768-9.687l-36.1-32.125zm142.27 1.117c3.84.122 6.953 1.23 9.142 3.42 6.837 6.836 3.118 22.676-8.182 41.52-29.24 17.088-52.02 39.92-69.58 70.706-20.12 12.694-37.26 17.173-44.45 9.984-11.437-11.437 6.648-48.066 40.396-81.814 26.365-26.366 54.49-43.17 70.986-43.81.577-.02 1.14-.024 1.69-.007zm-163.9 24.138c-14.242 18.11-25.428 35.748-32.81 51.338-6.163 13.01-9.634 24.602-10.373 33.336-.738 8.734 1.033 13.87 4.026 16.86l-.1.1 31.152 21.304c.034-1.296.112-2.6.238-3.91 1.076-11.177 5.158-23.437 11.555-36.68 7.777-16.104 19.084-33.65 33.275-51.465l-36.965-30.882z" fill="url(#lorc-cannon-shot-gradient-1)" stroke="#000000" stroke-opacity="1" stroke-width="4" filter="url(#shadow-1)" transform="translate(25.6, 25.6) scale(0.9, 0.9) rotate(-90, 256, 256) skewX(0) skewY(0)"></path></g></svg>