<svg xmlns="http://www.w3.org/2000/svg" viewBox="0 0 512 512" style="height: 512px; width: 512px;"><defs><filter id="shadow-1" height="300%" width="300%" x="-100%" y="-100%"><feFlood flood-color="rgba(0, 0, 0, 1)" result="flood"></feFlood><feComposite in="flood" in2="SourceGraphic" operator="atop" result="composite"></feComposite><feGaussianBlur in="composite" stdDeviation="12" result="blur"></feGaussianBlur><feOffset dx="0" dy="0" result="offset"></feOffset><feComposite in="SourceGraphic" in2="offset" operator="over"></feComposite></filter><filter id="shadow-2" height="300%" width="300%" x="-100%" y="-100%"><feFlood flood-color="rgba(0, 0, 0, 1)" result="flood"></feFlood><feComposite in="flood" in2="SourceGraphic" operator="atop" result="composite"></feComposite><feGaussianBlur in="composite" stdDeviation="12" result="blur"></feGaussianBlur><feOffset dx="0" dy="0" result="offset"></feOffset><feComposite in="SourceGraphic" in2="offset" operator="over"></feComposite></filter><filter id="shadow-3" height="300%" width="300%" x="-100%" y="-100%"><feFlood flood-color="rgba(0, 0, 0, 1)" result="flood"></feFlood><feComposite in="flood" in2="SourceGraphic" operator="atop" result="composite"></feComposite><feGaussianBlur in="composite" stdDeviation="12" result="blur"></feGaussianBlur><feOffset dx="0" dy="0" result="offset"></feOffset><feComposite in="SourceGraphic" in2="offset" operator="over"></feComposite></filter><filter id="shadow-4" height="300%" width="300%" x="-100%" y="-100%"><feFlood flood-color="rgba(0, 0, 0, 1)" result="flood"></feFlood><feComposite in="flood" in2="SourceGraphic" operator="atop" result="composite"></feComposite><feGaussianBlur in="composite" stdDeviation="12" result="blur"></feGaussianBlur><feOffset dx="0" dy="0" result="offset"></feOffset><feComposite in="SourceGraphic" in2="offset" operator="over"></feComposite></filter><filter id="shadow-5" height="300%" width="300%" x="-100%" y="-100%"><feFlood flood-color="rgba(0, 0, 0, 1)" result="flood"></feFlood><feComposite in="flood" in2="SourceGraphic" operator="atop" result="composite"></feComposite><feGaussianBlur in="composite" stdDeviation="12" result="blur"></feGaussianBlur><feOffset dx="0" dy="0" result="offset"></feOffset><feComposite in="SourceGraphic" in2="offset" operator="over"></feComposite></filter><filter id="shadow-6" height="300%" width="300%" x="-100%" y="-100%"><feFlood flood-color="rgba(0, 0, 0, 1)" result="flood"></feFlood><feComposite in="flood" in2="SourceGraphic" operator="atop" result="composite"></feComposite><feGaussianBlur in="composite" stdDeviation="12" result="blur"></feGaussianBlur><feOffset dx="0" dy="0" result="offset"></feOffset><feComposite in="SourceGraphic" in2="offset" operator="over"></feComposite></filter><filter id="shadow-7" height="300%" width="300%" x="-100%" y="-100%"><feFlood flood-color="rgba(0, 0, 0, 1)" result="flood"></feFlood><feComposite in="flood" in2="SourceGraphic" operator="atop" result="composite"></feComposite><feGaussianBlur in="composite" stdDeviation="12" result="blur"></feGaussianBlur><feOffset dx="0" dy="0" result="offset"></feOffset><feComposite in="SourceGraphic" in2="offset" operator="over"></feComposite></filter><filter id="shadow-8" height="300%" width="300%" x="-100%" y="-100%"><feFlood flood-color="rgba(0, 0, 0, 1)" result="flood"></feFlood><feComposite in="flood" in2="SourceGraphic" operator="atop" result="composite"></feComposite><feGaussianBlur in="composite" stdDeviation="12" result="blur"></feGaussianBlur><feOffset dx="0" dy="0" result="offset"></feOffset><feComposite in="SourceGraphic" in2="offset" operator="over"></feComposite></filter><filter id="shadow-9" height="300%" width="300%" x="-100%" y="-100%"><feFlood flood-color="rgba(0, 0, 0, 1)" result="flood"></feFlood><feComposite in="flood" in2="SourceGraphic" operator="atop" result="composite"></feComposite><feGaussianBlur in="composite" stdDeviation="12" result="blur"></feGaussianBlur><feOffset dx="0" dy="0" result="offset"></feOffset><feComposite in="SourceGraphic" in2="offset" operator="over"></feComposite></filter><filter id="shadow-10" height="300%" width="300%" x="-100%" y="-100%"><feFlood flood-color="rgba(0, 0, 0, 1)" result="flood"></feFlood><feComposite in="flood" in2="SourceGraphic" operator="atop" result="composite"></feComposite><feGaussianBlur in="composite" stdDeviation="12" result="blur"></feGaussianBlur><feOffset dx="0" dy="0" result="offset"></feOffset><feComposite in="SourceGraphic" in2="offset" operator="over"></feComposite></filter><radialGradient id="delapouite-spiked-shield-gradient-1"><stop offset="0%" stop-color="#e7e7e6" stop-opacity="1"></stop><stop offset="100%" stop-color="#4d3232" stop-opacity="1"></stop></radialGradient><radialGradient id="delapouite-spiked-shield-gradient-2"><stop offset="0%" stop-color="#e7e7e6" stop-opacity="1"></stop><stop offset="100%" stop-color="#4d3232" stop-opacity="1"></stop></radialGradient><radialGradient id="delapouite-spiked-shield-gradient-3"><stop offset="0%" stop-color="#e7e7e6" stop-opacity="1"></stop><stop offset="100%" stop-color="#4d3232" stop-opacity="1"></stop></radialGradient><radialGradient id="delapouite-spiked-shield-gradient-4"><stop offset="0%" stop-color="#e7e7e6" stop-opacity="1"></stop><stop offset="100%" stop-color="#4d3232" stop-opacity="1"></stop></radialGradient><radialGradient id="delapouite-spiked-shield-gradient-5"><stop offset="0%" stop-color="#e7e7e6" stop-opacity="1"></stop><stop offset="100%" stop-color="#4d3232" stop-opacity="1"></stop></radialGradient><radialGradient id="delapouite-spiked-shield-gradient-6"><stop offset="0%" stop-color="#e7e7e6" stop-opacity="1"></stop><stop offset="100%" stop-color="#4d3232" stop-opacity="1"></stop></radialGradient><radialGradient id="delapouite-spiked-shield-gradient-7"><stop offset="0%" stop-color="#e7e7e6" stop-opacity="1"></stop><stop offset="100%" stop-color="#4d3232" stop-opacity="1"></stop></radialGradient><radialGradient id="delapouite-spiked-shield-gradient-8"><stop offset="0%" stop-color="#e7e7e6" stop-opacity="1"></stop><stop offset="100%" stop-color="#4d3232" stop-opacity="1"></stop></radialGradient><radialGradient id="delapouite-spiked-shield-gradient-9"><stop offset="0%" stop-color="#e7e7e6" stop-opacity="1"></stop><stop offset="100%" stop-color="#4d3232" stop-opacity="1"></stop></radialGradient><radialGradient id="delapouite-spiked-shield-gradient-10"><stop offset="0%" stop-color="#e7e7e6" stop-opacity="1"></stop><stop offset="100%" stop-color="#4d3232" stop-opacity="1"></stop></radialGradient></defs><g class="" transform="translate(-16,27)" style=""><path d="m270.4 22.37-4.1 126.43-.1.4c-3.5 25.3 7.1 34.5 17.4 37.1 5.2 1.2 10.5.4 14.2-1.8 3.4-2.1 5.7-5 6.3-10.1L270.4 22.37zM421 40.09l-45.5 38.48 25.1 28.73L421 40.09zM164.5 73.95l-39.3 44.95 20.9 11.5 29.8-32.85 2.7-2.95H250l.7-20.65h-86.2zm135.8 0 4.5 20.65h28.7l92.4 102-19.5 37.6 17 17 28.8-57.4L347.5 73.95h-47.2zM67.73 108 151 208.9c25.1 28.1 44.1-30.6 37.5-34.8L67.73 108zm118.87 4.6-24.3 26.7 35.3 19.3.2.1c38.2 23.1-22.3 104.8-60.3 62.2l-.1-.1-23.3-28.3-6.3 6.9 40 77.3 2.6-6.8.2-.4.2-.5c5.7-11.3 17-16.9 28.1-17.2 1.6-.1 3.2 0 4.8.2 12.5 1.3 24.8 7.8 34.7 17.3 9.9 9.5 17.5 22.3 18.6 36.9 1.2 14.6-4.9 30.5-19.5 43.9l-.3.2-22.3 17.1 17.7 34.2h61.5l-21.8-67.4-.3-1-.1-1c-2.3-26.4 18.7-38.4 39.8-38.7 21.1-.3 42.2 11.3 40.1 32v-.2l-1.3 16.2 27.7-53.4c-13.9-5.7-22.9-14.6-26.1-24.9-3.6-11.2-.3-22.5 5.7-31.3 6.1-8.7 15-15.4 25.3-18.1 2.6-.7 5.3-1.1 8-1.1 7.7-.1 15.6 2.4 21.8 8.2l11.2-21.5-78.6-86.8h-16.7l13.5 60.8-.1 1.3c-.8 11.2-7 20.3-15.2 25.2-8.2 5-18.2 6.2-27.7 3.8-18.9-4.7-35-25.1-31-56.1l1.1-35h-62.8zm61.7 35v.1l.1-.9c0 .3-.1.5-.1.8zM88.25 161.2 59.7 193.8l68 135.9 11.6-30.4-53.21-102.7 16.41-18.2-14.25-17.2zm283.25 69.3c-1.2.1-2.5.3-3.8.7-5.5 1.4-11.5 5.7-15.1 11-3.7 5.3-4.9 10.8-3.4 15.6 1.5 4.7 6 10.2 18.3 14.6l66.4 14.6-52.3-52v-.1l-.1-.1c-2.8-2.9-5.6-4.2-8.7-4.3h-1.3zM178 269.7h-1.2c-4.4.4-7.4 2.5-9.8 7.3l-47.7 125.6 86.2-66c11.3-10.4 14.3-19.9 13.6-29-.8-9.1-5.9-18.3-13.2-25.3-7.3-7.1-16.8-11.7-24.1-12.4-1.3-.1-2.6-.2-3.8-.2zm-96.65 7.6-54.2 25.2 74.25 14.9-20.05-40.1zm294.75 15.4L327 387.6l-5.2 67.1L400 298l-23.9-5.3zm-89.3 17.9c-9.7 0-17.9 4.8-16.9 19.3l35 108.4 8.9-114.5v-.1c.6-5-14.4-13.1-27-13.1zm97.5 59.4-17.7 35.4 45.9 33.5-28.2-68.9zm-204 8.6L160 394.2l37.9 75.8h98.3l-16.3-50.4h-78.3l-21.3-41z" fill="url(#delapouite-spiked-shield-gradient-1)" stroke="#000000" stroke-opacity="1" stroke-width="4" transform="translate(25.6, 25.6) scale(0.9, 0.9) rotate(0, 256, 256) skewX(0) skewY(0)" filter="url(#shadow-1)"></path></g></svg>